<?xml version="1.0" encoding="utf-8"?>
<!-- Generator: Adobe Illustrator 19.0.0, SVG Export Plug-In . SVG Version: 6.00 Build 0)  -->
<svg version="1.1" id="Layer_1" xmlns="http://www.w3.org/2000/svg" xmlns:xlink="http://www.w3.org/1999/xlink" x="0px" y="0px"
	 viewBox="0 0 500 271" style="enable-background:new 0 0 500 271;" xml:space="preserve">
<style type="text/css">
	.st0{fill:#010101;}
	.st1{font-family:'Roboto-Medium';}
	.st2{font-size:48.8054px;}
</style>
<g id="XMLID_2_">
	<path id="XMLID_27_" class="st0" d="M155.6,212.2c-16.4,0-29.7,12.4-29.7,27.6c0,7.2,4.3,11.5,11.4,11.5c3.3,0,6.9-0.8,10.3-1.6
		c2.9-0.7,5.9-1.4,7.9-1.4c1.8,0,4.6,0.7,7.4,1.3c3.6,0.8,7.3,1.7,10.7,1.7c7.3,0,11.6-4.3,11.6-11.5
		C185.2,224.6,171.9,212.2,155.6,212.2z M175.5,241.6c0,0-0.4,0.3-1.8,0.3c-2.3,0-5.5-0.7-8.5-1.5c-3.4-0.8-6.6-1.5-9.5-1.5
		c-3.1,0-6.7,0.8-10,1.6c-3,0.7-6,1.4-8.2,1.4c-1.2,0-1.6-0.2-1.6-0.2c0,0-0.3-0.5-0.3-1.8c0-10,9.1-18.1,20.2-18.1
		c11.1,0,20.2,8.1,20.2,18.1C175.7,241,175.5,241.5,175.5,241.6z"/>
	<path id="XMLID_24_" class="st0" d="M140.8,203.2c0-8.3-5.8-15.1-12.9-15.1c-7.1,0-12.9,6.8-12.9,15.1c0,8.3,5.8,15.1,12.9,15.1
		C135,218.3,140.8,211.5,140.8,203.2z M124.5,203.2c0-3.2,1.8-5.7,3.4-5.7c1.6,0,3.4,2.4,3.4,5.7s-1.8,5.7-3.4,5.7
		C126.3,208.8,124.5,206.4,124.5,203.2z"/>
	<path id="XMLID_21_" class="st0" d="M156.4,209c7.1,0,12.9-6.8,12.9-15.1s-5.8-15.1-12.9-15.1c-7.1,0-12.9,6.8-12.9,15.1
		C143.5,202.2,149.3,209,156.4,209z M156.4,188.2c1.6,0,3.4,2.4,3.4,5.7c0,3.2-1.8,5.7-3.4,5.7c-1.6,0-3.4-2.4-3.4-5.7
		C153,190.6,154.8,188.2,156.4,188.2z"/>
	<path id="XMLID_18_" class="st0" d="M184.9,188.1c-7.1,0-12.9,6.8-12.9,15.1c0,8.3,5.8,15.1,12.9,15.1s12.9-6.8,12.9-15.1
		C197.8,194.9,192.1,188.1,184.9,188.1z M184.9,208.8c-1.6,0-3.4-2.4-3.4-5.7s1.8-5.7,3.4-5.7c1.6,0,3.4,2.4,3.4,5.7
		C188.4,206.4,186.6,208.8,184.9,208.8z"/>
	<path id="XMLID_12_" class="st0" d="M196.3,73.6h-5V59.9c0-6.3-5.1-11.4-11.4-11.4h-18.7V35.1h7.8c6.3,0,11.4-5.1,11.4-11.4V11.4
		C180.4,5.1,175.3,0,169,0h-46.8l-1,0c-6.7,0-16.8,0-25.3,6.3c-9.7,7.2-14.4,20.2-14.4,39.9c0,2.6,2.1,4.7,4.7,4.7h16.5
		c2.6,0,4.7-2.1,4.7-4.7c0-4.7,1.6-7.7,5.1-9.5c3.1-1.6,6.4-1.6,6.6-1.6c0,0,0.1,0,0.1,0h32.5v13.4H133c-6.3,0-11.4,5.1-11.4,11.4
		v13.7h-5c-18.9,0-34.3,15.4-34.3,34.3v158.4c0,2.6,2.1,4.7,4.7,4.7h138.8c2.6,0,4.7-2.1,4.7-4.7V107.9
		C230.6,89,215.2,73.6,196.3,73.6z M119.1,25.6c-6.6,0-18.3,3.4-20.8,15.8h-7.4c1.5-32,18-32,30.2-32l47.9,0c1.1,0,2,0.9,2,2v12.3
		c0,1.1-0.9,2-2,2L119.1,25.6L119.1,25.6z M131,59.9c0-1.1,0.9-2,2-2h46.8c1.1,0,2,0.9,2,2v13.7H131V59.9z M116.6,83.1h79.7
		c13.7,0,24.8,11.1,24.8,24.8v13c-9.7-0.7-34.5-0.2-56.1,18.6c-13.1,11.4-28.3,16.8-42.9,15.1c-12.2-1.4-23-7.8-30.4-18.1v-28.5
		C91.7,94.2,102.9,83.1,116.6,83.1z M91.7,261.5V150.6c8.2,7.4,18.3,12.1,29.3,13.4c2.1,0.2,4.2,0.4,6.4,0.4
		c15.2,0,30.5-6.2,43.8-17.7c19.4-16.9,42.3-16.8,49.9-16.2v131.1H91.7L91.7,261.5z"/>
	<path id="XMLID_9_" class="st0" d="M39,90.9c9.1,0,16.4-7.4,16.4-16.4S48.1,58,39,58s-16.4,7.4-16.4,16.4
		C22.6,83.5,30,90.9,39,90.9z M39,67.5c3.8,0,7,3.1,7,7c0,3.8-3.1,7-7,7s-7-3.1-7-7C32.1,70.6,35.2,67.5,39,67.5z"/>
	<path id="XMLID_6_" class="st0" d="M43.2,133.5c-15.5,0-28.2,12.6-28.2,28.2s12.6,28.2,28.2,28.2s28.2-12.6,28.2-28.2
		S58.8,133.5,43.2,133.5z M43.2,180.4c-10.3,0-18.7-8.4-18.7-18.7c0-10.3,8.4-18.7,18.7-18.7s18.7,8.4,18.7,18.7
		S53.5,180.4,43.2,180.4z"/>
	<path id="XMLID_3_" class="st0" d="M20.1,216.6c-8.8,0-15.9,7.1-15.9,15.9s7.1,15.9,15.9,15.9S36,241.3,36,232.5
		S28.8,216.6,20.1,216.6z M20.1,238.9c-3.5,0-6.4-2.9-6.4-6.4s2.9-6.4,6.4-6.4s6.4,2.9,6.4,6.4S23.6,238.9,20.1,238.9z"/>
</g>
<text id="XMLID_1_" transform="matrix(1 0 0 1 240.0002 154.8197)"><tspan x="0" y="0" class="st1 st2">Estética y</tspan><tspan x="0" y="58.6" class="st1 st2">Peluquería</tspan></text>
</svg>
