<?xml version="1.0" encoding="utf-8"?>
<!-- Generator: Adobe Illustrator 19.0.0, SVG Export Plug-In . SVG Version: 6.00 Build 0)  -->
<svg version="1.1" xmlns="http://www.w3.org/2000/svg" xmlns:xlink="http://www.w3.org/1999/xlink" x="0px" y="0px"
	 viewBox="0 0 582.3 271" style="enable-background:new 0 0 582.3 271;" xml:space="preserve">
<style type="text/css">
	.st0{display:none;}
	.st1{display:inline;}
	.st2{fill:#010101;}
	.st3{font-family:'Roboto-Medium';}
	.st4{font-size:48.8054px;}
	.st5{fill:#040404;}
	.st6{font-size:42px;}
	.st7{font-family:'Haettenschweiler';}
	.st8{display:inline;fill:#010101;}
	.st9{font-size:45px;}
	.st10{display:inline;fill:none;stroke:#010101;stroke-width:9;stroke-miterlimit:10;}
	.st11{font-size:49px;}
	.st12{font-size:43px;}
	.st13{font-size:48px;}
</style>
<g id="Layer_1" class="st0">
	<g id="XMLID_2_" class="st1">
		<path id="XMLID_27_" class="st2" d="M155.6,212.2c-16.4,0-29.7,12.4-29.7,27.6c0,7.2,4.3,11.5,11.4,11.5c3.3,0,6.9-0.8,10.3-1.6
			c2.9-0.7,5.9-1.4,7.9-1.4c1.8,0,4.6,0.7,7.4,1.3c3.6,0.8,7.3,1.7,10.7,1.7c7.3,0,11.6-4.3,11.6-11.5
			C185.2,224.6,171.9,212.2,155.6,212.2z M175.5,241.6c0,0-0.4,0.3-1.8,0.3c-2.3,0-5.5-0.7-8.5-1.5c-3.4-0.8-6.6-1.5-9.5-1.5
			c-3.1,0-6.7,0.8-10,1.6c-3,0.7-6,1.4-8.2,1.4c-1.2,0-1.6-0.2-1.6-0.2c0,0-0.3-0.5-0.3-1.8c0-10,9.1-18.1,20.2-18.1
			c11.1,0,20.2,8.1,20.2,18.1C175.7,241,175.5,241.5,175.5,241.6z"/>
		<path id="XMLID_24_" class="st2" d="M140.8,203.2c0-8.3-5.8-15.1-12.9-15.1c-7.1,0-12.9,6.8-12.9,15.1c0,8.3,5.8,15.1,12.9,15.1
			C135,218.3,140.8,211.5,140.8,203.2z M124.5,203.2c0-3.2,1.8-5.7,3.4-5.7c1.6,0,3.4,2.4,3.4,5.7s-1.8,5.7-3.4,5.7
			C126.3,208.8,124.5,206.4,124.5,203.2z"/>
		<path id="XMLID_21_" class="st2" d="M156.4,209c7.1,0,12.9-6.8,12.9-15.1s-5.8-15.1-12.9-15.1c-7.1,0-12.9,6.8-12.9,15.1
			C143.5,202.2,149.3,209,156.4,209z M156.4,188.2c1.6,0,3.4,2.4,3.4,5.7c0,3.2-1.8,5.7-3.4,5.7c-1.6,0-3.4-2.4-3.4-5.7
			C153,190.6,154.8,188.2,156.4,188.2z"/>
		<path id="XMLID_18_" class="st2" d="M184.9,188.1c-7.1,0-12.9,6.8-12.9,15.1c0,8.3,5.8,15.1,12.9,15.1s12.9-6.8,12.9-15.1
			C197.8,194.9,192.1,188.1,184.9,188.1z M184.9,208.8c-1.6,0-3.4-2.4-3.4-5.7s1.8-5.7,3.4-5.7c1.6,0,3.4,2.4,3.4,5.7
			C188.4,206.4,186.6,208.8,184.9,208.8z"/>
		<path id="XMLID_12_" class="st2" d="M196.3,73.6h-5V59.9c0-6.3-5.1-11.4-11.4-11.4h-18.7V35.1h7.8c6.3,0,11.4-5.1,11.4-11.4V11.4
			C180.4,5.1,175.3,0,169,0h-46.8l-1,0c-6.7,0-16.8,0-25.3,6.3c-9.7,7.2-14.4,20.2-14.4,39.9c0,2.6,2.1,4.7,4.7,4.7h16.5
			c2.6,0,4.7-2.1,4.7-4.7c0-4.7,1.6-7.7,5.1-9.5c3.1-1.6,6.4-1.6,6.6-1.6c0,0,0.1,0,0.1,0h32.5v13.4H133c-6.3,0-11.4,5.1-11.4,11.4
			v13.7h-5c-18.9,0-34.3,15.4-34.3,34.3v158.4c0,2.6,2.1,4.7,4.7,4.7h138.8c2.6,0,4.7-2.1,4.7-4.7V107.9
			C230.6,89,215.2,73.6,196.3,73.6z M119.1,25.6c-6.6,0-18.3,3.4-20.8,15.8h-7.4c1.5-32,18-32,30.2-32l47.9,0c1.1,0,2,0.9,2,2v12.3
			c0,1.1-0.9,2-2,2L119.1,25.6L119.1,25.6z M131,59.9c0-1.1,0.9-2,2-2h46.8c1.1,0,2,0.9,2,2v13.7H131V59.9z M116.6,83.1h79.7
			c13.7,0,24.8,11.1,24.8,24.8v13c-9.7-0.7-34.5-0.2-56.1,18.6c-13.1,11.4-28.3,16.8-42.9,15.1c-12.2-1.4-23-7.8-30.4-18.1v-28.5
			C91.7,94.2,102.9,83.1,116.6,83.1z M91.7,261.5V150.6c8.2,7.4,18.3,12.1,29.3,13.4c2.1,0.2,4.2,0.4,6.4,0.4
			c15.2,0,30.5-6.2,43.8-17.7c19.4-16.9,42.3-16.8,49.9-16.2v131.1H91.7L91.7,261.5z"/>
		<path id="XMLID_9_" class="st2" d="M39,90.9c9.1,0,16.4-7.4,16.4-16.4S48.1,58,39,58s-16.4,7.4-16.4,16.4
			C22.6,83.5,30,90.9,39,90.9z M39,67.5c3.8,0,7,3.1,7,7c0,3.8-3.1,7-7,7s-7-3.1-7-7C32.1,70.6,35.2,67.5,39,67.5z"/>
		<path id="XMLID_6_" class="st2" d="M43.2,133.5c-15.5,0-28.2,12.6-28.2,28.2s12.6,28.2,28.2,28.2s28.2-12.6,28.2-28.2
			S58.8,133.5,43.2,133.5z M43.2,180.4c-10.3,0-18.7-8.4-18.7-18.7c0-10.3,8.4-18.7,18.7-18.7s18.7,8.4,18.7,18.7
			S53.5,180.4,43.2,180.4z"/>
		<path id="XMLID_3_" class="st2" d="M20.1,216.6c-8.8,0-15.9,7.1-15.9,15.9s7.1,15.9,15.9,15.9S36,241.3,36,232.5
			S28.8,216.6,20.1,216.6z M20.1,238.9c-3.5,0-6.4-2.9-6.4-6.4s2.9-6.4,6.4-6.4s6.4,2.9,6.4,6.4S23.6,238.9,20.1,238.9z"/>
	</g>
	<text id="XMLID_1_" transform="matrix(1 0 0 1 240.0002 154.8197)" class="st1"><tspan x="0" y="0" class="st3 st4">Estética y</tspan><tspan x="0" y="58.6" class="st3 st4">Peluquería</tspan></text>
</g>
<g id="Layer_2" class="st0">
	<g id="XMLID_85_" class="st1">
		<path id="XMLID_96_" class="st2" d="M105.8,140c0,8.4,5.8,15.2,12.9,15.2c7.1,0,12.9-6.8,12.9-15.2c0-8.4-5.8-15.2-12.9-15.2
			C111.6,124.8,105.8,131.6,105.8,140z M123.1,140c0,4-2.3,6.7-4.4,6.7c-2.1,0-4.4-2.8-4.4-6.7c0-4,2.3-6.7,4.4-6.7
			C120.8,133.3,123.1,136.1,123.1,140z"/>
		<path id="XMLID_93_" class="st2" d="M135.9,130.2c0,8.4,5.8,15.2,12.9,15.2c7.1,0,12.9-6.8,12.9-15.2s-5.8-15.2-12.9-15.2
			C141.7,114.9,135.9,121.8,135.9,130.2z M153.2,130.2c0,4-2.3,6.7-4.4,6.7c-2.1,0-4.4-2.8-4.4-6.7c0-4,2.3-6.7,4.4-6.7
			C150.9,123.4,153.2,126.2,153.2,130.2z"/>
		<path id="XMLID_86_" class="st2" d="M237.8,68.4l-47.2-47.2c-1.9-1.9-4.5-3-7.3-3c-2.7,0-5.3,1.1-7.3,3l-5.8,5.8
			c-1.9,1.9-3,4.5-3,7.3s1.1,5.3,3,7.3l20.6,20.6L182,71l-20.6-20.6c-1.9-1.9-4.5-3-7.3-3c-2.7,0-5.3,1.1-7.3,3L63.2,134
			c-1.9,1.9-3,4.5-3,7.3s1.1,5.3,3,7.3l9.3,9.3l-8.9,8.9c-1.9,1.9-3,4.5-3,7.3c0,2.7,1.1,5.3,3,7.3l4.1,4.1L1.2,251.7
			c-1.7,1.7-1.7,4.4,0,6c0.8,0.8,1.9,1.2,3,1.2c1.1,0,2.2-0.4,3-1.2l66.5-66.5l4.1,4.1c1.9,1.9,4.5,3,7.3,3s5.3-1.1,7.3-3l8.9-8.9
			l9.3,9.3c1.9,1.9,4.5,3,7.3,3s5.3-1.1,7.3-3l5.7-5.7c2.8-0.2,5.8-0.9,8.7-1.6c3.1-0.7,6.3-1.5,8.5-1.5c2,0,5,0.7,7.9,1.4
			c3.7,0.9,7.6,1.8,11.1,1.8c7.3,0,11.5-4.2,11.5-11.4c0-15.7-13.7-28.4-30.6-28.4c-16.8,0-30.6,12.7-30.6,28.4c0,4,1.3,7.1,3.6,9
			l-2,2c-0.4,0.4-1,0.5-1.2,0.5c-0.3,0-0.8-0.1-1.2-0.5l-47.2-47.2c-0.7-0.7-0.7-1.8,0-2.5L88,121.3l5.1,5.1c0.8,0.8,1.9,1.2,3,1.2
			s2.2-0.4,3-1.2c1.7-1.7,1.7-4.4,0-6l-5.1-5.1l9.4-9.4l5.1,5.1c0.8,0.8,1.9,1.2,3,1.2c1.1,0,2.2-0.4,3-1.2c1.7-1.7,1.7-4.4,0-6
			l-5.1-5.1l29.3-29.3l49.7,49.7l-5.2,5.2c0,0-0.1,0.1-0.1,0.1c-1.3-0.5-2.7-0.8-4.2-0.8c-7.1,0-12.9,6.8-12.9,15.2
			c0,8.4,5.8,15.2,12.9,15.2c7.1,0,12.9-6.8,12.9-15.2c0-3.3-0.9-6.3-2.4-8.8l19.2-19.2c4-4,4-10.5,0-14.5L188,77l8.8-8.8l20.6,20.6
			c1.9,1.9,4.5,3,7.3,3c2.7,0,5.3-1.1,7.3-3l5.8-5.8C241.8,78.9,241.8,72.4,237.8,68.4z M147.9,158.9c12.2,0,22.1,8.9,22.1,19.9
			c0,2.5-0.4,2.9-3,2.9c-2.5,0-5.9-0.8-9.2-1.6c-3.6-0.8-6.9-1.6-9.9-1.6c-3.2,0-6.9,0.8-10.4,1.7c-3.2,0.7-6.4,1.5-8.8,1.5
			c-1.3,0-2-0.2-2.2-0.4c-0.2-0.2-0.5-1-0.5-2.5C125.9,167.8,135.8,158.9,147.9,158.9z M86.3,189.3c-0.4,0.4-1,0.5-1.2,0.5
			c-0.3,0-0.8-0.1-1.2-0.5l-14.2-14.2c-0.4-0.4-0.5-1-0.5-1.2s0.1-0.8,0.5-1.2l8.9-8.9l16.6,16.6L86.3,189.3z M178.9,146.8
			c-2.1,0-4.4-2.8-4.4-6.7c0-4,2.3-6.7,4.4-6.7s4.4,2.8,4.4,6.7C183.3,144,181,146.8,178.9,146.8z M202.6,106.1l-8.2,8.2l-49.7-49.7
			l8.2-8.2c0.7-0.7,1.8-0.7,2.5,0l47.2,47.2C203.3,104.3,203.3,105.4,202.6,106.1z M231.8,76.9l-5.8,5.8c-0.4,0.4-1,0.5-1.2,0.5
			s-0.8-0.1-1.2-0.5l-47.2-47.2c-0.4-0.4-0.5-1-0.5-1.2c0-0.3,0.1-0.8,0.5-1.2l5.8-5.8c0.4-0.4,1-0.5,1.2-0.5c0.3,0,0.8,0.1,1.2,0.5
			l47.2,47.2C232.5,75.1,232.5,76.2,231.8,76.9z"/>
	</g>
	<text id="XMLID_84_" transform="matrix(1 0 0 1 240.0004 185.2279)" class="st1 st3 st4">Vacunas</text>
</g>
<g id="Layer_3" class="st0">
	<g id="XMLID_100_" class="st1">
		<g id="XMLID_117_">
			<path id="XMLID_118_" class="st5" d="M83.5,130.2c-17.3,0-31.3-18.4-31.3-41s14.1-41,31.3-41c17.3,0,31.3,18.4,31.3,41
				S100.8,130.2,83.5,130.2z M83.5,54.7c-13.7,0-24.9,15.5-24.9,34.5c0,19,11.2,34.5,24.9,34.5c13.7,0,24.9-15.5,24.9-34.5
				C108.5,70.2,97.3,54.7,83.5,54.7z"/>
		</g>
		<g id="XMLID_113_">
			<path id="XMLID_114_" class="st5" d="M165,248.4c-8.5,0-15.8-4.8-23.5-9.9c-4.7-3.1-9.4-6.2-14.7-8.5c-0.8-0.2-3.9-0.5-8.5-0.5
				c-4.2,0-6.4,0.3-6.7,0.4c-5.2,2.2-10.3,5.3-15.2,8.3c-8.4,5.2-15.5,9.6-23.9,9.6c-4.2,0-8.3-1.2-12-3.6
				c-8.8-5.6-13.9-15.4-14.5-27.6c-0.5-11.1,2.9-23,9.7-33.6c0.7-1.1,1.5-2.1,2.3-3c0.3-0.4,0.9-1.1,1-1.3c8-16.5,28-34.1,60-34.1
				l1.2,0c32.5,0.5,52.7,19.1,60,34.9c0.2,0.4,0.7,1.1,1.2,1.8c0.9,1.3,1.7,2.3,2.4,3.5c13.3,23.4,9.7,50.7-8.1,60.8
				C172.4,247.4,168.8,248.4,165,248.4z M118.3,223c4.7,0,9.2,0.4,10.7,0.9c6.1,2.7,11.1,6,16,9.2c7,4.6,13.5,8.9,20,8.9
				c2.7,0,5.3-0.7,7.7-2.1c14.7-8.4,17.3-31.7,5.7-52.1c-0.5-0.9-1.2-1.8-1.9-2.8c-0.8-1.1-1.5-2-1.9-3
				c-6.6-14.1-24.8-30.7-54.3-31.1l-1.2,0c-29,0-47.1,15.8-54.2,30.5c-0.4,0.8-1,1.6-1.9,2.6c-0.6,0.8-1.3,1.5-1.8,2.4
				c-6.1,9.4-9.2,20-8.7,29.8c0.5,10,4.6,18,11.6,22.5c2.7,1.7,5.5,2.6,8.5,2.6c6.5,0,13-4,20.5-8.6c5.2-3.2,10.5-6.4,16.4-8.9
				C111,223.3,114.3,223,118.3,223z"/>
		</g>
		<g id="XMLID_109_">
			<path id="XMLID_110_" class="st5" d="M154.4,130.2c-17.3,0-31.3-18.4-31.3-41s14.1-41,31.3-41c17.3,0,31.3,18.4,31.3,41
				S171.7,130.2,154.4,130.2z M154.4,54.7c-13.7,0-24.9,15.5-24.9,34.5c0,19,11.2,34.5,24.9,34.5c13.7,0,24.9-15.5,24.9-34.5
				C179.3,70.2,168.1,54.7,154.4,54.7z"/>
		</g>
		<g id="XMLID_105_">
			<path id="XMLID_106_" class="st5" d="M208.3,182.3c-16.3,0-29-16.4-29-37.4c0-21,12.8-37.4,29-37.4c16.3,0,29,16.4,29,37.4
				C237.4,165.8,224.6,182.3,208.3,182.3z M208.3,113.8c-12.7,0-22.6,13.6-22.6,31c0,17.4,9.9,31,22.6,31c12.7,0,22.6-13.6,22.6-31
				C231,127.5,221,113.8,208.3,113.8z"/>
		</g>
		<g id="XMLID_101_">
			<path id="XMLID_102_" class="st5" d="M33.7,182.3c-16.3,0-29-16.4-29-37.4c0-21,12.8-37.4,29-37.4c16.3,0,29,16.4,29,37.4
				C62.7,165.8,50,182.3,33.7,182.3z M33.7,113.8c-12.7,0-22.6,13.6-22.6,31c0,17.4,9.9,31,22.6,31c12.7,0,22.6-13.6,22.6-31
				C56.3,127.5,46.4,113.8,33.7,113.8z"/>
		</g>
	</g>
	<text id="XMLID_99_" transform="matrix(1 0 0 1 244.0002 153.8197)" class="st1"><tspan x="0" y="0" class="st3 st6">No hay límite</tspan><tspan x="0" y="50.4" class="st3 st6">de mascotas</tspan></text>
	<text id="XMLID_103_" transform="matrix(1 0 0 1 104.3332 205.2275)" class="st1 st7 st6">#</text>
</g>
<g id="Layer_4" class="st0">
	<text id="XMLID_31_" transform="matrix(1 0 0 1 240.0004 155.2279)" class="st1"><tspan x="0" y="0" class="st3 st4">Correa no</tspan><tspan x="0" y="58.6" class="st3 st4">obligatoria</tspan></text>
	<g id="XMLID_38_" class="st1">
		<circle id="XMLID_45_" class="st2" cx="192" cy="125.1" r="5.1"/>
		<path id="XMLID_48_" class="st2" d="M220.2,132.2c-2.4-1.9-5.9-4.7-6.6-5.9c-0.6-1.1-1.4-3.1-2.2-5c-1.2-3.1-2.5-6.4-4-8.6
			c-3.7-5.4-10.1-10.6-17.2-13.9c-7.3-8.9-19.4-11.9-29.9-7c-9.2,4.3-20.8,14.8-18.7,27.8c-0.5,0.5-0.9,0.9-1.4,1.4
			c-1.6,1.6-3.2,3.3-4.9,5c-9.5-0.6-50.6-5.1-84.7-35.2c-0.2-0.3-0.5-0.6-0.8-0.9C2.9,45.5-23.3-14.5-52.9-70.5
			c-3-5.7-11.6-0.6-8.6,5c28.7,54.3,54.3,112,98,156.1c0.2,0.6,0.6,1.1,1,1.6c31.4,31.6,69.7,40.5,88.4,43c-1.7,1.5-3.1,2.7-3.8,3.2
			c-44.5,26-66.5,58.1-69,100.6c-13-1.1-21.3-6.9-30.1-15.7c-5.2-5.2-13.8-5.2-19,0c-5.2,5.2-5.2,13.8,0,19
			C19.7,258,37.9,266,58,266h73.2c1.3,0,2.6-0.5,3.6-1.5c3.4-3.4,4.4-9.1,2.3-14c-2.2-5.3-7.2-8.5-13.4-8.5h-4.9
			c2.5-3.8,5.1-8.5,6.6-13.6c1.5-3.7,4.5-6.4,7.3-8.3c2.3,18.4,7,40.5,7.3,41.8c0.5,2.3,2.6,4,5,4H161c4.6,0,8.3-2.4,9.9-6.5
			c1.8-4.7,0.3-10.8-3.7-14.4c-1.3-1.2-3-2.3-4.5-3.1c-0.8-13.4-0.8-34,2.3-40l1-2c5.2-10.3,10.2-20,16-44.4
			c3.3,0.5,6.5,0.9,9.2,2.4l1.5,0.8c6,3.2,12.1,6.4,18.9,5.3c6.8-1.1,16.7-9.3,18.6-17.2C231.7,141.3,226.4,137.1,220.2,132.2z
			 M157.1,195.3l-1,2c-5.6,11.1-3.5,44.3-3.2,48.1c0.1,1.8,1.2,3.4,2.9,4.2c1.3,0.6,3.7,2,4.7,2.9c1.2,1.1,1.3,2.9,1.2,3.2
			c0,0-0.2,0.1-0.5,0.1h-12c-2.2-10.9-8-41-7.5-53.5c0.1-3.1,2.1-11.1,3.4-15.4c0.8-2.7-0.8-5.5-3.5-6.3c-2.7-0.8-5.5,0.8-6.3,3.5
			c-0.4,1.3-3.5,12.4-3.8,17.8c-0.1,2.1,0,4.5,0.2,7.2c-1.7,0.9-3.8,2.1-6,3.7c-1.6-5.6-4.9-10.7-9.4-14.2
			c-7.4-5.6-17.1-6.5-27.5-2.4c-2.6,1-3.9,4-2.9,6.6c1,2.6,4,3.9,6.6,2.9c7.1-2.8,13.2-2.4,17.7,1c5.1,3.9,6.9,10.5,6.4,15.1
			c-1.1,10.6-11.5,21.7-11.6,21.8c-1.4,1.5-1.8,3.6-1,5.5c0.8,1.9,2.6,3.1,4.6,3.1h15.3c2,0,3.4,0.8,4,2.3c0.2,0.5,0.3,1,0.3,1.5H58
			c-17.2,0-33-7-46.9-20.9c-1.3-1.3-1.3-3.4,0-4.7c1.3-1.3,3.4-1.3,4.7,0c11.4,11.4,22.9,18.9,42.2,18.9c2.8,0,5-2.2,5.1-5
			c0.9-41.8,20.7-71.8,64.2-97.2c1.8-1,4.3-3.2,7.7-6.4c6.2,14.6,21.7,25.3,33.2,28.6C164.3,181.3,160.9,188,157.1,195.3z
			 M210.1,154.1c-3.4,0.6-7.8-1.8-12.5-4.3l-1.6-0.8c-4.4-2.3-8.8-2.9-12.7-3.5c-6.2-0.9-9.6-1.5-12.5-6.2c-1.5-2.4-4.6-3.1-7-1.6
			c-2.4,1.5-3.1,4.6-1.6,7c2.9,4.6,6.4,7.1,10,8.5c-0.5,2.2-1,4.3-1.5,6.2c-9.1-2.6-24.8-13.4-28-26.7c1.1-1.2,2.3-2.4,3.6-3.6
			c2.2,2.2,5.2,4,8.5,5.1c2.2,0.7,4.3,1,6.4,1c3.5,0,6.9-1,9.7-2.8c5.5-3.7,10.8-12.6,11.3-13.6c1.4-2.4,0.6-5.5-1.8-6.9
			c-2.4-1.4-5.5-0.6-6.9,1.8c-1.5,2.5-5.4,8.4-8.2,10.3c-1.8,1.2-4.6,1.4-7.4,0.6c-2.8-0.9-5-2.6-5.7-4.5c-3.6-9.3,8-17.1,12.4-19.1
			c5.6-2.6,12-1.4,16.4,2.8c0.2,0.2,0.4,0.4,0.6,0.7c2,2.4,3.7,3.2,3.8,3.3c5.6,2.5,10.8,6.5,13.6,10.7c0.9,1.3,2,4.2,3,6.6
			c0.9,2.3,1.8,4.5,2.7,6.2c1.7,3.1,5.3,5.9,9.2,9c2,1.5,5,4,6.3,5.4C218.5,149.3,212.8,153.6,210.1,154.1z"/>
	</g>
</g>
<g id="Layer_6" class="st0">
	<path id="XMLID_44_" class="st8" d="M231.7,147.7c0-28.8-23.4-52.2-52.2-52.2c-10.2,0-20.2,3-28.6,8.6c-2.2-9.6-5.1-18.9-8.6-27.2
		c-9.5-22.3-21.9-34.6-34.9-34.6c-13.1,0-25.5,12.2-34.9,34.4c-3.3,7.8-6.1,16.5-8.3,25.6L51,54.3c-0.5-1.7-2.1-3-3.9-3
		c-1.8,0-3.4,1.2-3.9,3L7.1,186.7c-0.3,1.2-0.1,2.5,0.7,3.5c0.8,1,1.9,1.6,3.2,1.6h32.1v32.1c0,2.2,1.8,4,4,4c2.2,0,4-1.8,4-4v-32.1
		h32.1c1.3,0,2.4-0.6,3.2-1.6c0.6-0.8,0.9-1.8,0.8-2.8c5,2.3,10.4,3.7,16.1,4.2v32.3c0,2.2,1.8,4,4,4s4-1.8,4-4v-32.3
		c10.4-0.9,19.9-5,27.4-11.5c9,11.3,22.4,18.4,36.8,19.5v24.2c0,2.2,1.8,4,4,4c2.2,0,4-1.8,4-4v-24.2
		C210.4,197.6,231.7,175.1,231.7,147.7z M78,183.8H51.1v-6.4l7.1-7.1c1.6-1.6,1.6-4.1,0-5.7c-1.6-1.6-4.1-1.6-5.7,0l-1.4,1.4v-26.4
		c0-2.2-1.8-4-4-4c-2.2,0-4,1.8-4,4v18.4l-5.2-5.2c-1.6-1.6-4.1-1.6-5.7,0c-1.6,1.6-1.6,4.1,0,5.7l10.9,10.9v6.4c0,0,0,0,0,0v8H16.3
		L47.1,70.7l13.6,49.8c-1.1,7.8-1.6,15.6-1.6,23.1c0,15.3,7.1,28.9,18.2,37.7L78,183.8z M111.3,177.4l14.9-14.9
		c1.6-1.6,1.6-4.1,0-5.7c-1.6-1.6-4.1-1.6-5.7,0l-9.2,9.2v-16.7l10.9-10.9c1.6-1.6,1.6-4.1,0-5.7c-1.6-1.6-4.1-1.6-5.7,0l-5.2,5.2
		v-10.4c0-2.2-1.8-4-4-4s-4,1.8-4,4v20.1c0,0,0,0,0,0v10.4l-9.2-9.2c-1.6-1.6-4.1-1.6-5.7,0c-1.6,1.6-1.6,4.1,0,5.7l14.9,14.9v6.4
		c0,0,0,0,0,0v7.8c-20.3-2-36.2-19.2-36.2-40c0-21.3,4.7-45.1,12.6-63.7c8-18.8,18-29.5,27.6-29.5c9.5,0,19.5,10.8,27.6,29.7
		c7.9,18.6,12.6,42.3,12.6,63.5c0,20.8-15.9,38-36.2,40V177.4z M183.5,191.6v-6.2l14.9-14.9c1.6-1.6,1.6-4.1,0-5.7
		c-1.6-1.6-4.1-1.6-5.7,0l-9.2,9.2v-26.4c0-2.2-1.8-4-4-4c-2.2,0-4,1.8-4,4v18.4l-9.2-9.2c-1.6-1.6-4.1-1.6-5.7,0
		c-1.6,1.6-1.6,4.1,0,5.7l14.9,14.9v6.4c0,0,0,0,0,0v7.8c-12.3-1.1-23.6-7.4-31.1-17.3c6.9-8.4,11.1-19.1,11.1-30.8
		c0-10-1-20.6-2.9-30.9c7.7-5.9,17.2-9.1,26.9-9.1c24.3,0,44.1,19.8,44.1,44.1C223.7,170.7,206,189.6,183.5,191.6z"/>
	<g id="XMLID_50_" class="st1">
		<g id="XMLID_112_">
			<path id="XMLID_120_" class="st2" d="M230.4,239.1c-15.5-5.7-31.9-9.6-48.1-12.7c-35.7-7-72.7-9.7-108.9-5.3
				c-23.9,2.9-47,8.9-69,18.6c-5.9,2.6-0.8,11.2,5,8.6c63.1-27.9,137.8-23.1,202.8-4.4c5.2,1.5,10.4,3,15.5,4.9
				C233.8,250.9,236.4,241.3,230.4,239.1L230.4,239.1z"/>
		</g>
	</g>
	<text id="XMLID_43_" transform="matrix(1 0 0 1 242.0004 112.2279)" class="st1"><tspan x="0" y="0" class="st3 st9">Areas</tspan><tspan x="0" y="54" class="st3 st9">comunes no</tspan><tspan x="0" y="108" class="st3 st9">pet-friendly</tspan></text>
</g>
<g id="Layer_7" class="st0">
	<g id="XMLID_53_" class="st1">
		<path id="XMLID_107_" class="st2" d="M224.1,135.5L132,43.6c-8.5-8.5-22.3-8.5-30.9,0L9,135.5c-4.1,4.1-6.4,9.7-6.4,15.4
			s2.3,11.3,6.4,15.4c1.4,1.4,3.5,1.4,4.8,0l20.7-20.7v93c0,1.8,1.6,3.5,3.5,3.5h156.6c1.8,0,3.5-1.6,3.5-3.5v-93l20.7,20.7
			c0.7,0.7,1.6,0.9,2.5,0.9s1.8-0.2,2.5-0.9c4.1-4.1,6.4-9.7,6.4-15.4C230.3,145.2,228,139.7,224.1,135.5z M150,195.7H143
			c-2.8,0-4.8-2.3-4.8-4.8c0-0.2,0-0.5,0-0.7c-0.2-2.5-1.2-4.8-2.5-6.7c0-0.2-0.2-0.5-0.2-0.5l-20.5-28.1c-0.9-1.2-2.5-1.6-3.9-1.2
			c-1.4,0.5-2.3,1.8-2.3,3.2v6.2l-7.1-7.8c-0.9-0.9-2.5-1.4-3.7-0.9c-1.4,0.5-2.1,1.8-2.3,3.2l-0.2,27.4c-4.4,6.4-7.6,15.9-5.8,28.6
			c-1.6,0.7-3.7,1.6-6.2,2.8v-38.2c0-18.4,15-33.4,33.4-33.4s33.4,15,33.4,33.4v17.5H150z M108.3,172.9c-1.6,0.9-3.9,2.3-6.2,4.4
			v-11.1L108.3,172.9z M83.2,224c6.4-3.5,11.1-4.8,11.1-4.8c1.6-0.5,2.8-2.3,2.3-3.9c-5.5-27.4,15.7-36.6,16.6-36.9
			c1.4-0.5,2.1-1.8,2.1-3.2v-7.8l8.5,11.7h-3.5c-1.8,0-3.5,1.6-3.5,3.5c0,1.8,1.6,3.5,3.5,3.5h6c2.3,0,4.4,1.6,4.8,3.9h-4.6
			c-1.8,0-3.5,1.6-3.5,3.5c0,1.8,1.6,3.5,3.5,3.5h6.2c2.1,3.5,5.8,6,10.1,6h16.6v6.7c0,3.9-0.9,13.4-9.9,13.4h-19.8
			c-1.8,0-3.5,1.6-3.5,3.5c0,1.8,1.6,3.5,3.5,3.5h9.2c0,1.4-0.2,3.2-0.7,6h-55V224z M149.7,229.3C150,229.3,150,229.3,149.7,229.3
			l0.2,6h-4.4c0.5-2.5,0.5-4.4,0.5-6H149.7z M221.4,158.8l-44.5-44.2c-1.4-1.4-3.5-1.4-4.8,0s-1.4,3.5,0,4.8l19.3,19.3v96.5h-34.5
			v-7.4c6.2-2.8,9.7-9.7,9.7-18.7v-10.1c0-1.8-1.6-3.5-3.5-3.5h-6.4v-17.5c0-22.1-18.2-40.3-40.3-40.3s-40.1,18-40.1,40.3v57.1H41.7
			v-96.5L102.5,78c1.4-1.4,1.4-3.5,0-4.8c-1.4-1.4-3.5-1.4-4.8,0l-85.9,85.7c-1.4-2.3-2.3-5.1-2.3-7.8c0-3.9,1.6-7.8,4.4-10.6
			l91.9-91.9c2.8-2.8,6.7-4.4,10.6-4.4s7.8,1.6,10.6,4.4l91.9,91.9c2.8,2.8,4.4,6.7,4.4,10.6C223.4,154,222.7,156.5,221.4,158.8z"/>
		<path id="XMLID_54_" class="st2" d="M134.5,98.7c-4.6,0-8.8,3-10.1,7.4h-7.8h-7.8c-1.4-4.1-5.5-7.4-10.1-7.4
			c-6,0-10.8,4.8-10.8,10.8c0,2.8,1.2,5.3,3,7.4c-1.8,1.8-3,4.4-3,7.4c0,6,4.8,10.8,10.8,10.8c4.6,0,8.8-3,10.1-7.4h7.8h7.8
			c1.4,4.1,5.5,7.4,10.1,7.4c6,0,10.8-4.8,10.8-10.8c0-2.8-1.2-5.3-3-7.4c1.8-1.8,3-4.4,3-7.4C145.4,103.5,140.5,98.7,134.5,98.7z
			 M134.5,127.7c-2.1,0-3.9-1.8-3.9-3.9c0-1.8-1.6-3.5-3.5-3.5h-10.6h-10.8c-1.8,0-3.5,1.6-3.5,3.5c0,2.1-1.8,3.9-3.9,3.9
			c-2.1,0-3.9-1.8-3.9-3.9s1.8-3.9,3.9-3.9c1.8,0,3.5-1.6,3.5-3.5c0-1.8-1.6-3.5-3.5-3.5c-2.1,0-3.9-1.8-3.9-3.9s1.8-3.9,3.9-3.9
			c2.1,0,3.9,1.8,3.9,3.9c0,1.8,1.6,3.5,3.5,3.5h10.8h10.8c1.8,0,3.5-1.6,3.5-3.5c0-2.1,1.8-3.9,3.9-3.9s3.9,1.8,3.9,3.9
			s-1.8,3.9-3.9,3.9c-1.8,0-3.5,1.6-3.5,3.5c0,1.8,1.6,3.5,3.5,3.5c2.1,0,3.9,1.8,3.9,3.9C138.4,126.1,136.8,127.7,134.5,127.7z"/>
	</g>
	<text id="XMLID_52_" transform="matrix(1 0 0 1 245.0004 119.2279)" class="st1"><tspan x="0" y="0" class="st3 st9">Sin</tspan><tspan x="0" y="54" class="st3 st9">espacios</tspan><tspan x="0" y="108" class="st3 st9">designados</tspan></text>
</g>
<g id="Layer_8" class="st0">
	<g id="XMLID_133_" class="st1">
		<path id="XMLID_137_" class="st2" d="M238.7,222.4l-17.2-75.1c0-0.2-0.1-0.3-0.1-0.5c-1.3-4.7-7.6-8.3-19.9-11.4
			c-2.3-12.3-13.1-21.5-26-21.5c-0.8,0-1.7,0-2.5,0.1c-4.5-8.7-13.6-14.3-23.6-14.3c-3,0-6.1,0.5-8.9,1.5
			c-4.3-6.6-11.6-10.7-19.7-10.7c-8.1,0-15.4,4.1-19.7,10.7c-2.8-1-5.9-1.5-8.9-1.5c-10,0-19.1,5.6-23.6,14.3
			c-0.8-0.1-1.7-0.1-2.5-0.1c-12.9,0-23.7,9.3-26,21.5c-12.5,3.1-18.8,6.8-19.9,11.7c0,0.1,0,0.1-0.1,0.2l-17.2,75
			C3,222.7,3,223,3,223.3c0,7.9,12.3,14.9,36.4,20.8c23.4,5.8,52.3,8.9,81.4,8.9c29.2,0,58.1-3.2,81.4-8.9c24.2-6,36.4-13,36.4-20.8
			C238.8,223,238.8,222.7,238.7,222.4z M201.8,144c7.8,2.1,10.5,4,11.4,4.8c-1,0.9-4.5,3.3-15.2,5.7
			C199.9,151.4,201.2,147.8,201.8,144z M66.3,122.1c1.3,0,2.7,0.2,4.1,0.5c2,0.5,4.1-0.7,4.8-2.6c2.6-7.2,9.5-12.1,17.2-12.1
			c3.1,0,6.1,0.8,8.8,2.2c1,0.6,2.2,0.7,3.3,0.3c1.1-0.4,2-1.2,2.4-2.3c2.4-5.7,7.9-9.4,14-9.4s11.7,3.7,14,9.4
			c0.4,1.1,1.3,1.9,2.4,2.3c1.1,0.4,2.3,0.3,3.3-0.3c2.7-1.5,5.7-2.2,8.8-2.2c7.7,0,14.6,4.9,17.2,12.1c0.7,1.9,2.7,3.1,4.8,2.6
			c1.3-0.3,2.7-0.5,4.1-0.5c10.1,0,18,8.2,18.3,18.3c0.2,7-4.8,13.1-9.7,16.6c-17.5,2.6-39.8,4.1-63.3,4.1
			c-22.8,0-44.7-1.4-61.9-3.9c-6.5-3-11-9.7-11-16.8C48,130.4,56.2,122.1,66.3,122.1z M40,144c0.5,3.8,1.8,7.4,3.8,10.5
			c-10.8-2.5-14.2-4.8-15.2-5.7C29.5,148,32.2,146.1,40,144z M198.6,236.6c-22.4,5.3-50,8.3-77.7,8.3s-55.2-2.9-77.7-8.3
			c-22.1-5.2-30.9-11-32-13.2l15.1-66.2c1.6,0.9,3,1.5,3.9,1.8c5.1,2.1,12.4,3.9,21.6,5.5c18.5,3.1,43,4.9,69,4.9s50.6-1.7,69-4.9
			c9.2-1.6,16.4-3.4,21.6-5.5c0.9-0.3,2.3-0.9,3.9-1.8l15.1,66.2C229.4,225.6,220.7,231.3,198.6,236.6z"/>
		<path id="XMLID_134_" class="st2" d="M170.7,172.6c-9.5,0-17.4,7-18.9,16.1H90c-1.5-9.1-9.4-16.1-18.9-16.1
			c-10.6,0-19.2,8.6-19.2,19.2c0,4.2,1.4,8.3,3.9,11.6c-2.5,3.3-3.9,7.3-3.9,11.6c0,10.6,8.6,19.2,19.2,19.2c9.5,0,17.4-7,18.9-16.1
			h61.8c1.5,9.1,9.4,16.1,18.9,16.1c10.6,0,19.2-8.6,19.2-19.2c0-4.2-1.4-8.3-3.9-11.6c2.5-3.3,3.9-7.3,3.9-11.6
			C189.9,181.2,181.3,172.6,170.7,172.6z M177.8,206.5c2.5,2.1,3.9,5.2,3.9,8.4c0,6.1-4.9,11-11,11c-6.1,0-11-4.9-11-11
			c0-0.2,0-0.5,0-0.7c0.1-1.1-0.3-2.2-1.1-3.1c-0.8-0.8-1.9-1.3-3-1.3H86.1c-1.1,0-2.2,0.5-3,1.3c-0.8,0.8-1.2,1.9-1.1,3.1
			c0,0.2,0,0.5,0,0.7c0,6.1-4.9,11-11,11c-6.1,0-11-4.9-11-11c0-3.3,1.4-6.3,3.9-8.4c0.9-0.8,1.5-1.9,1.5-3.1c0-1.2-0.5-2.4-1.5-3.1
			c-2.5-2.1-3.9-5.2-3.9-8.4c0-6.1,4.9-11,11-11c6.1,0,11,4.9,11,11c0,0.2,0,0.5,0,0.7c-0.1,1.1,0.3,2.2,1.1,3.1
			c0.8,0.8,1.9,1.3,3,1.3h69.5c1.1,0,2.2-0.5,3-1.3c0.8-0.8,1.2-1.9,1.1-3.1c0-0.2,0-0.5,0-0.7c0-6.1,4.9-11,11-11
			c6.1,0,11,4.9,11,11c0,3.3-1.4,6.3-3.9,8.4c-0.9,0.8-1.5,1.9-1.5,3.1C176.4,204.6,176.9,205.8,177.8,206.5z"/>
	</g>
	<path id="XMLID_136_" class="st8" d="M58,72.9c-4.1-3.4-8.2-6.8-12.4-10.2c-2.1-1.7-5-2-7.1,0c-1.8,1.8-2.1,5.3,0,7.1
		c4.1,3.4,8.2,6.8,12.4,10.2c2.1,1.7,5,2,7.1,0C59.8,78.2,60.1,74.6,58,72.9z"/>
	<path id="XMLID_138_" class="st8" d="M108.7,48.6v10.7c0,6.4,10,6.4,10,0V48.6C118.7,42.1,108.7,42.1,108.7,48.6z"/>
	<path id="XMLID_139_" class="st8" d="M183.5,58.8c-2,3.8-4,7.6-6,11.3c-3,5.7,5.6,10.7,8.6,5c2-3.8,4-7.6,6-11.3
		C195.2,58.2,186.5,53.1,183.5,58.8z"/>
	<text id="XMLID_132_" transform="matrix(1 0 0 1 243.0004 115.2279)" class="st1"><tspan x="0" y="0" class="st3 st9">No ofrece</tspan><tspan x="0" y="54" class="st3 st9">alimentos</tspan><tspan x="0" y="108" class="st3 st9">de mascota</tspan></text>
</g>
<g id="Layer_9" class="st0">
	<g id="XMLID_140_" class="st1">
		<path id="XMLID_142_" class="st2" d="M205,68c-10.2,0-19.1,5.4-24,13.5h-10.6c-6.3,0-11.6,3.9-13.8,9.4c-22.4,2.1-40,21-40,44
			v86.3c0,18.1-14.7,32.9-32.9,32.9c-18.1,0-32.9-14.7-32.9-32.9v-19.7c8.8-2,13.9-8.6,16.4-20.9l2.3-11.7c12-8,19.9-21.7,19.9-37.1
			V58.2c0-7.9-2.1-15.7-5.9-22.6c1.7-2.5,2.7-5.5,2.7-8.7c0-8.6-7-15.6-15.6-15.6s-15.6,7-15.6,15.6s7,15.6,15.6,15.6
			c1.2,0,2.4-0.2,3.6-0.4c2.6,5,3.9,10.6,3.9,16.2v42.4c0,18.4-15,33.4-33.4,33.4c-18.3,0-33.2-14.8-33.3-33V58.2
			c0-5.8,1.5-11.4,4.3-16.3c1.3,0.4,2.8,0.6,4.2,0.6c8.6,0,15.6-7,15.6-15.6s-7-15.6-15.6-15.6c-8.6,0-15.6,7-15.6,15.6
			c0,3,0.8,5.7,2.3,8.1c-4.3,7-6.5,15-6.5,23.2v42.2c0,0.1,0,0.1,0,0.2c0,0.1,0,0.2,0,0.3v30.8c0,15.5,7.9,29.1,19.9,37.1l2.3,11.6
			c2.1,12.7,7.7,19.5,17.3,21.2v19.6c0,24.4,19.8,44.2,44.2,44.2c24.4,0,44.2-19.8,44.2-44.2v-86.3c0-16.8,12.6-30.6,28.9-32.6
			c2.3,5.2,7.5,8.9,13.6,8.9h10.6c5,8.1,13.9,13.5,24,13.5c15.6,0,28.3-12.7,28.3-28.3C233.3,80.7,220.6,68,205,68z M66.2,26.8
			c0-2.4,1.9-4.3,4.3-4.3c2.4,0,4.3,1.9,4.3,4.3c0,2.4-1.9,4.3-4.3,4.3C68.2,31.1,66.2,29.2,66.2,26.8z M19.8,22.6
			c2.4,0,4.3,1.9,4.3,4.3c0,2.4-1.9,4.3-4.3,4.3s-4.3-1.9-4.3-4.3S17.5,22.6,19.8,22.6z M11.3,131.7v-1.4c8.2,9.2,20.1,15,33.3,15
			c13.3,0,25.2-5.8,33.4-15.1v1.5c0,18.4-15,33.4-33.3,33.4C26.3,165,11.3,150.1,11.3,131.7z M33.3,178.3l-0.7-3.7
			c3.9,1.1,7.9,1.7,12.1,1.7c4.2,0,8.3-0.6,12.1-1.7l-0.7,3.7c-2.3,11.5-6,12.4-11.4,12.4C39.2,190.7,35.2,189.8,33.3,178.3z
			 M170.4,99.8c-1.9,0-3.5-1.6-3.5-3.5c0-1.9,1.6-3.5,3.5-3.5h6.6c-0.1,1.2-0.2,2.3-0.2,3.5c0,1.2,0.1,2.3,0.2,3.5H170.4z
			 M205,113.3c-9.3,0-17-7.6-17-17s7.6-17,17-17c9.4,0,17,7.6,17,17S214.3,113.3,205,113.3z"/>
		<circle id="XMLID_141_" class="st2" cx="204.9" cy="96.3" r="8.4"/>
	</g>
	<text id="XMLID_135_" transform="matrix(1 0 0 1 240.0004 153.2279)" class="st1"><tspan x="0" y="0" class="st3 st9">Análisis</tspan><tspan x="0" y="54" class="st3 st9">Clínicos</tspan></text>
</g>
<g id="Layer_10" class="st0">
	<text id="XMLID_150_" transform="matrix(1 0 0 1 240.0004 183.2279)" class="st1 st3 st9">Laboratorio</text>
	<g id="XMLID_151_" transform="translate(0,-1020.3622)" class="st1">
		<path id="XMLID_172_" class="st2" d="M149.7,1085.2c-12.7,0-23.2,10.4-23.2,23.2c0,12.7,10.4,23.2,23.2,23.2s23.2-10.4,23.2-23.2
			C172.8,1095.6,162.4,1085.2,149.7,1085.2z M149.7,1094.5c7.7,0,13.9,6.2,13.9,13.9s-6.2,13.9-13.9,13.9s-13.9-6.2-13.9-13.9
			S141.9,1094.5,149.7,1094.5z"/>
		<path id="XMLID_171_" class="st2" d="M154.3,1108.4c0,2.6-2.1,4.6-4.6,4.6s-4.6-2.1-4.6-4.6c0-2.6,2.1-4.6,4.6-4.6
			S154.3,1105.8,154.3,1108.4z"/>
		<path id="XMLID_170_" class="st2" d="M169,1104c-2.6,0.1-4.5,2.3-4.4,4.8c0.1,1.4,0.8,2.7,1.9,3.5c24.9,18.5,36.6,49.8,29.9,80.1
			c-6.6,30.3-30.4,53.8-60.7,60.2c-2.5,0.5-4.2,2.9-3.7,5.4c0.5,2.5,2.9,4.2,5.4,3.7c0.1,0,0.2,0,0.2,0
			c33.9-7.1,60.4-33.5,67.8-67.3c7.4-33.8-5.7-68.8-33.4-89.5C171.2,1104.3,170.1,1103.9,169,1104z"/>
		<path id="XMLID_169_" class="st2" d="M124.2,1249.7c0,2.6-2.1,4.6-4.6,4.6s-4.6-2.1-4.6-4.6c0-2.6,2.1-4.6,4.6-4.6
			S124.2,1247.1,124.2,1249.7z"/>
		<path id="XMLID_168_" class="st2" d="M159.5,1119.9c-2.6,0-4.6,2.2-4.6,4.7c0,1.4,0.7,2.7,1.8,3.6c17.8,14,26.3,36.9,21.8,59.1
			c-4.4,22.3-21,40.1-42.8,46.2c-2.5,0.7-3.9,3.3-3.2,5.7c0.7,2.5,3.3,3.9,5.7,3.2l0,0c25.2-7,44.3-27.7,49.4-53.3
			c5.1-25.7-4.6-52-25.2-68.2C161.6,1120.2,160.6,1119.9,159.5,1119.9L159.5,1119.9z"/>
		<path id="XMLID_165_" class="st2" d="M119.5,1226.5c-12.7,0-23.2,10.4-23.2,23.2s10.4,23.2,23.2,23.2s23.2-10.4,23.2-23.2
			S132.3,1226.5,119.5,1226.5z M119.5,1235.8c7.7,0,13.9,6.2,13.9,13.9s-6.2,13.9-13.9,13.9s-13.9-6.2-13.9-13.9
			S111.8,1235.8,119.5,1235.8z"/>
		<path id="XMLID_164_" class="st2" d="M48.9,1215.1c-2.6-0.1-4.7,2-4.7,4.5c0,0.9,0.2,1.8,0.7,2.6c12.6,20.1,32.7,34.3,55.9,39.3
			c2.5,0.5,5-1,5.5-3.5s-1-5-3.5-5.5c-20.7-4.5-38.7-17.2-50-35.2C52,1216,50.5,1215.1,48.9,1215.1L48.9,1215.1z"/>
		<path id="XMLID_163_" class="st2" d="M72.2,1215.1c-2.6-0.1-4.7,1.9-4.8,4.5c0,1.3,0.4,2.5,1.3,3.4c9,9.7,20.5,16.5,33.3,19.9
			c2.5,0.7,5-0.8,5.7-3.3c0.7-2.5-0.8-5-3.3-5.7c0,0-0.1,0-0.1,0c-11.1-2.9-21.1-8.9-28.9-17.2C74.6,1215.7,73.5,1215.1,72.2,1215.1
			L72.2,1215.1z"/>
		<path id="XMLID_160_" class="st2" d="M145,1034.3c-1.2,0-2.4,0.5-3.2,1.4l-64.8,64.8c-1.8,1.8-1.9,4.7-0.1,6.6
			c1.8,1.8,4.7,1.9,6.6,0.1c0,0,0.1-0.1,0.1-0.1l61.5-61.6l28.2,28.2l-15.3,15.3c-1.8,1.8-1.8,4.8,0,6.6c1.8,1.8,4.8,1.8,6.6,0
			l18.5-18.5c1.8-1.8,1.8-4.7,0-6.6l-34.7-34.7C147.4,1034.7,146.2,1034.2,145,1034.3L145,1034.3z M133.4,1115.3
			c-1.2,0-2.3,0.5-3.2,1.4l-18.5,18.5c-1.8,1.8-1.9,4.7-0.1,6.6c1.8,1.8,4.7,1.9,6.6,0.1c0,0,0.1-0.1,0.1-0.1l18.5-18.5
			c1.8-1.8,1.9-4.7,0.1-6.6C135.9,1115.7,134.7,1115.2,133.4,1115.3z"/>
		<path id="XMLID_159_" class="st2" d="M87,1106.1c-1.2,0-2.3,0.5-3.2,1.4l-30.1,30.1c-1.8,1.8-1.8,4.7,0,6.6l20.8,20.8
			c1.8,1.8,4.7,1.8,6.6,0l30.1-30.1c1.8-1.8,1.9-4.7,0.1-6.6c-1.8-1.8-4.7-1.9-6.6-0.1c0,0-0.1,0.1-0.1,0.1l-26.8,26.8l-14.3-14.3
			l26.8-26.8c1.8-1.8,1.9-4.7,0.1-6.6C89.5,1106.5,88.3,1106,87,1106.1z"/>
		<path id="XMLID_158_" class="st2" d="M177.4,1020.4c-1.2,0-2.4,0.5-3.2,1.4l-23.1,23.1c-1.8,1.8-1.9,4.7-0.1,6.6s4.7,1.9,6.6,0.1
			c0,0,0.1-0.1,0.1-0.1l19.9-19.9l9.6,9.6l-19.9,19.9c-1.8,1.8-1.9,4.7-0.1,6.6c1.8,1.8,4.7,1.9,6.6,0.1c0,0,0.1-0.1,0.1-0.1
			l23.1-23.1c1.8-1.8,1.8-4.7,0-6.6l-16.2-16.2C179.9,1020.8,178.6,1020.3,177.4,1020.4L177.4,1020.4z"/>
		<path id="XMLID_157_" class="st2" d="M73.2,1092.2c-2.6,0-4.6,2.1-4.6,4.6c0,1.3,0.5,2.5,1.4,3.3l48.5,48.5
			c1.8,1.8,4.7,1.9,6.6,0.1c1.8-1.8,1.9-4.7,0.1-6.6c0,0-0.1-0.1-0.1-0.1l-48.5-48.5C75.7,1092.7,74.5,1092.2,73.2,1092.2z"/>
		<path id="XMLID_154_" class="st2" d="M13,1196.4v27.8h90.3v-4.6v-23.2H13z M22.3,1205.7h71.8v9.3H22.3V1205.7z"/>
		<path id="XMLID_153_" class="st2" d="M33.8,1177.9v9.3h46.3v-9.3H33.8z"/>
		<path id="XMLID_152_" class="st2" d="M73.2,1261.2c-1.5,0-3,0.8-3.9,2.1l-13.9,20.8c-1.4,2.1-0.8,5,1.3,6.4
			c0.8,0.5,1.7,0.8,2.6,0.8h120.4c2.6,0,4.6-2.1,4.6-4.6c0-0.9-0.3-1.8-0.8-2.6l-13.9-20.8c-0.9-1.3-2.3-2.1-3.9-2.1h-37.1v9.3h34.6
			l7.7,11.6H68l7.7-11.6h34.6v-9.3C110.3,1261.2,73.2,1261.2,73.2,1261.2z"/>
	</g>
</g>
<g id="Layer_11" class="st0">
	<g id="XMLID_175_" class="st1">
		<g id="XMLID_188_">
			<g id="XMLID_189_">
				<path id="XMLID_190_" class="st2" d="M147,177.2c-4.3-1.9-7.1-6.1-7.1-10.8v-48.2c0-4.7,2.8-9,7.1-10.8
					c10.6-4.6,17.2-14.9,17-26.4c-0.3-14.9-12.2-27-27.1-27.5c-5.8-0.2-11.3,1.3-16.2,4.4c-1.3,0.8-2.9,0.8-4.2,0
					c-4.8-3.1-10.4-4.6-16.2-4.4c-14.9,0.6-26.8,12.7-27.1,27.5c-0.2,11.5,6.4,21.9,17,26.4c4.3,1.9,7.1,6.1,7.1,10.8v48.2
					c0,4.7-2.8,9-7.1,10.8c-10.6,4.6-17.2,14.9-17,26.4c0.3,14.9,12.2,27,27.1,27.5c5.7,0.2,11.3-1.3,16.2-4.4
					c1.3-0.8,2.9-0.8,4.2,0c4.5,2.9,9.7,4.4,15.1,4.4c0.4,0,0.7,0,1.1,0c14.9-0.6,26.8-12.7,27.1-27.5
					C164.2,192.1,157.6,181.7,147,177.2z M156.9,203.4c-0.2,11.1-9.1,20.2-20.3,20.6c-4.3,0.2-8.5-1-12.1-3.3
					c-1.8-1.1-3.9-1.7-5.9-1.7c-2.1,0-4.1,0.6-5.9,1.7c-3.6,2.3-7.8,3.4-12.1,3.3c-11.1-0.4-20-9.5-20.3-20.6
					c-0.2-8.6,4.8-16.4,12.7-19.8c6.9-3,11.4-9.8,11.4-17.4v-48.2c0-7.6-4.5-14.4-11.4-17.4c-7.9-3.4-12.9-11.2-12.7-19.8
					c0.2-11.1,9.1-20.2,20.3-20.6c4.3-0.2,8.5,1,12.1,3.3c3.6,2.3,8.2,2.3,11.8,0c3.6-2.3,7.8-3.4,12.1-3.3
					c11.1,0.4,20,9.5,20.3,20.6c0.2,8.6-4.8,16.4-12.7,19.8c-6.9,3-11.4,9.8-11.4,17.4v48.2c0,7.6,4.5,14.4,11.4,17.4
					C152.1,187.1,157.1,194.8,156.9,203.4z"/>
			</g>
		</g>
		<g id="XMLID_185_">
			<g id="XMLID_186_">
				<path id="XMLID_177_" class="st2" d="M93.1,70.6c-1.5-1.2-3.8-0.9-5,0.6c-2.3,2.9-3.5,6.4-3.5,10.1c0,2,1.6,3.5,3.5,3.5
					c2,0,3.5-1.6,3.5-3.5c0-2.1,0.7-4.1,2-5.8C95,74,94.7,71.8,93.1,70.6z"/>
			</g>
		</g>
		<g id="XMLID_182_">
			<g id="XMLID_183_">
				<path id="XMLID_176_" class="st2" d="M101.3,64.8c-0.8,0-1.5,0.1-2.3,0.2c-1.9,0.3-3.3,2.1-3,4c0.2,1.8,1.8,3.1,3.5,3.1
					c0.2,0,0.3,0,0.5,0c0.4-0.1,0.9-0.1,1.3-0.1c2,0,3.5-1.6,3.5-3.5C104.8,66.4,103.3,64.8,101.3,64.8z"/>
			</g>
		</g>
	</g>
	<path id="XMLID_180_" class="st10" d="M197,257.9H40.3c-6.6,0-12-5.4-12-12v-216c0-6.6,5.4-12,12-12H197c6.6,0,12,5.4,12,12v216
		C209,252.5,203.6,257.9,197,257.9z"/>
	<text id="XMLID_181_" transform="matrix(1 0 0 1 240.3337 182.2279)" class="st1 st3 st11">Radiología</text>
</g>
<g id="Layer_11_copy" class="st0">
	<text id="XMLID_184_" transform="matrix(1 0 0 1 240.3337 161.2279)" class="st1"><tspan x="0" y="0" class="st3 st12">Ecografías y </tspan><tspan x="0" y="51.6" class="st3 st12">Ecocardiografías</tspan></text>
	<g id="XMLID_191_" class="st1">
		<g id="XMLID_219_">
			<path id="XMLID_223_" d="M228.3,85.4c-7,17.8-14.1,35.6-21.1,53.5c-11.3,28.6-22.6,57.2-33.9,85.8c-2.6,6.6-5.2,13.1-7.8,19.7
				c1.1-0.9,2.2-1.7,3.4-2.6c-29.3-2.2-59.2-2.9-88.4,0c1.1,0.9,2.2,1.7,3.4,2.6c-7.2-17.9-14.4-35.7-21.6-53.6
				c-11.5-28.5-23-57-34.5-85.5c-2.7-6.6-5.3-13.2-8-19.8c-0.3,1.1-0.6,2.3-0.9,3.4c0.5-0.4-1,0.4,0,0c0.6-0.3,1.3-1,1.9-1.4
				c2.2-1.6,4.5-3,6.9-4.4c8.4-5,17.2-9.1,26.4-12.4C85,59.3,118.8,57,151.3,62.3c27.5,4.5,53.9,14.2,78.6,27c4,2.1,7.5-4,3.5-6
				c-40.6-20.9-86-33.8-131.9-30c-26.1,2.1-52.1,9.3-75,22.3c-4.4,2.5-8.7,5.1-12.7,8.3c-0.9,0.7-1.3,2.4-0.9,3.4
				c7.2,17.9,14.4,35.7,21.6,53.6c11.5,28.5,23,57,34.5,85.5c2.7,6.6,5.3,13.2,8,19.8c0.5,1.3,1.7,2.7,3.4,2.6
				c29.2-2.9,59.2-2.2,88.4,0c1.6,0.1,2.8-1.2,3.4-2.6c7-17.8,14.1-35.6,21.1-53.5c11.3-28.6,22.6-57.2,33.9-85.8
				c2.6-6.6,5.2-13.1,7.8-19.7C236.7,83,229.9,81.2,228.3,85.4z"/>
		</g>
	</g>
	<path id="XMLID_195_" class="st8" d="M125,191.4l-1.5-0.9c-0.9-0.5-21.9-13.1-34-32c-6.4-10.1-8.4-20.7-5.6-30
		c2.3-7.6,7.5-13.6,14.9-16.8c2.6-1.1,5.2-1.7,7.8-1.7c8.5,0,15,5.9,18.3,9.6c3.3-3.7,9.9-9.6,18.3-9.6c2.6,0,5.3,0.6,7.8,1.7
		c7.3,3.3,12.6,9.3,14.9,16.8c2.8,9.2,0.8,19.9-5.6,30c-12,19-33.1,31.5-34,32L125,191.4z M106.7,115.7c-1.8,0-3.7,0.4-5.5,1.2
		c-5.8,2.6-9.9,7.3-11.7,13.2c-2.3,7.6-0.5,16.6,4.9,25.2c9.5,15.1,25.7,26.1,30.6,29.3c4.9-3.2,21.1-14.2,30.6-29.3
		c5.5-8.7,7.2-17.6,4.9-25.2c-1.8-5.9-5.9-10.7-11.7-13.2c-1.8-0.8-3.6-1.2-5.5-1.2c-9.1,0-15.9,10-15.9,10.1l-2.4,3.6l-2.4-3.6
		C122.5,125.7,115.7,115.7,106.7,115.7z"/>
</g>
<g id="Layer_11_copy_2" class="st0">
	<text id="XMLID_193_" transform="matrix(1 0 0 1 240.3337 182.2279)" class="st1 st3 st11">Cirugía</text>
	<g id="XMLID_197_" class="st1">
		<path id="XMLID_200_" class="st2" d="M228.3,22.8c-0.6-5.3-3.2-10-7.3-13.3s-9.2-4.8-14.5-4.2s-10,3.1-13.3,7.3l-125,156
			c-1.9,2.4-2.5,5.5-1.8,8.4L1.9,257.5c-0.9,1.1-1.2,2.6-0.7,4c0.4,1.4,1.5,2.4,3,2.8c0.4,0.1,9.4,2.4,21.1,1.1
			c14.8-1.6,27.5-8.4,36.7-19.5l26.7-33.3c0.9-1.1,1.2-2.6,0.7-3.9l-3.5-11.2l8.7-10.8l1.5,0.2c1,0.1,2.1,0.1,3.1,0
			c3.7-0.4,6.9-2.2,9.2-5.1L209.7,55.4l0,0l14.5-18.1C227.4,33.3,228.9,28.1,228.3,22.8z M192.1,63.7l-12.3-20.7l8.9-11.1l12.3,20.7
			L192.1,63.7z M177.6,81.8l-12.4-20.7l8.9-11.1l12.3,20.7L177.6,81.8z M84.5,185.5l-6.8,8.4c-0.9,1.1-1.2,2.6-0.7,3.9l3.5,11.2
			l-25.3,31.5c-7.8,9.5-18.3,15-31.1,16.4c-4.3,0.5-8.1,0.4-11.2,0.1L72,183.6c0,0,0,0,0.1,0c0.8,0.3,1.6,0.5,2.5,0.7L84.5,185.5z
			 M101.7,176.5c-1.1,1.4-3,2.2-4.7,1.9l-21.4-2.5c-0.2,0-0.4-0.1-0.5-0.2c-0.1-0.1-0.2-0.1-0.3-0.3c-0.1-0.1-0.1-0.2-0.2-0.2
			c-0.1-0.3-0.2-0.7,0.2-1.2l84.8-105.7L171.9,89L101.7,176.5z M217.5,32.1l-10.7,13.4l-12.3-20.7l5.4-6.8c1.9-2.3,4.6-3.8,7.6-4.2
			c3-0.3,5.9,0.5,8.3,2.4c2.3,1.9,3.8,4.6,4.2,7.6C220.2,26.8,219.4,29.7,217.5,32.1z"/>
		<path id="XMLID_199_" class="st2" d="M50.9,220l-7.5,9.4c-1.5,1.8-1.2,4.5,0.7,5.9c0.9,0.8,2,1,3.1,0.9s2.1-0.7,2.9-1.6l7.5-9.4
			c1.5-1.8,1.2-4.5-0.7-5.9C55.1,217.9,52.4,218.2,50.9,220z"/>
		<path id="XMLID_198_" class="st2" d="M35.9,238.7c-0.7,0.9-1,2-0.9,3.1c0.1,1.1,0.7,2.1,1.6,2.9c0.9,0.7,2,1,3.1,0.9
			c1.1-0.1,2.1-0.7,2.9-1.6c0.7-0.9,1-2,0.9-3.1c-0.1-1.1-0.7-2.1-1.6-2.9C40.1,236.7,37.3,237,35.9,238.7z"/>
	</g>
</g>
<g id="Layer_11_copy_3">
	<text id="XMLID_235_" transform="matrix(1 0 0 1 240.3337 182.2279)" class="st3 st13">Hospitalización</text>
	<g id="XMLID_244_">
		<path id="XMLID_251_" class="st2" d="M215.6,255.9V115l10,6l15.2-27.1L121.5,20L2.3,93.8L17.4,121l10-6v140.9H0v7.8h243v-7.8
			H215.6z M12.8,96.5l108.7-67.3l108.7,67.3l-7.6,13.6L121.5,49.7L20.3,110.1L12.8,96.5z M35.3,255.9V110.3l86.2-51.5l86.2,51.5
			v145.5H35.3z"/>
		<path id="XMLID_248_" class="st2" d="M66.6,236.3h109.7V126.5H66.6V236.3z M74.5,134.4h94v94.1h-94V134.4z"/>
		<path id="XMLID_245_" class="st2" d="M137.2,146.1h-31.4v19.6H86.2v31.4h19.6v19.6h31.4v-19.6h19.6v-31.4h-19.6V146.1z
			 M148.9,173.6v15.7h-19.6v19.6h-15.7v-19.6H94v-15.7h19.6V154h15.7v19.6H148.9z"/>
	</g>
</g>
<g id="Layer_5">
</g>
</svg>
