<?xml version="1.0" encoding="utf-8"?>
<!-- Generator: Adobe Illustrator 19.0.0, SVG Export Plug-In . SVG Version: 6.00 Build 0)  -->
<svg version="1.1" xmlns="http://www.w3.org/2000/svg" xmlns:xlink="http://www.w3.org/1999/xlink" x="0px" y="0px"
	 viewBox="0 0 500 271" style="enable-background:new 0 0 500 271;" xml:space="preserve">
<style type="text/css">
	.st0{display:none;}
	.st1{display:inline;}
	.st2{fill:#010101;}
	.st3{font-family:'Roboto-Medium';}
	.st4{font-size:48.8054px;}
	.st5{fill:#040404;}
	.st6{font-size:42px;}
	.st7{font-family:'Haettenschweiler';}
	.st8{font-size:46px;}
</style>
<g id="Layer_1" class="st0">
	<g id="XMLID_2_" class="st1">
		<path id="XMLID_27_" class="st2" d="M155.6,212.2c-16.4,0-29.7,12.4-29.7,27.6c0,7.2,4.3,11.5,11.4,11.5c3.3,0,6.9-0.8,10.3-1.6
			c2.9-0.7,5.9-1.4,7.9-1.4c1.8,0,4.6,0.7,7.4,1.3c3.6,0.8,7.3,1.7,10.7,1.7c7.3,0,11.6-4.3,11.6-11.5
			C185.2,224.6,171.9,212.2,155.6,212.2z M175.5,241.6c0,0-0.4,0.3-1.8,0.3c-2.3,0-5.5-0.7-8.5-1.5c-3.4-0.8-6.6-1.5-9.5-1.5
			c-3.1,0-6.7,0.8-10,1.6c-3,0.7-6,1.4-8.2,1.4c-1.2,0-1.6-0.2-1.6-0.2c0,0-0.3-0.5-0.3-1.8c0-10,9.1-18.1,20.2-18.1
			c11.1,0,20.2,8.1,20.2,18.1C175.7,241,175.5,241.5,175.5,241.6z"/>
		<path id="XMLID_24_" class="st2" d="M140.8,203.2c0-8.3-5.8-15.1-12.9-15.1c-7.1,0-12.9,6.8-12.9,15.1c0,8.3,5.8,15.1,12.9,15.1
			C135,218.3,140.8,211.5,140.8,203.2z M124.5,203.2c0-3.2,1.8-5.7,3.4-5.7c1.6,0,3.4,2.4,3.4,5.7s-1.8,5.7-3.4,5.7
			C126.3,208.8,124.5,206.4,124.5,203.2z"/>
		<path id="XMLID_21_" class="st2" d="M156.4,209c7.1,0,12.9-6.8,12.9-15.1s-5.8-15.1-12.9-15.1c-7.1,0-12.9,6.8-12.9,15.1
			C143.5,202.2,149.3,209,156.4,209z M156.4,188.2c1.6,0,3.4,2.4,3.4,5.7c0,3.2-1.8,5.7-3.4,5.7c-1.6,0-3.4-2.4-3.4-5.7
			C153,190.6,154.8,188.2,156.4,188.2z"/>
		<path id="XMLID_18_" class="st2" d="M184.9,188.1c-7.1,0-12.9,6.8-12.9,15.1c0,8.3,5.8,15.1,12.9,15.1s12.9-6.8,12.9-15.1
			C197.8,194.9,192.1,188.1,184.9,188.1z M184.9,208.8c-1.6,0-3.4-2.4-3.4-5.7s1.8-5.7,3.4-5.7c1.6,0,3.4,2.4,3.4,5.7
			C188.4,206.4,186.6,208.8,184.9,208.8z"/>
		<path id="XMLID_12_" class="st2" d="M196.3,73.6h-5V59.9c0-6.3-5.1-11.4-11.4-11.4h-18.7V35.1h7.8c6.3,0,11.4-5.1,11.4-11.4V11.4
			C180.4,5.1,175.3,0,169,0h-46.8l-1,0c-6.7,0-16.8,0-25.3,6.3c-9.7,7.2-14.4,20.2-14.4,39.9c0,2.6,2.1,4.7,4.7,4.7h16.5
			c2.6,0,4.7-2.1,4.7-4.7c0-4.7,1.6-7.7,5.1-9.5c3.1-1.6,6.4-1.6,6.6-1.6c0,0,0.1,0,0.1,0h32.5v13.4H133c-6.3,0-11.4,5.1-11.4,11.4
			v13.7h-5c-18.9,0-34.3,15.4-34.3,34.3v158.4c0,2.6,2.1,4.7,4.7,4.7h138.8c2.6,0,4.7-2.1,4.7-4.7V107.9
			C230.6,89,215.2,73.6,196.3,73.6z M119.1,25.6c-6.6,0-18.3,3.4-20.8,15.8h-7.4c1.5-32,18-32,30.2-32l47.9,0c1.1,0,2,0.9,2,2v12.3
			c0,1.1-0.9,2-2,2L119.1,25.6L119.1,25.6z M131,59.9c0-1.1,0.9-2,2-2h46.8c1.1,0,2,0.9,2,2v13.7H131V59.9z M116.6,83.1h79.7
			c13.7,0,24.8,11.1,24.8,24.8v13c-9.7-0.7-34.5-0.2-56.1,18.6c-13.1,11.4-28.3,16.8-42.9,15.1c-12.2-1.4-23-7.8-30.4-18.1v-28.5
			C91.7,94.2,102.9,83.1,116.6,83.1z M91.7,261.5V150.6c8.2,7.4,18.3,12.1,29.3,13.4c2.1,0.2,4.2,0.4,6.4,0.4
			c15.2,0,30.5-6.2,43.8-17.7c19.4-16.9,42.3-16.8,49.9-16.2v131.1H91.7L91.7,261.5z"/>
		<path id="XMLID_9_" class="st2" d="M39,90.9c9.1,0,16.4-7.4,16.4-16.4S48.1,58,39,58s-16.4,7.4-16.4,16.4
			C22.6,83.5,30,90.9,39,90.9z M39,67.5c3.8,0,7,3.1,7,7c0,3.8-3.1,7-7,7s-7-3.1-7-7C32.1,70.6,35.2,67.5,39,67.5z"/>
		<path id="XMLID_6_" class="st2" d="M43.2,133.5c-15.5,0-28.2,12.6-28.2,28.2s12.6,28.2,28.2,28.2s28.2-12.6,28.2-28.2
			S58.8,133.5,43.2,133.5z M43.2,180.4c-10.3,0-18.7-8.4-18.7-18.7c0-10.3,8.4-18.7,18.7-18.7s18.7,8.4,18.7,18.7
			S53.5,180.4,43.2,180.4z"/>
		<path id="XMLID_3_" class="st2" d="M20.1,216.6c-8.8,0-15.9,7.1-15.9,15.9s7.1,15.9,15.9,15.9S36,241.3,36,232.5
			S28.8,216.6,20.1,216.6z M20.1,238.9c-3.5,0-6.4-2.9-6.4-6.4s2.9-6.4,6.4-6.4s6.4,2.9,6.4,6.4S23.6,238.9,20.1,238.9z"/>
	</g>
	<text id="XMLID_1_" transform="matrix(1 0 0 1 240.0002 154.8197)" class="st1"><tspan x="0" y="0" class="st3 st4">Estética y</tspan><tspan x="0" y="58.6" class="st3 st4">Peluquería</tspan></text>
</g>
<g id="Layer_2" class="st0">
	<g id="XMLID_85_" class="st1">
		<path id="XMLID_96_" class="st2" d="M105.8,140c0,8.4,5.8,15.2,12.9,15.2c7.1,0,12.9-6.8,12.9-15.2c0-8.4-5.8-15.2-12.9-15.2
			C111.6,124.8,105.8,131.6,105.8,140z M123.1,140c0,4-2.3,6.7-4.4,6.7c-2.1,0-4.4-2.8-4.4-6.7c0-4,2.3-6.7,4.4-6.7
			C120.8,133.3,123.1,136.1,123.1,140z"/>
		<path id="XMLID_93_" class="st2" d="M135.9,130.2c0,8.4,5.8,15.2,12.9,15.2c7.1,0,12.9-6.8,12.9-15.2s-5.8-15.2-12.9-15.2
			C141.7,114.9,135.9,121.8,135.9,130.2z M153.2,130.2c0,4-2.3,6.7-4.4,6.7c-2.1,0-4.4-2.8-4.4-6.7c0-4,2.3-6.7,4.4-6.7
			C150.9,123.4,153.2,126.2,153.2,130.2z"/>
		<path id="XMLID_86_" class="st2" d="M237.8,68.4l-47.2-47.2c-1.9-1.9-4.5-3-7.3-3c-2.7,0-5.3,1.1-7.3,3l-5.8,5.8
			c-1.9,1.9-3,4.5-3,7.3s1.1,5.3,3,7.3l20.6,20.6L182,71l-20.6-20.6c-1.9-1.9-4.5-3-7.3-3c-2.7,0-5.3,1.1-7.3,3L63.2,134
			c-1.9,1.9-3,4.5-3,7.3s1.1,5.3,3,7.3l9.3,9.3l-8.9,8.9c-1.9,1.9-3,4.5-3,7.3c0,2.7,1.1,5.3,3,7.3l4.1,4.1L1.2,251.7
			c-1.7,1.7-1.7,4.4,0,6c0.8,0.8,1.9,1.2,3,1.2c1.1,0,2.2-0.4,3-1.2l66.5-66.5l4.1,4.1c1.9,1.9,4.5,3,7.3,3s5.3-1.1,7.3-3l8.9-8.9
			l9.3,9.3c1.9,1.9,4.5,3,7.3,3s5.3-1.1,7.3-3l5.7-5.7c2.8-0.2,5.8-0.9,8.7-1.6c3.1-0.7,6.3-1.5,8.5-1.5c2,0,5,0.7,7.9,1.4
			c3.7,0.9,7.6,1.8,11.1,1.8c7.3,0,11.5-4.2,11.5-11.4c0-15.7-13.7-28.4-30.6-28.4c-16.8,0-30.6,12.7-30.6,28.4c0,4,1.3,7.1,3.6,9
			l-2,2c-0.4,0.4-1,0.5-1.2,0.5c-0.3,0-0.8-0.1-1.2-0.5l-47.2-47.2c-0.7-0.7-0.7-1.8,0-2.5L88,121.3l5.1,5.1c0.8,0.8,1.9,1.2,3,1.2
			s2.2-0.4,3-1.2c1.7-1.7,1.7-4.4,0-6l-5.1-5.1l9.4-9.4l5.1,5.1c0.8,0.8,1.9,1.2,3,1.2c1.1,0,2.2-0.4,3-1.2c1.7-1.7,1.7-4.4,0-6
			l-5.1-5.1l29.3-29.3l49.7,49.7l-5.2,5.2c0,0-0.1,0.1-0.1,0.1c-1.3-0.5-2.7-0.8-4.2-0.8c-7.1,0-12.9,6.8-12.9,15.2
			c0,8.4,5.8,15.2,12.9,15.2c7.1,0,12.9-6.8,12.9-15.2c0-3.3-0.9-6.3-2.4-8.8l19.2-19.2c4-4,4-10.5,0-14.5L188,77l8.8-8.8l20.6,20.6
			c1.9,1.9,4.5,3,7.3,3c2.7,0,5.3-1.1,7.3-3l5.8-5.8C241.8,78.9,241.8,72.4,237.8,68.4z M147.9,158.9c12.2,0,22.1,8.9,22.1,19.9
			c0,2.5-0.4,2.9-3,2.9c-2.5,0-5.9-0.8-9.2-1.6c-3.6-0.8-6.9-1.6-9.9-1.6c-3.2,0-6.9,0.8-10.4,1.7c-3.2,0.7-6.4,1.5-8.8,1.5
			c-1.3,0-2-0.2-2.2-0.4c-0.2-0.2-0.5-1-0.5-2.5C125.9,167.8,135.8,158.9,147.9,158.9z M86.3,189.3c-0.4,0.4-1,0.5-1.2,0.5
			c-0.3,0-0.8-0.1-1.2-0.5l-14.2-14.2c-0.4-0.4-0.5-1-0.5-1.2s0.1-0.8,0.5-1.2l8.9-8.9l16.6,16.6L86.3,189.3z M178.9,146.8
			c-2.1,0-4.4-2.8-4.4-6.7c0-4,2.3-6.7,4.4-6.7s4.4,2.8,4.4,6.7C183.3,144,181,146.8,178.9,146.8z M202.6,106.1l-8.2,8.2l-49.7-49.7
			l8.2-8.2c0.7-0.7,1.8-0.7,2.5,0l47.2,47.2C203.3,104.3,203.3,105.4,202.6,106.1z M231.8,76.9l-5.8,5.8c-0.4,0.4-1,0.5-1.2,0.5
			s-0.8-0.1-1.2-0.5l-47.2-47.2c-0.4-0.4-0.5-1-0.5-1.2c0-0.3,0.1-0.8,0.5-1.2l5.8-5.8c0.4-0.4,1-0.5,1.2-0.5c0.3,0,0.8,0.1,1.2,0.5
			l47.2,47.2C232.5,75.1,232.5,76.2,231.8,76.9z"/>
	</g>
	<text id="XMLID_84_" transform="matrix(1 0 0 1 240.0004 185.2279)" class="st1 st3 st4">Vacunas</text>
</g>
<g id="Layer_3" class="st0">
	<g id="XMLID_100_" class="st1">
		<g id="XMLID_117_">
			<path id="XMLID_118_" class="st5" d="M83.5,130.2c-17.3,0-31.3-18.4-31.3-41s14.1-41,31.3-41c17.3,0,31.3,18.4,31.3,41
				S100.8,130.2,83.5,130.2z M83.5,54.7c-13.7,0-24.9,15.5-24.9,34.5c0,19,11.2,34.5,24.9,34.5c13.7,0,24.9-15.5,24.9-34.5
				C108.5,70.2,97.3,54.7,83.5,54.7z"/>
		</g>
		<g id="XMLID_113_">
			<path id="XMLID_114_" class="st5" d="M165,248.4c-8.5,0-15.8-4.8-23.5-9.9c-4.7-3.1-9.4-6.2-14.7-8.5c-0.8-0.2-3.9-0.5-8.5-0.5
				c-4.2,0-6.4,0.3-6.7,0.4c-5.2,2.2-10.3,5.3-15.2,8.3c-8.4,5.2-15.5,9.6-23.9,9.6c-4.2,0-8.3-1.2-12-3.6
				c-8.8-5.6-13.9-15.4-14.5-27.6c-0.5-11.1,2.9-23,9.7-33.6c0.7-1.1,1.5-2.1,2.3-3c0.3-0.4,0.9-1.1,1-1.3c8-16.5,28-34.1,60-34.1
				l1.2,0c32.5,0.5,52.7,19.1,60,34.9c0.2,0.4,0.7,1.1,1.2,1.8c0.9,1.3,1.7,2.3,2.4,3.5c13.3,23.4,9.7,50.7-8.1,60.8
				C172.4,247.4,168.8,248.4,165,248.4z M118.3,223c4.7,0,9.2,0.4,10.7,0.9c6.1,2.7,11.1,6,16,9.2c7,4.6,13.5,8.9,20,8.9
				c2.7,0,5.3-0.7,7.7-2.1c14.7-8.4,17.3-31.7,5.7-52.1c-0.5-0.9-1.2-1.8-1.9-2.8c-0.8-1.1-1.5-2-1.9-3
				c-6.6-14.1-24.8-30.7-54.3-31.1l-1.2,0c-29,0-47.1,15.8-54.2,30.5c-0.4,0.8-1,1.6-1.9,2.6c-0.6,0.8-1.3,1.5-1.8,2.4
				c-6.1,9.4-9.2,20-8.7,29.8c0.5,10,4.6,18,11.6,22.5c2.7,1.7,5.5,2.6,8.5,2.6c6.5,0,13-4,20.5-8.6c5.2-3.2,10.5-6.4,16.4-8.9
				C111,223.3,114.3,223,118.3,223z"/>
		</g>
		<g id="XMLID_109_">
			<path id="XMLID_110_" class="st5" d="M154.4,130.2c-17.3,0-31.3-18.4-31.3-41s14.1-41,31.3-41c17.3,0,31.3,18.4,31.3,41
				S171.7,130.2,154.4,130.2z M154.4,54.7c-13.7,0-24.9,15.5-24.9,34.5c0,19,11.2,34.5,24.9,34.5c13.7,0,24.9-15.5,24.9-34.5
				C179.3,70.2,168.1,54.7,154.4,54.7z"/>
		</g>
		<g id="XMLID_105_">
			<path id="XMLID_106_" class="st5" d="M208.3,182.3c-16.3,0-29-16.4-29-37.4c0-21,12.8-37.4,29-37.4c16.3,0,29,16.4,29,37.4
				C237.4,165.8,224.6,182.3,208.3,182.3z M208.3,113.8c-12.7,0-22.6,13.6-22.6,31c0,17.4,9.9,31,22.6,31c12.7,0,22.6-13.6,22.6-31
				C231,127.5,221,113.8,208.3,113.8z"/>
		</g>
		<g id="XMLID_101_">
			<path id="XMLID_102_" class="st5" d="M33.7,182.3c-16.3,0-29-16.4-29-37.4c0-21,12.8-37.4,29-37.4c16.3,0,29,16.4,29,37.4
				C62.7,165.8,50,182.3,33.7,182.3z M33.7,113.8c-12.7,0-22.6,13.6-22.6,31c0,17.4,9.9,31,22.6,31c12.7,0,22.6-13.6,22.6-31
				C56.3,127.5,46.4,113.8,33.7,113.8z"/>
		</g>
	</g>
	<text id="XMLID_99_" transform="matrix(1 0 0 1 244.0002 153.8197)" class="st1"><tspan x="0" y="0" class="st3 st6">No hay límite</tspan><tspan x="0" y="50.4" class="st3 st6">de mascotas</tspan></text>
	<text id="XMLID_103_" transform="matrix(1 0 0 1 104.3332 205.2275)" class="st1 st7 st6">#</text>
</g>
<g id="Layer_4" class="st0">
	<text id="XMLID_31_" transform="matrix(1 0 0 1 240.0004 155.2279)" class="st1"><tspan x="0" y="0" class="st3 st4">Correa no</tspan><tspan x="0" y="58.6" class="st3 st4">obligatoria</tspan></text>
	<g id="XMLID_38_" class="st1">
		<circle id="XMLID_45_" class="st2" cx="192" cy="125.1" r="5.1"/>
		<path id="XMLID_48_" class="st2" d="M220.2,132.2c-2.4-1.9-5.9-4.7-6.6-5.9c-0.6-1.1-1.4-3.1-2.2-5c-1.2-3.1-2.5-6.4-4-8.6
			c-3.7-5.4-10.1-10.6-17.2-13.9c-7.3-8.9-19.4-11.9-29.9-7c-9.2,4.3-20.8,14.8-18.7,27.8c-0.5,0.5-0.9,0.9-1.4,1.4
			c-1.6,1.6-3.2,3.3-4.9,5c-9.5-0.6-50.6-5.1-84.7-35.2c-0.2-0.3-0.5-0.6-0.8-0.9C2.9,45.5-23.3-14.5-52.9-70.5
			c-3-5.7-11.6-0.6-8.6,5c28.7,54.3,54.3,112,98,156.1c0.2,0.6,0.6,1.1,1,1.6c31.4,31.6,69.7,40.5,88.4,43c-1.7,1.5-3.1,2.7-3.8,3.2
			c-44.5,26-66.5,58.1-69,100.6c-13-1.1-21.3-6.9-30.1-15.7c-5.2-5.2-13.8-5.2-19,0c-5.2,5.2-5.2,13.8,0,19
			C19.7,258,37.9,266,58,266h73.2c1.3,0,2.6-0.5,3.6-1.5c3.4-3.4,4.4-9.1,2.3-14c-2.2-5.3-7.2-8.5-13.4-8.5h-4.9
			c2.5-3.8,5.1-8.5,6.6-13.6c1.5-3.7,4.5-6.4,7.3-8.3c2.3,18.4,7,40.5,7.3,41.8c0.5,2.3,2.6,4,5,4H161c4.6,0,8.3-2.4,9.9-6.5
			c1.8-4.7,0.3-10.8-3.7-14.4c-1.3-1.2-3-2.3-4.5-3.1c-0.8-13.4-0.8-34,2.3-40l1-2c5.2-10.3,10.2-20,16-44.4
			c3.3,0.5,6.5,0.9,9.2,2.4l1.5,0.8c6,3.2,12.1,6.4,18.9,5.3c6.8-1.1,16.7-9.3,18.6-17.2C231.7,141.3,226.4,137.1,220.2,132.2z
			 M157.1,195.3l-1,2c-5.6,11.1-3.5,44.3-3.2,48.1c0.1,1.8,1.2,3.4,2.9,4.2c1.3,0.6,3.7,2,4.7,2.9c1.2,1.1,1.3,2.9,1.2,3.2
			c0,0-0.2,0.1-0.5,0.1h-12c-2.2-10.9-8-41-7.5-53.5c0.1-3.1,2.1-11.1,3.4-15.4c0.8-2.7-0.8-5.5-3.5-6.3c-2.7-0.8-5.5,0.8-6.3,3.5
			c-0.4,1.3-3.5,12.4-3.8,17.8c-0.1,2.1,0,4.5,0.2,7.2c-1.7,0.9-3.8,2.1-6,3.7c-1.6-5.6-4.9-10.7-9.4-14.2
			c-7.4-5.6-17.1-6.5-27.5-2.4c-2.6,1-3.9,4-2.9,6.6c1,2.6,4,3.9,6.6,2.9c7.1-2.8,13.2-2.4,17.7,1c5.1,3.9,6.9,10.5,6.4,15.1
			c-1.1,10.6-11.5,21.7-11.6,21.8c-1.4,1.5-1.8,3.6-1,5.5c0.8,1.9,2.6,3.1,4.6,3.1h15.3c2,0,3.4,0.8,4,2.3c0.2,0.5,0.3,1,0.3,1.5H58
			c-17.2,0-33-7-46.9-20.9c-1.3-1.3-1.3-3.4,0-4.7c1.3-1.3,3.4-1.3,4.7,0c11.4,11.4,22.9,18.9,42.2,18.9c2.8,0,5-2.2,5.1-5
			c0.9-41.8,20.7-71.8,64.2-97.2c1.8-1,4.3-3.2,7.7-6.4c6.2,14.6,21.7,25.3,33.2,28.6C164.3,181.3,160.9,188,157.1,195.3z
			 M210.1,154.1c-3.4,0.6-7.8-1.8-12.5-4.3l-1.6-0.8c-4.4-2.3-8.8-2.9-12.7-3.5c-6.2-0.9-9.6-1.5-12.5-6.2c-1.5-2.4-4.6-3.1-7-1.6
			c-2.4,1.5-3.1,4.6-1.6,7c2.9,4.6,6.4,7.1,10,8.5c-0.5,2.2-1,4.3-1.5,6.2c-9.1-2.6-24.8-13.4-28-26.7c1.1-1.2,2.3-2.4,3.6-3.6
			c2.2,2.2,5.2,4,8.5,5.1c2.2,0.7,4.3,1,6.4,1c3.5,0,6.9-1,9.7-2.8c5.5-3.7,10.8-12.6,11.3-13.6c1.4-2.4,0.6-5.5-1.8-6.9
			c-2.4-1.4-5.5-0.6-6.9,1.8c-1.5,2.5-5.4,8.4-8.2,10.3c-1.8,1.2-4.6,1.4-7.4,0.6c-2.8-0.9-5-2.6-5.7-4.5c-3.6-9.3,8-17.1,12.4-19.1
			c5.6-2.6,12-1.4,16.4,2.8c0.2,0.2,0.4,0.4,0.6,0.7c2,2.4,3.7,3.2,3.8,3.3c5.6,2.5,10.8,6.5,13.6,10.7c0.9,1.3,2,4.2,3,6.6
			c0.9,2.3,1.8,4.5,2.7,6.2c1.7,3.1,5.3,5.9,9.2,9c2,1.5,5,4,6.3,5.4C218.5,149.3,212.8,153.6,210.1,154.1z"/>
	</g>
</g>
<g id="Layer_6">
	<path id="XMLID_44_" class="st2" d="M231.7,147.7c0-28.8-23.4-52.2-52.2-52.2c-10.2,0-20.2,3-28.6,8.6c-2.2-9.6-5.1-18.9-8.6-27.2
		c-9.5-22.3-21.9-34.6-34.9-34.6c-13.1,0-25.5,12.2-34.9,34.4c-3.3,7.8-6.1,16.5-8.3,25.6L51,54.3c-0.5-1.7-2.1-3-3.9-3
		c-1.8,0-3.4,1.2-3.9,3L7.1,186.7c-0.3,1.2-0.1,2.5,0.7,3.5c0.8,1,1.9,1.6,3.2,1.6h32.1v32.1c0,2.2,1.8,4,4,4c2.2,0,4-1.8,4-4v-32.1
		h32.1c1.3,0,2.4-0.6,3.2-1.6c0.6-0.8,0.9-1.8,0.8-2.8c5,2.3,10.4,3.7,16.1,4.2v32.3c0,2.2,1.8,4,4,4s4-1.8,4-4v-32.3
		c10.4-0.9,19.9-5,27.4-11.5c9,11.3,22.4,18.4,36.8,19.5v24.2c0,2.2,1.8,4,4,4c2.2,0,4-1.8,4-4v-24.2
		C210.4,197.6,231.7,175.1,231.7,147.7z M78,183.8H51.1v-6.4l7.1-7.1c1.6-1.6,1.6-4.1,0-5.7c-1.6-1.6-4.1-1.6-5.7,0l-1.4,1.4v-26.4
		c0-2.2-1.8-4-4-4c-2.2,0-4,1.8-4,4v18.4l-5.2-5.2c-1.6-1.6-4.1-1.6-5.7,0c-1.6,1.6-1.6,4.1,0,5.7l10.9,10.9v6.4c0,0,0,0,0,0v8H16.3
		L47.1,70.7l13.6,49.8c-1.1,7.8-1.6,15.6-1.6,23.1c0,15.3,7.1,28.9,18.2,37.7L78,183.8z M111.3,177.4l14.9-14.9
		c1.6-1.6,1.6-4.1,0-5.7c-1.6-1.6-4.1-1.6-5.7,0l-9.2,9.2v-16.7l10.9-10.9c1.6-1.6,1.6-4.1,0-5.7c-1.6-1.6-4.1-1.6-5.7,0l-5.2,5.2
		v-10.4c0-2.2-1.8-4-4-4s-4,1.8-4,4v20.1c0,0,0,0,0,0v10.4l-9.2-9.2c-1.6-1.6-4.1-1.6-5.7,0c-1.6,1.6-1.6,4.1,0,5.7l14.9,14.9v6.4
		c0,0,0,0,0,0v7.8c-20.3-2-36.2-19.2-36.2-40c0-21.3,4.7-45.1,12.6-63.7c8-18.8,18-29.5,27.6-29.5c9.5,0,19.5,10.8,27.6,29.7
		c7.9,18.6,12.6,42.3,12.6,63.5c0,20.8-15.9,38-36.2,40V177.4z M183.5,191.6v-6.2l14.9-14.9c1.6-1.6,1.6-4.1,0-5.7
		c-1.6-1.6-4.1-1.6-5.7,0l-9.2,9.2v-26.4c0-2.2-1.8-4-4-4c-2.2,0-4,1.8-4,4v18.4l-9.2-9.2c-1.6-1.6-4.1-1.6-5.7,0
		c-1.6,1.6-1.6,4.1,0,5.7l14.9,14.9v6.4c0,0,0,0,0,0v7.8c-12.3-1.1-23.6-7.4-31.1-17.3c6.9-8.4,11.1-19.1,11.1-30.8
		c0-10-1-20.6-2.9-30.9c7.7-5.9,17.2-9.1,26.9-9.1c24.3,0,44.1,19.8,44.1,44.1C223.7,170.7,206,189.6,183.5,191.6z"/>
	<g id="XMLID_50_">
		<g id="XMLID_112_">
			<path id="XMLID_120_" class="st2" d="M230.4,239.1c-15.5-5.7-31.9-9.6-48.1-12.7c-35.7-7-72.7-9.7-108.9-5.3
				c-23.9,2.9-47,8.9-69,18.6c-5.9,2.6-0.8,11.2,5,8.6c63.1-27.9,137.8-23.1,202.8-4.4c5.2,1.5,10.4,3,15.5,4.9
				C233.8,250.9,236.4,241.3,230.4,239.1L230.4,239.1z"/>
		</g>
	</g>
	<text id="XMLID_43_" transform="matrix(1 0 0 1 242.0004 105.2279)"><tspan x="0" y="0" class="st3 st8">Areas</tspan><tspan x="0" y="55.2" class="st3 st8">comunes</tspan><tspan x="0" y="110.4" class="st3 st8">pet-friendly</tspan></text>
</g>
<g id="Layer_5">
</g>
</svg>
