<?xml version="1.0" encoding="utf-8"?>
<!-- Generator: Adobe Illustrator 19.0.0, SVG Export Plug-In . SVG Version: 6.00 Build 0)  -->
<svg version="1.1" xmlns="http://www.w3.org/2000/svg" xmlns:xlink="http://www.w3.org/1999/xlink" x="0px" y="0px"
	 viewBox="0 0 468 271" style="enable-background:new 0 0 468 271;" xml:space="preserve">
<style type="text/css">
	.st0{display:none;}
	.st1{display:inline;}
	.st2{fill:#010101;}
	.st3{font-family:'Roboto-Medium';}
	.st4{font-size:48.8054px;}
	.st5{font-size:40px;}
	.st6{display:inline;fill:#010101;}
	.st7{font-size:48px;}
	.st8{fill:#040404;}
	.st9{font-size:42px;}
	.st10{font-family:'Haettenschweiler';}
	.st11{font-size:45px;}
	.st12{display:inline;fill:none;stroke:#010101;stroke-width:9;stroke-miterlimit:10;}
	.st13{font-size:49px;}
	.st14{font-size:43px;}
	.st15{fill:#040404;stroke:#040404;stroke-width:3;stroke-miterlimit:10;}
	.st16{clip-path:url(#XMLID_663_);}
	.st17{clip-path:url(#XMLID_667_);}
</style>
<g id="Layer_1" class="st0">
	<g id="XMLID_2_" class="st1">
		<path id="XMLID_27_" class="st2" d="M106.6,212.2c-16.4,0-29.7,12.4-29.7,27.6c0,7.2,4.3,11.5,11.4,11.5c3.3,0,6.9-0.8,10.3-1.6
			c2.9-0.7,5.9-1.4,7.9-1.4c1.8,0,4.6,0.7,7.4,1.3c3.6,0.8,7.3,1.7,10.7,1.7c7.3,0,11.6-4.3,11.6-11.5
			C136.2,224.6,122.9,212.2,106.6,212.2z M126.5,241.6c0,0-0.4,0.3-1.8,0.3c-2.3,0-5.5-0.7-8.5-1.5c-3.4-0.8-6.6-1.5-9.5-1.5
			c-3.1,0-6.7,0.8-10,1.6c-3,0.7-6,1.4-8.2,1.4c-1.2,0-1.6-0.2-1.6-0.2c0,0-0.3-0.5-0.3-1.8c0-10,9.1-18.1,20.2-18.1
			c11.1,0,20.2,8.1,20.2,18.1C126.7,241,126.5,241.5,126.5,241.6z"/>
		<path id="XMLID_24_" class="st2" d="M91.8,203.2c0-8.3-5.8-15.1-12.9-15.1c-7.1,0-12.9,6.8-12.9,15.1c0,8.3,5.8,15.1,12.9,15.1
			C86,218.3,91.8,211.5,91.8,203.2z M75.5,203.2c0-3.2,1.8-5.7,3.4-5.7c1.6,0,3.4,2.4,3.4,5.7s-1.8,5.7-3.4,5.7
			C77.3,208.8,75.5,206.4,75.5,203.2z"/>
		<path id="XMLID_21_" class="st2" d="M107.4,209c7.1,0,12.9-6.8,12.9-15.1s-5.8-15.1-12.9-15.1c-7.1,0-12.9,6.8-12.9,15.1
			C94.5,202.2,100.3,209,107.4,209z M107.4,188.2c1.6,0,3.4,2.4,3.4,5.7c0,3.2-1.8,5.7-3.4,5.7c-1.6,0-3.4-2.4-3.4-5.7
			C104,190.6,105.8,188.2,107.4,188.2z"/>
		<path id="XMLID_18_" class="st2" d="M135.9,188.1c-7.1,0-12.9,6.8-12.9,15.1c0,8.3,5.8,15.1,12.9,15.1s12.9-6.8,12.9-15.1
			C148.8,194.9,143.1,188.1,135.9,188.1z M135.9,208.8c-1.6,0-3.4-2.4-3.4-5.7s1.8-5.7,3.4-5.7c1.6,0,3.4,2.4,3.4,5.7
			C139.4,206.4,137.6,208.8,135.9,208.8z"/>
		<path id="XMLID_12_" class="st2" d="M147.3,73.6h-5V59.9c0-6.3-5.1-11.4-11.4-11.4h-18.7V35.1h7.8c6.3,0,11.4-5.1,11.4-11.4V11.4
			C131.4,5.1,126.3,0,120,0H73.1l-1,0c-6.7,0-16.8,0-25.3,6.3c-9.7,7.2-14.4,20.2-14.4,39.9c0,2.6,2.1,4.7,4.7,4.7h16.5
			c2.6,0,4.7-2.1,4.7-4.7c0-4.7,1.6-7.7,5.1-9.5c3.1-1.6,6.4-1.6,6.6-1.6c0,0,0.1,0,0.1,0h32.5v13.4H84c-6.3,0-11.4,5.1-11.4,11.4
			v13.7h-5c-18.9,0-34.3,15.4-34.3,34.3v158.4c0,2.6,2.1,4.7,4.7,4.7h138.8c2.6,0,4.7-2.1,4.7-4.7V107.9
			C181.6,89,166.2,73.6,147.3,73.6z M70.1,25.6c-6.6,0-18.3,3.4-20.8,15.8h-7.4c1.5-32,18-32,30.2-32l47.9,0c1.1,0,2,0.9,2,2v12.3
			c0,1.1-0.9,2-2,2L70.1,25.6L70.1,25.6z M82,59.9c0-1.1,0.9-2,2-2h46.8c1.1,0,2,0.9,2,2v13.7H82V59.9z M67.6,83.1h79.7
			c13.7,0,24.8,11.1,24.8,24.8v13c-9.7-0.7-34.5-0.2-56.1,18.6c-13.1,11.4-28.3,16.8-42.9,15.1c-12.2-1.4-23-7.8-30.4-18.1v-28.5
			C42.7,94.2,53.9,83.1,67.6,83.1z M42.7,261.5V150.6c8.2,7.4,18.3,12.1,29.3,13.4c2.1,0.2,4.2,0.4,6.4,0.4
			c15.2,0,30.5-6.2,43.8-17.7c19.4-16.9,42.3-16.8,49.9-16.2v131.1H42.7L42.7,261.5z"/>
		<path id="XMLID_9_" class="st2" d="M-10,90.9c9.1,0,16.4-7.4,16.4-16.4S-0.9,58-10,58s-16.4,7.4-16.4,16.4
			C-26.4,83.5-19,90.9-10,90.9z M-10,67.5c3.8,0,7,3.1,7,7c0,3.8-3.1,7-7,7s-7-3.1-7-7C-16.9,70.6-13.8,67.5-10,67.5z"/>
		<path id="XMLID_6_" class="st2" d="M-5.8,133.5c-15.5,0-28.2,12.6-28.2,28.2s12.6,28.2,28.2,28.2s28.2-12.6,28.2-28.2
			S9.8,133.5-5.8,133.5z M-5.8,180.4c-10.3,0-18.7-8.4-18.7-18.7c0-10.3,8.4-18.7,18.7-18.7s18.7,8.4,18.7,18.7S4.5,180.4-5.8,180.4
			z"/>
		<path id="XMLID_3_" class="st2" d="M-28.9,216.6c-8.8,0-15.9,7.1-15.9,15.9s7.1,15.9,15.9,15.9s15.9-7.1,15.9-15.9
			S-20.2,216.6-28.9,216.6z M-28.9,238.9c-3.5,0-6.4-2.9-6.4-6.4s2.9-6.4,6.4-6.4s6.4,2.9,6.4,6.4S-25.4,238.9-28.9,238.9z"/>
	</g>
	<text id="XMLID_1_" transform="matrix(1 0 0 1 191.0002 154.8197)" class="st1"><tspan x="0" y="0" class="st3 st4">Estética y</tspan><tspan x="0" y="58.6" class="st3 st4">Peluquería</tspan></text>
</g>
<g id="Layer_1_copy" class="st0">
	<text id="XMLID_517_" transform="matrix(1 0 0 1 191.0002 154.8197)" class="st1"><tspan x="0" y="0" class="st3 st4">Citas por</tspan><tspan x="0" y="58.6" class="st3 st4">teléfono</tspan></text>
	<g id="XMLID_243_" class="st1">
		<g id="XMLID_247_">
			<path id="XMLID_263_" class="st2" d="M170.5,209.3l-44.7-44.7c-5.3-5.3-14-5.3-19.4,0l-11.6,11.6c-3.6,3.6-4.8,8.8-3.5,13.5
				l-4.4,4.4c0,0,0,0,0,0c-3.1,3.1-22.5-1.7-46-25.1c-23.4-23.4-28.2-42.8-25.1-46c0,0,0,0,0,0l4.4-4.4c1.2,0.4,2.5,0.5,3.8,0.5
				c3.5,0,7-1.3,9.7-4l11.6-11.6c5.3-5.3,5.3-14,0-19.4L0.7,39.4c-2.6-2.6-6-4-9.7-4c-3.7,0-7.1,1.4-9.7,4l-11.6,11.6
				c-3.6,3.6-4.8,8.8-3.5,13.5c0,0-3.7,3.8-3.9,4c-12.4,13.7-14.7,35.4-6.5,61.3c8,25.3,25.3,52.2,48.7,75.6
				c23.4,23.4,50.2,40.7,75.6,48.7c10.2,3.2,19.7,4.8,28.4,4.8c14.2,0,26-4.3,34.5-12.8l2.4-2.4c1.2,0.4,2.5,0.5,3.8,0.5
				c3.7,0,7.1-1.4,9.7-4l11.6-11.6C175.9,223.3,175.9,214.6,170.5,209.3z M-9,49.1l44.7,44.7l-11.6,11.6c0,0,0,0,0,0l-0.2-0.2
				L1.7,83.1l-22.4-22.4L-9,49.1z M133.3,236.5C133.3,236.5,133.3,236.5,133.3,236.5c-9.8,9.8-27.3,11.5-49,4.6
				c-23.3-7.4-48.2-23.5-70-45.4c-21.9-21.9-38-46.8-45.4-70c-6.9-21.8-5.3-39.2,4.6-49l0,0l1.2-1.2l34.7,34.7l-3.2,3.2c0,0,0,0,0,0
				c-13.2,13.2,2.7,42.9,25.1,65.3c16.8,16.8,37.7,29.9,52.6,29.9c5,0,9.4-1.5,12.7-4.8c0,0,0,0,0,0l3.2-3.2l34.7,34.7L133.3,236.5z
				 M149.2,230.6l-44.7-44.7l11.6-11.6l44.7,44.7C160.8,219,149.2,230.6,149.2,230.6z"/>
		</g>
	</g>
	<g id="XMLID_232_" class="st1">
		<g id="XMLID_233_">
			<path id="XMLID_520_" class="st2" d="M124.3,85.7c-13-13-30.3-20.2-48.7-20.2c-3.8,0-6.8,3.1-6.8,6.8s3.1,6.8,6.8,6.8
				c14.8,0,28.6,5.7,39.1,16.2c10.4,10.4,16.2,24.3,16.2,39.1c0,3.8,3.1,6.8,6.8,6.8c3.8,0,6.8-3.1,6.8-6.8
				C144.5,116,137.3,98.7,124.3,85.7z"/>
		</g>
	</g>
	<g id="XMLID_229_" class="st1">
		<g id="XMLID_230_">
			<path id="XMLID_519_" class="st2" d="M148.8,61.1c-19.6-19.6-45.6-30.4-73.3-30.4c-3.8,0-6.8,3.1-6.8,6.8c0,3.8,3.1,6.8,6.8,6.8
				c24,0,46.6,9.4,63.6,26.3c17,17,26.3,39.6,26.3,63.6c0,3.8,3.1,6.8,6.8,6.8c3.8,0,6.8-3.1,6.8-6.8
				C179.2,106.7,168.4,80.7,148.8,61.1z"/>
		</g>
	</g>
	<g id="XMLID_226_" class="st1">
		<g id="XMLID_227_">
			<path id="XMLID_518_" class="st2" d="M99.7,110.2c-6.6-6.6-14.9-10-24.2-10c0,0,0,0,0,0c-3.8,0-6.8,3.1-6.8,6.8
				c0,3.8,3.1,6.8,6.8,6.8c0,0,0,0,0,0c5.6,0,10.5,2,14.5,6c3.9,3.9,6,8.9,6,14.5c0,3.8,3.1,6.8,6.8,6.8h0c3.8,0,6.8-3.1,6.8-6.8
				C109.8,125.1,106.3,116.8,99.7,110.2z"/>
		</g>
	</g>
</g>
<g id="Layer_1_copy_2" class="st0">
	<text id="XMLID_622_" transform="matrix(1 0 0 1 191.0002 154.8197)" class="st1"><tspan x="0" y="0" class="st3 st5">Entrenamiento</tspan><tspan x="0" y="48" class="st3 st5">canino</tspan></text>
	<g id="XMLID_612_" class="st1">
		<g id="XMLID_623_">
			<path id="XMLID_624_" class="st2" d="M117.4,164.3c-4.2,0-7.4-1.6-10-2.9c-0.6-0.3-1.2-0.6-1.8-0.9c-3.4-1.5-7.3-1.7-10.6-0.6
				c-0.7,0.2-1.6,0.7-2.6,1.2c-2.8,1.4-6.4,3.1-10.7,3.1c-1.8,0-3.6-0.3-5.3-0.9c-4.8-1.8-7.2-5.1-9.5-8.3c-0.5-0.7-1.1-1.6-1.8-2.4
				c-1.4-1.8-3.9-4.1-6.6-5c-1-0.3-2.9-0.5-4.7-0.7c-4.3-0.4-9.7-1-13.6-4.4c-4.4-3.9-4.9-9-5.3-13.5c-0.1-1.3-0.2-2.6-0.5-4
				c-0.3-1.8-1.1-3.6-2.3-5.4c-0.9-1.3-2.7-2.6-4.6-3.9c-4-2.8-9.5-6.7-10.2-14c-0.6-5.9,1.5-9.7,3.1-12.5c0.7-1.2,1.2-2.2,1.6-3.3
				c0.7-2.5,0.6-5.4-0.2-7.9c-0.3-1.1-0.9-2.2-1.5-3.4c-1.6-3.2-3.8-7.6-2.6-13.3c1.3-6.7,6.6-10.2,9.4-12c4.6-3,6.6-5.7,7.3-9.7
				c0.2-1.4,0.4-2.8,0.5-4.1c0.4-3.7,0.7-7.6,3-11c4-5.8,9.8-6.3,14.5-6.8c1.2-0.1,2.6-0.2,4-0.5c2.9-0.5,6.2-2.4,8.3-4.7
				c0.7-0.8,1.3-1.8,2-2.8c2.1-3.3,5.2-8.2,12.5-9.3c1-0.2,1.9-0.2,2.9-0.2c4.4,0,7.7,1.6,10.3,3c1.8,0.9,3.3,1.6,5,1.9
				c3,0.4,5.6,0.1,8.3-1.2c0.5-0.2,1-0.5,1.6-0.8c2.5-1.3,5.9-3,10.1-3c1.2,0,2.3,0.1,3.5,0.4c6,1.3,9.4,6.1,12.2,9.9
				c1.4,2,2.9,4,4.2,4.9c1.6,1,4,1.9,6,2.2c1.1,0.1,2.1,0.2,3.1,0.3c5.4,0.5,12.1,1.1,15.9,8.7c1.4,2.9,1.7,6,1.9,9
				c0.1,1.7,0.2,3.2,0.5,4.6c0.7,2.9,2.7,5.8,4.3,7.2c1,0.9,2.2,1.7,3.4,2.5c3.5,2.3,8.3,5.6,9.2,12.8c0.6,5.5-1.5,9.6-3.1,12.6
				c-0.6,1.1-1.1,2.1-1.3,2.8c-0.8,2.5-0.8,5.6,0,8.2c0.3,1,0.8,2.1,1.4,3.3c1.6,3.4,3.8,8.1,2.7,13.6c-1.3,6.5-6.2,9.9-10.1,12.6
				c-2,1.4-3.8,2.7-4.7,4c-0.5,0.7-1.1,2-1.6,3.5c-0.5,1.6-0.7,3.5-0.9,5.6c-0.4,4-0.9,8.6-3.8,12.1c-3.9,4.7-9.4,5.2-13.8,5.6
				c-1.3,0.1-2.8,0.3-4.2,0.5c-1.7,0.3-3.5,1.1-5.2,2.2c-1.4,1-2.7,2.8-4.2,4.8c-2.7,3.9-6.5,9.2-13.5,10
				C118.7,164.3,118,164.3,117.4,164.3z M99.3,146.7c3.8,0,7.8,0.8,11.3,2.4c0.8,0.3,1.6,0.7,2.3,1.1c1.9,0.9,3.4,1.8,4.9,1.6
				c1.4-0.2,2.5-1.7,4.8-4.8c1.9-2.7,4.1-5.8,7.4-8c2.2-1.5,5.6-3.4,10-4.1c1.9-0.3,3.7-0.5,5.2-0.7c2.4-0.2,4.7-0.5,5.3-1.2
				c0.5-0.7,0.8-3.6,1-5.3c0.3-2.5,0.5-5.3,1.4-8c0.7-2.3,1.8-4.7,3-6.6c2.2-3.4,5.3-5.5,8-7.5c2.9-2,4.7-3.4,5-4.9
				c0.3-1.4-0.7-3.5-1.8-5.8c-0.7-1.6-1.5-3.2-2.1-5c-1.6-5.1-1.6-10.8,0-15.7c0.6-1.8,1.4-3.5,2.2-4.9c1.2-2.3,1.9-3.7,1.7-5.3
				c-0.1-1.3-0.4-1.7-3.6-3.8c-1.4-1-3.1-2.1-4.8-3.5c-3.1-2.7-6.9-7.8-8.3-13.8c-0.5-2.3-0.7-4.6-0.8-6.5c-0.1-1.4-0.2-3.6-0.6-4.2
				c-0.5-1.1-0.7-1.4-5.9-1.9c-1.1-0.1-2.3-0.2-3.6-0.4c-3.9-0.5-8.1-2.1-11.2-4.1c-3.3-2.2-5.6-5.3-7.5-8c-1.6-2.2-3.4-4.7-4.7-4.9
				c-1.6-0.4-3.1,0.5-5.2,1.5c-0.7,0.3-1.3,0.7-2,1c-4.8,2.2-9.7,2.9-15.2,2.2c-3.8-0.5-6.7-1.9-9-3.1c-2.6-1.3-3.7-1.8-5.6-1.5
				c-1.5,0.2-2,0.7-3.8,3.7c-0.8,1.3-1.8,2.9-3.1,4.4c-3.9,4.5-9.9,7.8-15.7,8.8c-1.7,0.3-3.3,0.4-4.8,0.6c-4.2,0.4-4.8,0.6-5.3,1.4
				c-0.5,0.7-0.7,3.2-0.9,5c-0.1,1.5-0.3,3.3-0.6,5.1c-1.7,9.8-8.2,15-12.8,18c-2.7,1.8-3.8,2.8-4,3.9c-0.3,1.4,0.2,2.6,1.6,5.3
				c0.8,1.5,1.6,3.2,2.3,5.3c1.6,4.9,1.7,10.3,0.3,15.2c-0.7,2.5-1.8,4.4-2.7,6c-1.3,2.3-1.7,3.2-1.5,5.1c0.1,1.5,2,2.9,5,5
				c2.6,1.8,5.5,3.9,7.6,6.9c2.3,3.3,3.8,6.8,4.4,10.6c0.3,1.7,0.4,3.3,0.6,4.8c0.2,2.5,0.5,4.7,1.2,5.3c0.8,0.7,4.5,1.1,6.4,1.3
				c2.4,0.2,5,0.5,7.3,1.2c6.7,2.2,11.1,7.2,12.7,9.3c0.8,1,1.4,1.9,2,2.8c1.8,2.5,2.5,3.4,3.5,3.8c1.7,0.6,3.9-0.5,6.3-1.7
				c1.3-0.6,2.7-1.3,4.1-1.8C93.7,147.1,96.5,146.7,99.3,146.7z"/>
		</g>
		<g id="XMLID_613_">
			<path id="XMLID_614_" class="st2" d="M65.5,271v-86.7c0-0.6,0-1.3-0.1-2c-0.1-3.1-0.3-6.9,1.6-10.6l2.1-4.7c0,0,8.4,5.7,17.2,1.7
				c2.8-1.3,7.4-3.3,12.5-3.3c6.9,0,8.6,1.7,12.2,3.4c1.4,0.7,2.6,1.4,3.9,1.6c7.5,1.1,13.1-3.8,13.1-3.8l2,5.6
				c1.3,3.5,1.2,7.1,1.1,9.9c0,0.7-0.1,1.4-0.1,2.1v86.5c0,0-30.7-22.5-32.7-24.1C95.2,249.1,65.5,271,65.5,271z M98.6,231.2
				l3.6,2.7c2.7,2,6.5,5.1,10.6,8.4c1.7,1.4,3.7,3,5.6,4.5v-62.5c0-0.4,0-0.9,0-1.3c-0.8,0.1-1.7,0.2-2.6,0.2l0,0
				c-1.5,0-2.9-0.2-4.4-0.6c-2.2-0.6-4.1-1.5-5.8-2.3c-2.9-1.4-5.1-2.4-8.5-2.1c-1.6,0.2-3.5,1.1-5.6,2c-3.1,1.5-6.7,3.1-10.9,3.1
				c-0.9,0-1.7-0.1-2.6-0.2c0,0.4,0,0.8,0,1.2v62.3c1.1-0.9,2.2-1.7,3.3-2.6c4.4-3.4,8.9-7,13.5-10.2L98.6,231.2z"/>
		</g>
	</g>
	<path id="XMLID_344_" class="st6" d="M98.6,81.8C82.3,81.8,69,94.2,69,109.4c0,7.2,4.3,11.5,11.4,11.5c3.3,0,6.9-0.8,10.3-1.6
		c2.9-0.7,5.9-1.4,7.9-1.4c1.8,0,4.6,0.7,7.4,1.3c3.6,0.8,7.3,1.7,10.7,1.7c7.3,0,11.6-4.3,11.6-11.5C128.3,94.2,115,81.8,98.6,81.8
		z M118.5,111.1c0,0-0.4,0.3-1.8,0.3c-2.3,0-5.5-0.7-8.5-1.5c-3.4-0.8-6.6-1.5-9.5-1.5c-3.1,0-6.7,0.8-10,1.6c-3,0.7-6,1.4-8.2,1.4
		c-1.2,0-1.6-0.2-1.6-0.2c0,0-0.3-0.5-0.3-1.8c0-10,9.1-18.1,20.2-18.1c11.1,0,20.2,8.1,20.2,18.1
		C118.8,110.5,118.6,111.1,118.5,111.1z"/>
	<path id="XMLID_340_" class="st6" d="M83.9,72.7c0-8.3-5.8-15.1-12.9-15.1c-7.1,0-12.9,6.8-12.9,15.1c0,8.3,5.8,15.1,12.9,15.1
		C78.1,87.8,83.9,81.1,83.9,72.7z M67.6,72.7c0-3.2,1.8-5.7,3.4-5.7c1.6,0,3.4,2.4,3.4,5.7c0,3.2-1.8,5.7-3.4,5.7
		C69.4,78.4,67.6,76,67.6,72.7z"/>
	<path id="XMLID_336_" class="st6" d="M99.5,78.5c7.1,0,12.9-6.8,12.9-15.1c0-8.3-5.8-15.1-12.9-15.1c-7.1,0-12.9,6.8-12.9,15.1
		S92.4,78.5,99.5,78.5z M99.5,57.7c1.6,0,3.4,2.4,3.4,5.7s-1.8,5.7-3.4,5.7c-1.6,0-3.4-2.4-3.4-5.7S97.9,57.7,99.5,57.7z"/>
	<path id="XMLID_333_" class="st6" d="M128,57.6c-7.1,0-12.9,6.8-12.9,15.1c0,8.3,5.8,15.1,12.9,15.1c7.1,0,12.9-6.8,12.9-15.1
		C140.9,64.4,135.1,57.6,128,57.6z M128,78.4c-1.6,0-3.4-2.4-3.4-5.7c0-3.2,1.8-5.7,3.4-5.7c1.6,0,3.4,2.4,3.4,5.7
		C131.4,76,129.6,78.4,128,78.4z"/>
</g>
<g id="Layer_1_copy_3">
	<text id="XMLID_680_" transform="matrix(1 0 0 1 191.0002 154.8197)"><tspan x="0" y="0" class="st3 st7">Medicina</tspan><tspan x="0" y="57.6" class="st3 st7">alternativa</tspan></text>
	<path id="XMLID_655_" class="st2" d="M158.4,198.4c20.4-23.5,19.4-58.1,19.4-59.8l-0.2-4.5l-4.5-0.2c-1.4,0-28-0.7-50.3,12.6
		c-6.4-25.1-25.6-43.4-26.6-44.3l-3.1-2.8l-3.3,3.1c-0.9,0.9-20.4,19.2-26.6,44.3c-22.3-13.3-48.8-12.6-50.3-12.6l-4.5,0.2l-0.2,4.5
		c0,1.4-0.9,36.3,19.4,59.8c-13.3,5.5-22.5,13.8-23,14.2L1,216.4l3.8,3.6c0.9,0.7,20.6,19,45.8,19c6.2,0,12.1-1.2,17.5-2.8
		c-0.2,0.7-0.2,1.4-0.2,1.7c0,2.4,1.2,14,23.2,23.2l1.9,0.7l1.9-0.7c22.3-9.2,23.2-20.9,23.2-23.2c0-0.5,0-0.9-0.2-1.7
		c5.5,1.7,11.4,2.8,17.5,2.8c25.1,0,44.8-18.3,45.8-19l3.8-3.6l-3.8-3.6C181,212.1,172,203.8,158.4,198.4z M168.4,143.6
		c-0.5,10.2-3.6,35.1-19.2,51c-15.9,15.9-40.8,18.7-51,19.2c0.5-10.2,3.3-35.1,19.2-51C133.3,147.2,158,144.3,168.4,143.6z
		 M93.2,112.6c5.9,6.4,18,21.8,21.3,40.1c-1.4,1.2-2.6,2.4-4,3.6c-8.8,8.8-14.2,19.9-17.5,30.1c-3.3-10.2-8.5-21.3-17.5-30.1
		c-1.2-1.2-2.6-2.6-4-3.6C75.2,134.4,87.3,119.2,93.2,112.6z M18.1,143.6c10.2,0.5,35.1,3.3,51,19.2s18.7,40.8,19.2,51
		c-10.2-0.5-35.1-3.6-51-19.2C21.6,178.7,18.8,154.1,18.1,143.6z M50.8,229.2c-14.9,0-28.5-8.1-34.9-13c4.3-3.1,11.4-7.6,19.7-10.4
		c12.8,10.2,28.5,14.7,40.3,16.6C69.1,225.9,60.3,229.2,50.8,229.2z M93.2,251.3c-7.1-3.3-15.6-9.2-15.6-13.5
		c0-4.5,8.8-10.4,15.6-13.5c7.1,3.3,15.6,9.2,15.6,13.5C108.9,242,100.1,247.9,93.2,251.3z M135.7,229.2c-9.5,0-18.3-3.3-25.1-6.9
		c11.9-1.9,27.5-6.2,40.3-16.6c8.5,2.8,15.6,7.4,19.9,10.4C164.1,220.9,150.9,229.2,135.7,229.2z"/>
	<path id="XMLID_664_" class="st2" d="M41,64.2c-2.9-3.1-5.8-6.2-8.8-9.2c-1.9-2-5.2-1.9-7.1,0c-2,2-1.9,5.1,0,7.1
		c2.9,3.1,5.8,6.2,8.8,9.2c1.9,2,5.2,1.9,7.1,0C43,69.3,42.9,66.2,41,64.2z"/>
	<path id="XMLID_665_" class="st2" d="M88.3,42.6v14c0,6.4,10,6.4,10,0v-14C98.3,36.1,88.3,36.1,88.3,42.6z"/>
	<path id="XMLID_666_" class="st2" d="M158.4,50.9c-3.4,3.5-6.4,7.4-8.9,11.7c-3.3,5.5,5.3,10.6,8.6,5c2.1-3.5,4.5-6.7,7.3-9.6
		C169.9,53.4,162.8,46.3,158.4,50.9z"/>
</g>
<g id="Layer_2" class="st0">
	<g id="XMLID_85_" class="st1">
		<path id="XMLID_96_" class="st2" d="M56.8,140c0,8.4,5.8,15.2,12.9,15.2c7.1,0,12.9-6.8,12.9-15.2c0-8.4-5.8-15.2-12.9-15.2
			C62.6,124.8,56.8,131.6,56.8,140z M74.1,140c0,4-2.3,6.7-4.4,6.7c-2.1,0-4.4-2.8-4.4-6.7c0-4,2.3-6.7,4.4-6.7
			C71.8,133.3,74.1,136.1,74.1,140z"/>
		<path id="XMLID_93_" class="st2" d="M86.9,130.2c0,8.4,5.8,15.2,12.9,15.2c7.1,0,12.9-6.8,12.9-15.2s-5.8-15.2-12.9-15.2
			C92.7,114.9,86.9,121.8,86.9,130.2z M104.2,130.2c0,4-2.3,6.7-4.4,6.7c-2.1,0-4.4-2.8-4.4-6.7c0-4,2.3-6.7,4.4-6.7
			C101.9,123.4,104.2,126.2,104.2,130.2z"/>
		<path id="XMLID_86_" class="st2" d="M188.8,68.4l-47.2-47.2c-1.9-1.9-4.5-3-7.3-3c-2.7,0-5.3,1.1-7.3,3l-5.8,5.8
			c-1.9,1.9-3,4.5-3,7.3s1.1,5.3,3,7.3l20.6,20.6L133,71l-20.6-20.6c-1.9-1.9-4.5-3-7.3-3s-5.3,1.1-7.3,3L14.2,134
			c-1.9,1.9-3,4.5-3,7.3s1.1,5.3,3,7.3l9.3,9.3l-8.9,8.9c-1.9,1.9-3,4.5-3,7.3c0,2.7,1.1,5.3,3,7.3l4.1,4.1l-66.5,66.5
			c-1.7,1.7-1.7,4.4,0,6c0.8,0.8,1.9,1.2,3,1.2c1.1,0,2.2-0.4,3-1.2l66.5-66.5l4.1,4.1c1.9,1.9,4.5,3,7.3,3s5.3-1.1,7.3-3l8.9-8.9
			l9.3,9.3c1.9,1.9,4.5,3,7.3,3s5.3-1.1,7.3-3l5.7-5.7c2.8-0.2,5.8-0.9,8.7-1.6c3.1-0.7,6.3-1.5,8.5-1.5c2,0,5,0.7,7.9,1.4
			c3.7,0.9,7.6,1.8,11.1,1.8c7.3,0,11.5-4.2,11.5-11.4c0-15.7-13.7-28.4-30.6-28.4c-16.8,0-30.6,12.7-30.6,28.4c0,4,1.3,7.1,3.6,9
			l-2,2c-0.4,0.4-1,0.5-1.2,0.5c-0.3,0-0.8-0.1-1.2-0.5l-47.2-47.2c-0.7-0.7-0.7-1.8,0-2.5L39,121.3l5.1,5.1c0.8,0.8,1.9,1.2,3,1.2
			c1.1,0,2.2-0.4,3-1.2c1.7-1.7,1.7-4.4,0-6l-5.1-5.1l9.4-9.4l5.1,5.1c0.8,0.8,1.9,1.2,3,1.2c1.1,0,2.2-0.4,3-1.2
			c1.7-1.7,1.7-4.4,0-6l-5.1-5.1l29.3-29.3l49.7,49.7l-5.2,5.2c0,0-0.1,0.1-0.1,0.1c-1.3-0.5-2.7-0.8-4.2-0.8
			c-7.1,0-12.9,6.8-12.9,15.2c0,8.4,5.8,15.2,12.9,15.2c7.1,0,12.9-6.8,12.9-15.2c0-3.3-0.9-6.3-2.4-8.8l19.2-19.2
			c4-4,4-10.5,0-14.5L139,77l8.8-8.8l20.6,20.6c1.9,1.9,4.5,3,7.3,3c2.7,0,5.3-1.1,7.3-3l5.8-5.8C192.8,78.9,192.8,72.4,188.8,68.4z
			 M98.9,158.9c12.2,0,22.1,8.9,22.1,19.9c0,2.5-0.4,2.9-3,2.9c-2.5,0-5.9-0.8-9.2-1.6c-3.6-0.8-6.9-1.6-9.9-1.6
			c-3.2,0-6.9,0.8-10.4,1.7c-3.2,0.7-6.4,1.5-8.8,1.5c-1.3,0-2-0.2-2.2-0.4c-0.2-0.2-0.5-1-0.5-2.5
			C76.9,167.8,86.8,158.9,98.9,158.9z M37.3,189.3c-0.4,0.4-1,0.5-1.2,0.5s-0.8-0.1-1.2-0.5l-14.2-14.2c-0.4-0.4-0.5-1-0.5-1.2
			s0.1-0.8,0.5-1.2l8.9-8.9l16.6,16.6L37.3,189.3z M129.9,146.8c-2.1,0-4.4-2.8-4.4-6.7c0-4,2.3-6.7,4.4-6.7s4.4,2.8,4.4,6.7
			C134.3,144,132,146.8,129.9,146.8z M153.6,106.1l-8.2,8.2L95.7,64.5l8.2-8.2c0.7-0.7,1.8-0.7,2.5,0l47.2,47.2
			C154.3,104.3,154.3,105.4,153.6,106.1z M182.8,76.9l-5.8,5.8c-0.4,0.4-1,0.5-1.2,0.5s-0.8-0.1-1.2-0.5l-47.2-47.2
			c-0.4-0.4-0.5-1-0.5-1.2c0-0.3,0.1-0.8,0.5-1.2l5.8-5.8c0.4-0.4,1-0.5,1.2-0.5c0.3,0,0.8,0.1,1.2,0.5l47.2,47.2
			C183.5,75.1,183.5,76.2,182.8,76.9z"/>
	</g>
	<text id="XMLID_84_" transform="matrix(1 0 0 1 191.0004 185.2279)" class="st1 st3 st4">Vacunas</text>
</g>
<g id="Layer_2_copy" class="st0">
	<text id="XMLID_196_" transform="matrix(1 0 0 1 191.0004 185.2279)" class="st1 st3 st4">Guardería</text>
	<path id="XMLID_584_" class="st6" d="M70.5,165.4c-22.2,0-40.3,16.8-40.3,37.5c0,9.8,5.8,15.7,15.5,15.7c4.5,0,9.3-1.1,14.1-2.2
		c3.9-0.9,8-1.8,10.7-1.8c2.4,0,6.3,0.9,10,1.8c4.9,1.1,9.9,2.3,14.5,2.3c9.9,0,15.8-5.9,15.8-15.7
		C110.8,182.2,92.7,165.4,70.5,165.4z M97.5,205.3c0,0-0.6,0.4-2.5,0.4c-3.2,0-7.5-1-11.6-2c-4.6-1.1-9-2.1-12.9-2.1
		c-4.3,0-9,1.1-13.7,2.2c-4,0.9-8.2,1.9-11.2,1.9c-1.7,0-2.2-0.3-2.2-0.3c0,0-0.4-0.6-0.4-2.5c0-13.6,12.3-24.6,27.4-24.6
		c15.1,0,27.4,11,27.4,24.6C97.9,204.5,97.6,205.2,97.5,205.3z"/>
	<path id="XMLID_581_" class="st6" d="M50.5,153.1c0-11.3-7.9-20.6-17.5-20.6c-9.7,0-17.5,9.2-17.5,20.6c0,11.3,7.9,20.6,17.5,20.6
		C42.6,173.7,50.5,164.5,50.5,153.1z M28.3,153.1c0-4.4,2.5-7.7,4.7-7.7c2.2,0,4.6,3.3,4.6,7.7c0,4.4-2.5,7.7-4.6,7.7
		C30.7,160.8,28.3,157.5,28.3,153.1z"/>
	<path id="XMLID_578_" class="st6" d="M71.7,161c9.7,0,17.5-9.2,17.5-20.6s-7.9-20.6-17.5-20.6s-17.5,9.2-17.5,20.6S62,161,71.7,161
		z M71.7,132.7c2.2,0,4.6,3.3,4.6,7.7s-2.5,7.7-4.6,7.7c-2.2,0-4.6-3.3-4.6-7.7S69.5,132.7,71.7,132.7z"/>
	<path id="XMLID_575_" class="st6" d="M110.4,132.6c-9.7,0-17.5,9.2-17.5,20.6c0,11.3,7.9,20.6,17.5,20.6s17.5-9.2,17.5-20.6
		S120.1,132.6,110.4,132.6z M110.4,160.8c-2.2,0-4.7-3.3-4.7-7.7s2.5-7.7,4.7-7.7c2.2,0,4.7,3.3,4.7,7.7S112.6,160.8,110.4,160.8z"
		/>
	<path id="XMLID_533_" class="st6" d="M120.5,76.2c-18.3,0-35.2,7.3-47.7,20.3c-12.4-13-29.4-20.3-47.7-20.3
		c-36.5,0-66.2,29.7-66.2,66.2c0,17,6,34.2,18,51c9.3,13.1,22.2,26,38.3,38.4c27.1,20.9,53.9,33,55,33.5c0.8,0.4,1.7,0.6,2.6,0.6
		c0.8,0,1.6-0.1,2.3-0.4c1.1-0.4,28-11,55.2-31.2c16.2-12,29.1-24.8,38.4-38.2c11.9-17.1,17.9-35.1,17.9-53.6
		C186.7,105.9,157,76.2,120.5,76.2z M73,252.3c-15.8-7.7-101.1-51.8-101.1-109.9c0-29.4,23.9-53.3,53.3-53.3
		c16.8,0,32.4,7.7,42.5,21.2c1.2,1.6,3.1,2.6,5.1,2.6s3.9-0.9,5.1-2.6c10.2-13.5,25.7-21.2,42.5-21.2c29.4,0,53.3,23.9,53.3,53.3
		C173.8,205.9,88.8,245.5,73,252.3z"/>
	<path id="XMLID_535_" class="st6" d="M-10.4,52.1c-2.2-3.1-4.4-6.3-6.5-9.4c-1.5-2.2-4.4-3.2-6.8-1.8c-2.2,1.3-3.3,4.6-1.8,6.8
		c2.2,3.1,4.4,6.3,6.5,9.4c1.5,2.2,4.4,3.2,6.8,1.8C-10,57.6-8.9,54.3-10.4,52.1z"/>
	<path id="XMLID_576_" class="st6" d="M63.7,33.2v15.3c0,6.4,10,6.4,10,0V33.2C73.7,26.8,63.7,26.8,63.7,33.2z"/>
	<path id="XMLID_577_" class="st6" d="M158.2,34.3c-1.8-1.8-5.3-2.1-7.1,0c-3.1,3.7-5.8,7.6-8,11.8c-2.9,5.7,5.7,10.8,8.6,5
		c1.8-3.5,3.9-6.8,6.5-9.8C159.9,39.3,160.2,36.3,158.2,34.3z"/>
</g>
<g id="Layer_3" class="st0">
	<g id="XMLID_100_" class="st1">
		<g id="XMLID_117_">
			<path id="XMLID_118_" class="st8" d="M34.5,130.2c-17.3,0-31.3-18.4-31.3-41s14.1-41,31.3-41c17.3,0,31.3,18.4,31.3,41
				S51.8,130.2,34.5,130.2z M34.5,54.7c-13.7,0-24.9,15.5-24.9,34.5c0,19,11.2,34.5,24.9,34.5c13.7,0,24.9-15.5,24.9-34.5
				C59.5,70.2,48.3,54.7,34.5,54.7z"/>
		</g>
		<g id="XMLID_113_">
			<path id="XMLID_114_" class="st8" d="M116,248.4c-8.5,0-15.8-4.8-23.5-9.9c-4.7-3.1-9.4-6.2-14.7-8.5c-0.8-0.2-3.9-0.5-8.5-0.5
				c-4.2,0-6.4,0.3-6.7,0.4c-5.2,2.2-10.3,5.3-15.2,8.3c-8.4,5.2-15.5,9.6-23.9,9.6c-4.2,0-8.3-1.2-12-3.6
				c-8.8-5.6-13.9-15.4-14.5-27.6c-0.5-11.1,2.9-23,9.7-33.6c0.7-1.1,1.5-2.1,2.3-3c0.3-0.4,0.9-1.1,1-1.3c8-16.5,28-34.1,60-34.1
				l1.2,0c32.5,0.5,52.7,19.1,60,34.9c0.2,0.4,0.7,1.1,1.2,1.8c0.9,1.3,1.7,2.3,2.4,3.5c13.3,23.4,9.7,50.7-8.1,60.8
				C123.4,247.4,119.8,248.4,116,248.4z M69.3,223c4.7,0,9.2,0.4,10.7,0.9c6.1,2.7,11.1,6,16,9.2c7,4.6,13.5,8.9,20,8.9
				c2.7,0,5.3-0.7,7.7-2.1c14.7-8.4,17.3-31.7,5.7-52.1c-0.5-0.9-1.2-1.8-1.9-2.8c-0.8-1.1-1.5-2-1.9-3
				c-6.6-14.1-24.8-30.7-54.3-31.1l-1.2,0c-29,0-47.1,15.8-54.2,30.5c-0.4,0.8-1,1.6-1.9,2.6c-0.6,0.8-1.3,1.5-1.8,2.4
				c-6.1,9.4-9.2,20-8.7,29.8c0.5,10,4.6,18,11.6,22.5c2.7,1.7,5.5,2.6,8.5,2.6c6.5,0,13-4,20.5-8.6c5.2-3.2,10.5-6.4,16.4-8.9
				C62,223.3,65.3,223,69.3,223z"/>
		</g>
		<g id="XMLID_109_">
			<path id="XMLID_110_" class="st8" d="M105.4,130.2c-17.3,0-31.3-18.4-31.3-41s14.1-41,31.3-41c17.3,0,31.3,18.4,31.3,41
				S122.7,130.2,105.4,130.2z M105.4,54.7c-13.7,0-24.9,15.5-24.9,34.5c0,19,11.2,34.5,24.9,34.5c13.7,0,24.9-15.5,24.9-34.5
				C130.3,70.2,119.1,54.7,105.4,54.7z"/>
		</g>
		<g id="XMLID_105_">
			<path id="XMLID_106_" class="st8" d="M159.3,182.3c-16.3,0-29-16.4-29-37.4c0-21,12.8-37.4,29-37.4c16.3,0,29,16.4,29,37.4
				C188.4,165.8,175.6,182.3,159.3,182.3z M159.3,113.8c-12.7,0-22.6,13.6-22.6,31c0,17.4,9.9,31,22.6,31c12.7,0,22.6-13.6,22.6-31
				C182,127.5,172,113.8,159.3,113.8z"/>
		</g>
		<g id="XMLID_101_">
			<path id="XMLID_102_" class="st8" d="M-15.3,182.3c-16.3,0-29-16.4-29-37.4c0-21,12.8-37.4,29-37.4c16.3,0,29,16.4,29,37.4
				C13.7,165.8,1,182.3-15.3,182.3z M-15.3,113.8c-12.7,0-22.6,13.6-22.6,31c0,17.4,9.9,31,22.6,31c12.7,0,22.6-13.6,22.6-31
				C7.3,127.5-2.6,113.8-15.3,113.8z"/>
		</g>
	</g>
	<text id="XMLID_99_" transform="matrix(1 0 0 1 195.0002 153.8197)" class="st1"><tspan x="0" y="0" class="st3 st9">No hay límite</tspan><tspan x="0" y="50.4" class="st3 st9">de mascotas</tspan></text>
	<text id="XMLID_103_" transform="matrix(1 0 0 1 55.3332 205.2275)" class="st1 st10 st9">#</text>
</g>
<g id="Layer_4" class="st0">
	<text id="XMLID_31_" transform="matrix(1 0 0 1 191.0004 155.2279)" class="st1"><tspan x="0" y="0" class="st3 st4">Correa no</tspan><tspan x="0" y="58.6" class="st3 st4">obligatoria</tspan></text>
	<g id="XMLID_38_" class="st1">
		<circle id="XMLID_45_" class="st2" cx="143" cy="125.1" r="5.1"/>
		<path id="XMLID_48_" class="st2" d="M171.2,132.2c-2.4-1.9-5.9-4.7-6.6-5.9c-0.6-1.1-1.4-3.1-2.2-5c-1.2-3.1-2.5-6.4-4-8.6
			c-3.7-5.4-10.1-10.6-17.2-13.9c-7.3-8.9-19.4-11.9-29.9-7c-9.2,4.3-20.8,14.8-18.7,27.8c-0.5,0.5-0.9,0.9-1.4,1.4
			c-1.6,1.6-3.2,3.3-4.9,5c-9.5-0.6-50.6-5.1-84.7-35.2c-0.2-0.3-0.5-0.6-0.8-0.9c-47-44.2-73.2-104.2-102.8-160.2
			c-3-5.7-11.6-0.6-8.6,5c28.7,54.3,54.3,112,98,156.1c0.2,0.6,0.6,1.1,1,1.6c31.4,31.6,69.7,40.5,88.4,43c-1.7,1.5-3.1,2.7-3.8,3.2
			c-44.5,26-66.5,58.1-69,100.6c-13-1.1-21.3-6.9-30.1-15.7c-5.2-5.2-13.8-5.2-19,0c-5.2,5.2-5.2,13.8,0,19
			C-29.3,258-11.1,266,9,266h73.2c1.3,0,2.6-0.5,3.6-1.5c3.4-3.4,4.4-9.1,2.3-14c-2.2-5.3-7.2-8.5-13.4-8.5h-4.9
			c2.5-3.8,5.1-8.5,6.6-13.6c1.5-3.7,4.5-6.4,7.3-8.3c2.3,18.4,7,40.5,7.3,41.8c0.5,2.3,2.6,4,5,4H112c4.6,0,8.3-2.4,9.9-6.5
			c1.8-4.7,0.3-10.8-3.7-14.4c-1.3-1.2-3-2.3-4.5-3.1c-0.8-13.4-0.8-34,2.3-40l1-2c5.2-10.3,10.2-20,16-44.4
			c3.3,0.5,6.5,0.9,9.2,2.4l1.5,0.8c6,3.2,12.1,6.4,18.9,5.3c6.8-1.1,16.7-9.3,18.6-17.2C182.7,141.3,177.4,137.1,171.2,132.2z
			 M108.1,195.3l-1,2c-5.6,11.1-3.5,44.3-3.2,48.1c0.1,1.8,1.2,3.4,2.9,4.2c1.3,0.6,3.7,2,4.7,2.9c1.2,1.1,1.3,2.9,1.2,3.2
			c0,0-0.2,0.1-0.5,0.1h-12c-2.2-10.9-8-41-7.5-53.5c0.1-3.1,2.1-11.1,3.4-15.4c0.8-2.7-0.8-5.5-3.5-6.3c-2.7-0.8-5.5,0.8-6.3,3.5
			c-0.4,1.3-3.5,12.4-3.8,17.8c-0.1,2.1,0,4.5,0.2,7.2c-1.7,0.9-3.8,2.1-6,3.7c-1.6-5.6-4.9-10.7-9.4-14.2
			c-7.4-5.6-17.1-6.5-27.5-2.4c-2.6,1-3.9,4-2.9,6.6c1,2.6,4,3.9,6.6,2.9c7.1-2.8,13.2-2.4,17.7,1c5.1,3.9,6.9,10.5,6.4,15.1
			c-1.1,10.6-11.5,21.7-11.6,21.8c-1.4,1.5-1.8,3.6-1,5.5c0.8,1.9,2.6,3.1,4.6,3.1h15.3c2,0,3.4,0.8,4,2.3c0.2,0.5,0.3,1,0.3,1.5H9
			c-17.2,0-33-7-46.9-20.9c-1.3-1.3-1.3-3.4,0-4.7c1.3-1.3,3.4-1.3,4.7,0c11.4,11.4,22.9,18.9,42.2,18.9c2.8,0,5-2.2,5.1-5
			c0.9-41.8,20.7-71.8,64.2-97.2c1.8-1,4.3-3.2,7.7-6.4c6.2,14.6,21.7,25.3,33.2,28.6C115.3,181.3,111.9,188,108.1,195.3z
			 M161.1,154.1c-3.4,0.6-7.8-1.8-12.5-4.3l-1.6-0.8c-4.4-2.3-8.8-2.9-12.7-3.5c-6.2-0.9-9.6-1.5-12.5-6.2c-1.5-2.4-4.6-3.1-7-1.6
			c-2.4,1.5-3.1,4.6-1.6,7c2.9,4.6,6.4,7.1,10,8.5c-0.5,2.2-1,4.3-1.5,6.2c-9.1-2.6-24.8-13.4-28-26.7c1.1-1.2,2.3-2.4,3.6-3.6
			c2.2,2.2,5.2,4,8.5,5.1c2.2,0.7,4.3,1,6.4,1c3.5,0,6.9-1,9.7-2.8c5.5-3.7,10.8-12.6,11.3-13.6c1.4-2.4,0.6-5.5-1.8-6.9
			c-2.4-1.4-5.5-0.6-6.9,1.8c-1.5,2.5-5.4,8.4-8.2,10.3c-1.8,1.2-4.6,1.4-7.4,0.6c-2.8-0.9-5-2.6-5.7-4.5c-3.6-9.3,8-17.1,12.4-19.1
			c5.6-2.6,12-1.4,16.4,2.8c0.2,0.2,0.4,0.4,0.6,0.7c2,2.4,3.7,3.2,3.8,3.3c5.6,2.5,10.8,6.5,13.6,10.7c0.9,1.3,2,4.2,3,6.6
			c0.9,2.3,1.8,4.5,2.7,6.2c1.7,3.1,5.3,5.9,9.2,9c2,1.5,5,4,6.3,5.4C169.5,149.3,163.8,153.6,161.1,154.1z"/>
	</g>
</g>
<g id="Layer_4_copy" class="st0">
	<text id="XMLID_586_" transform="matrix(1 0 0 1 191.0004 155.2279)" class="st1"><tspan x="0" y="0" class="st3 st4">Consultas</tspan><tspan x="0" y="58.6" class="st3 st4">psicológicas</tspan></text>
	<g id="XMLID_534_" class="st1">
		<circle id="XMLID_585_" class="st2" cx="143" cy="125.1" r="5.1"/>
		<path id="XMLID_579_" class="st2" d="M171.2,132.2c-2.4-1.9-5.9-4.7-6.6-5.9c-0.6-1.1-1.4-3.1-2.2-5c-1.2-3.1-2.5-6.4-4-8.6
			c-3.7-5.4-10.1-10.6-17.2-13.9c-7.3-8.9-19.4-11.9-29.9-7c-9.2,4.3-20.8,14.8-18.7,27.8c-0.5,0.5-0.9,0.9-1.4,1.4
			c-1.6,1.6-3.2,3.3-4.9,5c-9.5-0.6-50.6-5.1-84.7-35.2c-0.2-0.3-0.5-0.6-0.8-0.9c-47-44.2-73.2-104.2-102.8-160.2
			c-3-5.7-11.6-0.6-8.6,5c28.7,54.3,54.3,112,98,156.1c0.2,0.6,0.6,1.1,1,1.6c31.4,31.6,69.7,40.5,88.4,43c-1.7,1.5-3.1,2.7-3.8,3.2
			c-44.5,26-66.5,58.1-69,100.6c-13-1.1-21.3-6.9-30.1-15.7c-5.2-5.2-13.8-5.2-19,0c-5.2,5.2-5.2,13.8,0,19
			C-29.3,258-11.1,266,9,266h73.2c1.3,0,2.6-0.5,3.6-1.5c3.4-3.4,4.4-9.1,2.3-14c-2.2-5.3-7.2-8.5-13.4-8.5h-4.9
			c2.5-3.8,5.1-8.5,6.6-13.6c1.5-3.7,4.5-6.4,7.3-8.3c2.3,18.4,7,40.5,7.3,41.8c0.5,2.3,2.6,4,5,4H112c4.6,0,8.3-2.4,9.9-6.5
			c1.8-4.7,0.3-10.8-3.7-14.4c-1.3-1.2-3-2.3-4.5-3.1c-0.8-13.4-0.8-34,2.3-40l1-2c5.2-10.3,10.2-20,16-44.4
			c3.3,0.5,6.5,0.9,9.2,2.4l1.5,0.8c6,3.2,12.1,6.4,18.9,5.3c6.8-1.1,16.7-9.3,18.6-17.2C182.7,141.3,177.4,137.1,171.2,132.2z
			 M108.1,195.3l-1,2c-5.6,11.1-3.5,44.3-3.2,48.1c0.1,1.8,1.2,3.4,2.9,4.2c1.3,0.6,3.7,2,4.7,2.9c1.2,1.1,1.3,2.9,1.2,3.2
			c0,0-0.2,0.1-0.5,0.1h-12c-2.2-10.9-8-41-7.5-53.5c0.1-3.1,2.1-11.1,3.4-15.4c0.8-2.7-0.8-5.5-3.5-6.3c-2.7-0.8-5.5,0.8-6.3,3.5
			c-0.4,1.3-3.5,12.4-3.8,17.8c-0.1,2.1,0,4.5,0.2,7.2c-1.7,0.9-3.8,2.1-6,3.7c-1.6-5.6-4.9-10.7-9.4-14.2
			c-7.4-5.6-17.1-6.5-27.5-2.4c-2.6,1-3.9,4-2.9,6.6c1,2.6,4,3.9,6.6,2.9c7.1-2.8,13.2-2.4,17.7,1c5.1,3.9,6.9,10.5,6.4,15.1
			c-1.1,10.6-11.5,21.7-11.6,21.8c-1.4,1.5-1.8,3.6-1,5.5c0.8,1.9,2.6,3.1,4.6,3.1h15.3c2,0,3.4,0.8,4,2.3c0.2,0.5,0.3,1,0.3,1.5H9
			c-17.2,0-33-7-46.9-20.9c-1.3-1.3-1.3-3.4,0-4.7c1.3-1.3,3.4-1.3,4.7,0c11.4,11.4,22.9,18.9,42.2,18.9c2.8,0,5-2.2,5.1-5
			c0.9-41.8,20.7-71.8,64.2-97.2c1.8-1,4.3-3.2,7.7-6.4c6.2,14.6,21.7,25.3,33.2,28.6C115.3,181.3,111.9,188,108.1,195.3z
			 M161.1,154.1c-3.4,0.6-7.8-1.8-12.5-4.3l-1.6-0.8c-4.4-2.3-8.8-2.9-12.7-3.5c-6.2-0.9-9.6-1.5-12.5-6.2c-1.5-2.4-4.6-3.1-7-1.6
			c-2.4,1.5-3.1,4.6-1.6,7c2.9,4.6,6.4,7.1,10,8.5c-0.5,2.2-1,4.3-1.5,6.2c-9.1-2.6-24.8-13.4-28-26.7c1.1-1.2,2.3-2.4,3.6-3.6
			c2.2,2.2,5.2,4,8.5,5.1c2.2,0.7,4.3,1,6.4,1c3.5,0,6.9-1,9.7-2.8c5.5-3.7,10.8-12.6,11.3-13.6c1.4-2.4,0.6-5.5-1.8-6.9
			c-2.4-1.4-5.5-0.6-6.9,1.8c-1.5,2.5-5.4,8.4-8.2,10.3c-1.8,1.2-4.6,1.4-7.4,0.6c-2.8-0.9-5-2.6-5.7-4.5c-3.6-9.3,8-17.1,12.4-19.1
			c5.6-2.6,12-1.4,16.4,2.8c0.2,0.2,0.4,0.4,0.6,0.7c2,2.4,3.7,3.2,3.8,3.3c5.6,2.5,10.8,6.5,13.6,10.7c0.9,1.3,2,4.2,3,6.6
			c0.9,2.3,1.8,4.5,2.7,6.2c1.7,3.1,5.3,5.9,9.2,9c2,1.5,5,4,6.3,5.4C169.5,149.3,163.8,153.6,161.1,154.1z"/>
	</g>
</g>
<g id="Layer_4_copy_2" class="st0">
	<text id="XMLID_607_" transform="matrix(1 0 0 1 191.0004 155.2279)" class="st1"><tspan x="0" y="0" class="st3 st4">Consultas</tspan><tspan x="0" y="58.6" class="st3 st4">psicológicas</tspan></text>
	<g id="XMLID_331_" class="st1">
		<path id="XMLID_332_" class="st2" d="M181.3,163.9c0-6.7-2.4-12.9-6.8-17.9c1.8-36.3,2.7-60.5-8.7-82.9
			c-7.8-15.2-20.5-27.9-37.6-37.8C108.2,13.8,85.4,8.2,62.3,9c-10.4,0.4-20.7,3.1-30,8C23.8,21.4,16.1,27.7,10,35.2
			c-16.8,1-32.2,10.1-40.4,24.2c-0.7,1.2-1.4,2.5-2,3.7C-43.9,85.5-43,109.7-41.2,146c-4.2,4.8-6.8,11-6.8,17.8
			c0,14.1,10.9,25.7,24.7,26.8c5.8,18.5,21,39.5,45.5,62.7C34.7,265.1,50.7,271,66.7,271c16,0,32-5.9,44.4-17.6
			c24.5-23.1,39.8-44.1,45.5-62.7C170.4,189.6,181.3,178,181.3,163.9z M36.8,25.6c8-4.2,16.9-6.6,25.9-6.9
			c21.3-0.8,42.3,4.4,60.8,15c15.5,8.9,26.9,20.3,33.8,33.8c9.7,18.8,9.5,39.3,7.8,75.7l-10.8,0.6c-7.1,0.2-14.2,0.1-21-0.3
			c-5.3-4.6-12.2-7.4-19.7-7.4c-4.4,0-8.5,0.9-12.3,2.6c-39.6-9.4-62.9-29.3-72-38.4L17.5,41.2C22.8,34.8,29.4,29.4,36.8,25.6z
			 M66.7,152.1c-6.5,0-12.7,2.1-17.8,5.8c-3.7-12.5-15.3-21.7-29-21.7c-13.2,0-24.4,8.5-28.5,20.2l-7.7-7.7v-8.4
			c19.7-3.2,33.7-12.9,42.4-29.5c10.9,10,32.1,25.9,64.8,35.2c-3,3.3-5.3,7.3-6.6,11.8C79.4,154.2,73.2,152.1,66.7,152.1z
			 M141.9,156.4c-0.3-1-0.7-1.9-1.2-2.8c1.3,0,2.6,0.1,3.9,0.1L141.9,156.4z M-23.9,67.6c0.6-1.1,1.2-2.2,1.8-3.3
			C-15.8,53.5-4.3,46.4,8.4,45l11.3,57.1c-7.7,17.7-20.8,26.9-41.3,29.2c-2.5,0.3-4.3,2.3-4.3,4.8v1.3c-2.1,0.4-4.1,1-6,1.8
			C-33.4,105.3-33.2,85.7-23.9,67.6z M-38.3,163.9c0-7.8,5.3-14.5,12.4-16.6v27.3c0,1.9,0.1,3.9,0.4,5.9
			C-32.9,178.6-38.3,171.8-38.3,163.9z M104.4,246.3c-21.2,20-54.4,20-75.5,0c-29.5-27.8-45.1-52.6-45.1-71.7v-12.2l6,6
			c1.1,15.7,14.2,28.1,30.1,28.1c15.2,0,27.8-11.3,29.9-25.9c3.8-5.6,10.1-8.9,16.9-8.9c6.8,0,13,3.3,16.9,8.9
			c2.1,14.6,14.7,25.9,29.9,25.9c15.9,0,29-12.4,30.1-28.1l6-6v12.2C149.6,193.7,134,218.5,104.4,246.3z M158.9,180.5
			c0.2-2,0.4-4,0.4-5.9v-21.3l8.4-0.5c2.6,3.1,4,7,4,11.1C171.7,171.8,166.2,178.6,158.9,180.5z M41,165.9
			c0,11.8-9.5,21.3-21.3,21.3s-21.3-9.5-21.3-21.3c0-11.8,9.5-21.3,21.3-21.3S41,154.1,41,165.9z M133.5,166.5
			c0,11.8-9.5,21.3-21.3,21.3s-21.3-9.5-21.3-21.3c0-11.8,9.5-21.3,21.3-21.3S133.5,154.7,133.5,166.5z"/>
	</g>
</g>
<g id="Layer_6" class="st0">
	<path id="XMLID_44_" class="st6" d="M182.7,147.7c0-28.8-23.4-52.2-52.2-52.2c-10.2,0-20.2,3-28.6,8.6c-2.2-9.6-5.1-18.9-8.6-27.2
		c-9.5-22.3-21.9-34.6-34.9-34.6c-13.1,0-25.5,12.2-34.9,34.4c-3.3,7.8-6.1,16.5-8.3,25.6L2,54.3c-0.5-1.7-2.1-3-3.9-3
		s-3.4,1.2-3.9,3l-36.1,132.4c-0.3,1.2-0.1,2.5,0.7,3.5c0.8,1,1.9,1.6,3.2,1.6h32.1v32.1c0,2.2,1.8,4,4,4s4-1.8,4-4v-32.1h32.1
		c1.3,0,2.4-0.6,3.2-1.6c0.6-0.8,0.9-1.8,0.8-2.8c5,2.3,10.4,3.7,16.1,4.2v32.3c0,2.2,1.8,4,4,4c2.2,0,4-1.8,4-4v-32.3
		c10.4-0.9,19.9-5,27.4-11.5c9,11.3,22.4,18.4,36.8,19.5v24.2c0,2.2,1.8,4,4,4c2.2,0,4-1.8,4-4v-24.2
		C161.4,197.6,182.7,175.1,182.7,147.7z M29,183.8H2.1v-6.4l7.1-7.1c1.6-1.6,1.6-4.1,0-5.7c-1.6-1.6-4.1-1.6-5.7,0l-1.4,1.4v-26.4
		c0-2.2-1.8-4-4-4s-4,1.8-4,4v18.4l-5.2-5.2c-1.6-1.6-4.1-1.6-5.7,0c-1.6,1.6-1.6,4.1,0,5.7l10.9,10.9v6.4c0,0,0,0,0,0v8h-26.8
		L-1.9,70.7l13.6,49.8c-1.1,7.8-1.6,15.6-1.6,23.1c0,15.3,7.1,28.9,18.2,37.7L29,183.8z M62.3,177.4l14.9-14.9
		c1.6-1.6,1.6-4.1,0-5.7c-1.6-1.6-4.1-1.6-5.7,0l-9.2,9.2v-16.7l10.9-10.9c1.6-1.6,1.6-4.1,0-5.7c-1.6-1.6-4.1-1.6-5.7,0l-5.2,5.2
		v-10.4c0-2.2-1.8-4-4-4c-2.2,0-4,1.8-4,4v20.1c0,0,0,0,0,0v10.4l-9.2-9.2c-1.6-1.6-4.1-1.6-5.7,0c-1.6,1.6-1.6,4.1,0,5.7l14.9,14.9
		v6.4c0,0,0,0,0,0v7.8c-20.3-2-36.2-19.2-36.2-40c0-21.3,4.7-45.1,12.6-63.7c8-18.8,18-29.5,27.6-29.5c9.5,0,19.5,10.8,27.6,29.7
		c7.9,18.6,12.6,42.3,12.6,63.5c0,20.8-15.9,38-36.2,40V177.4z M134.5,191.6v-6.2l14.9-14.9c1.6-1.6,1.6-4.1,0-5.7
		c-1.6-1.6-4.1-1.6-5.7,0l-9.2,9.2v-26.4c0-2.2-1.8-4-4-4c-2.2,0-4,1.8-4,4v18.4l-9.2-9.2c-1.6-1.6-4.1-1.6-5.7,0
		c-1.6,1.6-1.6,4.1,0,5.7l14.9,14.9v6.4c0,0,0,0,0,0v7.8c-12.3-1.1-23.6-7.4-31.1-17.3c6.9-8.4,11.1-19.1,11.1-30.8
		c0-10-1-20.6-2.9-30.9c7.7-5.9,17.2-9.1,26.9-9.1c24.3,0,44.1,19.8,44.1,44.1C174.7,170.7,157,189.6,134.5,191.6z"/>
	<g id="XMLID_50_" class="st1">
		<g id="XMLID_112_">
			<path id="XMLID_120_" class="st2" d="M181.4,239.1c-15.5-5.7-31.9-9.6-48.1-12.7c-35.7-7-72.7-9.7-108.9-5.3
				c-23.9,2.9-47,8.9-69,18.6c-5.9,2.6-0.8,11.2,5,8.6c63.1-27.9,137.8-23.1,202.8-4.4c5.2,1.5,10.4,3,15.5,4.9
				C184.8,250.9,187.4,241.3,181.4,239.1L181.4,239.1z"/>
		</g>
	</g>
	<text id="XMLID_43_" transform="matrix(1 0 0 1 193.0004 112.2279)" class="st1"><tspan x="0" y="0" class="st3 st11">Areas</tspan><tspan x="0" y="54" class="st3 st11">comunes no</tspan><tspan x="0" y="108" class="st3 st11">pet-friendly</tspan></text>
</g>
<g id="Layer_7" class="st0">
	<g id="XMLID_53_" class="st1">
		<path id="XMLID_107_" class="st2" d="M175.1,135.5L83,43.6c-8.5-8.5-22.3-8.5-30.9,0L-40,135.5c-4.1,4.1-6.4,9.7-6.4,15.4
			s2.3,11.3,6.4,15.4c1.4,1.4,3.5,1.4,4.8,0l20.7-20.7v93c0,1.8,1.6,3.5,3.5,3.5h156.6c1.8,0,3.5-1.6,3.5-3.5v-93l20.7,20.7
			c0.7,0.7,1.6,0.9,2.5,0.9s1.8-0.2,2.5-0.9c4.1-4.1,6.4-9.7,6.4-15.4C181.3,145.2,179,139.7,175.1,135.5z M101,195.7H94
			c-2.8,0-4.8-2.3-4.8-4.8c0-0.2,0-0.5,0-0.7c-0.2-2.5-1.2-4.8-2.5-6.7c0-0.2-0.2-0.5-0.2-0.5l-20.5-28.1c-0.9-1.2-2.5-1.6-3.9-1.2
			c-1.4,0.5-2.3,1.8-2.3,3.2v6.2l-7.1-7.8c-0.9-0.9-2.5-1.4-3.7-0.9c-1.4,0.5-2.1,1.8-2.3,3.2l-0.2,27.4c-4.4,6.4-7.6,15.9-5.8,28.6
			c-1.6,0.7-3.7,1.6-6.2,2.8v-38.2c0-18.4,15-33.4,33.4-33.4s33.4,15,33.4,33.4v17.5H101z M59.3,172.9c-1.6,0.9-3.9,2.3-6.2,4.4
			v-11.1L59.3,172.9z M34.2,224c6.4-3.5,11.1-4.8,11.1-4.8c1.6-0.5,2.8-2.3,2.3-3.9c-5.5-27.4,15.7-36.6,16.6-36.9
			c1.4-0.5,2.1-1.8,2.1-3.2v-7.8l8.5,11.7h-3.5c-1.8,0-3.5,1.6-3.5,3.5c0,1.8,1.6,3.5,3.5,3.5h6c2.3,0,4.4,1.6,4.8,3.9h-4.6
			c-1.8,0-3.5,1.6-3.5,3.5c0,1.8,1.6,3.5,3.5,3.5h6.2c2.1,3.5,5.8,6,10.1,6h16.6v6.7c0,3.9-0.9,13.4-9.9,13.4H80.7
			c-1.8,0-3.5,1.6-3.5,3.5c0,1.8,1.6,3.5,3.5,3.5h9.2c0,1.4-0.2,3.2-0.7,6h-55V224z M100.7,229.3C101,229.3,101,229.3,100.7,229.3
			l0.2,6h-4.4c0.5-2.5,0.5-4.4,0.5-6H100.7z M172.4,158.8l-44.5-44.2c-1.4-1.4-3.5-1.4-4.8,0s-1.4,3.5,0,4.8l19.3,19.3v96.5h-34.5
			v-7.4c6.2-2.8,9.7-9.7,9.7-18.7v-10.1c0-1.8-1.6-3.5-3.5-3.5h-6.4v-17.5c0-22.1-18.2-40.3-40.3-40.3s-40.1,18-40.1,40.3v57.1H-7.3
			v-96.5L53.5,78c1.4-1.4,1.4-3.5,0-4.8c-1.4-1.4-3.5-1.4-4.8,0l-85.9,85.7c-1.4-2.3-2.3-5.1-2.3-7.8c0-3.9,1.6-7.8,4.4-10.6
			l91.9-91.9c2.8-2.8,6.7-4.4,10.6-4.4s7.8,1.6,10.6,4.4l91.9,91.9c2.8,2.8,4.4,6.7,4.4,10.6C174.4,154,173.7,156.5,172.4,158.8z"/>
		<path id="XMLID_54_" class="st2" d="M85.5,98.7c-4.6,0-8.8,3-10.1,7.4h-7.8h-7.8c-1.4-4.1-5.5-7.4-10.1-7.4
			c-6,0-10.8,4.8-10.8,10.8c0,2.8,1.2,5.3,3,7.4c-1.8,1.8-3,4.4-3,7.4c0,6,4.8,10.8,10.8,10.8c4.6,0,8.8-3,10.1-7.4h7.8h7.8
			c1.4,4.1,5.5,7.4,10.1,7.4c6,0,10.8-4.8,10.8-10.8c0-2.8-1.2-5.3-3-7.4c1.8-1.8,3-4.4,3-7.4C96.4,103.5,91.5,98.7,85.5,98.7z
			 M85.5,127.7c-2.1,0-3.9-1.8-3.9-3.9c0-1.8-1.6-3.5-3.5-3.5H67.6H56.7c-1.8,0-3.5,1.6-3.5,3.5c0,2.1-1.8,3.9-3.9,3.9
			c-2.1,0-3.9-1.8-3.9-3.9s1.8-3.9,3.9-3.9c1.8,0,3.5-1.6,3.5-3.5c0-1.8-1.6-3.5-3.5-3.5c-2.1,0-3.9-1.8-3.9-3.9s1.8-3.9,3.9-3.9
			c2.1,0,3.9,1.8,3.9,3.9c0,1.8,1.6,3.5,3.5,3.5h10.8h10.8c1.8,0,3.5-1.6,3.5-3.5c0-2.1,1.8-3.9,3.9-3.9s3.9,1.8,3.9,3.9
			s-1.8,3.9-3.9,3.9c-1.8,0-3.5,1.6-3.5,3.5c0,1.8,1.6,3.5,3.5,3.5c2.1,0,3.9,1.8,3.9,3.9C89.4,126.1,87.8,127.7,85.5,127.7z"/>
	</g>
	<text id="XMLID_52_" transform="matrix(1 0 0 1 196.0004 119.2279)" class="st1"><tspan x="0" y="0" class="st3 st11">Sin</tspan><tspan x="0" y="54" class="st3 st11">espacios</tspan><tspan x="0" y="108" class="st3 st11">designados</tspan></text>
</g>
<g id="Layer_8" class="st0">
	<g id="XMLID_133_" class="st1">
		<path id="XMLID_137_" class="st2" d="M189.7,222.4l-17.2-75.1c0-0.2-0.1-0.3-0.1-0.5c-1.3-4.7-7.6-8.3-19.9-11.4
			c-2.3-12.3-13.1-21.5-26-21.5c-0.8,0-1.7,0-2.5,0.1c-4.5-8.7-13.6-14.3-23.6-14.3c-3,0-6.1,0.5-8.9,1.5
			C87.3,94.7,80,90.6,71.9,90.6s-15.4,4.1-19.7,10.7c-2.8-1-5.9-1.5-8.9-1.5c-10,0-19.1,5.6-23.6,14.3c-0.8-0.1-1.7-0.1-2.5-0.1
			c-12.9,0-23.7,9.3-26,21.5c-12.5,3.1-18.8,6.8-19.9,11.7c0,0.1,0,0.1-0.1,0.2l-17.2,75c-0.1,0.3-0.1,0.6-0.1,0.9
			c0,7.9,12.3,14.9,36.4,20.8c23.4,5.8,52.3,8.9,81.4,8.9c29.2,0,58.1-3.2,81.4-8.9c24.2-6,36.4-13,36.4-20.8
			C189.8,223,189.8,222.7,189.7,222.4z M152.8,144c7.8,2.1,10.5,4,11.4,4.8c-1,0.9-4.5,3.3-15.2,5.7
			C150.9,151.4,152.2,147.8,152.8,144z M17.3,122.1c1.3,0,2.7,0.2,4.1,0.5c2,0.5,4.1-0.7,4.8-2.6c2.6-7.2,9.5-12.1,17.2-12.1
			c3.1,0,6.1,0.8,8.8,2.2c1,0.6,2.2,0.7,3.3,0.3c1.1-0.4,2-1.2,2.4-2.3c2.4-5.7,7.9-9.4,14-9.4s11.7,3.7,14,9.4
			c0.4,1.1,1.3,1.9,2.4,2.3c1.1,0.4,2.3,0.3,3.3-0.3c2.7-1.5,5.7-2.2,8.8-2.2c7.7,0,14.6,4.9,17.2,12.1c0.7,1.9,2.7,3.1,4.8,2.6
			c1.3-0.3,2.7-0.5,4.1-0.5c10.1,0,18,8.2,18.3,18.3c0.2,7-4.8,13.1-9.7,16.6c-17.5,2.6-39.8,4.1-63.3,4.1
			c-22.8,0-44.7-1.4-61.9-3.9c-6.5-3-11-9.7-11-16.8C-1,130.4,7.2,122.1,17.3,122.1z M-9,144c0.5,3.8,1.8,7.4,3.8,10.5
			c-10.8-2.5-14.2-4.8-15.2-5.7C-19.5,148-16.8,146.1-9,144z M149.6,236.6c-22.4,5.3-50,8.3-77.7,8.3s-55.2-2.9-77.7-8.3
			c-22.1-5.2-30.9-11-32-13.2l15.1-66.2c1.6,0.9,3,1.5,3.9,1.8c5.1,2.1,12.4,3.9,21.6,5.5c18.5,3.1,43,4.9,69,4.9s50.6-1.7,69-4.9
			c9.2-1.6,16.4-3.4,21.6-5.5c0.9-0.3,2.3-0.9,3.9-1.8l15.1,66.2C180.4,225.6,171.7,231.3,149.6,236.6z"/>
		<path id="XMLID_134_" class="st2" d="M121.7,172.6c-9.5,0-17.4,7-18.9,16.1H41c-1.5-9.1-9.4-16.1-18.9-16.1
			c-10.6,0-19.2,8.6-19.2,19.2c0,4.2,1.4,8.3,3.9,11.6c-2.5,3.3-3.9,7.3-3.9,11.6c0,10.6,8.6,19.2,19.2,19.2c9.5,0,17.4-7,18.9-16.1
			h61.8c1.5,9.1,9.4,16.1,18.9,16.1c10.6,0,19.2-8.6,19.2-19.2c0-4.2-1.4-8.3-3.9-11.6c2.5-3.3,3.9-7.3,3.9-11.6
			C140.9,181.2,132.3,172.6,121.7,172.6z M128.8,206.5c2.5,2.1,3.9,5.2,3.9,8.4c0,6.1-4.9,11-11,11c-6.1,0-11-4.9-11-11
			c0-0.2,0-0.5,0-0.7c0.1-1.1-0.3-2.2-1.1-3.1c-0.8-0.8-1.9-1.3-3-1.3H37.1c-1.1,0-2.2,0.5-3,1.3c-0.8,0.8-1.2,1.9-1.1,3.1
			c0,0.2,0,0.5,0,0.7c0,6.1-4.9,11-11,11c-6.1,0-11-4.9-11-11c0-3.3,1.4-6.3,3.9-8.4c0.9-0.8,1.5-1.9,1.5-3.1c0-1.2-0.5-2.4-1.5-3.1
			c-2.5-2.1-3.9-5.2-3.9-8.4c0-6.1,4.9-11,11-11c6.1,0,11,4.9,11,11c0,0.2,0,0.5,0,0.7c-0.1,1.1,0.3,2.2,1.1,3.1
			c0.8,0.8,1.9,1.3,3,1.3h69.5c1.1,0,2.2-0.5,3-1.3c0.8-0.8,1.2-1.9,1.1-3.1c0-0.2,0-0.5,0-0.7c0-6.1,4.9-11,11-11
			c6.1,0,11,4.9,11,11c0,3.3-1.4,6.3-3.9,8.4c-0.9,0.8-1.5,1.9-1.5,3.1C127.4,204.6,127.9,205.8,128.8,206.5z"/>
	</g>
	<path id="XMLID_136_" class="st6" d="M9,72.9C4.9,69.5,0.8,66-3.4,62.6c-2.1-1.7-5-2-7.1,0c-1.8,1.8-2.1,5.3,0,7.1
		c4.1,3.4,8.2,6.8,12.4,10.2c2.1,1.7,5,2,7.1,0C10.8,78.2,11.1,74.6,9,72.9z"/>
	<path id="XMLID_138_" class="st6" d="M59.7,48.6v10.7c0,6.4,10,6.4,10,0V48.6C69.7,42.1,59.7,42.1,59.7,48.6z"/>
	<path id="XMLID_139_" class="st6" d="M134.5,58.8c-2,3.8-4,7.6-6,11.3c-3,5.7,5.6,10.7,8.6,5c2-3.8,4-7.6,6-11.3
		C146.2,58.2,137.5,53.1,134.5,58.8z"/>
	<text id="XMLID_132_" transform="matrix(1 0 0 1 194.0004 115.2279)" class="st1"><tspan x="0" y="0" class="st3 st11">No ofrece</tspan><tspan x="0" y="54" class="st3 st11">alimentos</tspan><tspan x="0" y="108" class="st3 st11">de mascota</tspan></text>
</g>
<g id="Layer_9" class="st0">
	<g id="XMLID_140_" class="st1">
		<path id="XMLID_142_" class="st2" d="M156,68c-10.2,0-19.1,5.4-24,13.5h-10.6c-6.3,0-11.6,3.9-13.8,9.4c-22.4,2.1-40,21-40,44
			v86.3c0,18.1-14.7,32.9-32.9,32.9c-18.1,0-32.9-14.7-32.9-32.9v-19.7c8.8-2,13.9-8.6,16.4-20.9l2.3-11.7c12-8,19.9-21.7,19.9-37.1
			V58.2c0-7.9-2.1-15.7-5.9-22.6c1.7-2.5,2.7-5.5,2.7-8.7c0-8.6-7-15.6-15.6-15.6s-15.6,7-15.6,15.6s7,15.6,15.6,15.6
			c1.2,0,2.4-0.2,3.6-0.4c2.6,5,3.9,10.6,3.9,16.2v42.4c0,18.4-15,33.4-33.4,33.4c-18.3,0-33.2-14.8-33.3-33V58.2
			c0-5.8,1.5-11.4,4.3-16.3c1.3,0.4,2.8,0.6,4.2,0.6c8.6,0,15.6-7,15.6-15.6s-7-15.6-15.6-15.6c-8.6,0-15.6,7-15.6,15.6
			c0,3,0.8,5.7,2.3,8.1c-4.3,7-6.5,15-6.5,23.2v42.2c0,0.1,0,0.1,0,0.2c0,0.1,0,0.2,0,0.3v30.8c0,15.5,7.9,29.1,19.9,37.1l2.3,11.6
			c2.1,12.7,7.7,19.5,17.3,21.2v19.6c0,24.4,19.8,44.2,44.2,44.2c24.4,0,44.2-19.8,44.2-44.2v-86.3c0-16.8,12.6-30.6,28.9-32.6
			c2.3,5.2,7.5,8.9,13.6,8.9h10.6c5,8.1,13.9,13.5,24,13.5c15.6,0,28.3-12.7,28.3-28.3C184.3,80.7,171.6,68,156,68z M17.2,26.8
			c0-2.4,1.9-4.3,4.3-4.3c2.4,0,4.3,1.9,4.3,4.3c0,2.4-1.9,4.3-4.3,4.3C19.2,31.1,17.2,29.2,17.2,26.8z M-29.2,22.6
			c2.4,0,4.3,1.9,4.3,4.3c0,2.4-1.9,4.3-4.3,4.3s-4.3-1.9-4.3-4.3S-31.5,22.6-29.2,22.6z M-37.7,131.7v-1.4c8.2,9.2,20.1,15,33.3,15
			c13.3,0,25.2-5.8,33.4-15.1v1.5c0,18.4-15,33.4-33.3,33.4C-22.7,165-37.7,150.1-37.7,131.7z M-15.7,178.3l-0.7-3.7
			c3.9,1.1,7.9,1.7,12.1,1.7c4.2,0,8.3-0.6,12.1-1.7l-0.7,3.7c-2.3,11.5-6,12.4-11.4,12.4C-9.8,190.7-13.8,189.8-15.7,178.3z
			 M121.4,99.8c-1.9,0-3.5-1.6-3.5-3.5c0-1.9,1.6-3.5,3.5-3.5h6.6c-0.1,1.2-0.2,2.3-0.2,3.5c0,1.2,0.1,2.3,0.2,3.5H121.4z
			 M156,113.3c-9.3,0-17-7.6-17-17s7.6-17,17-17c9.4,0,17,7.6,17,17S165.3,113.3,156,113.3z"/>
		<circle id="XMLID_141_" class="st2" cx="155.9" cy="96.3" r="8.4"/>
	</g>
	<text id="XMLID_135_" transform="matrix(1 0 0 1 191.0004 153.2279)" class="st1"><tspan x="0" y="0" class="st3 st11">Análisis</tspan><tspan x="0" y="54" class="st3 st11">Clínicos</tspan></text>
</g>
<g id="Layer_10" class="st0">
	<text id="XMLID_150_" transform="matrix(1 0 0 1 191.0004 183.2279)" class="st1 st3 st11">Laboratorio</text>
	<g id="XMLID_151_" transform="translate(0,-1020.3622)" class="st1">
		<path id="XMLID_172_" class="st2" d="M100.7,1085.2c-12.7,0-23.2,10.4-23.2,23.2c0,12.7,10.4,23.2,23.2,23.2s23.2-10.4,23.2-23.2
			C123.8,1095.6,113.4,1085.2,100.7,1085.2z M100.7,1094.5c7.7,0,13.9,6.2,13.9,13.9s-6.2,13.9-13.9,13.9s-13.9-6.2-13.9-13.9
			S92.9,1094.5,100.7,1094.5z"/>
		<path id="XMLID_171_" class="st2" d="M105.3,1108.4c0,2.6-2.1,4.6-4.6,4.6s-4.6-2.1-4.6-4.6c0-2.6,2.1-4.6,4.6-4.6
			S105.3,1105.8,105.3,1108.4z"/>
		<path id="XMLID_170_" class="st2" d="M120,1104c-2.6,0.1-4.5,2.3-4.4,4.8c0.1,1.4,0.8,2.7,1.9,3.5c24.9,18.5,36.6,49.8,29.9,80.1
			c-6.6,30.3-30.4,53.8-60.7,60.2c-2.5,0.5-4.2,2.9-3.7,5.4c0.5,2.5,2.9,4.2,5.4,3.7c0.1,0,0.2,0,0.2,0
			c33.9-7.1,60.4-33.5,67.8-67.3c7.4-33.8-5.7-68.8-33.4-89.5C122.2,1104.3,121.1,1103.9,120,1104z"/>
		<path id="XMLID_169_" class="st2" d="M75.2,1249.7c0,2.6-2.1,4.6-4.6,4.6s-4.6-2.1-4.6-4.6c0-2.6,2.1-4.6,4.6-4.6
			S75.2,1247.1,75.2,1249.7z"/>
		<path id="XMLID_168_" class="st2" d="M110.5,1119.9c-2.6,0-4.6,2.2-4.6,4.7c0,1.4,0.7,2.7,1.8,3.6c17.8,14,26.3,36.9,21.8,59.1
			c-4.4,22.3-21,40.1-42.8,46.2c-2.5,0.7-3.9,3.3-3.2,5.7c0.7,2.5,3.3,3.9,5.7,3.2l0,0c25.2-7,44.3-27.7,49.4-53.3
			c5.1-25.7-4.6-52-25.2-68.2C112.6,1120.2,111.6,1119.9,110.5,1119.9L110.5,1119.9z"/>
		<path id="XMLID_165_" class="st2" d="M70.5,1226.5c-12.7,0-23.2,10.4-23.2,23.2s10.4,23.2,23.2,23.2s23.2-10.4,23.2-23.2
			S83.3,1226.5,70.5,1226.5z M70.5,1235.8c7.7,0,13.9,6.2,13.9,13.9s-6.2,13.9-13.9,13.9s-13.9-6.2-13.9-13.9
			S62.8,1235.8,70.5,1235.8z"/>
		<path id="XMLID_164_" class="st2" d="M-0.1,1215.1c-2.6-0.1-4.7,2-4.7,4.5c0,0.9,0.2,1.8,0.7,2.6c12.6,20.1,32.7,34.3,55.9,39.3
			c2.5,0.5,5-1,5.5-3.5s-1-5-3.5-5.5c-20.7-4.5-38.7-17.2-50-35.2C3,1216,1.5,1215.1-0.1,1215.1L-0.1,1215.1z"/>
		<path id="XMLID_163_" class="st2" d="M23.2,1215.1c-2.6-0.1-4.7,1.9-4.8,4.5c0,1.3,0.4,2.5,1.3,3.4c9,9.7,20.5,16.5,33.3,19.9
			c2.5,0.7,5-0.8,5.7-3.3c0.7-2.5-0.8-5-3.3-5.7c0,0-0.1,0-0.1,0c-11.1-2.9-21.1-8.9-28.9-17.2C25.6,1215.7,24.5,1215.1,23.2,1215.1
			L23.2,1215.1z"/>
		<path id="XMLID_160_" class="st2" d="M96,1034.3c-1.2,0-2.4,0.5-3.2,1.4l-64.8,64.8c-1.8,1.8-1.9,4.7-0.1,6.6
			c1.8,1.8,4.7,1.9,6.6,0.1c0,0,0.1-0.1,0.1-0.1l61.5-61.6l28.2,28.2l-15.3,15.3c-1.8,1.8-1.8,4.8,0,6.6c1.8,1.8,4.8,1.8,6.6,0
			l18.5-18.5c1.8-1.8,1.8-4.7,0-6.6l-34.7-34.7C98.4,1034.7,97.2,1034.2,96,1034.3L96,1034.3z M84.4,1115.3c-1.2,0-2.3,0.5-3.2,1.4
			l-18.5,18.5c-1.8,1.8-1.9,4.7-0.1,6.6c1.8,1.8,4.7,1.9,6.6,0.1c0,0,0.1-0.1,0.1-0.1l18.5-18.5c1.8-1.8,1.9-4.7,0.1-6.6
			C86.9,1115.7,85.7,1115.2,84.4,1115.3z"/>
		<path id="XMLID_159_" class="st2" d="M38,1106.1c-1.2,0-2.3,0.5-3.2,1.4l-30.1,30.1c-1.8,1.8-1.8,4.7,0,6.6l20.8,20.8
			c1.8,1.8,4.7,1.8,6.6,0l30.1-30.1c1.8-1.8,1.9-4.7,0.1-6.6c-1.8-1.8-4.7-1.9-6.6-0.1c0,0-0.1,0.1-0.1,0.1l-26.8,26.8l-14.3-14.3
			l26.8-26.8c1.8-1.8,1.9-4.7,0.1-6.6C40.5,1106.5,39.3,1106,38,1106.1z"/>
		<path id="XMLID_158_" class="st2" d="M128.4,1020.4c-1.2,0-2.4,0.5-3.2,1.4l-23.1,23.1c-1.8,1.8-1.9,4.7-0.1,6.6
			c1.8,1.8,4.7,1.9,6.6,0.1c0,0,0.1-0.1,0.1-0.1l19.9-19.9l9.6,9.6l-19.9,19.9c-1.8,1.8-1.9,4.7-0.1,6.6c1.8,1.8,4.7,1.9,6.6,0.1
			c0,0,0.1-0.1,0.1-0.1l23.1-23.1c1.8-1.8,1.8-4.7,0-6.6l-16.2-16.2C130.9,1020.8,129.6,1020.3,128.4,1020.4L128.4,1020.4z"/>
		<path id="XMLID_157_" class="st2" d="M24.2,1092.2c-2.6,0-4.6,2.1-4.6,4.6c0,1.3,0.5,2.5,1.4,3.3l48.5,48.5
			c1.8,1.8,4.7,1.9,6.6,0.1c1.8-1.8,1.9-4.7,0.1-6.6c0,0-0.1-0.1-0.1-0.1l-48.5-48.5C26.7,1092.7,25.5,1092.2,24.2,1092.2z"/>
		<path id="XMLID_154_" class="st2" d="M-36,1196.4v27.8h90.3v-4.6v-23.2H-36z M-26.7,1205.7h71.8v9.3h-71.8V1205.7z"/>
		<path id="XMLID_153_" class="st2" d="M-15.2,1177.9v9.3h46.3v-9.3H-15.2z"/>
		<path id="XMLID_152_" class="st2" d="M24.2,1261.2c-1.5,0-3,0.8-3.9,2.1l-13.9,20.8c-1.4,2.1-0.8,5,1.3,6.4
			c0.8,0.5,1.7,0.8,2.6,0.8h120.4c2.6,0,4.6-2.1,4.6-4.6c0-0.9-0.3-1.8-0.8-2.6l-13.9-20.8c-0.9-1.3-2.3-2.1-3.9-2.1H79.8v9.3h34.6
			l7.7,11.6H19l7.7-11.6h34.6v-9.3C61.3,1261.2,24.2,1261.2,24.2,1261.2z"/>
	</g>
</g>
<g id="Layer_11" class="st0">
	<g id="XMLID_175_" class="st1">
		<g id="XMLID_188_">
			<g id="XMLID_189_">
				<path id="XMLID_190_" class="st2" d="M98,177.2c-4.3-1.9-7.1-6.1-7.1-10.8v-48.2c0-4.7,2.8-9,7.1-10.8
					c10.6-4.6,17.2-14.9,17-26.4c-0.3-14.9-12.2-27-27.1-27.5c-5.8-0.2-11.3,1.3-16.2,4.4c-1.3,0.8-2.9,0.8-4.2,0
					c-4.8-3.1-10.4-4.6-16.2-4.4c-14.9,0.6-26.8,12.7-27.1,27.5c-0.2,11.5,6.4,21.9,17,26.4c4.3,1.9,7.1,6.1,7.1,10.8v48.2
					c0,4.7-2.8,9-7.1,10.8c-10.6,4.6-17.2,14.9-17,26.4c0.3,14.9,12.2,27,27.1,27.5c5.7,0.2,11.3-1.3,16.2-4.4
					c1.3-0.8,2.9-0.8,4.2,0c4.5,2.9,9.7,4.4,15.1,4.4c0.4,0,0.7,0,1.1,0c14.9-0.6,26.8-12.7,27.1-27.5
					C115.2,192.1,108.6,181.7,98,177.2z M107.9,203.4c-0.2,11.1-9.1,20.2-20.3,20.6c-4.3,0.2-8.5-1-12.1-3.3
					c-1.8-1.1-3.9-1.7-5.9-1.7c-2.1,0-4.1,0.6-5.9,1.7c-3.6,2.3-7.8,3.4-12.1,3.3c-11.1-0.4-20-9.5-20.3-20.6
					c-0.2-8.6,4.8-16.4,12.7-19.8c6.9-3,11.4-9.8,11.4-17.4v-48.2c0-7.6-4.5-14.4-11.4-17.4c-7.9-3.4-12.9-11.2-12.7-19.8
					c0.2-11.1,9.1-20.2,20.3-20.6c4.3-0.2,8.5,1,12.1,3.3c3.6,2.3,8.2,2.3,11.8,0c3.6-2.3,7.8-3.4,12.1-3.3
					c11.1,0.4,20,9.5,20.3,20.6c0.2,8.6-4.8,16.4-12.7,19.8c-6.9,3-11.4,9.8-11.4,17.4v48.2c0,7.6,4.5,14.4,11.4,17.4
					C103.1,187.1,108.1,194.8,107.9,203.4z"/>
			</g>
		</g>
		<g id="XMLID_185_">
			<g id="XMLID_186_">
				<path id="XMLID_177_" class="st2" d="M44.1,70.6c-1.5-1.2-3.8-0.9-5,0.6c-2.3,2.9-3.5,6.4-3.5,10.1c0,2,1.6,3.5,3.5,3.5
					c2,0,3.5-1.6,3.5-3.5c0-2.1,0.7-4.1,2-5.8C46,74,45.7,71.8,44.1,70.6z"/>
			</g>
		</g>
		<g id="XMLID_182_">
			<g id="XMLID_183_">
				<path id="XMLID_176_" class="st2" d="M52.3,64.8c-0.8,0-1.5,0.1-2.3,0.2c-1.9,0.3-3.3,2.1-3,4c0.2,1.8,1.8,3.1,3.5,3.1
					c0.2,0,0.3,0,0.5,0c0.4-0.1,0.9-0.1,1.3-0.1c2,0,3.5-1.6,3.5-3.5C55.8,66.4,54.3,64.8,52.3,64.8z"/>
			</g>
		</g>
	</g>
	<path id="XMLID_180_" class="st12" d="M148,257.9H-8.7c-6.6,0-12-5.4-12-12v-216c0-6.6,5.4-12,12-12H148c6.6,0,12,5.4,12,12v216
		C160,252.5,154.6,257.9,148,257.9z"/>
	<text id="XMLID_181_" transform="matrix(1 0 0 1 191.3337 182.2279)" class="st1 st3 st13">Radiología</text>
</g>
<g id="Layer_11_copy" class="st0">
	<text id="XMLID_184_" transform="matrix(1 0 0 1 191.3337 161.2279)" class="st1"><tspan x="0" y="0" class="st3 st14">Ecografías y </tspan><tspan x="0" y="51.6" class="st3 st14">Ecocardiografías</tspan></text>
	<g id="XMLID_191_" class="st1">
		<g id="XMLID_219_">
			<path id="XMLID_223_" d="M179.3,85.4c-7,17.8-14.1,35.6-21.1,53.5c-11.3,28.6-22.6,57.2-33.9,85.8c-2.6,6.6-5.2,13.1-7.8,19.7
				c1.1-0.9,2.2-1.7,3.4-2.6c-29.3-2.2-59.2-2.9-88.4,0c1.1,0.9,2.2,1.7,3.4,2.6c-7.2-17.9-14.4-35.7-21.6-53.6
				c-11.5-28.5-23-57-34.5-85.5c-2.7-6.6-5.3-13.2-8-19.8c-0.3,1.1-0.6,2.3-0.9,3.4c0.5-0.4-1,0.4,0,0c0.6-0.3,1.3-1,1.9-1.4
				c2.2-1.6,4.5-3,6.9-4.4c8.4-5,17.2-9.1,26.4-12.4C36,59.3,69.8,57,102.3,62.3c27.5,4.5,53.9,14.2,78.6,27c4,2.1,7.5-4,3.5-6
				c-40.6-20.9-86-33.8-131.9-30c-26.1,2.1-52.1,9.3-75,22.3c-4.4,2.5-8.7,5.1-12.7,8.3c-0.9,0.7-1.3,2.4-0.9,3.4
				c7.2,17.9,14.4,35.7,21.6,53.6c11.5,28.5,23,57,34.5,85.5c2.7,6.6,5.3,13.2,8,19.8c0.5,1.3,1.7,2.7,3.4,2.6
				c29.2-2.9,59.2-2.2,88.4,0c1.6,0.1,2.8-1.2,3.4-2.6c7-17.8,14.1-35.6,21.1-53.5c11.3-28.6,22.6-57.2,33.9-85.8
				c2.6-6.6,5.2-13.1,7.8-19.7C187.7,83,180.9,81.2,179.3,85.4z"/>
		</g>
	</g>
	<path id="XMLID_195_" class="st6" d="M76,191.4l-1.5-0.9c-0.9-0.5-21.9-13.1-34-32c-6.4-10.1-8.4-20.7-5.6-30
		c2.3-7.6,7.5-13.6,14.9-16.8c2.6-1.1,5.2-1.7,7.8-1.7c8.5,0,15,5.9,18.3,9.6c3.3-3.7,9.9-9.6,18.3-9.6c2.6,0,5.3,0.6,7.8,1.7
		c7.3,3.3,12.6,9.3,14.9,16.8c2.8,9.2,0.8,19.9-5.6,30c-12,19-33.1,31.5-34,32L76,191.4z M57.7,115.7c-1.8,0-3.7,0.4-5.5,1.2
		c-5.8,2.6-9.9,7.3-11.7,13.2c-2.3,7.6-0.5,16.6,4.9,25.2c9.5,15.1,25.7,26.1,30.6,29.3c4.9-3.2,21.1-14.2,30.6-29.3
		c5.5-8.7,7.2-17.6,4.9-25.2c-1.8-5.9-5.9-10.7-11.7-13.2c-1.8-0.8-3.6-1.2-5.5-1.2c-9.1,0-15.9,10-15.9,10.1l-2.4,3.6l-2.4-3.6
		C73.5,125.7,66.7,115.7,57.7,115.7z"/>
</g>
<g id="Layer_11_copy_2" class="st0">
	<text id="XMLID_193_" transform="matrix(1 0 0 1 191.3337 182.2279)" class="st1 st3 st13">Cirugía</text>
	<g id="XMLID_197_" class="st1">
		<path id="XMLID_200_" class="st2" d="M179.3,22.8c-0.6-5.3-3.2-10-7.3-13.3s-9.2-4.8-14.5-4.2s-10,3.1-13.3,7.3l-125,156
			c-1.9,2.4-2.5,5.5-1.8,8.4l-64.5,80.5c-0.9,1.1-1.2,2.6-0.7,4c0.4,1.4,1.5,2.4,3,2.8c0.4,0.1,9.4,2.4,21.1,1.1
			c14.8-1.6,27.5-8.4,36.7-19.5l26.7-33.3c0.9-1.1,1.2-2.6,0.7-3.9l-3.5-11.2l8.7-10.8l1.5,0.2c1,0.1,2.1,0.1,3.1,0
			c3.7-0.4,6.9-2.2,9.2-5.1L160.7,55.4l0,0l14.5-18.1C178.4,33.3,179.9,28.1,179.3,22.8z M143.1,63.7l-12.3-20.7l8.9-11.1l12.3,20.7
			L143.1,63.7z M128.6,81.8l-12.4-20.7l8.9-11.1l12.3,20.7L128.6,81.8z M35.5,185.5l-6.8,8.4c-0.9,1.1-1.2,2.6-0.7,3.9l3.5,11.2
			L6.3,240.5c-7.8,9.5-18.3,15-31.1,16.4c-4.3,0.5-8.1,0.4-11.2,0.1L23,183.6c0,0,0,0,0.1,0c0.8,0.3,1.6,0.5,2.5,0.7L35.5,185.5z
			 M52.7,176.5c-1.1,1.4-3,2.2-4.7,1.9l-21.4-2.5c-0.2,0-0.4-0.1-0.5-0.2c-0.1-0.1-0.2-0.1-0.3-0.3c-0.1-0.1-0.1-0.2-0.2-0.2
			c-0.1-0.3-0.2-0.7,0.2-1.2l84.8-105.7L122.9,89L52.7,176.5z M168.5,32.1l-10.7,13.4l-12.3-20.7l5.4-6.8c1.9-2.3,4.6-3.8,7.6-4.2
			c3-0.3,5.9,0.5,8.3,2.4c2.3,1.9,3.8,4.6,4.2,7.6C171.2,26.8,170.4,29.7,168.5,32.1z"/>
		<path id="XMLID_199_" class="st2" d="M1.9,220l-7.5,9.4c-1.5,1.8-1.2,4.5,0.7,5.9c0.9,0.8,2,1,3.1,0.9s2.1-0.7,2.9-1.6l7.5-9.4
			c1.5-1.8,1.2-4.5-0.7-5.9C6.1,217.9,3.4,218.2,1.9,220z"/>
		<path id="XMLID_198_" class="st2" d="M-13.1,238.7c-0.7,0.9-1,2-0.9,3.1c0.1,1.1,0.7,2.1,1.6,2.9c0.9,0.7,2,1,3.1,0.9
			c1.1-0.1,2.1-0.7,2.9-1.6c0.7-0.9,1-2,0.9-3.1s-0.7-2.1-1.6-2.9C-8.9,236.7-11.7,237-13.1,238.7z"/>
	</g>
</g>
<g id="Layer_11_copy_3" class="st0">
	<text id="XMLID_235_" transform="matrix(1 0 0 1 191.3337 182.2279)" class="st1 st3 st7">Hospitalización</text>
	<g id="XMLID_244_" class="st1">
		<path id="XMLID_251_" class="st2" d="M166.6,255.9V115l10,6l15.2-27.1L72.5,20L-46.7,93.8l15.2,27.2l10-6v140.9H-49v7.8h243v-7.8
			H166.6z M-36.2,96.5L72.5,29.2l108.7,67.3l-7.6,13.6L72.5,49.7l-101.2,60.4L-36.2,96.5z M-13.7,255.9V110.3l86.2-51.5l86.2,51.5
			v145.5H-13.7z"/>
		<path id="XMLID_248_" class="st2" d="M17.6,236.3h109.7V126.5H17.6V236.3z M25.5,134.4h94v94.1h-94V134.4z"/>
		<path id="XMLID_245_" class="st2" d="M88.2,146.1H56.8v19.6H37.2v31.4h19.6v19.6h31.4v-19.6h19.6v-31.4H88.2V146.1z M99.9,173.6
			v15.7H80.3v19.6H64.6v-19.6H45v-15.7h19.6V154h15.7v19.6H99.9z"/>
	</g>
</g>
<g id="Layer_11_copy_4" class="st0">
	<text id="XMLID_246_" transform="matrix(1 0 0 1 191.3337 182.2279)" class="st1 st3 st7">Farmacia</text>
	<g id="XMLID_249_" class="st1">
		<path id="XMLID_259_" class="st2" d="M172.5,112h-68.4V96.8c0-5.3-4.3-9.7-9.7-9.7H38.7c-5.3,0-9.7,4.3-9.7,9.7V112h-68.4
			c-5.3,0-9.7,4.3-9.7,9.7v120.5c0,5.3,4.3,9.7,9.7,9.7h211.9c5.3,0,9.7-4.3,9.7-9.7V121.7C182.2,116.4,177.8,112,172.5,112z
			 M37,96.8c0-0.9,0.7-1.6,1.6-1.6h55.8c0.9,0,1.6,0.7,1.6,1.6V112H37V96.8z M174.2,242.2c0,0.9-0.7,1.6-1.6,1.6H-39.3
			c-0.9,0-1.6-0.7-1.6-1.6V121.7c0-0.9,0.7-1.6,1.6-1.6h211.9c0.9,0,1.6,0.7,1.6,1.6V242.2z"/>
		<path id="XMLID_256_" class="st2" d="M87.3,167.2h-6v-6c0-6-4.9-10.9-10.9-10.9h-7.7c-6,0-10.9,4.9-10.9,10.9v6h-6
			c-6,0-10.9,4.9-10.9,10.9v7.7c0,6,4.9,10.9,10.9,10.9h6v6c0,6,4.9,10.9,10.9,10.9h7.7c6,0,10.9-4.9,10.9-10.9v-6h6
			c6,0,10.9-4.9,10.9-10.9v-7.7C98.2,172.1,93.3,167.2,87.3,167.2z M90.2,185.8c0,1.6-1.3,2.9-2.9,2.9h-10c-2.2,0-4,1.8-4,4v10
			c0,1.6-1.3,2.9-2.9,2.9h-7.7c-1.6,0-2.9-1.3-2.9-2.9v-10c0-2.2-1.8-4-4-4h-10c-1.6,0-2.9-1.3-2.9-2.9v-7.7c0-1.6,1.3-2.9,2.9-2.9
			h10c2.2,0,4-1.8,4-4v-10c0-1.6,1.3-2.9,2.9-2.9h7.7c1.6,0,2.9,1.3,2.9,2.9v10c0,2.2,1.8,4,4,4h10c1.6,0,2.9,1.3,2.9,2.9V185.8z"/>
		<path id="XMLID_250_" class="st2" d="M149.9,152.3c-9.2,0-16.8,6.7-18.3,15.5h-11.3c-6.3-23.8-28-41.3-53.7-41.3
			S19.2,144,12.9,167.7H1.5c-1.5-8.8-9.1-15.5-18.3-15.5c-10.2,0-18.6,8.3-18.6,18.6c0,4.1,1.3,8,3.7,11.1
			c-2.4,3.2-3.7,7.1-3.7,11.1c0,10.2,8.3,18.6,18.6,18.6c9.2,0,16.8-6.7,18.3-15.5h11.3c6.3,23.8,28,41.3,53.7,41.3
			s47.4-17.6,53.7-41.3h11.3c1.5,8.8,9.1,15.5,18.3,15.5c10.2,0,18.6-8.3,18.6-18.6c0-4.1-1.3-8-3.7-11.1c2.4-3.2,3.7-7.1,3.7-11.1
			C168.5,160.6,160.2,152.3,149.9,152.3z M-2.2,188.2c-1.1,0-2.2,0.5-2.9,1.3c-0.8,0.8-1.1,1.9-1.1,3c0,0.2,0,0.4,0,0.7
			c0,5.8-4.7,10.6-10.6,10.6c-5.8,0-10.6-4.7-10.6-10.6c0-3.1,1.4-6.1,3.8-8.1c0.9-0.8,1.4-1.9,1.4-3.1s-0.5-2.3-1.4-3.1
			c-2.4-2-3.8-5-3.8-8.1c0-5.8,4.7-10.6,10.6-10.6c5.8,0,10.6,4.7,10.6,10.6c0,0.2,0,0.5,0,0.7c-0.1,1.1,0.3,2.2,1.1,3
			c0.8,0.8,1.8,1.3,2.9,1.3h13.6c-0.2,2-0.3,4.1-0.3,6.2s0.1,4.2,0.3,6.2H-2.2z M66.6,229.5C40.4,229.5,19,208.2,19,182
			s21.3-47.6,47.6-47.6s47.6,21.3,47.6,47.6S92.8,229.5,66.6,229.5z M156.7,185c2.4,2,3.8,5,3.8,8.1c0,5.8-4.7,10.6-10.6,10.6
			c-5.8,0-10.6-4.7-10.6-10.6c0-0.2,0-0.5,0-0.7c0.1-1.1-0.3-2.2-1.1-3c-0.8-0.8-1.8-1.3-2.9-1.3h-13.6c0.2-2,0.3-4.1,0.3-6.2
			s-0.1-4.2-0.3-6.2h13.6c1.1,0,2.2-0.5,2.9-1.3c0.8-0.8,1.1-1.9,1.1-3c0-0.2,0-0.5,0-0.7c0-5.8,4.7-10.6,10.6-10.6
			c5.8,0,10.6,4.7,10.6,10.6c0,3.1-1.4,6.1-3.8,8.1c-0.9,0.8-1.4,1.9-1.4,3.1C155.3,183.1,155.8,184.3,156.7,185z"/>
	</g>
	<path id="XMLID_266_" class="st6" d="M-6.2,48.6c-2.7-3.6-5.7-7.1-9-10.2c-2-1.8-5.1-2-7.1,0c-1.9,1.9-2,5.2,0,7.1
		c2.7,2.5,5.2,5.2,7.4,8.2c1.6,2.2,4.3,3.3,6.8,1.8C-5.9,54.2-4.6,50.8-6.2,48.6z"/>
	<path id="XMLID_267_" class="st6" d="M59.7,34.6v12c0,6.4,10,6.4,10,0v-12C69.7,28.1,59.7,28.1,59.7,34.6z"/>
	<path id="XMLID_268_" class="st6" d="M159,34.5c-1.7-1.7-5.4-2.1-7.1,0c-2.6,3.2-5.1,6.5-7.7,9.7c-1.7,2.1-2.1,5,0,7.1
		c1.7,1.7,5.4,2.1,7.1,0c2.6-3.2,5.1-6.5,7.7-9.7C160.7,39.4,161.1,36.5,159,34.5z"/>
</g>
<g id="Layer_11_copy_5" class="st0">
	<text id="XMLID_278_" transform="matrix(1 0 0 1 191.3337 161.2279)" class="st1"><tspan x="0" y="0" class="st3 st14">Consultas de</tspan><tspan x="0" y="51.6" class="st3 st14">especialidad</tspan></text>
	<g id="XMLID_315_" class="st1">
		<g id="XMLID_316_">
			<path id="XMLID_286_" class="st2" d="M71.3,12.5c-3.8,0-6.9,3.1-6.9,6.9c0,3.8,3.1,6.9,6.9,6.9c3.8,0,6.9-3.1,6.9-6.9
				S75.1,12.5,71.3,12.5z"/>
		</g>
	</g>
	<g id="XMLID_312_" class="st1">
		<g id="XMLID_313_">
			<path id="XMLID_285_" class="st2" d="M56.7,22.6c-2.7-2.7-7-2.7-9.7,0c-2.7,2.7-2.7,7,0,9.7c2.7,2.7,7,2.7,9.7,0
				C59.4,29.6,59.4,25.3,56.7,22.6z"/>
		</g>
	</g>
	<g id="XMLID_309_" class="st1">
		<g id="XMLID_310_">
			<path id="XMLID_284_" class="st2" d="M95.6,22.6c-2.7-2.7-7-2.7-9.7,0c-2.7,2.7-2.7,7,0,9.7c2.7,2.7,7,2.7,9.7,0
				C98.3,29.6,98.3,25.3,95.6,22.6z"/>
		</g>
	</g>
	<g id="XMLID_291_" class="st1">
		<g id="XMLID_292_">
			<path id="XMLID_293_" class="st2" d="M168,221.4l-1-0.3c-3.1-0.8-5.8-1.7-8.1-2.5c4.5-26.1,16.4-112.7-15.2-163.6l-5-50
				C138.3,2.2,135.9,0,133,0H9.1C6.2,0,3.7,2.2,3.4,5.1l-5,50.5c-31.2,50.9-19.5,137-14.9,163.1c-2.3,0.8-5,1.7-8.1,2.5l-1,0.3
				c-12.8,4.2-21.3,21.7-21.3,35V271H71.2h118.1v-14.5C189.3,243.1,180.7,225.6,168,221.4z M153.5,157.2c-0.5,24-3.4,45.2-5.3,57
				c-2.2-1-4.1-2-6.1-2.7c-4.7-1.8-8.7-3.5-12-5.1l-15.8-15c-0.5-0.5-1.1-0.8-1.7-1.1l0-3.2c17.3-17.2,31.5-42.5,31.5-69
				c0-1.4,0-2.7-0.1-4.1l8,5.5C153.2,131.1,153.7,143.7,153.5,157.2z M88.5,191.6c-6.5,3.9-12.6,6-17.3,6c-4.7,0-10.8-2.1-17.3-6
				c-7.3-4.3-14.5-10.5-21-17.9c-13.3-15.2-21.5-33.1-23-50.2c17.5-7.5,38.5-20,62.7-37.5c5.1-3.7,10-7.3,14.6-10.8l44.6,30.4
				c0.6,4,0.9,8.1,0.9,12.3c0,18.6-8.5,38.9-23.2,55.7C103,181.1,95.7,187.3,88.5,191.6z M102.5,198.9l-8.4,17.7l-11-9.9
				c5.9-2.1,12.2-5.5,18.3-10.1l0.8,1.7C102.2,198.4,102.3,198.6,102.5,198.9z M59.3,206.7l-11,9.9l-8.4-17.8
				c0.1-0.2,0.2-0.4,0.2-0.5l0.8-1.7C47.1,201.1,53.3,204.6,59.3,206.7z M137.9,68c4.7,9.3,8.4,20.2,11,32.6
				c0.2,1.2,0.5,2.4,0.7,3.6l-46.9-32C120.6,70.9,133.3,68.8,137.9,68z M14.1,12c0-0.4,0.4-0.7,0.8-0.7H71h56.2
				c0.4,0,0.7,0.3,0.8,0.7l4.5,44.7c0,0.4-0.2,0.8-0.6,0.8c-10.2,1.6-32.8,4.6-60.6,4.6c0,0-0.1,0-0.1,0c11.3,0,20.1-11.2,15.8-23
				c-1.6-4.5-5.2-8.2-9.8-9.8c-11.9-4.2-23,4.6-23,15.9c0,9.3,7.6,16.9,16.9,16.9c-27.8,0-50.6-3-60.7-4.6c-0.4-0.1-0.7-0.4-0.6-0.8
				L14.1,12z M-6.6,100.8C-4,88.3-0.3,77.4,4.4,68c7.3,1.3,33.1,5.4,66.5,5.4c-1.6,1.2-3.2,2.4-4.9,3.6
				c-31,22.3-56.8,36.5-75.5,41.6C-8.7,112.4-7.8,106.4-6.6,100.8z M-10.6,130.5c3-0.7,6.2-1.6,9.5-2.7C1.9,150.7,14.7,172,29.8,187
				l0,3.3c-0.6,0.2-1.1,0.6-1.6,1.1l-15.8,14.9c-3.4,1.6-7.4,3.3-12.1,5.1c-2.1,0.8-4,1.7-6.1,2.7c-1.9-11.7-4.8-32.7-5.3-56.6
				C-11.3,148.1-11.1,139.1-10.6,130.5z M-35.7,259.7v-3.2c0-4.8,1.6-10.5,4.4-15.4c2.6-4.6,5.9-7.8,9-8.9l0.6-0.2
				c10.6-2.8,16.4-5.6,21.1-7.9c1.8-0.9,3.4-1.6,4.9-2.2c0.4-0.1,0.7-0.3,1.1-0.4c0.1,0.1,0.1,0.1,0.2,0.2l14.3,11l-2.2,9.1
				c-0.4,1.8,0,3.7,1.3,5.1l11.6,12.7L-35.7,259.7L-35.7,259.7z M45.9,259.7L45.9,259.7l-16.4-18.1l2.4-9.8c0.5-2.2-0.3-4.4-2-5.8
				l-12-9.2l12.5-11.9l11,23.2c0,0,0,0,0,0l14.9,31.5H45.9z M71.2,259.7h-2.5l-15.4-32.5l17.9-16.1L89,227.2l-15.4,32.5H71.2z
				 M86.2,259.7l14.9-31.5c0,0,0,0,0-0.1l11-23.2l12.5,11.9l-12,9.2c-1.8,1.4-2.6,3.6-2,5.8l2.4,9.8l-16.4,18.1L86.2,259.7
				L86.2,259.7z M111.7,259.7l11.6-12.7c1.3-1.4,1.7-3.3,1.3-5.1l-2.2-9.1l14.3-11c0.1-0.1,0.1-0.1,0.2-0.2c0.4,0.1,0.7,0.3,1.1,0.4
				c1.5,0.6,3.1,1.3,4.9,2.2c4.7,2.2,10.5,5,21.1,7.9l0.6,0.2c3.1,1.1,6.4,4.3,9,8.9c2.8,4.8,4.4,10.6,4.4,15.4v3.2H111.7z"/>
		</g>
	</g>
	<g id="XMLID_288_" class="st1">
		<g id="XMLID_289_">
			<path id="XMLID_264_" class="st2" d="M71.2,231.5c-3.1,0-5.6,2.5-5.6,5.6c0,3.1,2.5,5.6,5.6,5.6c3.1,0,5.6-2.5,5.6-5.6
				C76.8,234,74.3,231.5,71.2,231.5z"/>
		</g>
	</g>
</g>
<g id="Layer_11_copy_6" class="st0">
	<text id="XMLID_339_" transform="matrix(1 0 0 1 194.3337 161.2279)" class="st1"><tspan x="0" y="0" class="st3 st14">Atención a</tspan><tspan x="0" y="51.6" class="st3 st14">domicilio</tspan></text>
	<path id="XMLID_328_" class="st6" d="M98.1,55.6c-2.2-2.2-2.2-5.8,0-7.9l9.9-9.9c2.2-2.2,5.8-2.2,7.9,0c2.2,2.2,2.2,5.8,0,7.9
		l-9.9,9.9c-1.1,1.1-2.5,1.6-4,1.6C100.6,57.3,99.2,56.7,98.1,55.6z M54,55.6c1.1,1.1,2.5,1.6,4,1.6s2.9-0.5,4-1.6
		c2.2-2.2,2.2-5.8,0-7.9l-9.9-9.9c-2.2-2.2-5.8-2.2-7.9,0s-2.2,5.8,0,7.9L54,55.6z M80.7,47.4c3.1,0,5.6-2.5,5.6-5.6v-14
		c0-3.1-2.5-5.6-5.6-5.6c-3.1,0-5.6,2.5-5.6,5.6v14C75,44.9,77.6,47.4,80.7,47.4z M134.2,138.7c1.2,1.7,1.4,4,0.4,5.8
		c-1,1.9-2.9,3-5,3H77.1c-3.1,0-5.6-2.5-5.6-5.6v-30c0-3.1,2.5-5.6,5.6-5.6h31.3c1.8,0,3.5,0.9,4.6,2.4L134.2,138.7z M118.8,136.3
		l-13.3-18.8H82.7v18.8H118.8z M31.4,120.9h-9.7v-9.7c0-3.1-2.5-5.6-5.6-5.6s-5.6,2.5-5.6,5.6v9.7H0.7c-3.1,0-5.6,2.5-5.6,5.6
		c0,3.1,2.5,5.6,5.6,5.6h9.7v9.7c0,3.1,2.5,5.6,5.6,5.6s5.6-2.5,5.6-5.6v-9.7h9.7c3.1,0,5.6-2.5,5.6-5.6
		C37,123.5,34.5,120.9,31.4,120.9z M155.7,201.9c-1,6-3.7,11.5-7.6,15.9h29.7c3.1,0,5.6,2.5,5.6,5.6s-2.5,5.6-5.6,5.6H-39.7
		c-3.1,0-5.6-2.5-5.6-5.6s2.5-5.6,5.6-5.6H-10c-3.9-4.4-6.6-9.9-7.6-15.9H-40c-3.1,0-5.6-2.5-5.6-5.6V87.6c0-3.1,2.5-5.6,5.6-5.6
		H61.9v-7.4c0-10.3,8.4-18.7,18.7-18.7h0.2c10.3,0,18.7,8.4,18.7,18.7v7.4h23.9c1.8,0,3.5,0.9,4.6,2.4l54.4,76.6c0.7,1,1,2.1,1,3.3
		v32.1c0,3.1-2.5,5.6-5.6,5.6L155.7,201.9L155.7,201.9z M73.1,81.9h15.1v-7.4c0-4.1-3.3-7.4-7.4-7.4h-0.2c-4.1,0-7.4,3.3-7.4,7.4
		L73.1,81.9L73.1,81.9z M36.2,196.3c0-11.9-9.7-21.6-21.6-21.6s-21.6,9.7-21.6,21.6c0,11.9,9.7,21.6,21.6,21.6
		C26.5,217.8,36.2,208.2,36.2,196.3z M98.7,217.8c-3.9-4.4-6.6-9.9-7.6-15.9H47c-1,6-3.7,11.5-7.6,15.9H98.7z M144.9,196.3
		c0-11.9-9.7-21.6-21.6-21.6s-21.6,9.7-21.6,21.6c0,11.9,9.7,21.6,21.6,21.6C135.2,217.8,144.9,208.2,144.9,196.3z M155.7,190.6
		h16.4v-24.7l-51.6-72.7H-34.4v97.5h16.8c2.7-15.4,16.1-27.2,32.3-27.2c16.2,0,29.6,11.8,32.3,27.2H91c2.7-15.4,16.1-27.2,32.3-27.2
		C139.5,163.5,153,175.2,155.7,190.6z M123.4,190.1c-3.4,0-6.2,2.8-6.2,6.2c0,3.4,2.8,6.2,6.2,6.2c3.4,0,6.2-2.8,6.2-6.2
		C129.6,192.8,126.8,190.1,123.4,190.1z M14.7,190.1c-3.4,0-6.2,2.8-6.2,6.2c0,3.4,2.8,6.2,6.2,6.2c3.4,0,6.2-2.8,6.2-6.2
		C20.9,192.8,18.1,190.1,14.7,190.1z"/>
</g>
<g id="Layer_11_copy_7" class="st0">
	<text id="XMLID_341_" transform="matrix(1 0 0 1 194.3337 161.2279)" class="st1"><tspan x="0" y="0" class="st3 st14">Urgencias</tspan><tspan x="0" y="51.6" class="st3 st14">24 horas</tspan></text>
	<g id="XMLID_329_" transform="translate(-330 -260)" class="st1">
		<g id="XMLID_330_">
			<polygon id="XMLID_306_" class="st2" points="337.1,361.4 337.1,379.1 372.5,379.1 372.5,396.8 337.1,396.8 337.1,449.9 
				390.2,449.9 390.2,432.2 354.8,432.2 354.8,414.5 390.2,414.5 390.2,361.4 			"/>
			<polygon id="XMLID_305_" class="st2" points="452.1,396.8 452.1,361.4 434.4,361.4 434.4,396.8 425.6,396.8 425.6,361.4 
				407.9,361.4 407.9,414.5 425.6,414.5 434.4,414.5 434.4,449.9 452.1,449.9 452.1,414.5 469.8,414.5 469.8,396.8 			"/>
			<path id="XMLID_304_" class="st2" d="M504.5,359.6l-16.2,7.1c5.4,12.3,8.1,25.4,8.1,38.9c0,53.7-43.7,97.3-97.3,97.3
				s-97.3-43.7-97.3-97.3s43.7-97.3,97.3-97.3V326l44.2-26.5L399,272.9v17.7c-63.4,0-115,51.6-115,115s51.6,115,115,115
				c63.4,0,115-51.6,115-115C514.1,389.6,510.9,374.1,504.5,359.6z"/>
		</g>
	</g>
</g>
<g id="Layer_11_copy_11" class="st0">
	<text id="XMLID_503_" transform="matrix(1 0 0 1 194.3337 161.2279)" class="st1"><tspan x="0" y="0" class="st3 st14">Citas por</tspan><tspan x="0" y="51.6" class="st3 st14">teléfono</tspan></text>
</g>
<g id="Layer_11_copy_8" class="st0">
	<text id="XMLID_361_" transform="matrix(1 0 0 1 191.3337 182.2279)" class="st1 st3 st7">Incineración</text>
	<g id="XMLID_351_" class="st1">
		<path id="XMLID_352_" class="st2" d="M152.4,30.3H-10.4c-2.2,0-4.1,1.8-4.1,4.1s1.8,4.1,4.1,4.1h4.2C6.2,60.1,5.9,73.5,5.4,97.2
			c-0.1,5.1-0.2,10.9-0.2,17.3c0,18.1,7.2,34.7,20.2,46.6c8.9,8.1,19.9,13.6,31.7,16.1c-0.1,4.9-0.2,9.2-0.3,12.4
			c-6.2,4.5-10,11.8-10,19.6c0,5.9,2.2,11.6,6,16c-4.6,20-11.6,22-19.8,24.2c-6,1.6-12.7,3.5-17.8,12c-0.7,1.3-0.8,2.8,0,4.1
			s2.1,2.1,3.5,2.1h104.5c1.5,0,2.8-0.8,3.5-2.1c0.7-1.3,0.7-2.8,0-4.1c-5.1-8.5-11.8-10.4-17.8-12c-8.1-2.2-15.2-4.2-19.8-24.2
			c3.8-4.4,6-10.1,6-16c0-7.8-3.8-15.1-10-19.6c-0.1-3.2-0.2-7.5-0.3-12.4c11.9-2.4,22.8-7.9,31.7-16.1c13-11.9,20.2-28.4,20.2-46.6
			c0-6.4-0.1-12.2-0.2-17.3c-0.5-23.8-0.8-37.2,11.6-58.8h4.2c2.2,0,4.1-1.8,4.1-4.1S154.6,30.3,152.4,30.3z M77.2,192
			c0.1,1.4,0.8,2.6,2,3.3c4.9,2.9,7.9,8.2,7.9,13.9c0,4.5-1.8,8.7-5.1,11.7c0,0,0,0,0,0c-3,2.8-6.9,4.3-11,4.3
			c-2.2,0-4.1,1.8-4.1,4.1s1.8,4.1,4.1,4.1c4,0,7.8-1,11.2-2.8c5.9,21.4,16.2,24.2,24.6,26.5c2.4,0.6,4.5,1.2,6.4,2.2H28.8
			c1.9-0.9,4.1-1.5,6.4-2.2c9.1-2.5,20.4-5.6,26-32.5c0.3-1.4-0.2-2.8-1.2-3.8c-3.3-3.1-5.1-7.2-5.1-11.7c0-5.7,3-11,7.9-13.9
			c1.2-0.7,1.9-1.9,2-3.3c0.2-3.8,0.3-9.4,0.4-13.7c1.9,0.2,3.9,0.2,5.8,0.2c1.9,0,3.9-0.1,5.8-0.2C76.9,182.6,77,188.1,77.2,192z
			 M128.4,97.4c0.1,5.1,0.2,10.9,0.2,17.1c0,35-29.3,55.9-57.7,55.9s-57.7-20.9-57.7-55.9c0-6.3,0.1-12,0.2-17.1
			c0.5-23,0.8-37.6-10.5-59h135.8C127.6,59.8,127.9,74.4,128.4,97.4z"/>
	</g>
	<g id="XMLID_353_" class="st1">
		<g id="XMLID_68_">
			<path id="XMLID_355_" class="st2" d="M-9,33.5c-2.5-3.7-5.1-9.6-2.3-13.8c3.1-4.6,10.5-4.8,15.4-5.2c14.7-1.2,29.6-1,44.3-1
				c31.7,0.1,63.4,0.9,95,2c1.7,0.1,3.4,0.2,5.1,0.2c0.4,0,0.8,0,1.2,0c0.8,0.1-1.2-0.3-0.4,0c1.3,0.5,5.1,2.6,6.6,4.6
				c3.6,4.9-2.4,9.6-6,12.4c-3.5,2.8,1.4,7.7,4.9,4.9c7.8-6,13.3-15.7,4.7-23.6c-2.8-2.6-6.6-5-10.5-5.4c-11.6-1-23.5-0.8-35.1-1.1
				C94,7.1,73.8,6.7,53.7,6.5C36.8,6.4,19.8,6.1,3,7.6c-7.4,0.6-16.4,1.8-20.5,8.9c-3.7,6.3-1.4,14.8,2.5,20.5
				C-12.5,40.7-6.4,37.2-9,33.5L-9,33.5z"/>
		</g>
	</g>
	<g id="XMLID_57_" class="st1">
		<g id="XMLID_377_">
			<path id="XMLID_378_" class="st15" d="M58.1,96.5c-6.6,0-12-7-12-15.6s5.4-15.6,12-15.6c6.6,0,12,7,12,15.6S64.7,96.5,58.1,96.5z
				 M58.1,67.7c-5.2,0-9.5,5.9-9.5,13.2c0,7.3,4.3,13.2,9.5,13.2c5.2,0,9.5-5.9,9.5-13.2C67.6,73.6,63.3,67.7,58.1,67.7z"/>
		</g>
		<g id="XMLID_359_">
			<path id="XMLID_360_" class="st15" d="M89.2,143.7c-3.2,0-6-1.8-9-3.8c-1.8-1.2-3.6-2.4-5.6-3.3c-0.3-0.1-1.5-0.2-3.3-0.2
				c-1.6,0-2.4,0.1-2.6,0.2c-2,0.8-3.9,2-5.8,3.2c-3.2,2-5.9,3.7-9.1,3.7c-1.6,0-3.2-0.5-4.6-1.4c-3.4-2.2-5.3-5.9-5.5-10.5
				c-0.2-4.2,1.1-8.8,3.7-12.8c0.3-0.4,0.6-0.8,0.9-1.2c0.1-0.1,0.3-0.4,0.4-0.5c3.1-6.3,10.7-13,22.9-13l0.5,0
				c12.4,0.2,20.1,7.3,22.9,13.3c0.1,0.2,0.3,0.4,0.5,0.7c0.4,0.5,0.7,0.9,0.9,1.4c5.1,9,3.7,19.4-3.1,23.2
				C92,143.3,90.6,143.7,89.2,143.7z M71.4,134c1.8,0,3.5,0.1,4.1,0.3c2.3,1,4.2,2.3,6.1,3.5c2.7,1.8,5.2,3.4,7.6,3.4
				c1,0,2-0.3,2.9-0.8c5.6-3.2,6.6-12.1,2.2-19.9c-0.2-0.3-0.4-0.7-0.7-1.1c-0.3-0.4-0.6-0.8-0.7-1.1c-2.5-5.4-9.5-11.7-20.7-11.9
				l-0.4,0c-11.1,0-18,6-20.7,11.7c-0.2,0.3-0.4,0.6-0.7,1c-0.2,0.3-0.5,0.6-0.7,0.9c-2.3,3.6-3.5,7.6-3.3,11.4
				c0.2,3.8,1.7,6.9,4.4,8.6c1,0.7,2.1,1,3.2,1c2.5,0,5-1.5,7.8-3.3c2-1.2,4-2.5,6.3-3.4C68.6,134.1,69.8,134,71.4,134z"/>
		</g>
		<g id="XMLID_67_">
			<path id="XMLID_356_" class="st15" d="M85.1,96.5c-6.6,0-12-7-12-15.6s5.4-15.6,12-15.6c6.6,0,12,7,12,15.6S91.7,96.5,85.1,96.5z
				 M85.1,67.7c-5.2,0-9.5,5.9-9.5,13.2c0,7.3,4.3,13.2,9.5,13.2c5.2,0,9.5-5.9,9.5-13.2C94.7,73.6,90.4,67.7,85.1,67.7z"/>
		</g>
		<g id="XMLID_62_">
			<path id="XMLID_64_" class="st15" d="M105.8,116.4c-6.2,0-11.1-6.3-11.1-14.3c0-8,4.9-14.3,11.1-14.3c6.2,0,11.1,6.3,11.1,14.3
				C116.9,110.1,112,116.4,105.8,116.4z M105.8,90.3c-4.8,0-8.6,5.2-8.6,11.8c0,6.6,3.8,11.8,8.6,11.8c4.8,0,8.6-5.2,8.6-11.8
				C114.4,95.5,110.6,90.3,105.8,90.3z"/>
		</g>
		<g id="XMLID_58_">
			<path id="XMLID_59_" class="st15" d="M39,116.4c-6.2,0-11.1-6.3-11.1-14.3c0-8,4.9-14.3,11.1-14.3c6.2,0,11.1,6.3,11.1,14.3
				C50.1,110.1,45.3,116.4,39,116.4z M39,90.3c-4.8,0-8.6,5.2-8.6,11.8c0,6.6,3.8,11.8,8.6,11.8c4.8,0,8.6-5.2,8.6-11.8
				C47.7,95.5,43.9,90.3,39,90.3z"/>
		</g>
	</g>
</g>
<g id="Layer_11_copy_9" class="st0">
	<text id="XMLID_412_" transform="matrix(1 0 0 1 194.3337 182.2279)" class="st1 st3 st7">Tienda</text>
	<g id="XMLID_348_" class="st1">
		<g id="XMLID_396_">
			<path id="XMLID_397_" class="st15" d="M62,61c-2.3,0-4.2-2.4-4.2-5.4s1.9-5.4,4.2-5.4c2.3,0,4.2,2.4,4.2,5.4S64.3,61,62,61z
				 M62,51c-1.8,0-3.3,2.1-3.3,4.6c0,2.5,1.5,4.6,3.3,4.6c1.8,0,3.3-2.1,3.3-4.6C65.3,53,63.8,51,62,51z"/>
		</g>
		<g id="XMLID_392_">
			<path id="XMLID_393_" class="st15" d="M73.8,79.4c-1.1,0-2.1-0.6-3.1-1.3c-0.6-0.4-1.2-0.8-1.9-1.1c-0.1,0-0.5-0.1-1.1-0.1
				c-0.6,0-0.8,0-0.9,0.1c-0.7,0.3-1.4,0.7-2,1.1c-1.1,0.7-2.1,1.3-3.2,1.3c-0.6,0-1.1-0.2-1.6-0.5c-1.2-0.7-1.9-2.1-1.9-3.7
				c-0.1-1.5,0.4-3.1,1.3-4.5c0.1-0.1,0.2-0.3,0.3-0.4c0-0.1,0.1-0.1,0.1-0.2c1.1-2.2,3.7-4.5,8-4.5l0.2,0c4.3,0.1,7,2.5,8,4.6
				c0,0.1,0.1,0.1,0.2,0.2c0.1,0.2,0.2,0.3,0.3,0.5c1.8,3.1,1.3,6.7-1.1,8.1C74.8,79.2,74.3,79.4,73.8,79.4z M67.6,76
				c0.6,0,1.2,0.1,1.4,0.1c0.8,0.4,1.5,0.8,2.1,1.2c0.9,0.6,1.8,1.2,2.7,1.2c0.4,0,0.7-0.1,1-0.3c2-1.1,2.3-4.2,0.8-6.9
				c-0.1-0.1-0.2-0.2-0.3-0.4c-0.1-0.1-0.2-0.3-0.3-0.4c-0.9-1.9-3.3-4.1-7.2-4.1l-0.2,0c-3.9,0-6.2,2.1-7.2,4.1
				c-0.1,0.1-0.1,0.2-0.2,0.3c-0.1,0.1-0.2,0.2-0.2,0.3c-0.8,1.3-1.2,2.7-1.2,4c0.1,1.3,0.6,2.4,1.5,3c0.4,0.2,0.7,0.3,1.1,0.3
				c0.9,0,1.7-0.5,2.7-1.1c0.7-0.4,1.4-0.9,2.2-1.2C66.7,76,67.1,76,67.6,76z"/>
		</g>
		<g id="XMLID_388_">
			<path id="XMLID_389_" class="st15" d="M73.4,61c-2.3,0-4.2-2.4-4.2-5.4s1.9-5.4,4.2-5.4c2.3,0,4.2,2.4,4.2,5.4S75.7,61,73.4,61z
				 M73.4,51c-1.8,0-3.3,2.1-3.3,4.6c0,2.5,1.5,4.6,3.3,4.6c1.8,0,3.3-2.1,3.3-4.6C76.7,53,75.2,51,73.4,51z"/>
		</g>
		<g id="XMLID_384_">
			<path id="XMLID_385_" class="st15" d="M80.6,68.9c-2.2,0-3.9-2.2-3.9-5c0-2.8,1.7-5,3.9-5c2.2,0,3.9,2.2,3.9,5
				C84.4,66.7,82.7,68.9,80.6,68.9z M80.6,59.8c-1.7,0-3,1.8-3,4.1c0,2.3,1.3,4.1,3,4.1s3-1.8,3-4.1C83.6,61.6,82.3,59.8,80.6,59.8z
				"/>
		</g>
		<g id="XMLID_349_">
			<path id="XMLID_381_" class="st15" d="M54.4,68.9c-2.2,0-3.9-2.2-3.9-5c0-2.8,1.7-5,3.9-5c2.2,0,3.9,2.2,3.9,5
				C58.3,66.7,56.6,68.9,54.4,68.9z M54.4,59.8c-1.7,0-3,1.8-3,4.1c0,2.3,1.3,4.1,3,4.1c1.7,0,3-1.8,3-4.1
				C57.4,61.6,56.1,59.8,54.4,59.8z"/>
		</g>
	</g>
	<g id="XMLID_422_" class="st1">
		<defs>
			<polygon id="XMLID_419_" points="187.1,273.2 -60,273.2 -58.6,91.9 188.5,91.9 			"/>
		</defs>
		<clipPath id="XMLID_663_">
			<use xlink:href="#XMLID_419_"  style="overflow:visible;"/>
		</clipPath>
		<g id="XMLID_420_" class="st16">
			<path id="XMLID_418_" class="st2" d="M69.6,57.3c2.7,0,4.9-2.2,4.9-4.9c0-2.7-2.2-4.9-4.9-4.9c-2.7,0-4.9,2.2-4.9,4.9
				S66.9,57.3,69.6,57.3z"/>
			<path id="XMLID_417_" class="st2" d="M59.2,61.6c1.9-1.9,1.9-5,0-6.9c-1.9-1.9-5-1.9-6.9,0c-1.9,1.9-1.9,5,0,6.9
				C54.1,63.5,57.2,63.5,59.2,61.6z"/>
			<path id="XMLID_416_" class="st2" d="M86.9,61.6c1.9-1.9,1.9-5,0-6.9c-1.9-1.9-5-1.9-6.9,0c-1.9,1.9-1.9,5,0,6.9
				C81.9,63.5,85,63.5,86.9,61.6z"/>
			<path id="XMLID_415_" class="st2" d="M59.8,228.7c2.7,0,4.9-2.2,4.9-4.9c0-2.7-2.2-4.9-4.9-4.9s-4.9,2.2-4.9,4.9
				C54.9,226.5,57.1,228.7,59.8,228.7z"/>
			<path id="XMLID_429_" class="st2" d="M184.7,168c1.5-0.9,2.4-2.5,2.4-4.2v-18.2c0,0,0-0.1,0-0.1c0-0.9-0.2-1.7-0.6-2.4
				l-14.1-28.1V96.5c0-2.7-2.2-4.9-4.9-4.9h-74c6.4-6.2,10.3-14.9,10.3-24.5c0-18.9-15.4-34.3-34.3-34.3S35.3,48.2,35.3,67.1
				c0,9.6,4,18.3,10.3,24.5h-74c-2.7,0-4.9,2.2-4.9,4.9v18.4l-14.2,28.4c0,0.1-0.1,0.1-0.1,0.2c0,0,0,0.1-0.1,0.1
				c0,0.1-0.1,0.2-0.1,0.3c0,0,0,0.1,0,0.1c0,0.1-0.1,0.3-0.1,0.4c0,0,0,0.1,0,0.1c0,0.1,0,0.2-0.1,0.4c0,0,0,0.1,0,0.1
				c0,0.1,0,0.3,0,0.4c0,0,0,0,0,0v18.3c0,1.7,0.9,3.4,2.4,4.2c0.8,0.5,1.6,0.8,2.5,1.1v89c-2.7,0-4.9,2.2-4.9,4.9
				c0,2.7,2.2,4.9,4.9,4.9h4.9H50h39.2h88.2h4.9c2.7,0,4.9-2.2,4.9-4.9c0-2.7-2.2-4.9-4.9-4.9v-89C183,168.8,183.9,168.5,184.7,168z
				 M167.5,150.4c-2.7,0-4.9,2.2-4.9,4.9c0,2.7-2.2,4.9-4.9,4.9c-2.7,0-4.9-2.2-4.9-4.9c0-2.7-2.2-4.9-4.9-4.9s-4.9,2.2-4.9,4.9
				c0,2.7-2.2,4.9-4.9,4.9c-2.7,0-4.9-2.2-4.9-4.9c0-2.7-2.2-4.9-4.9-4.9c-2.7,0-4.9,2.2-4.9,4.9c0,2.7-2.2,4.9-4.9,4.9
				c-2.7,0-4.9-2.2-4.9-4.9c0-2.7-2.2-4.9-4.9-4.9c-2.7,0-4.9,2.2-4.9,4.9c0,2.7-2.2,4.9-4.9,4.9c-2.7,0-4.9-2.2-4.9-4.9
				c0-2.7-2.2-4.9-4.9-4.9c-2.7,0-4.9,2.2-4.9,4.9c0,2.7-2.2,4.9-4.9,4.9c-2.7,0-4.9-2.2-4.9-4.9c0-2.7-2.2-4.9-4.9-4.9
				s-4.9,2.2-4.9,4.9c0,2.7-2.2,4.9-4.9,4.9c-2.7,0-4.9-2.2-4.9-4.9c0-2.7-2.2-4.9-4.9-4.9c-2.7,0-4.9,2.2-4.9,4.9
				c0,2.7-2.2,4.9-4.9,4.9c-2.7,0-4.9-2.2-4.9-4.9c0-2.7-2.2-4.9-4.9-4.9s-4.9,2.2-4.9,4.9c0,2.7-2.2,4.9-4.9,4.9
				c-2.7,0-4.9-2.2-4.9-4.9c0-2.7-2.2-4.9-4.9-4.9s-4.9,2.2-4.9,4.9c0,2.7-2.2,4.9-4.9,4.9c-2.7,0-4.9-2.2-4.9-4.9
				c0-2.7-2.2-4.9-4.9-4.9s-4.9,2.2-4.9,4.9c0,2.7-2.2,4.9-4.9,4.9c-2.7,0-4.9-2.2-4.9-4.9c0-2.7-2.2-4.9-4.9-4.9s-4.9,2.2-4.9,4.9
				c0,2.7-2.2,4.9-4.9,4.9v-9.8h9.8h19.6h19.6h19.6H50h19.6h19.6h19.6h19.6h19.6H167.5h9.8v9.8c-2.7,0-4.9-2.2-4.9-4.9
				C172.4,152.6,170.2,150.4,167.5,150.4z M45.1,67.1c0-13.5,11-24.5,24.5-24.5c13.5,0,24.5,11,24.5,24.5
				c0,13.3-10.6,24.1-23.7,24.5c7.7-0.4,13.9-6.8,13.9-14.7c0-8.1-6.6-14.7-14.7-14.7c-8.1,0-14.7,6.6-14.7,14.7
				c0,7.8,6.2,14.3,13.9,14.7C55.6,91.2,45.1,80.4,45.1,67.1z M69.6,81.8c-2.7,0-4.9-2.2-4.9-4.9c0-2.7,2.2-4.9,4.9-4.9
				c2.7,0,4.9,2.2,4.9,4.9C74.5,79.6,72.3,81.8,69.6,81.8z M-23.5,101.4h186.1v9.8H-23.5V101.4z M-25.4,121h189.8l9.8,19.6H-35.2
				L-25.4,121z M54.9,258.1v-34.3v-34.3h29.4v68.6L54.9,258.1L54.9,258.1z M94,258.1v-73.5c0-2.7-2.2-4.9-4.9-4.9H50
				c-2.7,0-4.9,2.2-4.9,4.9v73.5h-78.4v-89c1.8-0.6,3.5-1.6,4.9-2.9c2.6,2.3,6,3.7,9.8,3.7s7.2-1.4,9.8-3.7c2.6,2.3,6,3.7,9.8,3.7
				s7.2-1.4,9.8-3.7c2.6,2.3,6,3.7,9.8,3.7s7.2-1.4,9.8-3.7c2.6,2.3,6,3.7,9.8,3.7s7.2-1.4,9.8-3.7c2.6,2.3,6,3.7,9.8,3.7
				c3.8,0,7.2-1.4,9.8-3.7c2.6,2.3,6,3.7,9.8,3.7s7.2-1.4,9.8-3.7c2.6,2.3,6,3.7,9.8,3.7s7.2-1.4,9.8-3.7c2.6,2.3,6,3.7,9.8,3.7
				c3.8,0,7.2-1.4,9.8-3.7c2.6,2.3,6,3.7,9.8,3.7c3.8,0,7.2-1.4,9.8-3.7c2.6,2.3,6,3.7,9.8,3.7c3.8,0,7.2-1.4,9.8-3.7
				c1.4,1.3,3.1,2.3,4.9,2.9v89H94z"/>
			<path id="XMLID_425_" class="st2" d="M5.9,179.8c-13.5,0-24.5,11-24.5,24.5v39.2c0,2.7,2.2,4.9,4.9,4.9h39.2
				c2.7,0,4.9-2.2,4.9-4.9v-39.2C30.4,190.7,19.4,179.8,5.9,179.8z M5.9,189.6c6.4,0,11.8,4.1,13.8,9.8H-8
				C-5.9,193.7-0.5,189.6,5.9,189.6z M-8.8,238.5v-29.4h29.4v29.4H-8.8z"/>
			<path id="XMLID_421_" class="st2" d="M133.2,179.8c-13.5,0-24.5,11-24.5,24.5v39.2c0,2.7,2.2,4.9,4.9,4.9h39.2
				c2.7,0,4.9-2.2,4.9-4.9v-39.2C157.7,190.7,146.7,179.8,133.2,179.8z M133.2,189.6c6.4,0,11.8,4.1,13.9,9.8h-27.7
				C121.4,193.7,126.8,189.6,133.2,189.6z M118.5,238.5v-29.4h29.4v29.4H118.5z"/>
		</g>
	</g>
	<g id="XMLID_423_" class="st1">
		<g id="XMLID_437_">
			<path id="XMLID_441_" class="st2" d="M92.8,63.1c-0.3,13.5-11,24.8-24.8,24.8c-13.5,0-24.8-11.3-24.8-24.8
				c0-13.5,11.3-24.9,24.8-24.8C81.8,38.3,92.5,49.5,92.8,63.1c0.1,5.1,8.1,5.2,8,0c-0.3-13.6-8.4-25.8-21.2-30.7
				c-13-5-28.2-0.9-37.1,9.9c-8.6,10.5-9.8,25.8-2.9,37.5c7,11.7,20.7,17.9,34.1,15.5c15.7-2.7,26.6-16.7,27-32.3
				C101,57.9,93,57.9,92.8,63.1z"/>
		</g>
	</g>
</g>
<g id="Layer_11_copy_10" class="st0">
	<text id="XMLID_497_" transform="matrix(1 0 0 1 194.3337 182.2279)" class="st1 st3 st7">Tienda</text>
	<g id="XMLID_476_" class="st1">
		<g id="XMLID_493_">
			<path id="XMLID_494_" class="st15" d="M62,61c-2.3,0-4.2-2.4-4.2-5.4s1.9-5.4,4.2-5.4c2.3,0,4.2,2.4,4.2,5.4S64.3,61,62,61z
				 M62,51c-1.8,0-3.3,2.1-3.3,4.6c0,2.5,1.5,4.6,3.3,4.6c1.8,0,3.3-2.1,3.3-4.6C65.3,53,63.8,51,62,51z"/>
		</g>
		<g id="XMLID_489_">
			<path id="XMLID_490_" class="st15" d="M73.8,79.4c-1.1,0-2.1-0.6-3.1-1.3c-0.6-0.4-1.2-0.8-1.9-1.1c-0.1,0-0.5-0.1-1.1-0.1
				c-0.6,0-0.8,0-0.9,0.1c-0.7,0.3-1.4,0.7-2,1.1c-1.1,0.7-2.1,1.3-3.2,1.3c-0.6,0-1.1-0.2-1.6-0.5c-1.2-0.7-1.9-2.1-1.9-3.7
				c-0.1-1.5,0.4-3.1,1.3-4.5c0.1-0.1,0.2-0.3,0.3-0.4c0-0.1,0.1-0.1,0.1-0.2c1.1-2.2,3.7-4.5,8-4.5l0.2,0c4.3,0.1,7,2.5,8,4.6
				c0,0.1,0.1,0.1,0.2,0.2c0.1,0.2,0.2,0.3,0.3,0.5c1.8,3.1,1.3,6.7-1.1,8.1C74.8,79.2,74.3,79.4,73.8,79.4z M67.6,76
				c0.6,0,1.2,0.1,1.4,0.1c0.8,0.4,1.5,0.8,2.1,1.2c0.9,0.6,1.8,1.2,2.7,1.2c0.4,0,0.7-0.1,1-0.3c2-1.1,2.3-4.2,0.8-6.9
				c-0.1-0.1-0.2-0.2-0.3-0.4c-0.1-0.1-0.2-0.3-0.3-0.4c-0.9-1.9-3.3-4.1-7.2-4.1l-0.2,0c-3.9,0-6.2,2.1-7.2,4.1
				c-0.1,0.1-0.1,0.2-0.2,0.3c-0.1,0.1-0.2,0.2-0.2,0.3c-0.8,1.3-1.2,2.7-1.2,4c0.1,1.3,0.6,2.4,1.5,3c0.4,0.2,0.7,0.3,1.1,0.3
				c0.9,0,1.7-0.5,2.7-1.1c0.7-0.4,1.4-0.9,2.2-1.2C66.7,76,67.1,76,67.6,76z"/>
		</g>
		<g id="XMLID_485_">
			<path id="XMLID_486_" class="st15" d="M73.4,61c-2.3,0-4.2-2.4-4.2-5.4s1.9-5.4,4.2-5.4c2.3,0,4.2,2.4,4.2,5.4S75.7,61,73.4,61z
				 M73.4,51c-1.8,0-3.3,2.1-3.3,4.6c0,2.5,1.5,4.6,3.3,4.6c1.8,0,3.3-2.1,3.3-4.6C76.7,53,75.2,51,73.4,51z"/>
		</g>
		<g id="XMLID_481_">
			<path id="XMLID_482_" class="st15" d="M80.6,68.9c-2.2,0-3.9-2.2-3.9-5c0-2.8,1.7-5,3.9-5c2.2,0,3.9,2.2,3.9,5
				C84.4,66.7,82.7,68.9,80.6,68.9z M80.6,59.8c-1.7,0-3,1.8-3,4.1c0,2.3,1.3,4.1,3,4.1s3-1.8,3-4.1C83.6,61.6,82.3,59.8,80.6,59.8z
				"/>
		</g>
		<g id="XMLID_477_">
			<path id="XMLID_478_" class="st15" d="M54.4,68.9c-2.2,0-3.9-2.2-3.9-5c0-2.8,1.7-5,3.9-5c2.2,0,3.9,2.2,3.9,5
				C58.3,66.7,56.6,68.9,54.4,68.9z M54.4,59.8c-1.7,0-3,1.8-3,4.1c0,2.3,1.3,4.1,3,4.1c1.7,0,3-1.8,3-4.1
				C57.4,61.6,56.1,59.8,54.4,59.8z"/>
		</g>
	</g>
	<g id="XMLID_452_" class="st1">
		<defs>
			<polygon id="XMLID_453_" points="187.1,273.2 -60,273.2 -58.6,91.9 188.5,91.9 			"/>
		</defs>
		<clipPath id="XMLID_667_">
			<use xlink:href="#XMLID_453_"  style="overflow:visible;"/>
		</clipPath>
		<g id="XMLID_454_" class="st17">
			<path id="XMLID_475_" class="st2" d="M69.6,57.3c2.7,0,4.9-2.2,4.9-4.9c0-2.7-2.2-4.9-4.9-4.9c-2.7,0-4.9,2.2-4.9,4.9
				S66.9,57.3,69.6,57.3z"/>
			<path id="XMLID_474_" class="st2" d="M59.2,61.6c1.9-1.9,1.9-5,0-6.9c-1.9-1.9-5-1.9-6.9,0c-1.9,1.9-1.9,5,0,6.9
				C54.1,63.5,57.2,63.5,59.2,61.6z"/>
			<path id="XMLID_473_" class="st2" d="M86.9,61.6c1.9-1.9,1.9-5,0-6.9c-1.9-1.9-5-1.9-6.9,0c-1.9,1.9-1.9,5,0,6.9
				C81.9,63.5,85,63.5,86.9,61.6z"/>
			<path id="XMLID_472_" class="st2" d="M59.8,228.7c2.7,0,4.9-2.2,4.9-4.9c0-2.7-2.2-4.9-4.9-4.9s-4.9,2.2-4.9,4.9
				C54.9,226.5,57.1,228.7,59.8,228.7z"/>
			<path id="XMLID_463_" class="st2" d="M184.7,168c1.5-0.9,2.4-2.5,2.4-4.2v-18.2c0,0,0-0.1,0-0.1c0-0.9-0.2-1.7-0.6-2.4
				l-14.1-28.1V96.5c0-2.7-2.2-4.9-4.9-4.9h-74c6.4-6.2,10.3-14.9,10.3-24.5c0-18.9-15.4-34.3-34.3-34.3S35.3,48.2,35.3,67.1
				c0,9.6,4,18.3,10.3,24.5h-74c-2.7,0-4.9,2.2-4.9,4.9v18.4l-14.2,28.4c0,0.1-0.1,0.1-0.1,0.2c0,0,0,0.1-0.1,0.1
				c0,0.1-0.1,0.2-0.1,0.3c0,0,0,0.1,0,0.1c0,0.1-0.1,0.3-0.1,0.4c0,0,0,0.1,0,0.1c0,0.1,0,0.2-0.1,0.4c0,0,0,0.1,0,0.1
				c0,0.1,0,0.3,0,0.4c0,0,0,0,0,0v18.3c0,1.7,0.9,3.4,2.4,4.2c0.8,0.5,1.6,0.8,2.5,1.1v89c-2.7,0-4.9,2.2-4.9,4.9
				c0,2.7,2.2,4.9,4.9,4.9h4.9H50h39.2h88.2h4.9c2.7,0,4.9-2.2,4.9-4.9c0-2.7-2.2-4.9-4.9-4.9v-89C183,168.8,183.9,168.5,184.7,168z
				 M167.5,150.4c-2.7,0-4.9,2.2-4.9,4.9c0,2.7-2.2,4.9-4.9,4.9c-2.7,0-4.9-2.2-4.9-4.9c0-2.7-2.2-4.9-4.9-4.9s-4.9,2.2-4.9,4.9
				c0,2.7-2.2,4.9-4.9,4.9c-2.7,0-4.9-2.2-4.9-4.9c0-2.7-2.2-4.9-4.9-4.9c-2.7,0-4.9,2.2-4.9,4.9c0,2.7-2.2,4.9-4.9,4.9
				c-2.7,0-4.9-2.2-4.9-4.9c0-2.7-2.2-4.9-4.9-4.9c-2.7,0-4.9,2.2-4.9,4.9c0,2.7-2.2,4.9-4.9,4.9c-2.7,0-4.9-2.2-4.9-4.9
				c0-2.7-2.2-4.9-4.9-4.9c-2.7,0-4.9,2.2-4.9,4.9c0,2.7-2.2,4.9-4.9,4.9c-2.7,0-4.9-2.2-4.9-4.9c0-2.7-2.2-4.9-4.9-4.9
				s-4.9,2.2-4.9,4.9c0,2.7-2.2,4.9-4.9,4.9c-2.7,0-4.9-2.2-4.9-4.9c0-2.7-2.2-4.9-4.9-4.9c-2.7,0-4.9,2.2-4.9,4.9
				c0,2.7-2.2,4.9-4.9,4.9c-2.7,0-4.9-2.2-4.9-4.9c0-2.7-2.2-4.9-4.9-4.9s-4.9,2.2-4.9,4.9c0,2.7-2.2,4.9-4.9,4.9
				c-2.7,0-4.9-2.2-4.9-4.9c0-2.7-2.2-4.9-4.9-4.9s-4.9,2.2-4.9,4.9c0,2.7-2.2,4.9-4.9,4.9c-2.7,0-4.9-2.2-4.9-4.9
				c0-2.7-2.2-4.9-4.9-4.9s-4.9,2.2-4.9,4.9c0,2.7-2.2,4.9-4.9,4.9c-2.7,0-4.9-2.2-4.9-4.9c0-2.7-2.2-4.9-4.9-4.9s-4.9,2.2-4.9,4.9
				c0,2.7-2.2,4.9-4.9,4.9v-9.8h9.8h19.6h19.6h19.6H50h19.6h19.6h19.6h19.6h19.6H167.5h9.8v9.8c-2.7,0-4.9-2.2-4.9-4.9
				C172.4,152.6,170.2,150.4,167.5,150.4z M45.1,67.1c0-13.5,11-24.5,24.5-24.5c13.5,0,24.5,11,24.5,24.5
				c0,13.3-10.6,24.1-23.7,24.5c7.7-0.4,13.9-6.8,13.9-14.7c0-8.1-6.6-14.7-14.7-14.7c-8.1,0-14.7,6.6-14.7,14.7
				c0,7.8,6.2,14.3,13.9,14.7C55.6,91.2,45.1,80.4,45.1,67.1z M69.6,81.8c-2.7,0-4.9-2.2-4.9-4.9c0-2.7,2.2-4.9,4.9-4.9
				c2.7,0,4.9,2.2,4.9,4.9C74.5,79.6,72.3,81.8,69.6,81.8z M-23.5,101.4h186.1v9.8H-23.5V101.4z M-25.4,121h189.8l9.8,19.6H-35.2
				L-25.4,121z M54.9,258.1v-34.3v-34.3h29.4v68.6L54.9,258.1L54.9,258.1z M94,258.1v-73.5c0-2.7-2.2-4.9-4.9-4.9H50
				c-2.7,0-4.9,2.2-4.9,4.9v73.5h-78.4v-89c1.8-0.6,3.5-1.6,4.9-2.9c2.6,2.3,6,3.7,9.8,3.7s7.2-1.4,9.8-3.7c2.6,2.3,6,3.7,9.8,3.7
				s7.2-1.4,9.8-3.7c2.6,2.3,6,3.7,9.8,3.7s7.2-1.4,9.8-3.7c2.6,2.3,6,3.7,9.8,3.7s7.2-1.4,9.8-3.7c2.6,2.3,6,3.7,9.8,3.7
				c3.8,0,7.2-1.4,9.8-3.7c2.6,2.3,6,3.7,9.8,3.7s7.2-1.4,9.8-3.7c2.6,2.3,6,3.7,9.8,3.7s7.2-1.4,9.8-3.7c2.6,2.3,6,3.7,9.8,3.7
				c3.8,0,7.2-1.4,9.8-3.7c2.6,2.3,6,3.7,9.8,3.7c3.8,0,7.2-1.4,9.8-3.7c2.6,2.3,6,3.7,9.8,3.7c3.8,0,7.2-1.4,9.8-3.7
				c1.4,1.3,3.1,2.3,4.9,2.9v89H94z"/>
			<path id="XMLID_459_" class="st2" d="M5.9,179.8c-13.5,0-24.5,11-24.5,24.5v39.2c0,2.7,2.2,4.9,4.9,4.9h39.2
				c2.7,0,4.9-2.2,4.9-4.9v-39.2C30.4,190.7,19.4,179.8,5.9,179.8z M5.9,189.6c6.4,0,11.8,4.1,13.8,9.8H-8
				C-5.9,193.7-0.5,189.6,5.9,189.6z M-8.8,238.5v-29.4h29.4v29.4H-8.8z"/>
			<path id="XMLID_455_" class="st2" d="M133.2,179.8c-13.5,0-24.5,11-24.5,24.5v39.2c0,2.7,2.2,4.9,4.9,4.9h39.2
				c2.7,0,4.9-2.2,4.9-4.9v-39.2C157.7,190.7,146.7,179.8,133.2,179.8z M133.2,189.6c6.4,0,11.8,4.1,13.9,9.8h-27.7
				C121.4,193.7,126.8,189.6,133.2,189.6z M118.5,238.5v-29.4h29.4v29.4H118.5z"/>
		</g>
	</g>
	<g id="XMLID_445_" class="st1">
		<g id="XMLID_447_">
			<path id="XMLID_451_" class="st2" d="M92.8,63.1c-0.3,13.5-11,24.8-24.8,24.8c-13.5,0-24.8-11.3-24.8-24.8
				c0-13.5,11.3-24.9,24.8-24.8C81.8,38.3,92.5,49.5,92.8,63.1c0.1,5.1,8.1,5.2,8,0c-0.3-13.6-8.4-25.8-21.2-30.7
				c-13-5-28.2-0.9-37.1,9.9c-8.6,10.5-9.8,25.8-2.9,37.5c7,11.7,20.7,17.9,34.1,15.5c15.7-2.7,26.6-16.7,27-32.3
				C101,57.9,93,57.9,92.8,63.1z"/>
		</g>
	</g>
</g>
<g id="Layer_5">
</g>
</svg>
