<?xml version="1.0" encoding="utf-8"?>
<!-- Generator: Adobe Illustrator 19.0.0, SVG Export Plug-In . SVG Version: 6.00 Build 0)  -->
<svg version="1.1" xmlns="http://www.w3.org/2000/svg" xmlns:xlink="http://www.w3.org/1999/xlink" x="0px" y="0px"
	 viewBox="0 0 531.3 271" style="enable-background:new 0 0 531.3 271;" xml:space="preserve">
<style type="text/css">
	.st0{display:none;}
	.st1{display:inline;}
	.st2{fill:#010101;}
	.st3{font-family:'Roboto-Medium';}
	.st4{font-size:48.8054px;}
	.st5{font-size:40px;}
	.st6{display:inline;fill:#010101;}
	.st7{font-size:48px;}
	.st8{fill:#040404;}
	.st9{font-size:42px;}
	.st10{font-family:'Haettenschweiler';}
	.st11{font-size:45px;}
	.st12{display:inline;fill:none;stroke:#010101;stroke-width:9;stroke-miterlimit:10;}
	.st13{font-size:49px;}
	.st14{font-size:43px;}
	.st15{fill:#040404;stroke:#040404;stroke-width:3;stroke-miterlimit:10;}
	.st16{clip-path:url(#XMLID_745_);}
	.st17{clip-path:url(#XMLID_746_);}
</style>
<g id="Layer_1" class="st0">
	<g id="XMLID_2_" class="st1">
		<path id="XMLID_27_" class="st2" d="M189.9,212.2c-16.4,0-29.7,12.4-29.7,27.6c0,7.2,4.3,11.5,11.4,11.5c3.3,0,6.9-0.8,10.3-1.6
			c2.9-0.7,5.9-1.4,7.9-1.4c1.8,0,4.6,0.7,7.4,1.3c3.6,0.8,7.3,1.7,10.7,1.7c7.3,0,11.6-4.3,11.6-11.5
			C219.5,224.6,206.2,212.2,189.9,212.2z M209.8,241.6c0,0-0.4,0.3-1.8,0.3c-2.3,0-5.5-0.7-8.5-1.5c-3.4-0.8-6.6-1.5-9.5-1.5
			c-3.1,0-6.7,0.8-10,1.6c-3,0.7-6,1.4-8.2,1.4c-1.2,0-1.6-0.2-1.6-0.2c0,0-0.3-0.5-0.3-1.8c0-10,9.1-18.1,20.2-18.1
			c11.1,0,20.2,8.1,20.2,18.1C210.1,241,209.9,241.5,209.8,241.6z"/>
		<path id="XMLID_24_" class="st2" d="M175.1,203.2c0-8.3-5.8-15.1-12.9-15.1c-7.1,0-12.9,6.8-12.9,15.1c0,8.3,5.8,15.1,12.9,15.1
			C169.3,218.3,175.1,211.5,175.1,203.2z M158.8,203.2c0-3.2,1.8-5.7,3.4-5.7c1.6,0,3.4,2.4,3.4,5.7s-1.8,5.7-3.4,5.7
			C160.6,208.8,158.8,206.4,158.8,203.2z"/>
		<path id="XMLID_21_" class="st2" d="M190.8,209c7.1,0,12.9-6.8,12.9-15.1s-5.8-15.1-12.9-15.1c-7.1,0-12.9,6.8-12.9,15.1
			C177.9,202.2,183.6,209,190.8,209z M190.8,188.2c1.6,0,3.4,2.4,3.4,5.7c0,3.2-1.8,5.7-3.4,5.7c-1.6,0-3.4-2.4-3.4-5.7
			C187.3,190.6,189.1,188.2,190.8,188.2z"/>
		<path id="XMLID_18_" class="st2" d="M219.3,188.1c-7.1,0-12.9,6.8-12.9,15.1c0,8.3,5.8,15.1,12.9,15.1s12.9-6.8,12.9-15.1
			C232.2,194.9,226.4,188.1,219.3,188.1z M219.3,208.8c-1.6,0-3.4-2.4-3.4-5.7s1.8-5.7,3.4-5.7c1.6,0,3.4,2.4,3.4,5.7
			C222.7,206.4,220.9,208.8,219.3,208.8z"/>
		<path id="XMLID_12_" class="st2" d="M230.6,73.6h-5V59.9c0-6.3-5.1-11.4-11.4-11.4h-18.7V35.1h7.8c6.3,0,11.4-5.1,11.4-11.4V11.4
			c0-6.3-5.1-11.4-11.4-11.4h-46.8l-1,0c-6.7,0-16.8,0-25.3,6.3c-9.7,7.2-14.4,20.2-14.4,39.9c0,2.6,2.1,4.7,4.7,4.7h16.5
			c2.6,0,4.7-2.1,4.7-4.7c0-4.7,1.6-7.7,5.1-9.5c3.1-1.6,6.4-1.6,6.6-1.6c0,0,0.1,0,0.1,0H186v13.4h-18.7c-6.3,0-11.4,5.1-11.4,11.4
			v13.7h-5c-18.9,0-34.3,15.4-34.3,34.3v158.4c0,2.6,2.1,4.7,4.7,4.7h138.8c2.6,0,4.7-2.1,4.7-4.7V107.9
			C264.9,89,249.5,73.6,230.6,73.6z M153.4,25.6c-6.6,0-18.3,3.4-20.8,15.8h-7.4c1.5-32,18-32,30.2-32l47.9,0c1.1,0,2,0.9,2,2v12.3
			c0,1.1-0.9,2-2,2L153.4,25.6L153.4,25.6z M165.4,59.9c0-1.1,0.9-2,2-2h46.8c1.1,0,2,0.9,2,2v13.7h-50.7V59.9z M150.9,83.1h79.7
			c13.7,0,24.8,11.1,24.8,24.8v13c-9.7-0.7-34.5-0.2-56.1,18.6c-13.1,11.4-28.3,16.8-42.9,15.1c-12.2-1.4-23-7.8-30.4-18.1v-28.5
			C126.1,94.2,137.2,83.1,150.9,83.1z M126.1,261.5V150.6c8.2,7.4,18.3,12.1,29.3,13.4c2.1,0.2,4.2,0.4,6.4,0.4
			c15.2,0,30.5-6.2,43.8-17.7c19.4-16.9,42.3-16.8,49.9-16.2v131.1H126.1L126.1,261.5z"/>
		<path id="XMLID_9_" class="st2" d="M73.4,90.9c9.1,0,16.4-7.4,16.4-16.4S82.4,58,73.4,58s-16.4,7.4-16.4,16.4
			C56.9,83.5,64.3,90.9,73.4,90.9z M73.4,67.5c3.8,0,7,3.1,7,7c0,3.8-3.1,7-7,7s-7-3.1-7-7C66.4,70.6,69.5,67.5,73.4,67.5z"/>
		<path id="XMLID_6_" class="st2" d="M77.6,133.5c-15.5,0-28.2,12.6-28.2,28.2s12.6,28.2,28.2,28.2s28.2-12.6,28.2-28.2
			S93.1,133.5,77.6,133.5z M77.6,180.4c-10.3,0-18.7-8.4-18.7-18.7c0-10.3,8.4-18.7,18.7-18.7c10.3,0,18.7,8.4,18.7,18.7
			S87.9,180.4,77.6,180.4z"/>
		<path id="XMLID_3_" class="st2" d="M54.4,216.6c-8.8,0-15.9,7.1-15.9,15.9s7.1,15.9,15.9,15.9s15.9-7.1,15.9-15.9
			S63.2,216.6,54.4,216.6z M54.4,238.9c-3.5,0-6.4-2.9-6.4-6.4s2.9-6.4,6.4-6.4c3.5,0,6.4,2.9,6.4,6.4S58,238.9,54.4,238.9z"/>
	</g>
	<text id="XMLID_1_" transform="matrix(1 0 0 1 274.3335 154.8197)" class="st1"><tspan x="0" y="0" class="st3 st4">Estética y</tspan><tspan x="0" y="58.6" class="st3 st4">Peluquería</tspan></text>
</g>
<g id="Layer_1_copy" class="st0">
	<text id="XMLID_517_" transform="matrix(1 0 0 1 274.3335 154.8197)" class="st1"><tspan x="0" y="0" class="st3 st4">Citas por</tspan><tspan x="0" y="58.6" class="st3 st4">teléfono</tspan></text>
	<g id="XMLID_243_" class="st1">
		<g id="XMLID_247_">
			<path id="XMLID_263_" class="st2" d="M253.9,209.3l-44.7-44.7c-5.3-5.3-14-5.3-19.4,0l-11.6,11.6c-3.6,3.6-4.8,8.8-3.5,13.5
				l-4.4,4.4c0,0,0,0,0,0c-3.1,3.1-22.5-1.7-46-25.1c-23.4-23.4-28.2-42.8-25.1-46c0,0,0,0,0,0l4.4-4.4c1.2,0.4,2.5,0.5,3.8,0.5
				c3.5,0,7-1.3,9.7-4l11.6-11.6c5.3-5.3,5.3-14,0-19.4L84,39.4c-2.6-2.6-6-4-9.7-4c-3.7,0-7.1,1.4-9.7,4L53,51.1
				c-3.6,3.6-4.8,8.8-3.5,13.5c0,0-3.7,3.8-3.9,4c-12.4,13.7-14.7,35.4-6.5,61.3c8,25.3,25.3,52.2,48.7,75.6
				c23.4,23.4,50.2,40.7,75.6,48.7c10.2,3.2,19.7,4.8,28.4,4.8c14.2,0,26-4.3,34.5-12.8l2.4-2.4c1.2,0.4,2.5,0.5,3.8,0.5
				c3.7,0,7.1-1.4,9.7-4l11.6-11.6C259.2,223.3,259.2,214.6,253.9,209.3z M74.3,49.1L119,93.8l-11.6,11.6c0,0,0,0,0,0l-0.2-0.2
				L85,83.1L62.7,60.7L74.3,49.1z M216.6,236.5C216.6,236.5,216.6,236.5,216.6,236.5c-9.8,9.8-27.3,11.5-49,4.6
				c-23.3-7.4-48.2-23.5-70-45.4c-21.9-21.9-38-46.8-45.4-70c-6.9-21.8-5.3-39.2,4.6-49l0,0l1.2-1.2l34.7,34.7l-3.2,3.2c0,0,0,0,0,0
				c-13.2,13.2,2.7,42.9,25.1,65.3c16.8,16.8,37.7,29.9,52.6,29.9c5,0,9.4-1.5,12.7-4.8c0,0,0,0,0,0l3.2-3.2l34.7,34.7L216.6,236.5z
				 M232.6,230.6l-44.7-44.7l11.6-11.6l44.7,44.7C244.2,219,232.6,230.6,232.6,230.6z"/>
		</g>
	</g>
	<g id="XMLID_232_" class="st1">
		<g id="XMLID_233_">
			<path id="XMLID_520_" class="st2" d="M207.6,85.7c-13-13-30.3-20.2-48.7-20.2c-3.8,0-6.8,3.1-6.8,6.8s3.1,6.8,6.8,6.8
				c14.8,0,28.6,5.7,39.1,16.2c10.4,10.4,16.2,24.3,16.2,39.1c0,3.8,3.1,6.8,6.8,6.8c3.8,0,6.8-3.1,6.8-6.8
				C227.8,116,220.6,98.7,207.6,85.7z"/>
		</g>
	</g>
	<g id="XMLID_229_" class="st1">
		<g id="XMLID_230_">
			<path id="XMLID_519_" class="st2" d="M232.2,61.1c-19.6-19.6-45.6-30.4-73.3-30.4c-3.8,0-6.8,3.1-6.8,6.8c0,3.8,3.1,6.8,6.8,6.8
				c24,0,46.6,9.4,63.6,26.3c17,17,26.3,39.6,26.3,63.6c0,3.8,3.1,6.8,6.8,6.8c3.8,0,6.8-3.1,6.8-6.8
				C262.5,106.7,251.7,80.7,232.2,61.1z"/>
		</g>
	</g>
	<g id="XMLID_226_" class="st1">
		<g id="XMLID_227_">
			<path id="XMLID_518_" class="st2" d="M183.1,110.2c-6.6-6.6-14.9-10-24.2-10c0,0,0,0,0,0c-3.8,0-6.8,3.1-6.8,6.8
				c0,3.8,3.1,6.8,6.8,6.8c0,0,0,0,0,0c5.6,0,10.5,2,14.5,6c3.9,3.9,6,8.9,6,14.5c0,3.8,3.1,6.8,6.8,6.8h0c3.8,0,6.8-3.1,6.8-6.8
				C193.1,125.1,189.6,116.8,183.1,110.2z"/>
		</g>
	</g>
</g>
<g id="Layer_1_copy_2" class="st0">
	<text id="XMLID_622_" transform="matrix(1 0 0 1 274.3335 154.8197)" class="st1"><tspan x="0" y="0" class="st3 st5">Entrenamiento</tspan><tspan x="0" y="48" class="st3 st5">canino</tspan></text>
	<g id="XMLID_612_" class="st1">
		<g id="XMLID_623_">
			<path id="XMLID_624_" class="st2" d="M200.7,164.3c-4.2,0-7.4-1.6-10-2.9c-0.6-0.3-1.2-0.6-1.8-0.9c-3.4-1.5-7.3-1.7-10.6-0.6
				c-0.7,0.2-1.6,0.7-2.6,1.2c-2.8,1.4-6.4,3.1-10.7,3.1c-1.8,0-3.6-0.3-5.3-0.9c-4.8-1.8-7.2-5.1-9.5-8.3c-0.5-0.7-1.1-1.6-1.8-2.4
				c-1.4-1.8-3.9-4.1-6.6-5c-1-0.3-2.9-0.5-4.7-0.7c-4.3-0.4-9.7-1-13.6-4.4c-4.4-3.9-4.9-9-5.3-13.5c-0.1-1.3-0.2-2.6-0.5-4
				c-0.3-1.8-1.1-3.6-2.3-5.4c-0.9-1.3-2.7-2.6-4.6-3.9c-4-2.8-9.5-6.7-10.2-14c-0.6-5.9,1.5-9.7,3.1-12.5c0.7-1.2,1.2-2.2,1.6-3.3
				c0.7-2.5,0.6-5.4-0.2-7.9c-0.3-1.1-0.9-2.2-1.5-3.4c-1.6-3.2-3.8-7.6-2.6-13.3c1.3-6.7,6.6-10.2,9.4-12c4.6-3,6.6-5.7,7.3-9.7
				c0.2-1.4,0.4-2.8,0.5-4.1c0.4-3.7,0.7-7.6,3-11c4-5.8,9.8-6.3,14.5-6.8c1.2-0.1,2.6-0.2,4-0.5c2.9-0.5,6.2-2.4,8.3-4.7
				c0.7-0.8,1.3-1.8,2-2.8c2.1-3.3,5.2-8.2,12.5-9.3c1-0.2,1.9-0.2,2.9-0.2c4.4,0,7.7,1.6,10.3,3c1.8,0.9,3.3,1.6,5,1.9
				c3,0.4,5.6,0.1,8.3-1.2c0.5-0.2,1-0.5,1.6-0.8c2.5-1.3,5.9-3,10.1-3c1.2,0,2.3,0.1,3.5,0.4c6,1.3,9.4,6.1,12.2,9.9
				c1.4,2,2.9,4,4.2,4.9c1.6,1,4,1.9,6,2.2c1.1,0.1,2.1,0.2,3.1,0.3c5.4,0.5,12.1,1.1,15.9,8.7c1.4,2.9,1.7,6,1.9,9
				c0.1,1.7,0.2,3.2,0.5,4.6c0.7,2.9,2.7,5.8,4.3,7.2c1,0.9,2.2,1.7,3.4,2.5c3.5,2.3,8.3,5.6,9.2,12.8c0.6,5.5-1.5,9.6-3.1,12.6
				c-0.6,1.1-1.1,2.1-1.3,2.8c-0.8,2.5-0.8,5.6,0,8.2c0.3,1,0.8,2.1,1.4,3.3c1.6,3.4,3.8,8.1,2.7,13.6c-1.3,6.5-6.2,9.9-10.1,12.6
				c-2,1.4-3.8,2.7-4.7,4c-0.5,0.7-1.1,2-1.6,3.5c-0.5,1.6-0.7,3.5-0.9,5.6c-0.4,4-0.9,8.6-3.8,12.1c-3.9,4.7-9.4,5.2-13.8,5.6
				c-1.3,0.1-2.8,0.3-4.2,0.5c-1.7,0.3-3.5,1.1-5.2,2.2c-1.4,1-2.7,2.8-4.2,4.8c-2.7,3.9-6.5,9.2-13.5,10
				C202,164.3,201.4,164.3,200.7,164.3z M182.7,146.7c3.8,0,7.8,0.8,11.3,2.4c0.8,0.3,1.6,0.7,2.3,1.1c1.9,0.9,3.4,1.8,4.9,1.6
				c1.4-0.2,2.5-1.7,4.8-4.8c1.9-2.7,4.1-5.8,7.4-8c2.2-1.5,5.6-3.4,10-4.1c1.9-0.3,3.7-0.5,5.2-0.7c2.4-0.2,4.7-0.5,5.3-1.2
				c0.5-0.7,0.8-3.6,1-5.3c0.3-2.5,0.5-5.3,1.4-8c0.7-2.3,1.8-4.7,3-6.6c2.2-3.4,5.3-5.5,8-7.5c2.9-2,4.7-3.4,5-4.9
				c0.3-1.4-0.7-3.5-1.8-5.8c-0.7-1.6-1.5-3.2-2.1-5c-1.6-5.1-1.6-10.8,0-15.7c0.6-1.8,1.4-3.5,2.2-4.9c1.2-2.3,1.9-3.7,1.7-5.3
				c-0.1-1.3-0.4-1.7-3.6-3.8c-1.4-1-3.1-2.1-4.8-3.5c-3.1-2.7-6.9-7.8-8.3-13.8c-0.5-2.3-0.7-4.6-0.8-6.5c-0.1-1.4-0.2-3.6-0.6-4.2
				c-0.5-1.1-0.7-1.4-5.9-1.9c-1.1-0.1-2.3-0.2-3.6-0.4c-3.9-0.5-8.1-2.1-11.2-4.1c-3.3-2.2-5.6-5.3-7.5-8c-1.6-2.2-3.4-4.7-4.7-4.9
				c-1.6-0.4-3.1,0.5-5.2,1.5c-0.7,0.3-1.3,0.7-2,1c-4.8,2.2-9.7,2.9-15.2,2.2c-3.8-0.5-6.7-1.9-9-3.1c-2.6-1.3-3.7-1.8-5.6-1.5
				c-1.5,0.2-2,0.7-3.8,3.7c-0.8,1.3-1.8,2.9-3.1,4.4c-3.9,4.5-9.9,7.8-15.7,8.8c-1.7,0.3-3.3,0.4-4.8,0.6c-4.2,0.4-4.8,0.6-5.3,1.4
				c-0.5,0.7-0.7,3.2-0.9,5c-0.1,1.5-0.3,3.3-0.6,5.1c-1.7,9.8-8.2,15-12.8,18c-2.7,1.8-3.8,2.8-4,3.9c-0.3,1.4,0.2,2.6,1.6,5.3
				c0.8,1.5,1.6,3.2,2.3,5.3c1.6,4.9,1.7,10.3,0.3,15.2c-0.7,2.5-1.8,4.4-2.7,6c-1.3,2.3-1.7,3.2-1.5,5.1c0.1,1.5,2,2.9,5,5
				c2.6,1.8,5.5,3.9,7.6,6.9c2.3,3.3,3.8,6.8,4.4,10.6c0.3,1.7,0.4,3.3,0.6,4.8c0.2,2.5,0.5,4.7,1.2,5.3c0.8,0.7,4.5,1.1,6.4,1.3
				c2.4,0.2,5,0.5,7.3,1.2c6.7,2.2,11.1,7.2,12.7,9.3c0.8,1,1.4,1.9,2,2.8c1.8,2.5,2.5,3.4,3.5,3.8c1.7,0.6,3.9-0.5,6.3-1.7
				c1.3-0.6,2.7-1.3,4.1-1.8C177,147.1,179.8,146.7,182.7,146.7z"/>
		</g>
		<g id="XMLID_613_">
			<path id="XMLID_614_" class="st2" d="M148.8,271v-86.7c0-0.6,0-1.3-0.1-2c-0.1-3.1-0.3-6.9,1.6-10.6l2.1-4.7
				c0,0,8.4,5.7,17.2,1.7c2.8-1.3,7.4-3.3,12.5-3.3c6.9,0,8.6,1.7,12.2,3.4c1.4,0.7,2.6,1.4,3.9,1.6c7.5,1.1,13.1-3.8,13.1-3.8
				l2,5.6c1.3,3.5,1.2,7.1,1.1,9.9c0,0.7-0.1,1.4-0.1,2.1v86.5c0,0-30.7-22.5-32.7-24.1C178.6,249.1,148.8,271,148.8,271z
				 M181.9,231.2l3.6,2.7c2.7,2,6.5,5.1,10.6,8.4c1.7,1.4,3.7,3,5.6,4.5v-62.5c0-0.4,0-0.9,0-1.3c-0.8,0.1-1.7,0.2-2.6,0.2l0,0
				c-1.5,0-2.9-0.2-4.4-0.6c-2.2-0.6-4.1-1.5-5.8-2.3c-2.9-1.4-5.1-2.4-8.5-2.1c-1.6,0.2-3.5,1.1-5.6,2c-3.1,1.5-6.7,3.1-10.9,3.1
				c-0.9,0-1.7-0.1-2.6-0.2c0,0.4,0,0.8,0,1.2v62.3c1.1-0.9,2.2-1.7,3.3-2.6c4.4-3.4,8.9-7,13.5-10.2L181.9,231.2z"/>
		</g>
	</g>
	<path id="XMLID_344_" class="st6" d="M182,81.8c-16.4,0-29.7,12.4-29.7,27.6c0,7.2,4.3,11.5,11.4,11.5c3.3,0,6.9-0.8,10.3-1.6
		c2.9-0.7,5.9-1.4,7.9-1.4c1.8,0,4.6,0.7,7.4,1.3c3.6,0.8,7.3,1.7,10.7,1.7c7.3,0,11.6-4.3,11.6-11.5
		C211.6,94.2,198.3,81.8,182,81.8z M201.9,111.1c0,0-0.4,0.3-1.8,0.3c-2.3,0-5.5-0.7-8.5-1.5c-3.4-0.8-6.6-1.5-9.5-1.5
		c-3.1,0-6.7,0.8-10,1.6c-3,0.7-6,1.4-8.2,1.4c-1.2,0-1.6-0.2-1.6-0.2c0,0-0.3-0.5-0.3-1.8c0-10,9.1-18.1,20.2-18.1
		c11.1,0,20.2,8.1,20.2,18.1C202.2,110.5,201.9,111.1,201.9,111.1z"/>
	<path id="XMLID_340_" class="st6" d="M167.2,72.7c0-8.3-5.8-15.1-12.9-15.1c-7.1,0-12.9,6.8-12.9,15.1c0,8.3,5.8,15.1,12.9,15.1
		C161.4,87.8,167.2,81.1,167.2,72.7z M150.9,72.7c0-3.2,1.8-5.7,3.4-5.7c1.6,0,3.4,2.4,3.4,5.7c0,3.2-1.8,5.7-3.4,5.7
		C152.7,78.4,150.9,76,150.9,72.7z"/>
	<path id="XMLID_336_" class="st6" d="M182.8,78.5c7.1,0,12.9-6.8,12.9-15.1c0-8.3-5.8-15.1-12.9-15.1c-7.1,0-12.9,6.8-12.9,15.1
		S175.7,78.5,182.8,78.5z M182.8,57.7c1.6,0,3.4,2.4,3.4,5.7s-1.8,5.7-3.4,5.7c-1.6,0-3.4-2.4-3.4-5.7S181.2,57.7,182.8,57.7z"/>
	<path id="XMLID_333_" class="st6" d="M211.4,57.6c-7.1,0-12.9,6.8-12.9,15.1c0,8.3,5.8,15.1,12.9,15.1s12.9-6.8,12.9-15.1
		C224.3,64.4,218.5,57.6,211.4,57.6z M211.4,78.4c-1.6,0-3.4-2.4-3.4-5.7c0-3.2,1.8-5.7,3.4-5.7c1.6,0,3.4,2.4,3.4,5.7
		C214.8,76,213,78.4,211.4,78.4z"/>
</g>
<g id="Layer_1_copy_3" class="st0">
	<text id="XMLID_680_" transform="matrix(1 0 0 1 274.3335 154.8197)" class="st1"><tspan x="0" y="0" class="st3 st7">Medicina</tspan><tspan x="0" y="57.6" class="st3 st7">alternativa</tspan></text>
	<path id="XMLID_655_" class="st6" d="M241.8,198.4c20.4-23.5,19.4-58.1,19.4-59.8l-0.2-4.5l-4.5-0.2c-1.4,0-28-0.7-50.3,12.6
		c-6.4-25.1-25.6-43.4-26.6-44.3l-3.1-2.8l-3.3,3.1c-0.9,0.9-20.4,19.2-26.6,44.3c-22.3-13.3-48.8-12.6-50.3-12.6l-4.5,0.2l-0.2,4.5
		c0,1.4-0.9,36.3,19.4,59.8c-13.3,5.5-22.5,13.8-23,14.2l-3.8,3.6l3.8,3.6c0.9,0.7,20.6,19,45.8,19c6.2,0,12.1-1.2,17.5-2.8
		c-0.2,0.7-0.2,1.4-0.2,1.7c0,2.4,1.2,14,23.2,23.2l1.9,0.7l1.9-0.7c22.3-9.2,23.2-20.9,23.2-23.2c0-0.5,0-0.9-0.2-1.7
		c5.5,1.7,11.4,2.8,17.5,2.8c25.1,0,44.8-18.3,45.8-19l3.8-3.6l-3.8-3.6C264.3,212.1,255.3,203.8,241.8,198.4z M251.7,143.6
		c-0.5,10.2-3.6,35.1-19.2,51c-15.9,15.9-40.8,18.7-51,19.2c0.5-10.2,3.3-35.1,19.2-51C216.6,147.2,241.3,144.3,251.7,143.6z
		 M176.6,112.6c5.9,6.4,18,21.8,21.3,40.1c-1.4,1.2-2.6,2.4-4,3.6c-8.8,8.8-14.2,19.9-17.5,30.1c-3.3-10.2-8.5-21.3-17.5-30.1
		c-1.2-1.2-2.6-2.6-4-3.6C158.5,134.4,170.6,119.2,176.6,112.6z M101.4,143.6c10.2,0.5,35.1,3.3,51,19.2s18.7,40.8,19.2,51
		c-10.2-0.5-35.1-3.6-51-19.2C105,178.7,102.1,154.1,101.4,143.6z M134.1,229.2c-14.9,0-28.5-8.1-34.9-13
		c4.3-3.1,11.4-7.6,19.7-10.4c12.8,10.2,28.5,14.7,40.3,16.6C152.4,225.9,143.6,229.2,134.1,229.2z M176.6,251.3
		c-7.1-3.3-15.6-9.2-15.6-13.5c0-4.5,8.8-10.4,15.6-13.5c7.1,3.3,15.6,9.2,15.6,13.5C192.2,242,183.4,247.9,176.6,251.3z M219,229.2
		c-9.5,0-18.3-3.3-25.1-6.9c11.9-1.9,27.5-6.2,40.3-16.6c8.5,2.8,15.6,7.4,19.9,10.4C247.5,220.9,234.2,229.2,219,229.2z"/>
	<path id="XMLID_664_" class="st6" d="M124.3,64.2c-2.9-3.1-5.8-6.2-8.8-9.2c-1.9-2-5.2-1.9-7.1,0c-2,2-1.9,5.1,0,7.1
		c2.9,3.1,5.8,6.2,8.8,9.2c1.9,2,5.2,1.9,7.1,0C126.3,69.3,126.2,66.2,124.3,64.2z"/>
	<path id="XMLID_665_" class="st6" d="M171.7,42.6v14c0,6.4,10,6.4,10,0v-14C181.7,36.1,171.7,36.1,171.7,42.6z"/>
	<path id="XMLID_666_" class="st6" d="M241.7,50.9c-3.4,3.5-6.4,7.4-8.9,11.7c-3.3,5.5,5.3,10.6,8.6,5c2.1-3.5,4.5-6.7,7.3-9.6
		C253.2,53.4,246.2,46.3,241.7,50.9z"/>
</g>
<g id="Layer_2" class="st0">
	<g id="XMLID_85_" class="st1">
		<path id="XMLID_96_" class="st2" d="M140.2,140c0,8.4,5.8,15.2,12.9,15.2s12.9-6.8,12.9-15.2c0-8.4-5.8-15.2-12.9-15.2
			C145.9,124.8,140.2,131.6,140.2,140z M157.4,140c0,4-2.3,6.7-4.4,6.7c-2.1,0-4.4-2.8-4.4-6.7c0-4,2.3-6.7,4.4-6.7
			C155.1,133.3,157.4,136.1,157.4,140z"/>
		<path id="XMLID_93_" class="st2" d="M170.3,130.2c0,8.4,5.8,15.2,12.9,15.2c7.1,0,12.9-6.8,12.9-15.2s-5.8-15.2-12.9-15.2
			C176.1,114.9,170.3,121.8,170.3,130.2z M187.5,130.2c0,4-2.3,6.7-4.4,6.7c-2.1,0-4.4-2.8-4.4-6.7c0-4,2.3-6.7,4.4-6.7
			C185.2,123.4,187.5,126.2,187.5,130.2z"/>
		<path id="XMLID_86_" class="st2" d="M272.1,68.4l-47.2-47.2c-1.9-1.9-4.5-3-7.3-3c-2.7,0-5.3,1.1-7.3,3l-5.8,5.8
			c-1.9,1.9-3,4.5-3,7.3s1.1,5.3,3,7.3l20.6,20.6l-8.8,8.8l-20.6-20.6c-1.9-1.9-4.5-3-7.3-3c-2.7,0-5.3,1.1-7.3,3L97.5,134
			c-1.9,1.9-3,4.5-3,7.3s1.1,5.3,3,7.3l9.3,9.3l-8.9,8.9c-1.9,1.9-3,4.5-3,7.3c0,2.7,1.1,5.3,3,7.3l4.1,4.1l-66.5,66.5
			c-1.7,1.7-1.7,4.4,0,6c0.8,0.8,1.9,1.2,3,1.2c1.1,0,2.2-0.4,3-1.2l66.5-66.5l4.1,4.1c1.9,1.9,4.5,3,7.3,3s5.3-1.1,7.3-3l8.9-8.9
			l9.3,9.3c1.9,1.9,4.5,3,7.3,3s5.3-1.1,7.3-3l5.7-5.7c2.8-0.2,5.8-0.9,8.7-1.6c3.1-0.7,6.3-1.5,8.5-1.5c2,0,5,0.7,7.9,1.4
			c3.7,0.9,7.6,1.8,11.1,1.8c7.3,0,11.5-4.2,11.5-11.4c0-15.7-13.7-28.4-30.6-28.4c-16.8,0-30.6,12.7-30.6,28.4c0,4,1.3,7.1,3.6,9
			l-2,2c-0.4,0.4-1,0.5-1.2,0.5c-0.3,0-0.8-0.1-1.2-0.5l-47.2-47.2c-0.7-0.7-0.7-1.8,0-2.5l18.8-18.8l5.1,5.1c0.8,0.8,1.9,1.2,3,1.2
			c1.1,0,2.2-0.4,3-1.2c1.7-1.7,1.7-4.4,0-6l-5.1-5.1l9.4-9.4l5.1,5.1c0.8,0.8,1.9,1.2,3,1.2c1.1,0,2.2-0.4,3-1.2
			c1.7-1.7,1.7-4.4,0-6l-5.1-5.1L173,70.6l49.7,49.7l-5.2,5.2c0,0-0.1,0.1-0.1,0.1c-1.3-0.5-2.7-0.8-4.2-0.8
			c-7.1,0-12.9,6.8-12.9,15.2c0,8.4,5.8,15.2,12.9,15.2c7.1,0,12.9-6.8,12.9-15.2c0-3.3-0.9-6.3-2.4-8.8l19.2-19.2
			c4-4,4-10.5,0-14.5L222.3,77l8.8-8.8l20.6,20.6c1.9,1.9,4.5,3,7.3,3c2.7,0,5.3-1.1,7.3-3l5.8-5.8
			C276.1,78.9,276.1,72.4,272.1,68.4z M182.2,158.9c12.2,0,22.1,8.9,22.1,19.9c0,2.5-0.4,2.9-3,2.9c-2.5,0-5.9-0.8-9.2-1.6
			c-3.6-0.8-6.9-1.6-9.9-1.6c-3.2,0-6.9,0.8-10.4,1.7c-3.2,0.7-6.4,1.5-8.8,1.5c-1.3,0-2-0.2-2.2-0.4c-0.2-0.2-0.5-1-0.5-2.5
			C160.2,167.8,170.1,158.9,182.2,158.9z M120.6,189.3c-0.4,0.4-1,0.5-1.2,0.5s-0.8-0.1-1.2-0.5L104,175.2c-0.4-0.4-0.5-1-0.5-1.2
			s0.1-0.8,0.5-1.2l8.9-8.9l16.6,16.6L120.6,189.3z M213.3,146.8c-2.1,0-4.4-2.8-4.4-6.7c0-4,2.3-6.7,4.4-6.7s4.4,2.8,4.4,6.7
			C217.6,144,215.3,146.8,213.3,146.8z M236.9,106.1l-8.2,8.2l-49.7-49.7l8.2-8.2c0.7-0.7,1.8-0.7,2.5,0l47.2,47.2
			C237.6,104.3,237.6,105.4,236.9,106.1z M266.1,76.9l-5.8,5.8c-0.4,0.4-1,0.5-1.2,0.5s-0.8-0.1-1.2-0.5l-47.2-47.2
			c-0.4-0.4-0.5-1-0.5-1.2c0-0.3,0.1-0.8,0.5-1.2l5.8-5.8c0.4-0.4,1-0.5,1.2-0.5s0.8,0.1,1.2,0.5l47.2,47.2
			C266.8,75.1,266.8,76.2,266.1,76.9z"/>
	</g>
	<text id="XMLID_84_" transform="matrix(1 0 0 1 274.3337 185.2279)" class="st1 st3 st4">Vacunas</text>
</g>
<g id="Layer_2_copy" class="st0">
	<text id="XMLID_196_" transform="matrix(1 0 0 1 274.3337 185.2279)" class="st1 st3 st4">Guardería</text>
	<path id="XMLID_584_" class="st6" d="M153.8,165.4c-22.2,0-40.3,16.8-40.3,37.5c0,9.8,5.8,15.7,15.5,15.7c4.5,0,9.3-1.1,14.1-2.2
		c3.9-0.9,8-1.8,10.7-1.8c2.4,0,6.3,0.9,10,1.8c4.9,1.1,9.9,2.3,14.5,2.3c9.9,0,15.8-5.9,15.8-15.7
		C194.1,182.2,176.1,165.4,153.8,165.4z M180.9,205.3c0,0-0.6,0.4-2.5,0.4c-3.2,0-7.5-1-11.6-2c-4.6-1.1-9-2.1-12.9-2.1
		c-4.3,0-9,1.1-13.7,2.2c-4,0.9-8.2,1.9-11.2,1.9c-1.7,0-2.2-0.3-2.2-0.3c0,0-0.4-0.6-0.4-2.5c0-13.6,12.3-24.6,27.4-24.6
		c15.1,0,27.4,11,27.4,24.6C181.2,204.5,181,205.2,180.9,205.3z"/>
	<path id="XMLID_581_" class="st6" d="M133.8,153.1c0-11.3-7.9-20.6-17.5-20.6c-9.7,0-17.5,9.2-17.5,20.6c0,11.3,7.9,20.6,17.5,20.6
		C125.9,173.7,133.8,164.5,133.8,153.1z M111.6,153.1c0-4.4,2.5-7.7,4.7-7.7c2.2,0,4.6,3.3,4.6,7.7c0,4.4-2.5,7.7-4.6,7.7
		C114.1,160.8,111.6,157.5,111.6,153.1z"/>
	<path id="XMLID_578_" class="st6" d="M155,161c9.7,0,17.5-9.2,17.5-20.6s-7.9-20.6-17.5-20.6c-9.7,0-17.5,9.2-17.5,20.6
		S145.3,161,155,161z M155,132.7c2.2,0,4.6,3.3,4.6,7.7s-2.5,7.7-4.6,7.7c-2.2,0-4.6-3.3-4.6-7.7S152.8,132.7,155,132.7z"/>
	<path id="XMLID_575_" class="st6" d="M193.7,132.6c-9.7,0-17.5,9.2-17.5,20.6c0,11.3,7.9,20.6,17.5,20.6c9.7,0,17.5-9.2,17.5-20.6
		S203.4,132.6,193.7,132.6z M193.7,160.8c-2.2,0-4.7-3.3-4.7-7.7s2.5-7.7,4.7-7.7c2.2,0,4.7,3.3,4.7,7.7S195.9,160.8,193.7,160.8z"
		/>
	<path id="XMLID_533_" class="st6" d="M203.8,76.2c-18.3,0-35.2,7.3-47.7,20.3c-12.4-13-29.4-20.3-47.7-20.3
		c-36.5,0-66.2,29.7-66.2,66.2c0,17,6,34.2,18,51c9.3,13.1,22.2,26,38.3,38.4c27.1,20.9,53.9,33,55,33.5c0.8,0.4,1.7,0.6,2.6,0.6
		c0.8,0,1.6-0.1,2.3-0.4c1.1-0.4,28-11,55.2-31.2c16.2-12,29.1-24.8,38.4-38.2c11.9-17.1,17.9-35.1,17.9-53.6
		C270,105.9,240.3,76.2,203.8,76.2z M156.3,252.3c-15.8-7.7-101.1-51.8-101.1-109.9c0-29.4,23.9-53.3,53.3-53.3
		c16.8,0,32.4,7.7,42.5,21.2c1.2,1.6,3.1,2.6,5.1,2.6s3.9-0.9,5.1-2.6c10.2-13.5,25.7-21.2,42.5-21.2c29.4,0,53.3,23.9,53.3,53.3
		C257.1,205.9,172.1,245.5,156.3,252.3z"/>
	<path id="XMLID_535_" class="st6" d="M72.9,52.1c-2.2-3.1-4.4-6.3-6.5-9.4c-1.5-2.2-4.4-3.2-6.8-1.8c-2.2,1.3-3.3,4.6-1.8,6.8
		c2.2,3.1,4.4,6.3,6.5,9.4c1.5,2.2,4.4,3.2,6.8,1.8C73.3,57.6,74.5,54.3,72.9,52.1z"/>
	<path id="XMLID_576_" class="st6" d="M147,33.2v15.3c0,6.4,10,6.4,10,0V33.2C157,26.8,147,26.8,147,33.2z"/>
	<path id="XMLID_577_" class="st6" d="M241.5,34.3c-1.8-1.8-5.3-2.1-7.1,0c-3.1,3.7-5.8,7.6-8,11.8c-2.9,5.7,5.7,10.8,8.6,5
		c1.8-3.5,3.9-6.8,6.5-9.8C243.3,39.3,243.5,36.3,241.5,34.3z"/>
</g>
<g id="Layer_3" class="st0">
	<g id="XMLID_100_" class="st1">
		<g id="XMLID_117_">
			<path id="XMLID_118_" class="st8" d="M117.9,130.2c-17.3,0-31.3-18.4-31.3-41s14.1-41,31.3-41c17.3,0,31.3,18.4,31.3,41
				S135.2,130.2,117.9,130.2z M117.9,54.7C104.1,54.7,93,70.2,93,89.2c0,19,11.2,34.5,24.9,34.5c13.7,0,24.9-15.5,24.9-34.5
				C142.8,70.2,131.6,54.7,117.9,54.7z"/>
		</g>
		<g id="XMLID_113_">
			<path id="XMLID_114_" class="st8" d="M199.3,248.4c-8.5,0-15.8-4.8-23.5-9.9c-4.7-3.1-9.4-6.2-14.7-8.5c-0.8-0.2-3.9-0.5-8.5-0.5
				c-4.2,0-6.4,0.3-6.7,0.4c-5.2,2.2-10.3,5.3-15.2,8.3c-8.4,5.2-15.5,9.6-23.9,9.6c-4.2,0-8.3-1.2-12-3.6
				c-8.8-5.6-13.9-15.4-14.5-27.6c-0.5-11.1,2.9-23,9.7-33.6c0.7-1.1,1.5-2.1,2.3-3c0.3-0.4,0.9-1.1,1-1.3c8-16.5,28-34.1,60-34.1
				l1.2,0c32.5,0.5,52.7,19.1,60,34.9c0.2,0.4,0.7,1.1,1.2,1.8c0.9,1.3,1.7,2.3,2.4,3.5c13.3,23.4,9.7,50.7-8.1,60.8
				C206.8,247.4,203.1,248.4,199.3,248.4z M152.6,223c4.7,0,9.2,0.4,10.7,0.9c6.1,2.7,11.1,6,16,9.2c7,4.6,13.5,8.9,20,8.9
				c2.7,0,5.3-0.7,7.7-2.1c14.7-8.4,17.3-31.7,5.7-52.1c-0.5-0.9-1.2-1.8-1.9-2.8c-0.8-1.1-1.5-2-1.9-3
				c-6.6-14.1-24.8-30.7-54.3-31.1l-1.2,0c-29,0-47.1,15.8-54.2,30.5c-0.4,0.8-1,1.6-1.9,2.6c-0.6,0.8-1.3,1.5-1.8,2.4
				c-6.1,9.4-9.2,20-8.7,29.8c0.5,10,4.6,18,11.6,22.5c2.7,1.7,5.5,2.6,8.5,2.6c6.5,0,13-4,20.5-8.6c5.2-3.2,10.5-6.4,16.4-8.9
				C145.3,223.3,148.6,223,152.6,223z"/>
		</g>
		<g id="XMLID_109_">
			<path id="XMLID_110_" class="st8" d="M188.7,130.2c-17.3,0-31.3-18.4-31.3-41s14.1-41,31.3-41c17.3,0,31.3,18.4,31.3,41
				S206,130.2,188.7,130.2z M188.7,54.7c-13.7,0-24.9,15.5-24.9,34.5c0,19,11.2,34.5,24.9,34.5c13.7,0,24.9-15.5,24.9-34.5
				C213.6,70.2,202.5,54.7,188.7,54.7z"/>
		</g>
		<g id="XMLID_105_">
			<path id="XMLID_106_" class="st8" d="M242.7,182.3c-16.3,0-29-16.4-29-37.4c0-21,12.8-37.4,29-37.4c16.3,0,29,16.4,29,37.4
				C271.7,165.8,259,182.3,242.7,182.3z M242.7,113.8c-12.7,0-22.6,13.6-22.6,31c0,17.4,9.9,31,22.6,31c12.7,0,22.6-13.6,22.6-31
				C265.3,127.5,255.4,113.8,242.7,113.8z"/>
		</g>
		<g id="XMLID_101_">
			<path id="XMLID_102_" class="st8" d="M68,182.3c-16.3,0-29-16.4-29-37.4c0-21,12.8-37.4,29-37.4c16.3,0,29,16.4,29,37.4
				C97.1,165.8,84.3,182.3,68,182.3z M68,113.8c-12.7,0-22.6,13.6-22.6,31c0,17.4,9.9,31,22.6,31c12.7,0,22.6-13.6,22.6-31
				C90.6,127.5,80.7,113.8,68,113.8z"/>
		</g>
	</g>
	<text id="XMLID_99_" transform="matrix(1 0 0 1 278.3335 153.8197)" class="st1"><tspan x="0" y="0" class="st3 st9">No hay límite</tspan><tspan x="0" y="50.4" class="st3 st9">de mascotas</tspan></text>
	<text id="XMLID_103_" transform="matrix(1 0 0 1 138.6665 205.2275)" class="st1 st10 st9">#</text>
</g>
<g id="Layer_4" class="st0">
	<text id="XMLID_31_" transform="matrix(1 0 0 1 274.3337 155.2279)" class="st1"><tspan x="0" y="0" class="st3 st4">Correa no</tspan><tspan x="0" y="58.6" class="st3 st4">obligatoria</tspan></text>
	<g id="XMLID_38_" class="st1">
		<circle id="XMLID_45_" class="st2" cx="226.3" cy="125.1" r="5.1"/>
		<path id="XMLID_48_" class="st2" d="M254.5,132.2c-2.4-1.9-5.9-4.7-6.6-5.9c-0.6-1.1-1.4-3.1-2.2-5c-1.2-3.1-2.5-6.4-4-8.6
			c-3.7-5.4-10.1-10.6-17.2-13.9c-7.3-8.9-19.4-11.9-29.9-7c-9.2,4.3-20.8,14.8-18.7,27.8c-0.5,0.5-0.9,0.9-1.4,1.4
			c-1.6,1.6-3.2,3.3-4.9,5c-9.5-0.6-50.6-5.1-84.7-35.2c-0.2-0.3-0.5-0.6-0.8-0.9C37.2,45.5,11.1-14.5-18.6-70.5
			c-3-5.7-11.6-0.6-8.6,5c28.7,54.3,54.3,112,98,156.1c0.2,0.6,0.6,1.1,1,1.6c31.4,31.6,69.7,40.5,88.4,43c-1.7,1.5-3.1,2.7-3.8,3.2
			c-44.5,26-66.5,58.1-69,100.6c-13-1.1-21.3-6.9-30.1-15.7c-5.2-5.2-13.8-5.2-19,0c-5.2,5.2-5.2,13.8,0,19
			c15.8,15.8,34,23.8,54,23.8h73.2c1.3,0,2.6-0.5,3.6-1.5c3.4-3.4,4.4-9.1,2.3-14c-2.2-5.3-7.2-8.5-13.4-8.5h-4.9
			c2.5-3.8,5.1-8.5,6.6-13.6c1.5-3.7,4.5-6.4,7.3-8.3c2.3,18.4,7,40.5,7.3,41.8c0.5,2.3,2.6,4,5,4h16.1c4.6,0,8.3-2.4,9.9-6.5
			c1.8-4.7,0.3-10.8-3.7-14.4c-1.3-1.2-3-2.3-4.5-3.1c-0.8-13.4-0.8-34,2.3-40l1-2c5.2-10.3,10.2-20,16-44.4
			c3.3,0.5,6.5,0.9,9.2,2.4l1.5,0.8c6,3.2,12.1,6.4,18.9,5.3c6.8-1.1,16.7-9.3,18.6-17.2C266,141.3,260.7,137.1,254.5,132.2z
			 M191.4,195.3l-1,2c-5.6,11.1-3.5,44.3-3.2,48.1c0.1,1.8,1.2,3.4,2.9,4.2c1.3,0.6,3.7,2,4.7,2.9c1.2,1.1,1.3,2.9,1.2,3.2
			c0,0-0.2,0.1-0.5,0.1h-12c-2.2-10.9-8-41-7.5-53.5c0.1-3.1,2.1-11.1,3.4-15.4c0.8-2.7-0.8-5.5-3.5-6.3c-2.7-0.8-5.5,0.8-6.3,3.5
			c-0.4,1.3-3.5,12.4-3.8,17.8c-0.1,2.1,0,4.5,0.2,7.2c-1.7,0.9-3.8,2.1-6,3.7c-1.6-5.6-4.9-10.7-9.4-14.2
			c-7.4-5.6-17.1-6.5-27.5-2.4c-2.6,1-3.9,4-2.9,6.6c1,2.6,4,3.9,6.6,2.9c7.1-2.8,13.2-2.4,17.7,1c5.1,3.9,6.9,10.5,6.4,15.1
			c-1.1,10.6-11.5,21.7-11.6,21.8c-1.4,1.5-1.8,3.6-1,5.5c0.8,1.9,2.6,3.1,4.6,3.1h15.3c2,0,3.4,0.8,4,2.3c0.2,0.5,0.3,1,0.3,1.5
			H92.3c-17.2,0-33-7-46.9-20.9c-1.3-1.3-1.3-3.4,0-4.7c1.3-1.3,3.4-1.3,4.7,0c11.4,11.4,22.9,18.9,42.2,18.9c2.8,0,5-2.2,5.1-5
			c0.9-41.8,20.7-71.8,64.2-97.2c1.8-1,4.3-3.2,7.7-6.4c6.2,14.6,21.7,25.3,33.2,28.6C198.6,181.3,195.2,188,191.4,195.3z
			 M244.5,154.1c-3.4,0.6-7.8-1.8-12.5-4.3l-1.6-0.8c-4.4-2.3-8.8-2.9-12.7-3.5c-6.2-0.9-9.6-1.5-12.5-6.2c-1.5-2.4-4.6-3.1-7-1.6
			c-2.4,1.5-3.1,4.6-1.6,7c2.9,4.6,6.4,7.1,10,8.5c-0.5,2.2-1,4.3-1.5,6.2c-9.1-2.6-24.8-13.4-28-26.7c1.1-1.2,2.3-2.4,3.6-3.6
			c2.2,2.2,5.2,4,8.5,5.1c2.2,0.7,4.3,1,6.4,1c3.5,0,6.9-1,9.7-2.8c5.5-3.7,10.8-12.6,11.3-13.6c1.4-2.4,0.6-5.5-1.8-6.9
			c-2.4-1.4-5.5-0.6-6.9,1.8c-1.5,2.5-5.4,8.4-8.2,10.3c-1.8,1.2-4.6,1.4-7.4,0.6c-2.8-0.9-5-2.6-5.7-4.5c-3.6-9.3,8-17.1,12.4-19.1
			c5.6-2.6,12-1.4,16.4,2.8c0.2,0.2,0.4,0.4,0.6,0.7c2,2.4,3.7,3.2,3.8,3.3c5.6,2.5,10.8,6.5,13.6,10.7c0.9,1.3,2,4.2,3,6.6
			c0.9,2.3,1.8,4.5,2.7,6.2c1.7,3.1,5.3,5.9,9.2,9c2,1.5,5,4,6.3,5.4C252.9,149.3,247.2,153.6,244.5,154.1z"/>
	</g>
</g>
<g id="Layer_4_copy" class="st0">
	<text id="XMLID_586_" transform="matrix(1 0 0 1 274.3337 155.2279)" class="st1"><tspan x="0" y="0" class="st3 st4">Consultas</tspan><tspan x="0" y="58.6" class="st3 st4">psicológicas</tspan></text>
	<g id="XMLID_534_" class="st1">
		<circle id="XMLID_585_" class="st2" cx="226.3" cy="125.1" r="5.1"/>
		<path id="XMLID_579_" class="st2" d="M254.5,132.2c-2.4-1.9-5.9-4.7-6.6-5.9c-0.6-1.1-1.4-3.1-2.2-5c-1.2-3.1-2.5-6.4-4-8.6
			c-3.7-5.4-10.1-10.6-17.2-13.9c-7.3-8.9-19.4-11.9-29.9-7c-9.2,4.3-20.8,14.8-18.7,27.8c-0.5,0.5-0.9,0.9-1.4,1.4
			c-1.6,1.6-3.2,3.3-4.9,5c-9.5-0.6-50.6-5.1-84.7-35.2c-0.2-0.3-0.5-0.6-0.8-0.9C37.2,45.5,11.1-14.5-18.6-70.5
			c-3-5.7-11.6-0.6-8.6,5c28.7,54.3,54.3,112,98,156.1c0.2,0.6,0.6,1.1,1,1.6c31.4,31.6,69.7,40.5,88.4,43c-1.7,1.5-3.1,2.7-3.8,3.2
			c-44.5,26-66.5,58.1-69,100.6c-13-1.1-21.3-6.9-30.1-15.7c-5.2-5.2-13.8-5.2-19,0c-5.2,5.2-5.2,13.8,0,19
			c15.8,15.8,34,23.8,54,23.8h73.2c1.3,0,2.6-0.5,3.6-1.5c3.4-3.4,4.4-9.1,2.3-14c-2.2-5.3-7.2-8.5-13.4-8.5h-4.9
			c2.5-3.8,5.1-8.5,6.6-13.6c1.5-3.7,4.5-6.4,7.3-8.3c2.3,18.4,7,40.5,7.3,41.8c0.5,2.3,2.6,4,5,4h16.1c4.6,0,8.3-2.4,9.9-6.5
			c1.8-4.7,0.3-10.8-3.7-14.4c-1.3-1.2-3-2.3-4.5-3.1c-0.8-13.4-0.8-34,2.3-40l1-2c5.2-10.3,10.2-20,16-44.4
			c3.3,0.5,6.5,0.9,9.2,2.4l1.5,0.8c6,3.2,12.1,6.4,18.9,5.3c6.8-1.1,16.7-9.3,18.6-17.2C266,141.3,260.7,137.1,254.5,132.2z
			 M191.4,195.3l-1,2c-5.6,11.1-3.5,44.3-3.2,48.1c0.1,1.8,1.2,3.4,2.9,4.2c1.3,0.6,3.7,2,4.7,2.9c1.2,1.1,1.3,2.9,1.2,3.2
			c0,0-0.2,0.1-0.5,0.1h-12c-2.2-10.9-8-41-7.5-53.5c0.1-3.1,2.1-11.1,3.4-15.4c0.8-2.7-0.8-5.5-3.5-6.3c-2.7-0.8-5.5,0.8-6.3,3.5
			c-0.4,1.3-3.5,12.4-3.8,17.8c-0.1,2.1,0,4.5,0.2,7.2c-1.7,0.9-3.8,2.1-6,3.7c-1.6-5.6-4.9-10.7-9.4-14.2
			c-7.4-5.6-17.1-6.5-27.5-2.4c-2.6,1-3.9,4-2.9,6.6c1,2.6,4,3.9,6.6,2.9c7.1-2.8,13.2-2.4,17.7,1c5.1,3.9,6.9,10.5,6.4,15.1
			c-1.1,10.6-11.5,21.7-11.6,21.8c-1.4,1.5-1.8,3.6-1,5.5c0.8,1.9,2.6,3.1,4.6,3.1h15.3c2,0,3.4,0.8,4,2.3c0.2,0.5,0.3,1,0.3,1.5
			H92.3c-17.2,0-33-7-46.9-20.9c-1.3-1.3-1.3-3.4,0-4.7c1.3-1.3,3.4-1.3,4.7,0c11.4,11.4,22.9,18.9,42.2,18.9c2.8,0,5-2.2,5.1-5
			c0.9-41.8,20.7-71.8,64.2-97.2c1.8-1,4.3-3.2,7.7-6.4c6.2,14.6,21.7,25.3,33.2,28.6C198.6,181.3,195.2,188,191.4,195.3z
			 M244.5,154.1c-3.4,0.6-7.8-1.8-12.5-4.3l-1.6-0.8c-4.4-2.3-8.8-2.9-12.7-3.5c-6.2-0.9-9.6-1.5-12.5-6.2c-1.5-2.4-4.6-3.1-7-1.6
			c-2.4,1.5-3.1,4.6-1.6,7c2.9,4.6,6.4,7.1,10,8.5c-0.5,2.2-1,4.3-1.5,6.2c-9.1-2.6-24.8-13.4-28-26.7c1.1-1.2,2.3-2.4,3.6-3.6
			c2.2,2.2,5.2,4,8.5,5.1c2.2,0.7,4.3,1,6.4,1c3.5,0,6.9-1,9.7-2.8c5.5-3.7,10.8-12.6,11.3-13.6c1.4-2.4,0.6-5.5-1.8-6.9
			c-2.4-1.4-5.5-0.6-6.9,1.8c-1.5,2.5-5.4,8.4-8.2,10.3c-1.8,1.2-4.6,1.4-7.4,0.6c-2.8-0.9-5-2.6-5.7-4.5c-3.6-9.3,8-17.1,12.4-19.1
			c5.6-2.6,12-1.4,16.4,2.8c0.2,0.2,0.4,0.4,0.6,0.7c2,2.4,3.7,3.2,3.8,3.3c5.6,2.5,10.8,6.5,13.6,10.7c0.9,1.3,2,4.2,3,6.6
			c0.9,2.3,1.8,4.5,2.7,6.2c1.7,3.1,5.3,5.9,9.2,9c2,1.5,5,4,6.3,5.4C252.9,149.3,247.2,153.6,244.5,154.1z"/>
	</g>
</g>
<g id="Layer_4_copy_2" class="st0">
	<text id="XMLID_607_" transform="matrix(1 0 0 1 274.3337 155.2279)" class="st1"><tspan x="0" y="0" class="st3 st4">Consultas</tspan><tspan x="0" y="58.6" class="st3 st4">psicológicas</tspan></text>
	<g id="XMLID_331_" class="st1">
		<path id="XMLID_332_" class="st2" d="M264.7,163.9c0-6.7-2.4-12.9-6.8-17.9c1.8-36.3,2.7-60.5-8.7-82.9
			c-7.8-15.2-20.5-27.9-37.6-37.8c-20-11.5-42.8-17.1-65.9-16.3c-10.4,0.4-20.7,3.1-30,8c-8.5,4.4-16.2,10.7-22.3,18.2
			c-16.8,1-32.2,10.1-40.4,24.2c-0.7,1.2-1.4,2.5-2,3.7c-11.5,22.4-10.5,46.6-8.8,82.9c-4.2,4.8-6.8,11-6.8,17.8
			c0,14.1,10.9,25.7,24.7,26.8c5.8,18.5,21,39.5,45.5,62.7C118,265.1,134,271,150,271c16,0,32-5.9,44.4-17.6
			c24.5-23.1,39.8-44.1,45.5-62.7C253.8,189.6,264.7,178,264.7,163.9z M120.1,25.6c8-4.2,16.9-6.6,25.9-6.9
			c21.3-0.8,42.3,4.4,60.8,15c15.5,8.9,26.9,20.3,33.8,33.8c9.7,18.8,9.5,39.3,7.8,75.7l-10.8,0.6c-7.1,0.2-14.2,0.1-21-0.3
			c-5.3-4.6-12.2-7.4-19.7-7.4c-4.4,0-8.5,0.9-12.3,2.6c-39.6-9.4-62.9-29.3-72-38.4l-11.6-59.1C106.2,34.8,112.8,29.4,120.1,25.6z
			 M150,152.1c-6.5,0-12.7,2.1-17.8,5.8c-3.7-12.5-15.3-21.7-29-21.7c-13.2,0-24.4,8.5-28.5,20.2l-7.7-7.7v-8.4
			c19.7-3.2,33.7-12.9,42.4-29.5c10.9,10,32.1,25.9,64.8,35.2c-3,3.3-5.3,7.3-6.6,11.8C162.7,154.2,156.5,152.1,150,152.1z
			 M225.2,156.4c-0.3-1-0.7-1.9-1.2-2.8c1.3,0,2.6,0.1,3.9,0.1L225.2,156.4z M59.5,67.6c0.6-1.1,1.2-2.2,1.8-3.3
			C67.5,53.5,79,46.4,91.8,45l11.3,57.1c-7.7,17.7-20.8,26.9-41.3,29.2c-2.5,0.3-4.3,2.3-4.3,4.8v1.3c-2.1,0.4-4.1,1-6,1.8
			C49.9,105.3,50.2,85.7,59.5,67.6z M45,163.9c0-7.8,5.3-14.5,12.4-16.6v27.3c0,1.9,0.1,3.9,0.4,5.9C50.4,178.6,45,171.8,45,163.9z
			 M187.8,246.3c-21.2,20-54.4,20-75.5,0c-29.5-27.8-45.1-52.6-45.1-71.7v-12.2l6,6c1.1,15.7,14.2,28.1,30.1,28.1
			c15.2,0,27.8-11.3,29.9-25.9c3.8-5.6,10.1-8.9,16.9-8.9s13,3.3,16.9,8.9c2.1,14.6,14.7,25.9,29.9,25.9c15.9,0,29-12.4,30.1-28.1
			l6-6v12.2C232.9,193.7,217.3,218.5,187.8,246.3z M242.2,180.5c0.2-2,0.4-4,0.4-5.9v-21.3l8.4-0.5c2.6,3.1,4,7,4,11.1
			C255,171.8,249.6,178.6,242.2,180.5z M124.3,165.9c0,11.8-9.5,21.3-21.3,21.3s-21.3-9.5-21.3-21.3c0-11.8,9.5-21.3,21.3-21.3
			S124.3,154.1,124.3,165.9z M216.8,166.5c0,11.8-9.5,21.3-21.3,21.3c-11.8,0-21.3-9.5-21.3-21.3c0-11.8,9.5-21.3,21.3-21.3
			C207.3,145.2,216.8,154.7,216.8,166.5z"/>
	</g>
</g>
<g id="Layer_6" class="st0">
	<path id="XMLID_44_" class="st6" d="M266,147.7c0-28.8-23.4-52.2-52.2-52.2c-10.2,0-20.2,3-28.6,8.6c-2.2-9.6-5.1-18.9-8.6-27.2
		c-9.5-22.3-21.9-34.6-34.9-34.6c-13.1,0-25.5,12.2-34.9,34.4c-3.3,7.8-6.1,16.5-8.3,25.6l-13.1-48c-0.5-1.7-2.1-3-3.9-3
		s-3.4,1.2-3.9,3L41.5,186.7c-0.3,1.2-0.1,2.5,0.7,3.5c0.8,1,1.9,1.6,3.2,1.6h32.1v32.1c0,2.2,1.8,4,4,4s4-1.8,4-4v-32.1h32.1
		c1.3,0,2.4-0.6,3.2-1.6c0.6-0.8,0.9-1.8,0.8-2.8c5,2.3,10.4,3.7,16.1,4.2v32.3c0,2.2,1.8,4,4,4c2.2,0,4-1.8,4-4v-32.3
		c10.4-0.9,19.9-5,27.4-11.5c9,11.3,22.4,18.4,36.8,19.5v24.2c0,2.2,1.8,4,4,4s4-1.8,4-4v-24.2C244.8,197.6,266,175.1,266,147.7z
		 M112.3,183.8H85.5v-6.4l7.1-7.1c1.6-1.6,1.6-4.1,0-5.7c-1.6-1.6-4.1-1.6-5.7,0l-1.4,1.4v-26.4c0-2.2-1.8-4-4-4s-4,1.8-4,4v18.4
		l-5.2-5.2c-1.6-1.6-4.1-1.6-5.7,0c-1.6,1.6-1.6,4.1,0,5.7l10.9,10.9v6.4c0,0,0,0,0,0v8H50.6L81.5,70.7L95,120.5
		c-1.1,7.8-1.6,15.6-1.6,23.1c0,15.3,7.1,28.9,18.2,37.7L112.3,183.8z M145.6,177.4l14.9-14.9c1.6-1.6,1.6-4.1,0-5.7
		c-1.6-1.6-4.1-1.6-5.7,0l-9.2,9.2v-16.7l10.9-10.9c1.6-1.6,1.6-4.1,0-5.7c-1.6-1.6-4.1-1.6-5.7,0l-5.2,5.2v-10.4c0-2.2-1.8-4-4-4
		c-2.2,0-4,1.8-4,4v20.1c0,0,0,0,0,0v10.4l-9.2-9.2c-1.6-1.6-4.1-1.6-5.7,0c-1.6,1.6-1.6,4.1,0,5.7l14.9,14.9v6.4c0,0,0,0,0,0v7.8
		c-20.3-2-36.2-19.2-36.2-40c0-21.3,4.7-45.1,12.6-63.7c8-18.8,18-29.5,27.6-29.5c9.5,0,19.5,10.8,27.6,29.7
		c7.9,18.6,12.6,42.3,12.6,63.5c0,20.8-15.9,38-36.2,40V177.4z M217.9,191.6v-6.2l14.9-14.9c1.6-1.6,1.6-4.1,0-5.7
		c-1.6-1.6-4.1-1.6-5.7,0l-9.2,9.2v-26.4c0-2.2-1.8-4-4-4s-4,1.8-4,4v18.4l-9.2-9.2c-1.6-1.6-4.1-1.6-5.7,0c-1.6,1.6-1.6,4.1,0,5.7
		l14.9,14.9v6.4c0,0,0,0,0,0v7.8c-12.3-1.1-23.6-7.4-31.1-17.3c6.9-8.4,11.1-19.1,11.1-30.8c0-10-1-20.6-2.9-30.9
		c7.7-5.9,17.2-9.1,26.9-9.1c24.3,0,44.1,19.8,44.1,44.1C258,170.7,240.3,189.6,217.9,191.6z"/>
	<g id="XMLID_50_" class="st1">
		<g id="XMLID_112_">
			<path id="XMLID_120_" class="st2" d="M264.8,239.1c-15.5-5.7-31.9-9.6-48.1-12.7c-35.7-7-72.7-9.7-108.9-5.3
				c-23.9,2.9-47,8.9-69,18.6c-5.9,2.6-0.8,11.2,5,8.6c63.1-27.9,137.8-23.1,202.8-4.4c5.2,1.5,10.4,3,15.5,4.9
				C268.2,250.9,270.8,241.3,264.8,239.1L264.8,239.1z"/>
		</g>
	</g>
	<text id="XMLID_43_" transform="matrix(1 0 0 1 276.3337 112.2279)" class="st1"><tspan x="0" y="0" class="st3 st11">Areas</tspan><tspan x="0" y="54" class="st3 st11">comunes no</tspan><tspan x="0" y="108" class="st3 st11">pet-friendly</tspan></text>
</g>
<g id="Layer_7" class="st0">
	<g id="XMLID_53_" class="st1">
		<path id="XMLID_107_" class="st2" d="M258.5,135.5l-92.1-91.9c-8.5-8.5-22.3-8.5-30.9,0l-92.1,91.9c-4.1,4.1-6.4,9.7-6.4,15.4
			s2.3,11.3,6.4,15.4c1.4,1.4,3.5,1.4,4.8,0l20.7-20.7v93c0,1.8,1.6,3.5,3.5,3.5H229c1.8,0,3.5-1.6,3.5-3.5v-93l20.7,20.7
			c0.7,0.7,1.6,0.9,2.5,0.9c0.9,0,1.8-0.2,2.5-0.9c4.1-4.1,6.4-9.7,6.4-15.4C264.7,145.2,262.4,139.7,258.5,135.5z M184.3,195.7
			h-6.9c-2.8,0-4.8-2.3-4.8-4.8c0-0.2,0-0.5,0-0.7c-0.2-2.5-1.2-4.8-2.5-6.7c0-0.2-0.2-0.5-0.2-0.5l-20.5-28.1
			c-0.9-1.2-2.5-1.6-3.9-1.2c-1.4,0.5-2.3,1.8-2.3,3.2v6.2l-7.1-7.8c-0.9-0.9-2.5-1.4-3.7-0.9c-1.4,0.5-2.1,1.8-2.3,3.2l-0.2,27.4
			c-4.4,6.4-7.6,15.9-5.8,28.6c-1.6,0.7-3.7,1.6-6.2,2.8v-38.2c0-18.4,15-33.4,33.4-33.4s33.4,15,33.4,33.4v17.5H184.3z
			 M142.6,172.9c-1.6,0.9-3.9,2.3-6.2,4.4v-11.1L142.6,172.9z M117.5,224c6.4-3.5,11.1-4.8,11.1-4.8c1.6-0.5,2.8-2.3,2.3-3.9
			c-5.5-27.4,15.7-36.6,16.6-36.9c1.4-0.5,2.1-1.8,2.1-3.2v-7.8l8.5,11.7h-3.5c-1.8,0-3.5,1.6-3.5,3.5c0,1.8,1.6,3.5,3.5,3.5h6
			c2.3,0,4.4,1.6,4.8,3.9h-4.6c-1.8,0-3.5,1.6-3.5,3.5c0,1.8,1.6,3.5,3.5,3.5h6.2c2.1,3.5,5.8,6,10.1,6h16.6v6.7
			c0,3.9-0.9,13.4-9.9,13.4H164c-1.8,0-3.5,1.6-3.5,3.5c0,1.8,1.6,3.5,3.5,3.5h9.2c0,1.4-0.2,3.2-0.7,6h-55V224z M184.1,229.3
			C184.3,229.3,184.3,229.3,184.1,229.3l0.2,6h-4.4c0.5-2.5,0.5-4.4,0.5-6H184.1z M255.7,158.8l-44.5-44.2c-1.4-1.4-3.5-1.4-4.8,0
			s-1.4,3.5,0,4.8l19.3,19.3v96.5h-34.5v-7.4c6.2-2.8,9.7-9.7,9.7-18.7v-10.1c0-1.8-1.6-3.5-3.5-3.5H191v-17.5
			c0-22.1-18.2-40.3-40.3-40.3s-40.1,18-40.1,40.3v57.1H76v-96.5L136.8,78c1.4-1.4,1.4-3.5,0-4.8c-1.4-1.4-3.5-1.4-4.8,0l-85.9,85.7
			c-1.4-2.3-2.3-5.1-2.3-7.8c0-3.9,1.6-7.8,4.4-10.6l91.9-91.9c2.8-2.8,6.7-4.4,10.6-4.4c3.9,0,7.8,1.6,10.6,4.4l91.9,91.9
			c2.8,2.8,4.4,6.7,4.4,10.6C257.8,154,257.1,156.5,255.7,158.8z"/>
		<path id="XMLID_54_" class="st2" d="M168.9,98.7c-4.6,0-8.8,3-10.1,7.4h-7.8h-7.8c-1.4-4.1-5.5-7.4-10.1-7.4
			c-6,0-10.8,4.8-10.8,10.8c0,2.8,1.2,5.3,3,7.4c-1.8,1.8-3,4.4-3,7.4c0,6,4.8,10.8,10.8,10.8c4.6,0,8.8-3,10.1-7.4h7.8h7.8
			c1.4,4.1,5.5,7.4,10.1,7.4c6,0,10.8-4.8,10.8-10.8c0-2.8-1.2-5.3-3-7.4c1.8-1.8,3-4.4,3-7.4C179.7,103.5,174.8,98.7,168.9,98.7z
			 M168.9,127.7c-2.1,0-3.9-1.8-3.9-3.9c0-1.8-1.6-3.5-3.5-3.5h-10.6h-10.8c-1.8,0-3.5,1.6-3.5,3.5c0,2.1-1.8,3.9-3.9,3.9
			s-3.9-1.8-3.9-3.9s1.8-3.9,3.9-3.9c1.8,0,3.5-1.6,3.5-3.5c0-1.8-1.6-3.5-3.5-3.5c-2.1,0-3.9-1.8-3.9-3.9s1.8-3.9,3.9-3.9
			s3.9,1.8,3.9,3.9c0,1.8,1.6,3.5,3.5,3.5h10.8h10.8c1.8,0,3.5-1.6,3.5-3.5c0-2.1,1.8-3.9,3.9-3.9c2.1,0,3.9,1.8,3.9,3.9
			s-1.8,3.9-3.9,3.9c-1.8,0-3.5,1.6-3.5,3.5c0,1.8,1.6,3.5,3.5,3.5c2.1,0,3.9,1.8,3.9,3.9C172.8,126.1,171.2,127.7,168.9,127.7z"/>
	</g>
	<text id="XMLID_52_" transform="matrix(1 0 0 1 279.3337 119.2279)" class="st1"><tspan x="0" y="0" class="st3 st11">Sin</tspan><tspan x="0" y="54" class="st3 st11">espacios</tspan><tspan x="0" y="108" class="st3 st11">designados</tspan></text>
</g>
<g id="Layer_8" class="st0">
	<g id="XMLID_133_" class="st1">
		<path id="XMLID_137_" class="st2" d="M273,222.4l-17.2-75.1c0-0.2-0.1-0.3-0.1-0.5c-1.3-4.7-7.6-8.3-19.9-11.4
			c-2.3-12.3-13.1-21.5-26-21.5c-0.8,0-1.7,0-2.5,0.1c-4.5-8.7-13.6-14.3-23.6-14.3c-3,0-6.1,0.5-8.9,1.5
			c-4.3-6.6-11.6-10.7-19.7-10.7c-8.1,0-15.4,4.1-19.7,10.7c-2.8-1-5.9-1.5-8.9-1.5c-10,0-19.1,5.6-23.6,14.3
			c-0.8-0.1-1.7-0.1-2.5-0.1c-12.9,0-23.7,9.3-26,21.5c-12.5,3.1-18.8,6.8-19.9,11.7c0,0.1,0,0.1-0.1,0.2l-17.2,75
			c-0.1,0.3-0.1,0.6-0.1,0.9c0,7.9,12.3,14.9,36.4,20.8c23.4,5.8,52.3,8.9,81.4,8.9c29.2,0,58.1-3.2,81.4-8.9
			c24.2-6,36.4-13,36.4-20.8C273.1,223,273.1,222.7,273,222.4z M236.1,144c7.8,2.1,10.5,4,11.4,4.8c-1,0.9-4.5,3.3-15.2,5.7
			C234.3,151.4,235.6,147.8,236.1,144z M100.6,122.1c1.3,0,2.7,0.2,4.1,0.5c2,0.5,4.1-0.7,4.8-2.6c2.6-7.2,9.5-12.1,17.2-12.1
			c3.1,0,6.1,0.8,8.8,2.2c1,0.6,2.2,0.7,3.3,0.3c1.1-0.4,2-1.2,2.4-2.3c2.4-5.7,7.9-9.4,14-9.4c6.2,0,11.7,3.7,14,9.4
			c0.4,1.1,1.3,1.9,2.4,2.3c1.1,0.4,2.3,0.3,3.3-0.3c2.7-1.5,5.7-2.2,8.8-2.2c7.7,0,14.6,4.9,17.2,12.1c0.7,1.9,2.7,3.1,4.8,2.6
			c1.3-0.3,2.7-0.5,4.1-0.5c10.1,0,18,8.2,18.3,18.3c0.2,7-4.8,13.1-9.7,16.6c-17.5,2.6-39.8,4.1-63.3,4.1
			c-22.8,0-44.7-1.4-61.9-3.9c-6.5-3-11-9.7-11-16.8C82.3,130.4,90.5,122.1,100.6,122.1z M74.4,144c0.5,3.8,1.8,7.4,3.8,10.5
			C67.4,152,64,149.7,63,148.8C63.8,148,66.6,146.1,74.4,144z M232.9,236.6c-22.4,5.3-50,8.3-77.7,8.3s-55.2-2.9-77.7-8.3
			c-22.1-5.2-30.9-11-32-13.2l15.1-66.2c1.6,0.9,3,1.5,3.9,1.8c5.1,2.1,12.4,3.9,21.6,5.5c18.5,3.1,43,4.9,69,4.9s50.6-1.7,69-4.9
			c9.2-1.6,16.4-3.4,21.6-5.5c0.9-0.3,2.3-0.9,3.9-1.8l15.1,66.2C263.8,225.6,255,231.3,232.9,236.6z"/>
		<path id="XMLID_134_" class="st2" d="M205.1,172.6c-9.5,0-17.4,7-18.9,16.1h-61.8c-1.5-9.1-9.4-16.1-18.9-16.1
			c-10.6,0-19.2,8.6-19.2,19.2c0,4.2,1.4,8.3,3.9,11.6c-2.5,3.3-3.9,7.3-3.9,11.6c0,10.6,8.6,19.2,19.2,19.2c9.5,0,17.4-7,18.9-16.1
			h61.8c1.5,9.1,9.4,16.1,18.9,16.1c10.6,0,19.2-8.6,19.2-19.2c0-4.2-1.4-8.3-3.9-11.6c2.5-3.3,3.9-7.3,3.9-11.6
			C224.3,181.2,215.7,172.6,205.1,172.6z M212.1,206.5c2.5,2.1,3.9,5.2,3.9,8.4c0,6.1-4.9,11-11,11c-6.1,0-11-4.9-11-11
			c0-0.2,0-0.5,0-0.7c0.1-1.1-0.3-2.2-1.1-3.1c-0.8-0.8-1.9-1.3-3-1.3h-69.5c-1.1,0-2.2,0.5-3,1.3c-0.8,0.8-1.2,1.9-1.1,3.1
			c0,0.2,0,0.5,0,0.7c0,6.1-4.9,11-11,11c-6.1,0-11-4.9-11-11c0-3.3,1.4-6.3,3.9-8.4c0.9-0.8,1.5-1.9,1.5-3.1c0-1.2-0.5-2.4-1.5-3.1
			c-2.5-2.1-3.9-5.2-3.9-8.4c0-6.1,4.9-11,11-11c6.1,0,11,4.9,11,11c0,0.2,0,0.5,0,0.7c-0.1,1.1,0.3,2.2,1.1,3.1
			c0.8,0.8,1.9,1.3,3,1.3H190c1.1,0,2.2-0.5,3-1.3c0.8-0.8,1.2-1.9,1.1-3.1c0-0.2,0-0.5,0-0.7c0-6.1,4.9-11,11-11
			c6.1,0,11,4.9,11,11c0,3.3-1.4,6.3-3.9,8.4c-0.9,0.8-1.5,1.9-1.5,3.1C210.7,204.6,211.2,205.8,212.1,206.5z"/>
	</g>
	<path id="XMLID_136_" class="st6" d="M92.3,72.9C88.2,69.5,84.1,66,80,62.6c-2.1-1.7-5-2-7.1,0c-1.8,1.8-2.1,5.3,0,7.1
		c4.1,3.4,8.2,6.8,12.4,10.2c2.1,1.7,5,2,7.1,0C94.1,78.2,94.4,74.6,92.3,72.9z"/>
	<path id="XMLID_138_" class="st6" d="M143,48.6v10.7c0,6.4,10,6.4,10,0V48.6C153,42.1,143,42.1,143,48.6z"/>
	<path id="XMLID_139_" class="st6" d="M217.8,58.8c-2,3.8-4,7.6-6,11.3c-3,5.7,5.6,10.7,8.6,5c2-3.8,4-7.6,6-11.3
		C229.5,58.2,220.9,53.1,217.8,58.8z"/>
	<text id="XMLID_132_" transform="matrix(1 0 0 1 277.3337 115.2279)" class="st1"><tspan x="0" y="0" class="st3 st11">No ofrece</tspan><tspan x="0" y="54" class="st3 st11">alimentos</tspan><tspan x="0" y="108" class="st3 st11">de mascota</tspan></text>
</g>
<g id="Layer_9" class="st0">
	<g id="XMLID_140_" class="st1">
		<path id="XMLID_142_" class="st2" d="M239.3,68c-10.2,0-19.1,5.4-24,13.5h-10.6c-6.3,0-11.6,3.9-13.8,9.4c-22.4,2.1-40,21-40,44
			v86.3c0,18.1-14.7,32.9-32.9,32.9c-18.1,0-32.9-14.7-32.9-32.9v-19.7c8.8-2,13.9-8.6,16.4-20.9l2.3-11.7c12-8,19.9-21.7,19.9-37.1
			V58.2c0-7.9-2.1-15.7-5.9-22.6c1.7-2.5,2.7-5.5,2.7-8.7c0-8.6-7-15.6-15.6-15.6s-15.6,7-15.6,15.6s7,15.6,15.6,15.6
			c1.2,0,2.4-0.2,3.6-0.4c2.6,5,3.9,10.6,3.9,16.2v42.4c0,18.4-15,33.4-33.4,33.4c-18.3,0-33.2-14.8-33.3-33V58.2
			c0-5.8,1.5-11.4,4.3-16.3c1.3,0.4,2.8,0.6,4.2,0.6c8.6,0,15.6-7,15.6-15.6s-7-15.6-15.6-15.6c-8.6,0-15.6,7-15.6,15.6
			c0,3,0.8,5.7,2.3,8.1c-4.3,7-6.5,15-6.5,23.2v42.2c0,0.1,0,0.1,0,0.2c0,0.1,0,0.2,0,0.3v30.8c0,15.5,7.9,29.1,19.9,37.1l2.3,11.6
			c2.1,12.7,7.7,19.5,17.3,21.2v19.6c0,24.4,19.8,44.2,44.2,44.2c24.4,0,44.2-19.8,44.2-44.2v-86.3c0-16.8,12.6-30.6,28.9-32.6
			c2.3,5.2,7.5,8.9,13.6,8.9h10.6c5,8.1,13.9,13.5,24,13.5c15.6,0,28.3-12.7,28.3-28.3C267.6,80.7,254.9,68,239.3,68z M100.6,26.8
			c0-2.4,1.9-4.3,4.3-4.3c2.4,0,4.3,1.9,4.3,4.3c0,2.4-1.9,4.3-4.3,4.3C102.5,31.1,100.6,29.2,100.6,26.8z M54.2,22.6
			c2.4,0,4.3,1.9,4.3,4.3c0,2.4-1.9,4.3-4.3,4.3s-4.3-1.9-4.3-4.3S51.8,22.6,54.2,22.6z M45.7,131.7v-1.4c8.2,9.2,20.1,15,33.3,15
			c13.3,0,25.2-5.8,33.4-15.1v1.5c0,18.4-15,33.4-33.3,33.4C60.6,165,45.7,150.1,45.7,131.7z M67.6,178.3l-0.7-3.7
			c3.9,1.1,7.9,1.7,12.1,1.7c4.2,0,8.3-0.6,12.1-1.7l-0.7,3.7c-2.3,11.5-6,12.4-11.4,12.4C73.6,190.7,69.6,189.8,67.6,178.3z
			 M204.7,99.8c-1.9,0-3.5-1.6-3.5-3.5c0-1.9,1.6-3.5,3.5-3.5h6.6c-0.1,1.2-0.2,2.3-0.2,3.5c0,1.2,0.1,2.3,0.2,3.5H204.7z
			 M239.3,113.3c-9.3,0-17-7.6-17-17s7.6-17,17-17c9.4,0,17,7.6,17,17S248.7,113.3,239.3,113.3z"/>
		<circle id="XMLID_141_" class="st2" cx="239.3" cy="96.3" r="8.4"/>
	</g>
	<text id="XMLID_135_" transform="matrix(1 0 0 1 274.3337 153.2279)" class="st1"><tspan x="0" y="0" class="st3 st11">Análisis</tspan><tspan x="0" y="54" class="st3 st11">Clínicos</tspan></text>
</g>
<g id="Layer_10" class="st0">
	<text id="XMLID_150_" transform="matrix(1 0 0 1 274.3337 183.2279)" class="st1 st3 st11">Laboratorio</text>
	<g id="XMLID_151_" transform="translate(0,-1020.3622)" class="st1">
		<path id="XMLID_172_" class="st2" d="M184,1085.2c-12.7,0-23.2,10.4-23.2,23.2c0,12.7,10.4,23.2,23.2,23.2s23.2-10.4,23.2-23.2
			C207.1,1095.6,196.7,1085.2,184,1085.2z M184,1094.5c7.7,0,13.9,6.2,13.9,13.9s-6.2,13.9-13.9,13.9s-13.9-6.2-13.9-13.9
			S176.3,1094.5,184,1094.5z"/>
		<path id="XMLID_171_" class="st2" d="M188.6,1108.4c0,2.6-2.1,4.6-4.6,4.6s-4.6-2.1-4.6-4.6c0-2.6,2.1-4.6,4.6-4.6
			S188.6,1105.8,188.6,1108.4z"/>
		<path id="XMLID_170_" class="st2" d="M203.4,1104c-2.6,0.1-4.5,2.3-4.4,4.8c0.1,1.4,0.8,2.7,1.9,3.5
			c24.9,18.5,36.6,49.8,29.9,80.1c-6.6,30.3-30.4,53.8-60.7,60.2c-2.5,0.5-4.2,2.9-3.7,5.4c0.5,2.5,2.9,4.2,5.4,3.7
			c0.1,0,0.2,0,0.2,0c33.9-7.1,60.4-33.5,67.8-67.3c7.4-33.8-5.7-68.8-33.4-89.5C205.5,1104.3,204.5,1103.9,203.4,1104z"/>
		<path id="XMLID_169_" class="st2" d="M158.5,1249.7c0,2.6-2.1,4.6-4.6,4.6s-4.6-2.1-4.6-4.6c0-2.6,2.1-4.6,4.6-4.6
			S158.5,1247.1,158.5,1249.7z"/>
		<path id="XMLID_168_" class="st2" d="M193.8,1119.9c-2.6,0-4.6,2.2-4.6,4.7c0,1.4,0.7,2.7,1.8,3.6c17.8,14,26.3,36.9,21.8,59.1
			c-4.4,22.3-21,40.1-42.8,46.2c-2.5,0.7-3.9,3.3-3.2,5.7c0.7,2.5,3.3,3.9,5.7,3.2l0,0c25.2-7,44.3-27.7,49.4-53.3
			c5.1-25.7-4.6-52-25.2-68.2C196,1120.2,194.9,1119.9,193.8,1119.9L193.8,1119.9z"/>
		<path id="XMLID_165_" class="st2" d="M153.9,1226.5c-12.7,0-23.2,10.4-23.2,23.2s10.4,23.2,23.2,23.2s23.2-10.4,23.2-23.2
			S166.6,1226.5,153.9,1226.5z M153.9,1235.8c7.7,0,13.9,6.2,13.9,13.9s-6.2,13.9-13.9,13.9s-13.9-6.2-13.9-13.9
			S146.1,1235.8,153.9,1235.8z"/>
		<path id="XMLID_164_" class="st2" d="M83.3,1215.1c-2.6-0.1-4.7,2-4.7,4.5c0,0.9,0.2,1.8,0.7,2.6c12.6,20.1,32.7,34.3,55.9,39.3
			c2.5,0.5,5-1,5.5-3.5c0.5-2.5-1-5-3.5-5.5c-20.7-4.5-38.7-17.2-50-35.2C86.3,1216,84.9,1215.1,83.3,1215.1L83.3,1215.1z"/>
		<path id="XMLID_163_" class="st2" d="M106.5,1215.1c-2.6-0.1-4.7,1.9-4.8,4.5c0,1.3,0.4,2.5,1.3,3.4c9,9.7,20.5,16.5,33.3,19.9
			c2.5,0.7,5-0.8,5.7-3.3c0.7-2.5-0.8-5-3.3-5.7c0,0-0.1,0-0.1,0c-11.1-2.9-21.1-8.9-28.9-17.2
			C109,1215.7,107.8,1215.1,106.5,1215.1L106.5,1215.1z"/>
		<path id="XMLID_160_" class="st2" d="M179.3,1034.3c-1.2,0-2.4,0.5-3.2,1.4l-64.8,64.8c-1.8,1.8-1.9,4.7-0.1,6.6
			c1.8,1.8,4.7,1.9,6.6,0.1c0,0,0.1-0.1,0.1-0.1l61.5-61.6l28.2,28.2l-15.3,15.3c-1.8,1.8-1.8,4.8,0,6.6c1.8,1.8,4.8,1.8,6.6,0
			l18.5-18.5c1.8-1.8,1.8-4.7,0-6.6l-34.7-34.7C181.8,1034.7,180.6,1034.2,179.3,1034.3L179.3,1034.3z M167.7,1115.3
			c-1.2,0-2.3,0.5-3.2,1.4l-18.5,18.5c-1.8,1.8-1.9,4.7-0.1,6.6s4.7,1.9,6.6,0.1c0,0,0.1-0.1,0.1-0.1l18.5-18.5
			c1.8-1.8,1.9-4.7,0.1-6.6C170.2,1115.7,169,1115.2,167.7,1115.3z"/>
		<path id="XMLID_159_" class="st2" d="M121.3,1106.1c-1.2,0-2.3,0.5-3.2,1.4l-30.1,30.1c-1.8,1.8-1.8,4.7,0,6.6l20.8,20.8
			c1.8,1.8,4.7,1.8,6.6,0l30.1-30.1c1.8-1.8,1.9-4.7,0.1-6.6c-1.8-1.8-4.7-1.9-6.6-0.1c0,0-0.1,0.1-0.1,0.1l-26.8,26.8l-14.3-14.3
			l26.8-26.8c1.8-1.8,1.9-4.7,0.1-6.6C123.9,1106.5,122.6,1106,121.3,1106.1z"/>
		<path id="XMLID_158_" class="st2" d="M211.7,1020.4c-1.2,0-2.4,0.5-3.2,1.4l-23.1,23.1c-1.8,1.8-1.9,4.7-0.1,6.6
			c1.8,1.8,4.7,1.9,6.6,0.1c0,0,0.1-0.1,0.1-0.1l19.9-19.9l9.6,9.6l-19.9,19.9c-1.8,1.8-1.9,4.7-0.1,6.6c1.8,1.8,4.7,1.9,6.6,0.1
			c0,0,0.1-0.1,0.1-0.1l23.1-23.1c1.8-1.8,1.8-4.7,0-6.6l-16.2-16.2C214.2,1020.8,213,1020.3,211.7,1020.4L211.7,1020.4z"/>
		<path id="XMLID_157_" class="st2" d="M107.6,1092.2c-2.6,0-4.6,2.1-4.6,4.6c0,1.3,0.5,2.5,1.4,3.3l48.5,48.5
			c1.8,1.8,4.7,1.9,6.6,0.1c1.8-1.8,1.9-4.7,0.1-6.6c0,0-0.1-0.1-0.1-0.1l-48.5-48.5C110,1092.7,108.8,1092.2,107.6,1092.2z"/>
		<path id="XMLID_154_" class="st2" d="M47.3,1196.4v27.8h90.3v-4.6v-23.2H47.3z M56.6,1205.7h71.8v9.3H56.6V1205.7z"/>
		<path id="XMLID_153_" class="st2" d="M68.2,1177.9v9.3h46.3v-9.3H68.2z"/>
		<path id="XMLID_152_" class="st2" d="M107.6,1261.2c-1.5,0-3,0.8-3.9,2.1l-13.9,20.8c-1.4,2.1-0.8,5,1.3,6.4
			c0.8,0.5,1.7,0.8,2.6,0.8h120.4c2.6,0,4.6-2.1,4.6-4.6c0-0.9-0.3-1.8-0.8-2.6l-13.9-20.8c-0.9-1.3-2.3-2.1-3.9-2.1h-37.1v9.3h34.6
			l7.7,11.6H102.3l7.7-11.6h34.6v-9.3C144.6,1261.2,107.6,1261.2,107.6,1261.2z"/>
	</g>
</g>
<g id="Layer_11" class="st0">
	<g id="XMLID_175_" class="st1">
		<g id="XMLID_188_">
			<g id="XMLID_189_">
				<path id="XMLID_190_" class="st2" d="M181.4,177.2c-4.3-1.9-7.1-6.1-7.1-10.8v-48.2c0-4.7,2.8-9,7.1-10.8
					c10.6-4.6,17.2-14.9,17-26.4c-0.3-14.9-12.2-27-27.1-27.5c-5.8-0.2-11.3,1.3-16.2,4.4c-1.3,0.8-2.9,0.8-4.2,0
					c-4.8-3.1-10.4-4.6-16.2-4.4c-14.9,0.6-26.8,12.7-27.1,27.5c-0.2,11.5,6.4,21.9,17,26.4c4.3,1.9,7.1,6.1,7.1,10.8v48.2
					c0,4.7-2.8,9-7.1,10.8c-10.6,4.6-17.2,14.9-17,26.4c0.3,14.9,12.2,27,27.1,27.5c5.7,0.2,11.3-1.3,16.2-4.4
					c1.3-0.8,2.9-0.8,4.2,0c4.5,2.9,9.7,4.4,15.1,4.4c0.4,0,0.7,0,1.1,0c14.9-0.6,26.8-12.7,27.1-27.5
					C198.6,192.1,191.9,181.7,181.4,177.2z M191.3,203.4c-0.2,11.1-9.1,20.2-20.3,20.6c-4.3,0.2-8.5-1-12.1-3.3
					c-1.8-1.1-3.9-1.7-5.9-1.7c-2.1,0-4.1,0.6-5.9,1.7c-3.6,2.3-7.8,3.4-12.1,3.3c-11.1-0.4-20-9.5-20.3-20.6
					c-0.2-8.6,4.8-16.4,12.7-19.8c6.9-3,11.4-9.8,11.4-17.4v-48.2c0-7.6-4.5-14.4-11.4-17.4c-7.9-3.4-12.9-11.2-12.7-19.8
					c0.2-11.1,9.1-20.2,20.3-20.6c4.3-0.2,8.5,1,12.1,3.3c3.6,2.3,8.2,2.3,11.8,0c3.6-2.3,7.8-3.4,12.1-3.3
					c11.1,0.4,20,9.5,20.3,20.6c0.2,8.6-4.8,16.4-12.7,19.8c-6.9,3-11.4,9.8-11.4,17.4v48.2c0,7.6,4.5,14.4,11.4,17.4
					C186.4,187.1,191.4,194.8,191.3,203.4z"/>
			</g>
		</g>
		<g id="XMLID_185_">
			<g id="XMLID_186_">
				<path id="XMLID_177_" class="st2" d="M127.5,70.6c-1.5-1.2-3.8-0.9-5,0.6c-2.3,2.9-3.5,6.4-3.5,10.1c0,2,1.6,3.5,3.5,3.5
					s3.5-1.6,3.5-3.5c0-2.1,0.7-4.1,2-5.8C129.3,74,129,71.8,127.5,70.6z"/>
			</g>
		</g>
		<g id="XMLID_182_">
			<g id="XMLID_183_">
				<path id="XMLID_176_" class="st2" d="M135.6,64.8c-0.8,0-1.5,0.1-2.3,0.2c-1.9,0.3-3.3,2.1-3,4c0.2,1.8,1.8,3.1,3.5,3.1
					c0.2,0,0.3,0,0.5,0c0.4-0.1,0.9-0.1,1.3-0.1c2,0,3.5-1.6,3.5-3.5C139.2,66.4,137.6,64.8,135.6,64.8z"/>
			</g>
		</g>
	</g>
	<path id="XMLID_180_" class="st12" d="M231.3,257.9H74.7c-6.6,0-12-5.4-12-12v-216c0-6.6,5.4-12,12-12h156.7c6.6,0,12,5.4,12,12
		v216C243.3,252.5,237.9,257.9,231.3,257.9z"/>
	<text id="XMLID_181_" transform="matrix(1 0 0 1 274.667 182.2279)" class="st1 st3 st13">Radiología</text>
</g>
<g id="Layer_11_copy_12" class="st0">
	<text id="XMLID_362_" transform="matrix(1 0 0 1 274.667 182.2279)" class="st1 st3 st13">Sucursales</text>
	<g id="XMLID_374_" class="st1">
		<g id="XMLID_424_">
			<path id="XMLID_442_" class="st2" d="M187.1,150.1h-37.2c-10.2,0-18.5,8.3-18.5,18.5v28.5c0,10.2,8.3,18.5,18.5,18.5h37.2
				c10.2,0,18.5-8.3,18.5-18.5v-28.5C205.6,158.4,197.3,150.1,187.1,150.1z M192.2,197.1c0,2.8-2.3,5-5,5h-37.2c-2.8,0-5-2.3-5-5
				v-28.5c0-2.8,2.3-5,5-5h37.2c2.8,0,5,2.3,5,5V197.1z"/>
			<path id="XMLID_426_" class="st2" d="M266.4,98.3c0-1.2-0.3-2.3-0.9-3.3l-40.7-71.6c-1.2-2.1-3.4-3.4-5.8-3.4H40
				c-2.4,0-4.6,1.3-5.8,3.4L-6.4,95c-0.6,1-0.9,2.1-0.9,3.3c0,16.1,9.7,29.8,23.5,35.9v118.1c0,3.7,3,6.7,6.7,6.7h37.1
				c0.1,0,0.1,0,0.2,0h52c0.1,0,0.1,0,0.2,0h123.8c3.7,0,6.7-3,6.7-6.7V135c0-0.3,0-0.5-0.1-0.7C256.7,128.2,266.4,114.4,266.4,98.3
				z M44,33.5H215l31.8,56H12.2L44,33.5z M187.5,102.8c-2.1,12.1-12.7,21.3-25.4,21.3s-23.3-9.2-25.4-21.3H187.5z M122.4,102.8
				c-2.1,12.1-12.7,21.3-25.4,21.3s-23.3-9.2-25.4-21.3H122.4z M6.5,102.8h50.8c-2.1,12.1-12.8,21.3-25.4,21.3
				C19.2,124.1,8.7,114.9,6.5,102.8z M105.4,245.6H66.8v-72.4c0-5.3,4.3-9.6,9.6-9.6h19.5c5.3,0,9.6,4.3,9.6,9.6L105.4,245.6
				L105.4,245.6z M229.4,245.6H118.8v-72.4c0-12.6-10.3-23-23-23H76.3c-12.6,0-23,10.3-23,23v72.5H29.6V137.5
				c0.8,0.1,1.6,0.1,2.3,0.1c13.5,0,25.5-6.9,32.6-17.3c7,10.5,19,17.3,32.6,17.3s25.4-6.9,32.6-17.3c7,10.5,19,17.3,32.5,17.3
				c13.5,0,25.4-6.9,32.5-17.3c7,10.5,19,17.3,32.6,17.3c0.8,0,1.5-0.1,2.3-0.1L229.4,245.6L229.4,245.6z M227.1,124.1
				c-12.7,0-23.3-9.2-25.4-21.3h50.8C250.4,114.9,239.8,124.1,227.1,124.1z"/>
		</g>
	</g>
</g>
<g id="Layer_11_copy" class="st0">
	<text id="XMLID_184_" transform="matrix(1 0 0 1 274.667 161.2279)" class="st1"><tspan x="0" y="0" class="st3 st14">Ecografías y </tspan><tspan x="0" y="51.6" class="st3 st14">Ecocardiografías</tspan></text>
	<g id="XMLID_191_" class="st1">
		<g id="XMLID_219_">
			<path id="XMLID_223_" d="M262.6,85.4c-7,17.8-14.1,35.6-21.1,53.5c-11.3,28.6-22.6,57.2-33.9,85.8c-2.6,6.6-5.2,13.1-7.8,19.7
				c1.1-0.9,2.2-1.7,3.4-2.6c-29.3-2.2-59.2-2.9-88.4,0c1.1,0.9,2.2,1.7,3.4,2.6c-7.2-17.9-14.4-35.7-21.6-53.6
				c-11.5-28.5-23-57-34.5-85.5c-2.7-6.6-5.3-13.2-8-19.8c-0.3,1.1-0.6,2.3-0.9,3.4c0.5-0.4-1,0.4,0,0c0.6-0.3,1.3-1,1.9-1.4
				c2.2-1.6,4.5-3,6.9-4.4c8.4-5,17.2-9.1,26.4-12.4c31.1-11.3,64.9-13.6,97.4-8.3c27.5,4.5,53.9,14.2,78.6,27c4,2.1,7.5-4,3.5-6
				c-40.6-20.9-86-33.8-131.9-30c-26.1,2.1-52.1,9.3-75,22.3c-4.4,2.5-8.7,5.1-12.7,8.3c-0.9,0.7-1.3,2.4-0.9,3.4
				c7.2,17.9,14.4,35.7,21.6,53.6c11.5,28.5,23,57,34.5,85.5c2.7,6.6,5.3,13.2,8,19.8c0.5,1.3,1.7,2.7,3.4,2.6
				c29.2-2.9,59.2-2.2,88.4,0c1.6,0.1,2.8-1.2,3.4-2.6c7-17.8,14.1-35.6,21.1-53.5c11.3-28.6,22.6-57.2,33.9-85.8
				c2.6-6.6,5.2-13.1,7.8-19.7C271,83,264.3,81.2,262.6,85.4z"/>
		</g>
	</g>
	<path id="XMLID_195_" class="st6" d="M159.3,191.4l-1.5-0.9c-0.9-0.5-21.9-13.1-34-32c-6.4-10.1-8.4-20.7-5.6-30
		c2.3-7.6,7.5-13.6,14.9-16.8c2.6-1.1,5.2-1.7,7.8-1.7c8.5,0,15,5.9,18.3,9.6c3.3-3.7,9.9-9.6,18.3-9.6c2.6,0,5.3,0.6,7.8,1.7
		c7.3,3.3,12.6,9.3,14.9,16.8c2.8,9.2,0.8,19.9-5.6,30c-12,19-33.1,31.5-34,32L159.3,191.4z M141,115.7c-1.8,0-3.7,0.4-5.5,1.2
		c-5.8,2.6-9.9,7.3-11.7,13.2c-2.3,7.6-0.5,16.6,4.9,25.2c9.5,15.1,25.7,26.1,30.6,29.3c4.9-3.2,21.1-14.2,30.6-29.3
		c5.5-8.7,7.2-17.6,4.9-25.2c-1.8-5.9-5.9-10.7-11.7-13.2c-1.8-0.8-3.6-1.2-5.5-1.2c-9.1,0-15.9,10-15.9,10.1l-2.4,3.6l-2.4-3.6
		C156.9,125.7,150,115.7,141,115.7z"/>
</g>
<g id="Layer_11_copy_2" class="st0">
	<text id="XMLID_193_" transform="matrix(1 0 0 1 274.667 182.2279)" class="st1 st3 st13">Cirugía</text>
	<g id="XMLID_197_" class="st1">
		<path id="XMLID_200_" class="st2" d="M262.6,22.8c-0.6-5.3-3.2-10-7.3-13.3c-4.1-3.3-9.2-4.8-14.5-4.2s-10,3.1-13.3,7.3l-125,156
			c-1.9,2.4-2.5,5.5-1.8,8.4l-64.5,80.5c-0.9,1.1-1.2,2.6-0.7,4c0.4,1.4,1.5,2.4,3,2.8c0.4,0.1,9.4,2.4,21.1,1.1
			c14.8-1.6,27.5-8.4,36.7-19.5l26.7-33.3c0.9-1.1,1.2-2.6,0.7-3.9l-3.5-11.2l8.7-10.8l1.5,0.2c1,0.1,2.1,0.1,3.1,0
			c3.7-0.4,6.9-2.2,9.2-5.1L244,55.4l0,0l14.5-18.1C261.7,33.3,263.2,28.1,262.6,22.8z M226.5,63.7l-12.3-20.7l8.9-11.1l12.3,20.7
			L226.5,63.7z M211.9,81.8l-12.4-20.7l8.9-11.1l12.3,20.7L211.9,81.8z M118.9,185.5l-6.8,8.4c-0.9,1.1-1.2,2.6-0.7,3.9l3.5,11.2
			l-25.3,31.5c-7.8,9.5-18.3,15-31.1,16.4c-4.3,0.5-8.1,0.4-11.2,0.1l58.9-73.5c0,0,0,0,0.1,0c0.8,0.3,1.6,0.5,2.5,0.7L118.9,185.5z
			 M136,176.5c-1.1,1.4-3,2.2-4.7,1.9l-21.4-2.5c-0.2,0-0.4-0.1-0.5-0.2c-0.1-0.1-0.2-0.1-0.3-0.3c-0.1-0.1-0.1-0.2-0.2-0.2
			c-0.1-0.3-0.2-0.7,0.2-1.2l84.8-105.7L206.3,89L136,176.5z M251.8,32.1l-10.7,13.4l-12.3-20.7l5.4-6.8c1.9-2.3,4.6-3.8,7.6-4.2
			s5.9,0.5,8.3,2.4c2.3,1.9,3.8,4.6,4.2,7.6S253.7,29.7,251.8,32.1z"/>
		<path id="XMLID_199_" class="st2" d="M85.3,220l-7.5,9.4c-1.5,1.8-1.2,4.5,0.7,5.9c0.9,0.8,2,1,3.1,0.9c1.1-0.1,2.1-0.7,2.9-1.6
			l7.5-9.4c1.5-1.8,1.2-4.5-0.7-5.9C89.4,217.9,86.7,218.2,85.3,220z"/>
		<path id="XMLID_198_" class="st2" d="M70.2,238.7c-0.7,0.9-1,2-0.9,3.1c0.1,1.1,0.7,2.1,1.6,2.9c0.9,0.7,2,1,3.1,0.9
			c1.1-0.1,2.1-0.7,2.9-1.6c0.7-0.9,1-2,0.9-3.1s-0.7-2.1-1.6-2.9C74.5,236.7,71.6,237,70.2,238.7z"/>
	</g>
</g>
<g id="Layer_11_copy_3" class="st0">
	<text id="XMLID_235_" transform="matrix(1 0 0 1 274.667 182.2279)" class="st1 st3 st7">Hospitalización</text>
	<g id="XMLID_244_" class="st1">
		<path id="XMLID_251_" class="st2" d="M249.9,255.9V115l10,6l15.2-27.1L155.8,20L36.6,93.8L51.7,121l10-6v140.9H34.3v7.8h243v-7.8
			H249.9z M47.1,96.5l108.7-67.3l108.7,67.3l-7.6,13.6L155.8,49.7L54.7,110.1L47.1,96.5z M69.6,255.9V110.3l86.2-51.5l86.2,51.5
			v145.5H69.6z"/>
		<path id="XMLID_248_" class="st2" d="M101,236.3h109.7V126.5H101V236.3z M108.8,134.4h94v94.1h-94V134.4z"/>
		<path id="XMLID_245_" class="st2" d="M171.5,146.1h-31.4v19.6h-19.6v31.4h19.6v19.6h31.4v-19.6h19.6v-31.4h-19.6V146.1z
			 M183.3,173.6v15.7h-19.6v19.6H148v-19.6h-19.6v-15.7H148V154h15.7v19.6H183.3z"/>
	</g>
</g>
<g id="Layer_11_copy_4" class="st0">
	<text id="XMLID_246_" transform="matrix(1 0 0 1 274.667 182.2279)" class="st1 st3 st7">Farmacia</text>
	<g id="XMLID_249_" class="st1">
		<path id="XMLID_259_" class="st2" d="M255.8,112h-68.4V96.8c0-5.3-4.3-9.7-9.7-9.7H122c-5.3,0-9.7,4.3-9.7,9.7V112H44
			c-5.3,0-9.7,4.3-9.7,9.7v120.5c0,5.3,4.3,9.7,9.7,9.7h211.9c5.3,0,9.7-4.3,9.7-9.7V121.7C265.5,116.4,261.2,112,255.8,112z
			 M120.4,96.8c0-0.9,0.7-1.6,1.6-1.6h55.8c0.9,0,1.6,0.7,1.6,1.6V112h-59.1V96.8z M257.5,242.2c0,0.9-0.7,1.6-1.6,1.6H44
			c-0.9,0-1.6-0.7-1.6-1.6V121.7c0-0.9,0.7-1.6,1.6-1.6h211.9c0.9,0,1.6,0.7,1.6,1.6V242.2z"/>
		<path id="XMLID_256_" class="st2" d="M170.7,167.2h-6v-6c0-6-4.9-10.9-10.9-10.9h-7.7c-6,0-10.9,4.9-10.9,10.9v6h-6
			c-6,0-10.9,4.9-10.9,10.9v7.7c0,6,4.9,10.9,10.9,10.9h6v6c0,6,4.9,10.9,10.9,10.9h7.7c6,0,10.9-4.9,10.9-10.9v-6h6
			c6,0,10.9-4.9,10.9-10.9v-7.7C181.6,172.1,176.7,167.2,170.7,167.2z M173.6,185.8c0,1.6-1.3,2.9-2.9,2.9h-10c-2.2,0-4,1.8-4,4v10
			c0,1.6-1.3,2.9-2.9,2.9h-7.7c-1.6,0-2.9-1.3-2.9-2.9v-10c0-2.2-1.8-4-4-4h-10c-1.6,0-2.9-1.3-2.9-2.9v-7.7c0-1.6,1.3-2.9,2.9-2.9
			h10c2.2,0,4-1.8,4-4v-10c0-1.6,1.3-2.9,2.9-2.9h7.7c1.6,0,2.9,1.3,2.9,2.9v10c0,2.2,1.8,4,4,4h10c1.6,0,2.9,1.3,2.9,2.9V185.8z"/>
		<path id="XMLID_250_" class="st2" d="M233.3,152.3c-9.2,0-16.8,6.7-18.3,15.5h-11.3c-6.3-23.8-28-41.3-53.7-41.3
			s-47.4,17.6-53.7,41.3H84.9c-1.5-8.8-9.1-15.5-18.3-15.5c-10.2,0-18.6,8.3-18.6,18.6c0,4.1,1.3,8,3.7,11.1
			c-2.4,3.2-3.7,7.1-3.7,11.1c0,10.2,8.3,18.6,18.6,18.6c9.2,0,16.8-6.7,18.3-15.5h11.3c6.3,23.8,28,41.3,53.7,41.3
			s47.4-17.6,53.7-41.3H215c1.5,8.8,9.1,15.5,18.3,15.5c10.2,0,18.6-8.3,18.6-18.6c0-4.1-1.3-8-3.7-11.1c2.4-3.2,3.7-7.1,3.7-11.1
			C251.8,160.6,243.5,152.3,233.3,152.3z M81.1,188.2c-1.1,0-2.2,0.5-2.9,1.3c-0.8,0.8-1.1,1.9-1.1,3c0,0.2,0,0.4,0,0.7
			c0,5.8-4.7,10.6-10.6,10.6c-5.8,0-10.6-4.7-10.6-10.6c0-3.1,1.4-6.1,3.8-8.1c0.9-0.8,1.4-1.9,1.4-3.1s-0.5-2.3-1.4-3.1
			c-2.4-2-3.8-5-3.8-8.1c0-5.8,4.7-10.6,10.6-10.6c5.8,0,10.6,4.7,10.6,10.6c0,0.2,0,0.5,0,0.7c-0.1,1.1,0.3,2.2,1.1,3
			c0.8,0.8,1.8,1.3,2.9,1.3h13.6c-0.2,2-0.3,4.1-0.3,6.2s0.1,4.2,0.3,6.2H81.1z M149.9,229.5c-26.2,0-47.6-21.3-47.6-47.6
			s21.3-47.6,47.6-47.6s47.6,21.3,47.6,47.6S176.1,229.5,149.9,229.5z M240,185c2.4,2,3.8,5,3.8,8.1c0,5.8-4.7,10.6-10.6,10.6
			c-5.8,0-10.6-4.7-10.6-10.6c0-0.2,0-0.5,0-0.7c0.1-1.1-0.3-2.2-1.1-3c-0.8-0.8-1.8-1.3-2.9-1.3h-13.6c0.2-2,0.3-4.1,0.3-6.2
			s-0.1-4.2-0.3-6.2h13.6c1.1,0,2.2-0.5,2.9-1.3c0.8-0.8,1.1-1.9,1.1-3c0-0.2,0-0.5,0-0.7c0-5.8,4.7-10.6,10.6-10.6
			c5.8,0,10.6,4.7,10.6,10.6c0,3.1-1.4,6.1-3.8,8.1c-0.9,0.8-1.4,1.9-1.4,3.1C238.6,183.1,239.1,184.3,240,185z"/>
	</g>
	<path id="XMLID_266_" class="st6" d="M77.1,48.6c-2.7-3.6-5.7-7.1-9-10.2c-2-1.8-5.1-2-7.1,0c-1.9,1.9-2,5.2,0,7.1
		c2.7,2.5,5.2,5.2,7.4,8.2c1.6,2.2,4.3,3.3,6.8,1.8C77.5,54.2,78.7,50.8,77.1,48.6z"/>
	<path id="XMLID_267_" class="st6" d="M143,34.6v12c0,6.4,10,6.4,10,0v-12C153,28.1,143,28.1,143,34.6z"/>
	<path id="XMLID_268_" class="st6" d="M242.3,34.5c-1.7-1.7-5.4-2.1-7.1,0c-2.6,3.2-5.1,6.5-7.7,9.7c-1.7,2.1-2.1,5,0,7.1
		c1.7,1.7,5.4,2.1,7.1,0c2.6-3.2,5.1-6.5,7.7-9.7C244,39.4,244.4,36.5,242.3,34.5z"/>
</g>
<g id="Layer_11_copy_5" class="st0">
	<text id="XMLID_278_" transform="matrix(1 0 0 1 274.667 161.2279)" class="st1"><tspan x="0" y="0" class="st3 st14">Consultas de</tspan><tspan x="0" y="51.6" class="st3 st14">especialidad</tspan></text>
	<g id="XMLID_315_" class="st1">
		<g id="XMLID_316_">
			<path id="XMLID_286_" class="st2" d="M154.6,12.5c-3.8,0-6.9,3.1-6.9,6.9c0,3.8,3.1,6.9,6.9,6.9s6.9-3.1,6.9-6.9
				S158.4,12.5,154.6,12.5z"/>
		</g>
	</g>
	<g id="XMLID_312_" class="st1">
		<g id="XMLID_313_">
			<path id="XMLID_285_" class="st2" d="M140,22.6c-2.7-2.7-7-2.7-9.7,0c-2.7,2.7-2.7,7,0,9.7c2.7,2.7,7,2.7,9.7,0
				C142.7,29.6,142.7,25.3,140,22.6z"/>
		</g>
	</g>
	<g id="XMLID_309_" class="st1">
		<g id="XMLID_310_">
			<path id="XMLID_284_" class="st2" d="M178.9,22.6c-2.7-2.7-7-2.7-9.7,0c-2.7,2.7-2.7,7,0,9.7c2.7,2.7,7,2.7,9.7,0
				C181.6,29.6,181.6,25.3,178.9,22.6z"/>
		</g>
	</g>
	<g id="XMLID_291_" class="st1">
		<g id="XMLID_292_">
			<path id="XMLID_293_" class="st2" d="M251.3,221.4l-1-0.3c-3.1-0.8-5.8-1.7-8.1-2.5c4.5-26.1,16.4-112.7-15.2-163.6l-5-50
				c-0.3-2.9-2.7-5.1-5.6-5.1h-124c-2.9,0-5.3,2.2-5.6,5.1l-5,50.5c-31.2,50.9-19.5,137-14.9,163.1c-2.3,0.8-5,1.7-8.1,2.5l-1,0.3
				c-12.8,4.2-21.3,21.7-21.3,35V271h118.1h118.1v-14.5C272.6,243.1,264,225.6,251.3,221.4z M236.8,157.2c-0.5,24-3.4,45.2-5.3,57
				c-2.2-1-4.1-2-6.1-2.7c-4.7-1.8-8.7-3.5-12-5.1l-15.8-15c-0.5-0.5-1.1-0.8-1.7-1.1l0-3.2c17.3-17.2,31.5-42.5,31.5-69
				c0-1.4,0-2.7-0.1-4.1l8,5.5C236.5,131.1,237.1,143.7,236.8,157.2z M171.8,191.6c-6.5,3.9-12.6,6-17.3,6s-10.8-2.1-17.3-6
				c-7.3-4.3-14.5-10.5-21-17.9c-13.3-15.2-21.5-33.1-23-50.2c17.5-7.5,38.5-20,62.7-37.5c5.1-3.7,10-7.3,14.6-10.8l44.6,30.4
				c0.6,4,0.9,8.1,0.9,12.3c0,18.6-8.5,38.9-23.2,55.7C186.3,181.1,179.1,187.3,171.8,191.6z M185.8,198.9l-8.4,17.7l-11-9.9
				c5.9-2.1,12.2-5.5,18.3-10.1l0.8,1.7C185.6,198.4,185.7,198.6,185.8,198.9z M142.6,206.7l-11,9.9l-8.4-17.8
				c0.1-0.2,0.2-0.4,0.2-0.5l0.8-1.7C130.4,201.1,136.7,204.6,142.6,206.7z M221.2,68c4.7,9.3,8.4,20.2,11,32.6
				c0.2,1.2,0.5,2.4,0.7,3.6l-46.9-32C203.9,70.9,216.7,68.8,221.2,68z M97.4,12c0-0.4,0.4-0.7,0.8-0.7h56.2h56.2
				c0.4,0,0.7,0.3,0.8,0.7l4.5,44.7c0,0.4-0.2,0.8-0.6,0.8c-10.2,1.6-32.8,4.6-60.6,4.6c0,0-0.1,0-0.1,0c11.3,0,20.1-11.2,15.8-23
				c-1.6-4.5-5.2-8.2-9.8-9.8c-11.9-4.2-23,4.6-23,15.9c0,9.3,7.6,16.9,16.9,16.9c-27.8,0-50.6-3-60.7-4.6c-0.4-0.1-0.7-0.4-0.6-0.8
				L97.4,12z M76.7,100.8c2.6-12.5,6.3-23.5,11-32.8c7.3,1.3,33.1,5.4,66.5,5.4c-1.6,1.2-3.2,2.4-4.9,3.6
				c-31,22.3-56.8,36.5-75.5,41.6C74.6,112.4,75.5,106.4,76.7,100.8z M72.8,130.5c3-0.7,6.2-1.6,9.5-2.7
				C85.2,150.7,98,172,113.2,187l0,3.3c-0.6,0.2-1.1,0.6-1.6,1.1l-15.8,14.9c-3.4,1.6-7.4,3.3-12.1,5.1c-2.1,0.8-4,1.7-6.1,2.7
				c-1.9-11.7-4.8-32.7-5.3-56.6C72,148.1,72.2,139.1,72.8,130.5z M47.7,259.7v-3.2c0-4.8,1.6-10.5,4.4-15.4c2.6-4.6,5.9-7.8,9-8.9
				l0.6-0.2c10.6-2.8,16.4-5.6,21.1-7.9c1.8-0.9,3.4-1.6,4.9-2.2c0.4-0.1,0.7-0.3,1.1-0.4c0.1,0.1,0.1,0.1,0.2,0.2l14.3,11l-2.2,9.1
				c-0.4,1.8,0,3.7,1.3,5.1l11.6,12.7L47.7,259.7L47.7,259.7z M129.2,259.7L129.2,259.7l-16.4-18.1l2.4-9.8c0.5-2.2-0.3-4.4-2-5.8
				l-12-9.2l12.5-11.9l11,23.2c0,0,0,0,0,0l14.9,31.5H129.2z M154.5,259.7H152l-15.4-32.5l17.9-16.1l17.8,16.1L157,259.7H154.5z
				 M169.5,259.7l14.9-31.5c0,0,0,0,0-0.1l11-23.2l12.5,11.9l-12,9.2c-1.8,1.4-2.6,3.6-2,5.8l2.4,9.8l-16.4,18.1L169.5,259.7
				L169.5,259.7z M195.1,259.7l11.6-12.7c1.3-1.4,1.7-3.3,1.3-5.1l-2.2-9.1l14.3-11c0.1-0.1,0.1-0.1,0.2-0.2
				c0.4,0.1,0.7,0.3,1.1,0.4c1.5,0.6,3.1,1.3,4.9,2.2c4.7,2.2,10.5,5,21.1,7.9l0.6,0.2c3.1,1.1,6.4,4.3,9,8.9
				c2.8,4.8,4.4,10.6,4.4,15.4v3.2H195.1z"/>
		</g>
	</g>
	<g id="XMLID_288_" class="st1">
		<g id="XMLID_289_">
			<path id="XMLID_264_" class="st2" d="M154.5,231.5c-3.1,0-5.6,2.5-5.6,5.6c0,3.1,2.5,5.6,5.6,5.6c3.1,0,5.6-2.5,5.6-5.6
				C160.1,234,157.6,231.5,154.5,231.5z"/>
		</g>
	</g>
</g>
<g id="Layer_11_copy_6" class="st0">
	<text id="XMLID_339_" transform="matrix(1 0 0 1 277.667 161.2279)" class="st1"><tspan x="0" y="0" class="st3 st14">Atención a</tspan><tspan x="0" y="51.6" class="st3 st14">domicilio</tspan></text>
	<path id="XMLID_328_" class="st6" d="M168.4,53.4c-2.6-2.6-2.6-6.8,0-9.4l11.7-11.7c2.6-2.6,6.8-2.6,9.4,0c2.6,2.6,2.6,6.8,0,9.4
		l-11.7,11.7c-1.3,1.3-3,1.9-4.7,1.9C171.4,55.4,169.7,54.7,168.4,53.4z M116.2,53.4c1.3,1.3,3,1.9,4.7,1.9c1.7,0,3.4-0.6,4.7-1.9
		c2.6-2.6,2.6-6.8,0-9.4l-11.7-11.7c-2.6-2.6-6.8-2.6-9.4,0c-2.6,2.6-2.6,6.8,0,9.4L116.2,53.4z M147.8,43.7c3.7,0,6.7-3,6.7-6.7
		V20.5c0-3.7-3-6.7-6.7-6.7c-3.7,0-6.7,3-6.7,6.7v16.5C141.1,40.7,144.1,43.7,147.8,43.7z M211.2,151.7c1.4,2,1.6,4.7,0.5,6.9
		c-1.1,2.2-3.4,3.6-5.9,3.6h-62.2c-3.7,0-6.7-3-6.7-6.7V120c0-3.7,3-6.7,6.7-6.7h37c2.2,0,4.2,1,5.4,2.8L211.2,151.7z M192.9,148.9
		l-15.8-22.2h-26.9v22.2H192.9z M89.5,130.7H78v-11.5c0-3.7-3-6.7-6.7-6.7c-3.7,0-6.7,3-6.7,6.7v11.5H53.1c-3.7,0-6.7,3-6.7,6.7
		s3,6.7,6.7,6.7h11.5v11.5c0,3.7,3,6.7,6.7,6.7c3.7,0,6.7-3,6.7-6.7V144h11.5c3.7,0,6.7-3,6.7-6.7S93.1,130.7,89.5,130.7z
		 M236.6,226.5c-1.2,7.1-4.4,13.6-9,18.9h35.1c3.7,0,6.7,3,6.7,6.7s-3,6.7-6.7,6.7H5.4c-3.7,0-6.7-3-6.7-6.7s3-6.7,6.7-6.7h35.1
		c-4.6-5.2-7.8-11.7-9-18.9H5c-3.7,0-6.7-3-6.7-6.7V91.2c0-3.7,3-6.7,6.7-6.7h120.6v-8.8c0-12.2,9.9-22.1,22.1-22.1h0.3
		c12.2,0,22.1,9.9,22.1,22.1v8.8h28.3c2.2,0,4.2,1,5.4,2.8l64.3,90.6c0.8,1.1,1.2,2.5,1.2,3.8v38c0,3.7-3,6.7-6.7,6.7L236.6,226.5
		L236.6,226.5z M138.9,84.5h17.8v-8.8c0-4.8-3.9-8.8-8.8-8.8h-0.3c-4.8,0-8.8,3.9-8.8,8.8V84.5L138.9,84.5z M95.2,219.8
		c0-14.1-11.4-25.5-25.5-25.5s-25.5,11.4-25.5,25.5c0,14.1,11.4,25.5,25.5,25.5C83.7,245.3,95.2,233.9,95.2,219.8z M169.1,245.3
		c-4.6-5.2-7.8-11.7-9-18.9h-52.2c-1.2,7.1-4.4,13.6-9,18.9H169.1z M223.8,219.8c0-14.1-11.4-25.5-25.5-25.5s-25.5,11.4-25.5,25.5
		c0,14.1,11.4,25.5,25.5,25.5C212.4,245.3,223.8,233.9,223.8,219.8z M236.6,213.2H256v-29.3l-61.1-86.1H11.6v115.3h19.8
		c3.2-18.2,19.1-32.2,38.2-32.2c19.1,0,35.1,13.9,38.2,32.2h52.2c3.2-18.2,19.1-32.2,38.2-32.2C217.4,181,233.4,194.9,236.6,213.2z
		 M198.3,212.5c-4.1,0-7.4,3.3-7.4,7.4c0,4.1,3.3,7.4,7.4,7.4c4.1,0,7.4-3.3,7.4-7.4C205.7,215.8,202.4,212.5,198.3,212.5z
		 M69.7,212.5c-4.1,0-7.4,3.3-7.4,7.4c0,4.1,3.3,7.4,7.4,7.4c4.1,0,7.4-3.3,7.4-7.4C77,215.8,73.7,212.5,69.7,212.5z"/>
</g>
<g id="Layer_11_copy_13" class="st0">
	<text id="XMLID_564_" transform="matrix(1 0 0 1 277.667 130.2279)" class="st1"><tspan x="0" y="0" class="st3 st14">Difusión de</tspan><tspan x="0" y="51.6" class="st3 st14">animales en</tspan><tspan x="0" y="103.2" class="st3 st14">adopción</tspan></text>
	<g id="XMLID_563_" class="st1">
		<path id="XMLID_673_" class="st2" d="M137.8,178.3c-15.8,0-28.6,11.9-28.6,26.6c0,7,4.1,11.1,11,11.1c3.2,0,6.6-0.8,10-1.6
			c2.8-0.6,5.6-1.3,7.6-1.3c1.7,0,4.5,0.6,7.1,1.3c3.5,0.8,7,1.6,10.3,1.6c7,0,11.2-4.2,11.2-11.1
			C166.4,190.3,153.6,178.3,137.8,178.3z M157,206.7c0,0-0.4,0.3-1.8,0.3c-2.2,0-5.3-0.7-8.2-1.4c-3.3-0.8-6.4-1.5-9.2-1.5
			c-3,0-6.4,0.8-9.7,1.5c-2.9,0.7-5.8,1.3-7.9,1.3c-1.2,0-1.6-0.2-1.6-0.2c0,0-0.3-0.5-0.3-1.8c0-9.6,8.7-17.5,19.5-17.5
			c10.7,0,19.5,7.8,19.5,17.5C157.3,206.1,157.1,206.6,157,206.7z"/>
		<path id="XMLID_670_" class="st2" d="M123.6,169.6c0-8-5.6-14.6-12.4-14.6c-6.9,0-12.4,6.5-12.4,14.6c0,8,5.6,14.6,12.4,14.6
			C118,184.2,123.6,177.7,123.6,169.6z M107.8,169.6c0-3.1,1.7-5.5,3.3-5.5c1.6,0,3.3,2.3,3.3,5.5s-1.7,5.5-3.3,5.5
			C109.6,175.1,107.8,172.7,107.8,169.6z"/>
		<path id="XMLID_667_" class="st2" d="M138.7,175.2c6.9,0,12.4-6.5,12.4-14.6c0-8-5.6-14.6-12.4-14.6c-6.9,0-12.4,6.5-12.4,14.6
			C126.2,168.6,131.8,175.2,138.7,175.2z M138.7,155.1c1.6,0,3.3,2.3,3.3,5.5s-1.7,5.5-3.3,5.5c-1.6,0-3.3-2.3-3.3-5.5
			S137.1,155.1,138.7,155.1z"/>
		<path id="XMLID_572_" class="st2" d="M166.2,155c-6.9,0-12.4,6.5-12.4,14.6c0,8,5.6,14.6,12.4,14.6c6.9,0,12.4-6.5,12.4-14.6
			S173,155,166.2,155z M166.2,175.1c-1.6,0-3.3-2.3-3.3-5.5s1.7-5.5,3.3-5.5c1.6,0,3.3,2.3,3.3,5.5S167.7,175.1,166.2,175.1z"/>
		<path id="XMLID_568_" class="st2" d="M266.2,93.9L148.4,5.8c-2.5-1.9-5.5-2.9-8.6-2.9l-0.1,0c0,0-0.1,0-0.1,0l-0.1,0
			c0,0-0.1,0-0.1,0l-0.1,0c0,0,0,0-0.1,0l-0.1,0c-3.1,0-6.1,1-8.6,2.9L12.8,93.9c-6.4,4.8-7.7,13.8-2.9,20.2l9.9,13.2
			c2.7,3.6,7,5.8,11.5,5.8c2.3,0,4.5-0.5,6.5-1.6v124.1c0,7.9,6.5,14.4,14.4,14.4h174.5c7.9,0,14.4-6.5,14.4-14.4V131.4
			c2,1,4.2,1.6,6.5,1.6c0,0,0,0,0,0c4.5,0,8.8-2.2,11.5-5.8l9.9-13.2C273.8,107.7,272.5,98.6,266.2,93.9z M226.7,260.8H52.2
			c-2.9,0-5.3-2.4-5.3-5.3V124.9l92.5-69.2l92.5,69.2v130.7C232,258.5,229.6,260.8,226.7,260.8z M261.8,108.5l-9.9,13.2
			c-1,1.3-2.5,2.1-4.2,2.1c-1.1,0-2.2-0.4-3.1-1.1L142.2,46.3c-0.8-0.6-1.8-0.9-2.7-0.9c-1,0-1.9,0.3-2.7,0.9L34.4,122.8
			c-0.9,0.7-2,1-3.1,1c-1.7,0-3.2-0.8-4.2-2.1l-9.9-13.2c-1.7-2.3-1.3-5.6,1.1-7.4L136,13.1c0.9-0.7,2-1,3.2-1c0,0,0,0,0,0
			c0,0,0.1,0,0.1,0l0.1,0c0,0,0.1,0,0.1,0l0.1,0c0.1,0,0.1,0,0.1,0c1.1,0,2.2,0.4,3.1,1l117.8,88.1
			C263,102.9,263.5,106.2,261.8,108.5z"/>
		<path id="XMLID_565_" class="st2" d="M173.3,115c-13,0-25,5.2-33.9,14.4c-8.8-9.2-20.9-14.4-33.9-14.4c-25.9,0-47,21.1-47,47
			c0,12.1,4.3,24.3,12.8,36.2c6.6,9.3,15.7,18.4,27.2,27.2c19.3,14.8,38.3,23.4,39.1,23.8c0.6,0.3,1.2,0.4,1.9,0.4
			c0.6,0,1.1-0.1,1.7-0.3c0.8-0.3,19.9-7.8,39.2-22.1c11.5-8.5,20.6-17.6,27.3-27.1c8.5-12.2,12.7-25,12.7-38.1
			C220.3,136.1,199.2,115,173.3,115z M139.6,240c-11.2-5.4-71.8-36.8-71.8-78.1c0-20.9,17-37.9,37.9-37.9c12,0,23,5.5,30.2,15
			c0.9,1.1,2.2,1.8,3.6,1.8c1.4,0,2.8-0.7,3.6-1.8c7.2-9.6,18.2-15,30.2-15c20.9,0,37.9,17,37.9,37.9
			C211.2,207.1,150.8,235.2,139.6,240z"/>
	</g>
</g>
<g id="Layer_11_copy_14" class="st0">
	<text id="XMLID_714_" transform="matrix(1 0 0 1 277.667 130.2279)" class="st1"><tspan x="0" y="0" class="st3 st14">Difusión de</tspan><tspan x="0" y="51.6" class="st3 st14">animales en</tspan><tspan x="0" y="103.2" class="st3 st14">adopción</tspan></text>
	<path id="XMLID_589_" class="st6" d="M27.3,195c3,2,6,3,9.2,3c3.7,0,8.1-1.1,13-5.9c2.7,6.4,5.7,11.9,9,16.6
		c3,6.5,26.4,53.4,78.4,53.4c52,0,75.3-47,78.3-53.4c3.3-4.7,6.3-10.2,9-16.6c5.2,5.2,9.7,6.4,13.5,6.4h0c3.1,0,6.2-1.2,9.2-3.2
		c19.8-13.2,30-49.2,23.3-81.8c-8.4-40.9-40-69.2-86.6-77.7l-0.8-0.1c-13.8-6.3-30-9.7-45.9-9.7c-11.5,0-29,1.7-46.8,9.9
		c-46.3,8.7-77.6,36.9-86,77.6C-2.7,146,7.6,181.8,27.3,195z M179.1,237.8c-10.6,7.9-24.5,14.1-42.2,14.1
		c-17.3,0-30.9-5.8-41.4-13.3c-6-4.6,0.8-3.5,0.8-3.5l0,0c5.4,1.2,10.6,1.7,15.5,1.7c11.7,0,21.2-2.7,25.1-4.1
		c3.9,1.3,13.3,4.1,25,4.1c5.1,0,10.6-0.5,16.2-1.9l0,0C178.1,235,184.8,233.3,179.1,237.8z M135.1,202.8c-6.1-3.8-11.6-8.2-14-11.1
		c-0.1-0.1-1.5-2,0.5-2.8c0.2-0.1,0.4-0.1,0.6-0.2c0.2,0,0.4-0.1,0.5-0.1c2.5-0.7,6.9-1.3,14.5-1.3c6.1,0,12.6,1,16.2,2.2
		c0.3,0.1,2.3,1.2,0.9,3c-0.2,0.2-0.4,0.4-0.6,0.7c-0.2,0.2-0.4,0.4-0.6,0.6c-2.1,2-6,4.9-12.9,8.9
		C137.8,203.8,136,203.2,135.1,202.8z M197.3,49.4c0.2,0.1,0.4,0.1,0.6,0.2c0.2,0,0.3,0.1,0.5,0.1c44.6,14.2,57.9,46.6,61.9,65.9
		c6.6,31.8-4.8,61.8-19,71.3c-1.3,0.9-2.5,1.5-3.6,1.5l0,0c-1.6,0-4.9-1-9.4-7.1l0.1-0.2l-1.4-2.1c-17.6-26.1-31.4-94.4-36.8-124.3
		C190.1,54.6,189.9,47.6,197.3,49.4z M94.3,52.5L94.3,52.5c1.4-7.9,11.3-11.8,12.2-12.2c11.6-3.4,22.4-4.3,30.2-4.3
		c11.6,0,23.5,2.1,34.2,5.8c1.4,0.7,7.2,3.8,8.3,10.1c2.4,14,7.4,40.3,14.1,66.4c8.6,33.2,16.5,52.9,23.6,64.4
		c-13.1,36.3-37.1,44.1-55.1,44.1c-6.3,0-11.9-0.9-16.1-1.9c-3.7-0.8-4-5.1-4-5.1V213c18.3-9.9,25.4-17.5,23.6-24.9
		c-2.5-9.9-20.6-11-28.3-11c-11.4,0-24.9,1.1-27.1,9.9c-2.4,9.5,11.4,19.5,21.8,25.6v6.7c0,3.6-4.7,5.8-5,5.9c-4,0.9-9.2,1.7-15,1.7
		c-18,0-41.9-7.7-55-43.9c5.1-8.1,10.4-20.3,16.3-38.7C83.7,111.2,91.4,71.4,94.3,52.5z M13.9,115.5c4-19.2,17.3-51.3,61.4-65.6
		c8-2.6,8.6,6.1,8.6,6.1c-2.6,14.6-7.1,37.2-12.9,59.6c-5.7,22.2-11.1,37.7-15.7,48.4c-2.6,6-5.4,11.2-8.2,15.3l-1,1.5
		c-4.6,6.2-7.9,7.1-9.5,7.1c-1.1,0-2.3-0.4-3.6-1.3C18.7,177.1,7.4,147.2,13.9,115.5z"/>
	<path id="XMLID_588_" class="st6" d="M92.8,133.6c4.6,0,6.7-3.3,6.7-3.3v0c1.4-2.1,3.5-4.1,6.2-4.1c2.9,0,5.3,2.2,6.5,4.5v0
		c0,0,0,0,0,0c0,0,0,0.1,0.1,0.1c0.3,0.6,1.8,2.7,5.9,2.7c4.4,0,4.5-3.6,4.5-4.1c-2-7.9-8.9-13.3-17.3-13.3
		c-8.3,0-15.3,5.4-17.2,13.2C88.2,130,88.6,133.6,92.8,133.6z"/>
	<path id="XMLID_587_" class="st6" d="M150.4,133.6c4.6,0,6.7-3.3,6.7-3.3v0c1.4-2.1,3.5-4.1,6.2-4.1c2.9,0,5.3,2.2,6.5,4.5v0
		c0,0,0,0,0,0c0,0,0,0.1,0.1,0.1c0.3,0.6,1.8,2.7,5.9,2.7c4.4,0,4.5-3.6,4.5-4.1c-2-7.9-8.9-13.3-17.3-13.3
		c-8.3,0-15.2,5.4-17.2,13.2C145.9,130,146.2,133.6,150.4,133.6z"/>
</g>
<g id="Layer_11_copy_15" class="st0">
	<text id="XMLID_726_" transform="matrix(1 0 0 1 277.667 155.2279)" class="st1"><tspan x="0" y="0" class="st3 st14">Programa de</tspan><tspan x="0" y="51.6" class="st3 st14">Voluntarios</tspan></text>
	<g id="XMLID_718_" class="st1">
		<path id="XMLID_720_" class="st2" d="M248.2,144.3c-3,0-5.7,0.7-8.1,1.8c-3.7-4.7-9.4-7.8-15.9-7.8c-3.3,0-6.4,0.9-9,2.2l-0.3,0.2
			l-8.2,4.9c-3.7-4.4-9.2-7.2-15.4-7.2c-3.3,0-6.4,0.9-9,2.2l-0.3,0.2l-31.5,19.3c-7.1-2.1-15-4.4-22.7-6.6c-8.1-2.3-15.8-4.4-22-6
			c-3.1-0.8-5.8-1.4-8.1-1.9c-1.1-0.2-2.1-0.4-3-0.5c-0.9-0.1-1.6-0.2-2.5-0.2c-0.6,0-1.2,0.1-1.8,0.1c-2.3,0.3-5.6,1-9.5,1.9
			c-8,1.9-18.1,4.6-23.7,6.1v-9.5c0-6.6-5.4-12-12-12H12c-6.6,0-12,5.4-12,12v92.9c0,6.6,5.4,12,12,12h33c6.6,0,12-5.4,12-12v-7.2
			c7.1,1.5,22.9,5,39.6,8.4c11.3,2.3,22.9,4.6,32.5,6.4c4.8,0.9,9.1,1.6,12.6,2.1c3.6,0.5,6.2,0.8,8.2,0.8c1.6,0,3.1-0.3,4.7-0.7
			c3-0.8,6.4-2.3,10.3-4.2c13.6-6.6,33-19,51.4-31.2c18.3-12.2,35.5-24.3,43.9-30.1c5.3-3.6,8.2-9.7,8.2-16.2
			C268.3,153.4,259.3,144.3,248.2,144.3z M48,236.5c0,1.6-1.4,3-3,3H12c-1.6,0-3-1.4-3-3v-92.9c0-1.6,1.4-3,3-3h33c1.6,0,3,1.4,3,3
			V236.5z M255,173.3c-10.3,7.1-33.4,23.4-55.8,38c-11.2,7.3-22.2,14.1-31.2,19c-4.5,2.5-8.5,4.5-11.7,5.8c-1.6,0.7-3,1.2-4.1,1.5
			c-1.1,0.3-1.9,0.4-2.2,0.4c-1,0-3.6-0.2-6.9-0.7c-11.8-1.7-33.9-6.1-53-10.1c-9.5-2-18.3-3.9-24.7-5.2c-3.7-0.8-6.6-1.4-8.4-1.8
			v-57.7c0.9-0.2,2-0.6,3.4-0.9c4.7-1.3,12-3.2,18.5-4.8c3.2-0.8,6.3-1.5,8.7-2c1.2-0.3,2.3-0.5,3.1-0.6c0.8-0.1,1.4-0.2,1.4-0.2
			c0,0,0.5,0,1.1,0.1c2.5,0.4,7.6,1.6,13.8,3.2c18.7,4.9,48.1,13.7,60,17.3c4.1,1.2,7.8,3.1,10.3,5.4c1.2,1.1,2.2,2.3,2.8,3.7
			c0.6,1.3,1,2.7,1,4.5c0,3.5-1.4,6.7-3.7,9c-2.3,2.3-5.4,3.7-8.9,3.7l-11.6-1.1l-39.6-5.1c-2.5-0.3-4.7,1.4-5,3.9
			c-0.3,2.5,1.4,4.7,3.9,5l39.7,5.1l12.3,1.2h0.2c12,0,21.7-9.7,21.7-21.7c0-3-0.7-5.9-1.8-8.3c-1.8-3.7-4.7-6.6-7.9-8.8
			c-3.3-2.2-6.9-3.8-10.7-4.9c-2.1-0.6-4.7-1.4-7.7-2.3l24.4-15c1.6-0.8,3.2-1.2,4.9-1.2c2.9,0,5.5,1.1,7.5,2.9l-12.1,7.1
			c-2.1,1.3-2.8,4-1.6,6.2c1.3,2.1,4,2.8,6.2,1.6l28-16.6c1.6-0.8,3.2-1.2,4.9-1.2c3.1,0,5.9,1.3,7.9,3.3L199.5,170
			c-2.1,1.3-2.8,4-1.6,6.2c1.3,2.1,4,2.8,6.2,1.6l35.2-20.9c0.3-0.1,0.7-0.1,1-0.3c0.7-0.3,1.3-0.8,1.8-1.4l1.1-0.7
			c1.6-0.8,3.2-1.2,4.9-1.2c3.1,0,5.9,1.2,7.9,3.3c2,2,3.3,4.8,3.3,7.9C259.3,168.3,257.6,171.5,255,173.3z"/>
	</g>
	<path id="XMLID_724_" class="st6" d="M158.1,125.9l-1.9-1.1c-1.1-0.7-28.2-16.8-43.6-41.2c-8.2-13-10.8-26.6-7.2-38.5
		c2.9-9.7,9.7-17.4,19.1-21.6c3.3-1.5,6.7-2.2,10-2.2c10.9,0,19.3,7.5,23.6,12.4c4.3-4.8,12.7-12.4,23.6-12.4c3.4,0,6.8,0.7,10,2.2
		c9.4,4.2,16.2,11.9,19.1,21.6c3.6,11.9,1,25.5-7.2,38.5c-15.4,24.4-42.5,40.5-43.6,41.2L158.1,125.9z M134.6,28.7
		c-2.3,0-4.7,0.5-7,1.6c-7.4,3.3-12.7,9.4-15,17c-2.9,9.8-0.7,21.3,6.4,32.4c12.2,19.3,33,33.5,39.3,37.6c6.3-4.1,27-18.3,39.3-37.6
		c7-11.1,9.3-22.6,6.4-32.4c-2.3-7.6-7.6-13.7-15-17c-2.3-1-4.7-1.6-7-1.6c-11.7,0-20.4,12.8-20.5,13l-3.1,4.6l-3.1-4.6
		C155,41.5,146.2,28.7,134.6,28.7z"/>
</g>
<g id="Layer_11_copy_16">
	<text id="XMLID_749_" transform="matrix(1 0 0 1 277.667 155.2279)"><tspan x="0" y="0" class="st3 st14">Programa de</tspan><tspan x="0" y="51.6" class="st3 st14">Voluntarios</tspan></text>
	<path id="XMLID_744_" class="st2" d="M246.9,46.5c-16-16-37.3-24.8-60-24.8c-18.3,0-35.6,5.8-50.1,16.5
		c-14.4-10.6-31.8-16.5-50-16.5c-22.7,0-43.9,8.8-60,24.8c-16,16-24.8,37.3-24.8,60c0,22.6,8.8,43.9,24.8,60l92.2,92.2
		c9.8,9.8,25.8,9.8,35.6,0l92.2-92.2c16-16,24.8-37.3,24.8-60C271.7,83.8,262.9,62.5,246.9,46.5z M40.2,59.9
		c12.4-12.4,29-19.3,46.6-19.3c12.8,0,25,3.7,35.5,10.5l-52.1,52.1c-7.5,7.5-6.9,18.4,1.3,26.7l0,0c1.2,1.2,2.6,2.4,4.1,3.4
		l-23.2,23.2c-1.5,1.5-2.7,3.2-3.8,5l-8.5-8.5C14.6,127.3,14.6,85.6,40.2,59.9z M233.5,153l-92.2,92.2c-2.4,2.4-6.4,2.4-8.8,0
		c-1.2-1.2-1.8-2.7-1.8-4.4c0-1.7,0.7-3.2,1.8-4.4l45.6-45.6c3.7-3.7,3.7-9.7,0-13.4c-3.7-3.7-9.7-3.7-13.4,0L119.1,223
		c-2.4,2.4-6.4,2.4-8.8,0l0,0c-1.2-1.2-1.8-2.7-1.8-4.4c0-1.6,0.6-3.2,1.8-4.4l45.6-45.6c3.7-3.7,3.7-9.7,0-13.4
		c-3.7-3.7-9.7-3.7-13.4,0l-45.6,45.6c-2.4,2.4-6.4,2.4-8.8,0c-2.4-2.4-2.4-6.4,0-8.8l45.6-45.6c3.7-3.7,3.7-9.7,0-13.4
		s-9.7-3.7-13.4,0l-45.6,45.6c-2.4,2.4-6.4,2.4-8.8,0c-2.4-2.4-2.4-6.4,0-8.8l30.4-30.4c8.2-0.2,16.7-3.3,23.8-10.4l18.2-18.3
		c8.2,6.4,16.7,10.4,25.1,11.5c12.1,1.6,23.5-2.5,32.8-11.8c3.7-3.7,3.7-9.7,0-13.4c-3.7-3.7-9.7-3.7-13.4,0
		c-5.2,5.2-10.7,7.3-16.9,6.4c-6.7-0.9-14-5.2-21.3-12.4c-1.8-1.8-4.2-2.8-6.7-2.8c-2.5,0-4.9,1-6.7,2.8l-24.6,24.6
		c-5.7,5.7-11.9,5.2-15.1,4.4c-3.8-1-6.3-2.9-7.3-4.2l55.9-55.9c12.4-12.4,29-19.3,46.5-19.3c17.6,0,34.1,6.8,46.6,19.3
		C259.2,85.6,259.2,127.3,233.5,153z"/>
</g>
<g id="Layer_11_copy_7" class="st0">
	<text id="XMLID_341_" transform="matrix(1 0 0 1 277.667 161.2279)" class="st1"><tspan x="0" y="0" class="st3 st14">Urgencias</tspan><tspan x="0" y="51.6" class="st3 st14">24 horas</tspan></text>
	<g id="XMLID_329_" transform="translate(-330 -260)" class="st1">
		<g id="XMLID_330_">
			<polygon id="XMLID_306_" class="st2" points="420.4,361.4 420.4,379.1 455.8,379.1 455.8,396.8 420.4,396.8 420.4,449.9 
				473.5,449.9 473.5,432.2 438.1,432.2 438.1,414.5 473.5,414.5 473.5,361.4 			"/>
			<polygon id="XMLID_305_" class="st2" points="535.5,396.8 535.5,361.4 517.8,361.4 517.8,396.8 508.9,396.8 508.9,361.4 
				491.2,361.4 491.2,414.5 508.9,414.5 517.8,414.5 517.8,449.9 535.5,449.9 535.5,414.5 553.2,414.5 553.2,396.8 			"/>
			<path id="XMLID_304_" class="st2" d="M587.8,359.6l-16.2,7.1c5.4,12.3,8.1,25.4,8.1,38.9c0,53.7-43.7,97.3-97.3,97.3
				S385,459.3,385,405.6s43.7-97.3,97.3-97.3V326l44.2-26.5l-44.2-26.5v17.7c-63.4,0-115,51.6-115,115s51.6,115,115,115
				c63.4,0,115-51.6,115-115C597.4,389.6,594.2,374.1,587.8,359.6z"/>
		</g>
	</g>
</g>
<g id="Layer_11_copy_11" class="st0">
	<text id="XMLID_503_" transform="matrix(1 0 0 1 277.667 161.2279)" class="st1"><tspan x="0" y="0" class="st3 st14">Citas por</tspan><tspan x="0" y="51.6" class="st3 st14">teléfono</tspan></text>
</g>
<g id="Layer_11_copy_8" class="st0">
	<text id="XMLID_361_" transform="matrix(1 0 0 1 274.667 182.2279)" class="st1 st3 st7">Incineración</text>
	<g id="XMLID_351_" class="st1">
		<path id="XMLID_352_" class="st2" d="M235.7,30.3H72.9c-2.2,0-4.1,1.8-4.1,4.1s1.8,4.1,4.1,4.1h4.2c12.4,21.6,12.1,35,11.6,58.8
			c-0.1,5.1-0.2,10.9-0.2,17.3c0,18.1,7.2,34.7,20.2,46.6c8.9,8.1,19.9,13.6,31.7,16.1c-0.1,4.9-0.2,9.2-0.3,12.4
			c-6.2,4.5-10,11.8-10,19.6c0,5.9,2.2,11.6,6,16c-4.6,20-11.6,22-19.8,24.2c-6,1.6-12.7,3.5-17.8,12c-0.7,1.3-0.8,2.8,0,4.1
			s2.1,2.1,3.5,2.1h104.5c1.5,0,2.8-0.8,3.5-2.1c0.7-1.3,0.7-2.8,0-4.1c-5.1-8.5-11.8-10.4-17.8-12c-8.1-2.2-15.2-4.2-19.8-24.2
			c3.8-4.4,6-10.1,6-16c0-7.8-3.8-15.1-10-19.6c-0.1-3.2-0.2-7.5-0.3-12.4c11.9-2.4,22.8-7.9,31.7-16.1c13-11.9,20.2-28.4,20.2-46.6
			c0-6.4-0.1-12.2-0.2-17.3c-0.5-23.8-0.8-37.2,11.6-58.8h4.2c2.2,0,4.1-1.8,4.1-4.1S238,30.3,235.7,30.3z M160.5,192
			c0.1,1.4,0.8,2.6,2,3.3c4.9,2.9,7.9,8.2,7.9,13.9c0,4.5-1.8,8.7-5.1,11.7c0,0,0,0,0,0c-3,2.8-6.9,4.3-11,4.3
			c-2.2,0-4.1,1.8-4.1,4.1s1.8,4.1,4.1,4.1c4,0,7.8-1,11.2-2.8c5.9,21.4,16.2,24.2,24.6,26.5c2.4,0.6,4.5,1.2,6.4,2.2h-84.5
			c1.9-0.9,4.1-1.5,6.4-2.2c9.1-2.5,20.4-5.6,26-32.5c0.3-1.4-0.2-2.8-1.2-3.8c-3.3-3.1-5.1-7.2-5.1-11.7c0-5.7,3-11,7.9-13.9
			c1.2-0.7,1.9-1.9,2-3.3c0.2-3.8,0.3-9.4,0.4-13.7c1.9,0.2,3.9,0.2,5.8,0.2s3.9-0.1,5.8-0.2C160.2,182.6,160.3,188.1,160.5,192z
			 M211.8,97.4c0.1,5.1,0.2,10.9,0.2,17.1c0,35-29.3,55.9-57.7,55.9s-57.7-20.9-57.7-55.9c0-6.3,0.1-12,0.2-17.1
			c0.5-23,0.8-37.6-10.5-59h135.8C211,59.8,211.3,74.4,211.8,97.4z"/>
	</g>
	<g id="XMLID_353_" class="st1">
		<g id="XMLID_68_">
			<path id="XMLID_355_" class="st2" d="M74.4,33.5c-2.5-3.7-5.1-9.6-2.3-13.8c3.1-4.6,10.5-4.8,15.4-5.2c14.7-1.2,29.6-1,44.3-1
				c31.7,0.1,63.4,0.9,95,2c1.7,0.1,3.4,0.2,5.1,0.2c0.4,0,0.8,0,1.2,0c0.8,0.1-1.2-0.3-0.4,0c1.3,0.5,5.1,2.6,6.6,4.6
				c3.6,4.9-2.4,9.6-6,12.4c-3.5,2.8,1.4,7.7,4.9,4.9c7.8-6,13.3-15.7,4.7-23.6c-2.8-2.6-6.6-5-10.5-5.4c-11.6-1-23.5-0.8-35.1-1.1
				c-20.2-0.5-40.3-1-60.5-1.1c-16.9-0.1-33.9-0.4-50.7,1.1C78.9,8.3,70,9.4,65.8,16.5C62,22.9,64.4,31.3,68.3,37
				C70.8,40.7,76.9,37.2,74.4,33.5L74.4,33.5z"/>
		</g>
	</g>
	<g id="XMLID_57_" class="st1">
		<g id="XMLID_377_">
			<path id="XMLID_378_" class="st15" d="M141.4,96.5c-6.6,0-12-7-12-15.6s5.4-15.6,12-15.6c6.6,0,12,7,12,15.6S148,96.5,141.4,96.5
				z M141.4,67.7c-5.2,0-9.5,5.9-9.5,13.2c0,7.3,4.3,13.2,9.5,13.2c5.2,0,9.5-5.9,9.5-13.2C150.9,73.6,146.7,67.7,141.4,67.7z"/>
		</g>
		<g id="XMLID_359_">
			<path id="XMLID_360_" class="st15" d="M172.5,143.7c-3.2,0-6-1.8-9-3.8c-1.8-1.2-3.6-2.4-5.6-3.3c-0.3-0.1-1.5-0.2-3.3-0.2
				c-1.6,0-2.4,0.1-2.6,0.2c-2,0.8-3.9,2-5.8,3.2c-3.2,2-5.9,3.7-9.1,3.7c-1.6,0-3.2-0.5-4.6-1.4c-3.4-2.2-5.3-5.9-5.5-10.5
				c-0.2-4.2,1.1-8.8,3.7-12.8c0.3-0.4,0.6-0.8,0.9-1.2c0.1-0.1,0.3-0.4,0.4-0.5c3.1-6.3,10.7-13,22.9-13l0.5,0
				c12.4,0.2,20.1,7.3,22.9,13.3c0.1,0.2,0.3,0.4,0.5,0.7c0.4,0.5,0.7,0.9,0.9,1.4c5.1,9,3.7,19.4-3.1,23.2
				C175.4,143.3,174,143.7,172.5,143.7z M154.7,134c1.8,0,3.5,0.1,4.1,0.3c2.3,1,4.2,2.3,6.1,3.5c2.7,1.8,5.2,3.4,7.6,3.4
				c1,0,2-0.3,2.9-0.8c5.6-3.2,6.6-12.1,2.2-19.9c-0.2-0.3-0.4-0.7-0.7-1.1c-0.3-0.4-0.6-0.8-0.7-1.1c-2.5-5.4-9.5-11.7-20.7-11.9
				l-0.4,0c-11.1,0-18,6-20.7,11.7c-0.2,0.3-0.4,0.6-0.7,1c-0.2,0.3-0.5,0.6-0.7,0.9c-2.3,3.6-3.5,7.6-3.3,11.4
				c0.2,3.8,1.7,6.9,4.4,8.6c1,0.7,2.1,1,3.2,1c2.5,0,5-1.5,7.8-3.3c2-1.2,4-2.5,6.3-3.4C151.9,134.1,153.2,134,154.7,134z"/>
		</g>
		<g id="XMLID_67_">
			<path id="XMLID_356_" class="st15" d="M168.5,96.5c-6.6,0-12-7-12-15.6s5.4-15.6,12-15.6c6.6,0,12,7,12,15.6
				S175.1,96.5,168.5,96.5z M168.5,67.7c-5.2,0-9.5,5.9-9.5,13.2c0,7.3,4.3,13.2,9.5,13.2c5.2,0,9.5-5.9,9.5-13.2
				C178,73.6,173.7,67.7,168.5,67.7z"/>
		</g>
		<g id="XMLID_62_">
			<path id="XMLID_64_" class="st15" d="M189.1,116.4c-6.2,0-11.1-6.3-11.1-14.3c0-8,4.9-14.3,11.1-14.3c6.2,0,11.1,6.3,11.1,14.3
				C200.2,110.1,195.3,116.4,189.1,116.4z M189.1,90.3c-4.8,0-8.6,5.2-8.6,11.8c0,6.6,3.8,11.8,8.6,11.8c4.8,0,8.6-5.2,8.6-11.8
				C197.7,95.5,193.9,90.3,189.1,90.3z"/>
		</g>
		<g id="XMLID_58_">
			<path id="XMLID_59_" class="st15" d="M122.4,116.4c-6.2,0-11.1-6.3-11.1-14.3c0-8,4.9-14.3,11.1-14.3c6.2,0,11.1,6.3,11.1,14.3
				C133.5,110.1,128.6,116.4,122.4,116.4z M122.4,90.3c-4.8,0-8.6,5.2-8.6,11.8c0,6.6,3.8,11.8,8.6,11.8c4.8,0,8.6-5.2,8.6-11.8
				C131,95.5,127.2,90.3,122.4,90.3z"/>
		</g>
	</g>
</g>
<g id="Layer_11_copy_9" class="st0">
	<text id="XMLID_412_" transform="matrix(1 0 0 1 277.667 182.2279)" class="st1 st3 st7">Tienda</text>
	<g id="XMLID_348_" class="st1">
		<g id="XMLID_396_">
			<path id="XMLID_397_" class="st15" d="M145.3,61c-2.3,0-4.2-2.4-4.2-5.4s1.9-5.4,4.2-5.4c2.3,0,4.2,2.4,4.2,5.4
				S147.6,61,145.3,61z M145.3,51c-1.8,0-3.3,2.1-3.3,4.6c0,2.5,1.5,4.6,3.3,4.6c1.8,0,3.3-2.1,3.3-4.6C148.7,53,147.2,51,145.3,51z
				"/>
		</g>
		<g id="XMLID_392_">
			<path id="XMLID_393_" class="st15" d="M157.2,79.4c-1.1,0-2.1-0.6-3.1-1.3c-0.6-0.4-1.2-0.8-1.9-1.1c-0.1,0-0.5-0.1-1.1-0.1
				c-0.6,0-0.8,0-0.9,0.1c-0.7,0.3-1.4,0.7-2,1.1c-1.1,0.7-2.1,1.3-3.2,1.3c-0.6,0-1.1-0.2-1.6-0.5c-1.2-0.7-1.9-2.1-1.9-3.7
				c-0.1-1.5,0.4-3.1,1.3-4.5c0.1-0.1,0.2-0.3,0.3-0.4c0-0.1,0.1-0.1,0.1-0.2c1.1-2.2,3.7-4.5,8-4.5l0.2,0c4.3,0.1,7,2.5,8,4.6
				c0,0.1,0.1,0.1,0.2,0.2c0.1,0.2,0.2,0.3,0.3,0.5c1.8,3.1,1.3,6.7-1.1,8.1C158.2,79.2,157.7,79.4,157.2,79.4z M151,76
				c0.6,0,1.2,0.1,1.4,0.1c0.8,0.4,1.5,0.8,2.1,1.2c0.9,0.6,1.8,1.2,2.7,1.2c0.4,0,0.7-0.1,1-0.3c2-1.1,2.3-4.2,0.8-6.9
				c-0.1-0.1-0.2-0.2-0.3-0.4c-0.1-0.1-0.2-0.3-0.3-0.4c-0.9-1.9-3.3-4.1-7.2-4.1l-0.2,0c-3.9,0-6.2,2.1-7.2,4.1
				c-0.1,0.1-0.1,0.2-0.2,0.3c-0.1,0.1-0.2,0.2-0.2,0.3c-0.8,1.3-1.2,2.7-1.2,4c0.1,1.3,0.6,2.4,1.5,3c0.4,0.2,0.7,0.3,1.1,0.3
				c0.9,0,1.7-0.5,2.7-1.1c0.7-0.4,1.4-0.9,2.2-1.2C150,76,150.4,76,151,76z"/>
		</g>
		<g id="XMLID_388_">
			<path id="XMLID_389_" class="st15" d="M156.8,61c-2.3,0-4.2-2.4-4.2-5.4s1.9-5.4,4.2-5.4c2.3,0,4.2,2.4,4.2,5.4S159,61,156.8,61z
				 M156.8,51c-1.8,0-3.3,2.1-3.3,4.6c0,2.5,1.5,4.6,3.3,4.6c1.8,0,3.3-2.1,3.3-4.6C160.1,53,158.6,51,156.8,51z"/>
		</g>
		<g id="XMLID_384_">
			<path id="XMLID_385_" class="st15" d="M163.9,68.9c-2.2,0-3.9-2.2-3.9-5c0-2.8,1.7-5,3.9-5c2.2,0,3.9,2.2,3.9,5
				C167.8,66.7,166.1,68.9,163.9,68.9z M163.9,59.8c-1.7,0-3,1.8-3,4.1c0,2.3,1.3,4.1,3,4.1s3-1.8,3-4.1
				C166.9,61.6,165.6,59.8,163.9,59.8z"/>
		</g>
		<g id="XMLID_349_">
			<path id="XMLID_381_" class="st15" d="M137.7,68.9c-2.2,0-3.9-2.2-3.9-5c0-2.8,1.7-5,3.9-5c2.2,0,3.9,2.2,3.9,5
				C141.6,66.7,139.9,68.9,137.7,68.9z M137.7,59.8c-1.7,0-3,1.8-3,4.1c0,2.3,1.3,4.1,3,4.1c1.7,0,3-1.8,3-4.1
				C140.7,61.6,139.4,59.8,137.7,59.8z"/>
		</g>
	</g>
	<g id="XMLID_422_" class="st1">
		<defs>
			<polygon id="XMLID_419_" points="270.4,273.2 23.3,273.2 24.8,91.9 271.9,91.9 			"/>
		</defs>
		<clipPath id="XMLID_745_">
			<use xlink:href="#XMLID_419_"  style="overflow:visible;"/>
		</clipPath>
		<g id="XMLID_420_" class="st16">
			<path id="XMLID_418_" class="st2" d="M152.9,57.3c2.7,0,4.9-2.2,4.9-4.9c0-2.7-2.2-4.9-4.9-4.9c-2.7,0-4.9,2.2-4.9,4.9
				S150.2,57.3,152.9,57.3z"/>
			<path id="XMLID_417_" class="st2" d="M142.5,61.6c1.9-1.9,1.9-5,0-6.9c-1.9-1.9-5-1.9-6.9,0c-1.9,1.9-1.9,5,0,6.9
				C137.5,63.5,140.6,63.5,142.5,61.6z"/>
			<path id="XMLID_416_" class="st2" d="M170.2,61.6c1.9-1.9,1.9-5,0-6.9c-1.9-1.9-5-1.9-6.9,0c-1.9,1.9-1.9,5,0,6.9
				C165.2,63.5,168.3,63.5,170.2,61.6z"/>
			<path id="XMLID_415_" class="st2" d="M143.1,228.7c2.7,0,4.9-2.2,4.9-4.9c0-2.7-2.2-4.9-4.9-4.9s-4.9,2.2-4.9,4.9
				C138.2,226.5,140.4,228.7,143.1,228.7z"/>
			<path id="XMLID_429_" class="st2" d="M268,168c1.5-0.9,2.4-2.5,2.4-4.2v-18.2c0,0,0-0.1,0-0.1c0-0.9-0.2-1.7-0.6-2.4l-14.1-28.1
				V96.5c0-2.7-2.2-4.9-4.9-4.9h-74c6.4-6.2,10.3-14.9,10.3-24.5c0-18.9-15.4-34.3-34.3-34.3s-34.3,15.4-34.3,34.3
				c0,9.6,4,18.3,10.3,24.5h-74c-2.7,0-4.9,2.2-4.9,4.9v18.4l-14.2,28.4c0,0.1-0.1,0.1-0.1,0.2c0,0,0,0.1-0.1,0.1
				c0,0.1-0.1,0.2-0.1,0.3c0,0,0,0.1,0,0.1c0,0.1-0.1,0.3-0.1,0.4c0,0,0,0.1,0,0.1c0,0.1,0,0.2-0.1,0.4c0,0,0,0.1,0,0.1
				c0,0.1,0,0.3,0,0.4c0,0,0,0,0,0v18.3c0,1.7,0.9,3.4,2.4,4.2c0.8,0.5,1.6,0.8,2.5,1.1v89c-2.7,0-4.9,2.2-4.9,4.9
				c0,2.7,2.2,4.9,4.9,4.9h4.9h88.2h39.2h88.2h4.9c2.7,0,4.9-2.2,4.9-4.9c0-2.7-2.2-4.9-4.9-4.9v-89
				C266.4,168.8,267.2,168.5,268,168z M250.8,150.4c-2.7,0-4.9,2.2-4.9,4.9c0,2.7-2.2,4.9-4.9,4.9c-2.7,0-4.9-2.2-4.9-4.9
				c0-2.7-2.2-4.9-4.9-4.9c-2.7,0-4.9,2.2-4.9,4.9c0,2.7-2.2,4.9-4.9,4.9s-4.9-2.2-4.9-4.9c0-2.7-2.2-4.9-4.9-4.9
				c-2.7,0-4.9,2.2-4.9,4.9c0,2.7-2.2,4.9-4.9,4.9c-2.7,0-4.9-2.2-4.9-4.9c0-2.7-2.2-4.9-4.9-4.9s-4.9,2.2-4.9,4.9
				c0,2.7-2.2,4.9-4.9,4.9c-2.7,0-4.9-2.2-4.9-4.9c0-2.7-2.2-4.9-4.9-4.9s-4.9,2.2-4.9,4.9c0,2.7-2.2,4.9-4.9,4.9
				c-2.7,0-4.9-2.2-4.9-4.9c0-2.7-2.2-4.9-4.9-4.9c-2.7,0-4.9,2.2-4.9,4.9c0,2.7-2.2,4.9-4.9,4.9c-2.7,0-4.9-2.2-4.9-4.9
				c0-2.7-2.2-4.9-4.9-4.9s-4.9,2.2-4.9,4.9c0,2.7-2.2,4.9-4.9,4.9c-2.7,0-4.9-2.2-4.9-4.9c0-2.7-2.2-4.9-4.9-4.9s-4.9,2.2-4.9,4.9
				c0,2.7-2.2,4.9-4.9,4.9c-2.7,0-4.9-2.2-4.9-4.9c0-2.7-2.2-4.9-4.9-4.9c-2.7,0-4.9,2.2-4.9,4.9c0,2.7-2.2,4.9-4.9,4.9
				c-2.7,0-4.9-2.2-4.9-4.9c0-2.7-2.2-4.9-4.9-4.9s-4.9,2.2-4.9,4.9c0,2.7-2.2,4.9-4.9,4.9c-2.7,0-4.9-2.2-4.9-4.9
				c0-2.7-2.2-4.9-4.9-4.9s-4.9,2.2-4.9,4.9c0,2.7-2.2,4.9-4.9,4.9v-9.8h9.8h19.6h19.6h19.6h19.6h19.6h19.6h19.6h19.6h19.6H250.8
				h9.8v9.8c-2.7,0-4.9-2.2-4.9-4.9C255.7,152.6,253.5,150.4,250.8,150.4z M128.4,67.1c0-13.5,11-24.5,24.5-24.5
				c13.5,0,24.5,11,24.5,24.5c0,13.3-10.6,24.1-23.7,24.5c7.7-0.4,13.9-6.8,13.9-14.7c0-8.1-6.6-14.7-14.7-14.7
				c-8.1,0-14.7,6.6-14.7,14.7c0,7.8,6.2,14.3,13.9,14.7C139,91.2,128.4,80.4,128.4,67.1z M152.9,81.8c-2.7,0-4.9-2.2-4.9-4.9
				c0-2.7,2.2-4.9,4.9-4.9c2.7,0,4.9,2.2,4.9,4.9C157.8,79.6,155.6,81.8,152.9,81.8z M59.8,101.4h186.1v9.8H59.8V101.4z M58,121
				h189.8l9.8,19.6H48.2L58,121z M138.2,258.1v-34.3v-34.3h29.4v68.6L138.2,258.1L138.2,258.1z M177.4,258.1v-73.5
				c0-2.7-2.2-4.9-4.9-4.9h-39.2c-2.7,0-4.9,2.2-4.9,4.9v73.5H50v-89c1.8-0.6,3.5-1.6,4.9-2.9c2.6,2.3,6,3.7,9.8,3.7
				c3.8,0,7.2-1.4,9.8-3.7c2.6,2.3,6,3.7,9.8,3.7s7.2-1.4,9.8-3.7c2.6,2.3,6,3.7,9.8,3.7s7.2-1.4,9.8-3.7c2.6,2.3,6,3.7,9.8,3.7
				s7.2-1.4,9.8-3.7c2.6,2.3,6,3.7,9.8,3.7s7.2-1.4,9.8-3.7c2.6,2.3,6,3.7,9.8,3.7c3.8,0,7.2-1.4,9.8-3.7c2.6,2.3,6,3.7,9.8,3.7
				c3.8,0,7.2-1.4,9.8-3.7c2.6,2.3,6,3.7,9.8,3.7s7.2-1.4,9.8-3.7c2.6,2.3,6,3.7,9.8,3.7c3.8,0,7.2-1.4,9.8-3.7
				c2.6,2.3,6,3.7,9.8,3.7s7.2-1.4,9.8-3.7c1.4,1.3,3.1,2.3,4.9,2.9v89H177.4z"/>
			<path id="XMLID_425_" class="st2" d="M89.2,179.8c-13.5,0-24.5,11-24.5,24.5v39.2c0,2.7,2.2,4.9,4.9,4.9h39.2
				c2.7,0,4.9-2.2,4.9-4.9v-39.2C113.7,190.7,102.7,179.8,89.2,179.8z M89.2,189.6c6.4,0,11.8,4.1,13.8,9.8H75.4
				C77.4,193.7,82.8,189.6,89.2,189.6z M74.5,238.5v-29.4h29.4v29.4H74.5z"/>
			<path id="XMLID_421_" class="st2" d="M216.6,179.8c-13.5,0-24.5,11-24.5,24.5v39.2c0,2.7,2.2,4.9,4.9,4.9h39.2
				c2.7,0,4.9-2.2,4.9-4.9v-39.2C241,190.7,230.1,179.8,216.6,179.8z M216.6,189.6c6.4,0,11.8,4.1,13.9,9.8h-27.7
				C204.7,193.7,210.2,189.6,216.6,189.6z M201.9,238.5v-29.4h29.4v29.4H201.9z"/>
		</g>
	</g>
	<g id="XMLID_423_" class="st1">
		<g id="XMLID_437_">
			<path id="XMLID_441_" class="st2" d="M176.2,63.1c-0.3,13.5-11,24.8-24.8,24.8c-13.5,0-24.8-11.3-24.8-24.8
				c0-13.5,11.3-24.9,24.8-24.8C165.1,38.3,175.8,49.5,176.2,63.1c0.1,5.1,8.1,5.2,8,0c-0.3-13.6-8.4-25.8-21.2-30.7
				c-13-5-28.2-0.9-37.1,9.9c-8.6,10.5-9.8,25.8-2.9,37.5c7,11.7,20.7,17.9,34.1,15.5c15.7-2.7,26.6-16.7,27-32.3
				C184.3,57.9,176.3,57.9,176.2,63.1z"/>
		</g>
	</g>
</g>
<g id="Layer_11_copy_10" class="st0">
	<text id="XMLID_497_" transform="matrix(1 0 0 1 277.667 182.2279)" class="st1 st3 st7">Tienda</text>
	<g id="XMLID_476_" class="st1">
		<g id="XMLID_493_">
			<path id="XMLID_494_" class="st15" d="M126.8,34.3c-2.6,0-4.6-2.7-4.6-6.1s2.1-6.1,4.6-6.1c2.6,0,4.6,2.7,4.6,6.1
				S129.3,34.3,126.8,34.3z M126.8,23.1c-2,0-3.7,2.3-3.7,5.1c0,2.8,1.7,5.1,3.7,5.1c2,0,3.7-2.3,3.7-5.1
				C130.4,25.4,128.8,23.1,126.8,23.1z"/>
		</g>
		<g id="XMLID_489_">
			<path id="XMLID_490_" class="st15" d="M139.9,54.8c-1.3,0-2.3-0.7-3.5-1.5c-0.7-0.5-1.4-0.9-2.2-1.3c-0.1,0-0.6-0.1-1.3-0.1
				c-0.6,0-0.9,0-1,0.1c-0.8,0.3-1.5,0.8-2.2,1.2c-1.2,0.8-2.3,1.4-3.5,1.4c-0.6,0-1.2-0.2-1.8-0.5c-1.3-0.8-2.1-2.3-2.1-4.1
				c-0.1-1.6,0.4-3.4,1.4-5c0.1-0.2,0.2-0.3,0.3-0.4c0-0.1,0.1-0.2,0.2-0.2c1.2-2.4,4.1-5.1,8.9-5.1l0.2,0c4.8,0.1,7.8,2.8,8.9,5.2
				c0,0.1,0.1,0.2,0.2,0.3c0.1,0.2,0.3,0.3,0.4,0.5c2,3.5,1.4,7.5-1.2,9C141,54.6,140.5,54.8,139.9,54.8z M133,51
				c0.7,0,1.4,0.1,1.6,0.1c0.9,0.4,1.6,0.9,2.4,1.4c1,0.7,2,1.3,3,1.3c0.4,0,0.8-0.1,1.1-0.3c2.2-1.2,2.6-4.7,0.8-7.7
				c-0.1-0.1-0.2-0.3-0.3-0.4c-0.1-0.2-0.2-0.3-0.3-0.4c-1-2.1-3.7-4.5-8-4.6l-0.2,0c-4.3,0-7,2.3-8,4.5c-0.1,0.1-0.2,0.2-0.3,0.4
				c-0.1,0.1-0.2,0.2-0.3,0.4c-0.9,1.4-1.4,3-1.3,4.4c0.1,1.5,0.7,2.7,1.7,3.3c0.4,0.3,0.8,0.4,1.3,0.4c1,0,1.9-0.6,3-1.3
				c0.8-0.5,1.5-1,2.4-1.3C131.9,51.1,132.4,51,133,51z"/>
		</g>
		<g id="XMLID_485_">
			<path id="XMLID_486_" class="st15" d="M139.5,34.3c-2.6,0-4.6-2.7-4.6-6.1s2.1-6.1,4.6-6.1c2.6,0,4.6,2.7,4.6,6.1
				S142,34.3,139.5,34.3z M139.5,23.1c-2,0-3.7,2.3-3.7,5.1c0,2.8,1.7,5.1,3.7,5.1c2,0,3.7-2.3,3.7-5.1
				C143.2,25.4,141.5,23.1,139.5,23.1z"/>
		</g>
		<g id="XMLID_481_">
			<path id="XMLID_482_" class="st15" d="M147.5,43.1c-2.4,0-4.3-2.4-4.3-5.5c0-3.1,1.9-5.5,4.3-5.5c2.4,0,4.3,2.4,4.3,5.5
				C151.8,40.7,149.9,43.1,147.5,43.1z M147.5,33c-1.9,0-3.3,2-3.3,4.6c0,2.6,1.5,4.6,3.3,4.6c1.9,0,3.3-2,3.3-4.6
				C150.8,35,149.3,33,147.5,33z"/>
		</g>
		<g id="XMLID_477_">
			<path id="XMLID_478_" class="st15" d="M118.3,43.1c-2.4,0-4.3-2.4-4.3-5.5c0-3.1,1.9-5.5,4.3-5.5c2.4,0,4.3,2.4,4.3,5.5
				C122.6,40.7,120.7,43.1,118.3,43.1z M118.3,33c-1.9,0-3.3,2-3.3,4.6c0,2.6,1.5,4.6,3.3,4.6c1.9,0,3.3-2,3.3-4.6
				C121.6,35,120.1,33,118.3,33z"/>
		</g>
	</g>
	<g id="XMLID_452_" class="st1">
		<defs>
			<polygon id="XMLID_453_" points="266.3,271 -9.3,271 -7.7,68.7 267.9,68.7 			"/>
		</defs>
		<clipPath id="XMLID_746_">
			<use xlink:href="#XMLID_453_"  style="overflow:visible;"/>
		</clipPath>
		<g id="XMLID_454_" class="st17">
			<path id="XMLID_475_" class="st2" d="M135.2,30.2c3,0,5.5-2.4,5.5-5.5s-2.4-5.5-5.5-5.5s-5.5,2.4-5.5,5.5S132.2,30.2,135.2,30.2z
				"/>
			<path id="XMLID_474_" class="st2" d="M123.6,35c2.1-2.1,2.1-5.6,0-7.7c-2.1-2.1-5.6-2.1-7.7,0c-2.1,2.1-2.1,5.6,0,7.7
				C118,37.1,121.4,37.1,123.6,35z"/>
			<path id="XMLID_473_" class="st2" d="M154.5,35c2.1-2.1,2.1-5.6,0-7.7c-2.1-2.1-5.6-2.1-7.7,0c-2.1,2.1-2.1,5.6,0,7.7
				C148.9,37.1,152.3,37.1,154.5,35z"/>
			<path id="XMLID_472_" class="st2" d="M124.2,221.4c3,0,5.5-2.4,5.5-5.5c0-3-2.4-5.5-5.5-5.5s-5.5,2.4-5.5,5.5
				C118.8,218.9,121.2,221.4,124.2,221.4z"/>
			<path id="XMLID_463_" class="st2" d="M263.5,153.6c1.7-1,2.7-2.8,2.7-4.7v-20.2c0,0,0-0.1,0-0.1c0-1-0.3-1.9-0.7-2.7l-15.7-31.4
				V73.9c0-3-2.4-5.5-5.5-5.5h-82.5c7.1-6.9,11.5-16.6,11.5-27.3c0-21.1-17.1-38.2-38.2-38.2S96.9,20,96.9,41.1
				c0,10.7,4.4,20.4,11.5,27.3H25.9c-3,0-5.5,2.4-5.5,5.5v20.6L4.6,126.1c0,0.1-0.1,0.2-0.1,0.2c0,0,0,0.1-0.1,0.1
				c0,0.1-0.1,0.2-0.1,0.4c0,0.1,0,0.1,0,0.2c0,0.1-0.1,0.3-0.1,0.4c0,0,0,0.1,0,0.1c0,0.1,0,0.3-0.1,0.4c0,0,0,0.1,0,0.1
				c0,0.2,0,0.3,0,0.5c0,0,0,0,0,0v20.4c0,1.9,1,3.8,2.7,4.7c0.9,0.5,1.8,0.9,2.7,1.2v99.3c-3,0-5.5,2.4-5.5,5.5
				c0,3,2.4,5.5,5.5,5.5H15h98.3H157h98.3h5.5c3,0,5.5-2.4,5.5-5.5c0-3-2.4-5.5-5.5-5.5v-99.3C261.7,154.5,262.7,154.1,263.5,153.6z
				 M244.4,134c-3,0-5.5,2.4-5.5,5.5c0,3-2.4,5.5-5.5,5.5c-3,0-5.5-2.5-5.5-5.5c0-3-2.4-5.5-5.5-5.5c-3,0-5.5,2.4-5.5,5.5
				c0,3-2.5,5.5-5.5,5.5c-3,0-5.5-2.5-5.5-5.5c0-3-2.4-5.5-5.5-5.5c-3,0-5.5,2.4-5.5,5.5c0,3-2.4,5.5-5.5,5.5c-3,0-5.5-2.5-5.5-5.5
				c0-3-2.4-5.5-5.5-5.5c-3,0-5.5,2.4-5.5,5.5c0,3-2.4,5.5-5.5,5.5c-3,0-5.5-2.5-5.5-5.5c0-3-2.4-5.5-5.5-5.5c-3,0-5.5,2.4-5.5,5.5
				c0,3-2.5,5.5-5.5,5.5c-3,0-5.5-2.5-5.5-5.5c0-3-2.4-5.5-5.5-5.5c-3,0-5.5,2.4-5.5,5.5c0,3-2.4,5.5-5.5,5.5c-3,0-5.5-2.5-5.5-5.5
				c0-3-2.4-5.5-5.5-5.5c-3,0-5.5,2.4-5.5,5.5c0,3-2.4,5.5-5.5,5.5c-3,0-5.5-2.5-5.5-5.5c0-3-2.4-5.5-5.5-5.5s-5.5,2.4-5.5,5.5
				c0,3-2.5,5.5-5.5,5.5c-3,0-5.5-2.5-5.5-5.5c0-3-2.4-5.5-5.5-5.5s-5.5,2.4-5.5,5.5c0,3-2.4,5.5-5.5,5.5c-3,0-5.5-2.5-5.5-5.5
				c0-3-2.4-5.5-5.5-5.5c-3,0-5.5,2.4-5.5,5.5c0,3-2.4,5.5-5.5,5.5c-3,0-5.5-2.5-5.5-5.5c0-3-2.4-5.5-5.5-5.5s-5.5,2.4-5.5,5.5
				c0,3-2.5,5.5-5.5,5.5V134h10.9h21.9h21.9h21.8h21.9h21.8H157h21.9h21.9h21.8H244.4h10.9v10.9c-3,0-5.5-2.5-5.5-5.5
				C249.9,136.4,247.4,134,244.4,134z M107.9,41.1c0-15.1,12.3-27.3,27.3-27.3c15.1,0,27.3,12.3,27.3,27.3
				c0,14.8-11.8,26.8-26.5,27.3c8.6-0.4,15.5-7.6,15.5-16.4c0-9-7.4-16.4-16.4-16.4c-9,0-16.4,7.3-16.4,16.4
				c0,8.8,6.9,15.9,15.5,16.4C119.7,68,107.9,55.9,107.9,41.1z M135.2,57.5c-3,0-5.5-2.4-5.5-5.5s2.4-5.5,5.5-5.5
				c3,0,5.5,2.4,5.5,5.5C140.6,55.1,138.2,57.5,135.2,57.5z M31.4,79.4h207.6v10.9H31.4V79.4z M29.3,101.2H241L252,123H18.4
				L29.3,101.2z M118.8,254.1v-38.2v-38.2h32.8v76.5L118.8,254.1L118.8,254.1z M162.5,254.1v-81.9c0-3-2.4-5.5-5.5-5.5h-43.7
				c-3,0-5.5,2.4-5.5,5.5v81.9H20.5v-99.3c2-0.7,3.9-1.8,5.5-3.2c2.9,2.6,6.7,4.2,10.9,4.2s8-1.6,10.9-4.2c2.9,2.6,6.7,4.2,10.9,4.2
				s8-1.6,10.9-4.2c2.9,2.6,6.7,4.2,10.9,4.2c4.2,0,8-1.6,10.9-4.2c2.9,2.6,6.7,4.2,10.9,4.2c4.2,0,8-1.6,10.9-4.2
				c2.9,2.6,6.7,4.2,10.9,4.2c4.2,0,8-1.6,10.9-4.2c2.9,2.6,6.7,4.2,10.9,4.2s8-1.6,10.9-4.2c2.9,2.6,6.7,4.2,10.9,4.2
				s8-1.6,10.9-4.2c2.9,2.6,6.7,4.2,10.9,4.2c4.2,0,8-1.6,10.9-4.2c2.9,2.6,6.7,4.2,10.9,4.2s8-1.6,10.9-4.2
				c2.9,2.6,6.7,4.2,10.9,4.2s8-1.6,10.9-4.2c1.6,1.4,3.4,2.5,5.5,3.2v99.3H162.5z"/>
			<path id="XMLID_459_" class="st2" d="M64.2,166.7c-15.1,0-27.3,12.3-27.3,27.3v43.7c0,3,2.4,5.5,5.5,5.5H86c3,0,5.5-2.4,5.5-5.5
				v-43.7C91.5,179,79.2,166.7,64.2,166.7z M64.2,177.7c7.1,0,13.2,4.6,15.4,10.9H48.7C51,182.2,57,177.7,64.2,177.7z M47.8,232.3
				v-32.8h32.8v32.8H47.8z"/>
			<path id="XMLID_455_" class="st2" d="M206.2,166.7c-15.1,0-27.3,12.3-27.3,27.3v43.7c0,3,2.4,5.5,5.5,5.5H228
				c3,0,5.5-2.4,5.5-5.5v-43.7C233.5,179,221.2,166.7,206.2,166.7z M206.2,177.7c7.1,0,13.2,4.6,15.5,10.9h-30.9
				C193,182.2,199.1,177.7,206.2,177.7z M189.8,232.3v-32.8h32.8v32.8H189.8z"/>
		</g>
	</g>
	<g id="XMLID_445_" class="st1">
		<g id="XMLID_214_">
			<path id="XMLID_448_" class="st2" d="M161.6,36.6c-0.3,15.4-12.6,28.2-28.2,28.2c-15.4,0-28.2-12.8-28.2-28.2
				s12.8-28.2,28.2-28.2C149,8.4,161.3,21.2,161.6,36.6c0.1,5.1,8.1,5.2,8,0c-0.3-15.2-9.5-28.7-23.8-34c-14.3-5.3-31-0.6-40.5,11.3
				c-9.4,11.7-10.6,28.4-2.8,41.3c7.7,12.8,22.8,19.5,37.5,16.9c17.2-3.1,29.2-18.4,29.6-35.6C169.7,31.4,161.7,31.4,161.6,36.6z"/>
		</g>
	</g>
</g>
<g id="Layer_5">
</g>
</svg>
