<?xml version="1.0" encoding="utf-8"?>
<!-- Generator: Adobe Illustrator 19.0.0, SVG Export Plug-In . SVG Version: 6.00 Build 0)  -->
<svg version="1.1" xmlns="http://www.w3.org/2000/svg" xmlns:xlink="http://www.w3.org/1999/xlink" x="0px" y="0px"
	 viewBox="0 0 461.3 271" style="enable-background:new 0 0 461.3 271;" xml:space="preserve">
<style type="text/css">
	.st0{display:none;}
	.st1{display:inline;}
	.st2{fill:#010101;}
	.st3{font-family:'Roboto-Medium';}
	.st4{font-size:48.8054px;}
	.st5{font-size:40px;}
	.st6{display:inline;fill:#010101;}
	.st7{font-size:48px;}
	.st8{fill:#040404;}
	.st9{font-size:42px;}
	.st10{font-family:'Haettenschweiler';}
	.st11{font-size:45px;}
	.st12{display:inline;fill:none;stroke:#010101;stroke-width:9;stroke-miterlimit:10;}
	.st13{font-size:49px;}
	.st14{font-size:43px;}
	.st15{fill:#040404;stroke:#040404;stroke-width:3;stroke-miterlimit:10;}
	.st16{clip-path:url(#XMLID_550_);}
	.st17{clip-path:url(#XMLID_551_);}
</style>
<g id="Layer_1" class="st0">
	<g id="XMLID_2_" class="st1">
		<path id="XMLID_27_" class="st2" d="M199.2,212.2c-16.4,0-29.7,12.4-29.7,27.6c0,7.2,4.3,11.5,11.4,11.5c3.3,0,6.9-0.8,10.3-1.6
			c2.9-0.7,5.9-1.4,7.9-1.4c1.8,0,4.6,0.7,7.4,1.3c3.6,0.8,7.3,1.7,10.7,1.7c7.3,0,11.6-4.3,11.6-11.5
			C228.9,224.6,215.6,212.2,199.2,212.2z M219.1,241.6c0,0-0.4,0.3-1.8,0.3c-2.3,0-5.5-0.7-8.5-1.5c-3.4-0.8-6.6-1.5-9.5-1.5
			c-3.1,0-6.7,0.8-10,1.6c-3,0.7-6,1.4-8.2,1.4c-1.2,0-1.6-0.2-1.6-0.2c0,0-0.3-0.5-0.3-1.8c0-10,9.1-18.1,20.2-18.1
			c11.1,0,20.2,8.1,20.2,18.1C219.4,241,219.2,241.5,219.1,241.6z"/>
		<path id="XMLID_24_" class="st2" d="M184.5,203.2c0-8.3-5.8-15.1-12.9-15.1c-7.1,0-12.9,6.8-12.9,15.1c0,8.3,5.8,15.1,12.9,15.1
			C178.7,218.3,184.5,211.5,184.5,203.2z M168.1,203.2c0-3.2,1.8-5.7,3.4-5.7c1.6,0,3.4,2.4,3.4,5.7s-1.8,5.7-3.4,5.7
			C170,208.8,168.1,206.4,168.1,203.2z"/>
		<path id="XMLID_21_" class="st2" d="M200.1,209c7.1,0,12.9-6.8,12.9-15.1s-5.8-15.1-12.9-15.1c-7.1,0-12.9,6.8-12.9,15.1
			C187.2,202.2,193,209,200.1,209z M200.1,188.2c1.6,0,3.4,2.4,3.4,5.7c0,3.2-1.8,5.7-3.4,5.7c-1.6,0-3.4-2.4-3.4-5.7
			C196.7,190.6,198.5,188.2,200.1,188.2z"/>
		<path id="XMLID_18_" class="st2" d="M228.6,188.1c-7.1,0-12.9,6.8-12.9,15.1c0,8.3,5.8,15.1,12.9,15.1s12.9-6.8,12.9-15.1
			C241.5,194.9,235.7,188.1,228.6,188.1z M228.6,208.8c-1.6,0-3.4-2.4-3.4-5.7s1.8-5.7,3.4-5.7c1.6,0,3.4,2.4,3.4,5.7
			C232,206.4,230.2,208.8,228.6,208.8z"/>
		<path id="XMLID_12_" class="st2" d="M240,73.6h-5V59.9c0-6.3-5.1-11.4-11.4-11.4h-18.7V35.1h7.8c6.3,0,11.4-5.1,11.4-11.4V11.4
			c0-6.3-5.1-11.4-11.4-11.4h-46.8l-1,0c-6.7,0-16.8,0-25.3,6.3c-9.7,7.2-14.4,20.2-14.4,39.9c0,2.6,2.1,4.7,4.7,4.7h16.5
			c2.6,0,4.7-2.1,4.7-4.7c0-4.7,1.6-7.7,5.1-9.5c3.1-1.6,6.4-1.6,6.6-1.6c0,0,0.1,0,0.1,0h32.5v13.4h-18.7
			c-6.3,0-11.4,5.1-11.4,11.4v13.7h-5c-18.9,0-34.3,15.4-34.3,34.3v158.4c0,2.6,2.1,4.7,4.7,4.7h138.8c2.6,0,4.7-2.1,4.7-4.7V107.9
			C274.2,89,258.9,73.6,240,73.6z M162.7,25.6c-6.6,0-18.3,3.4-20.8,15.8h-7.4c1.5-32,18-32,30.2-32l47.9,0c1.1,0,2,0.9,2,2v12.3
			c0,1.1-0.9,2-2,2L162.7,25.6L162.7,25.6z M174.7,59.9c0-1.1,0.9-2,2-2h46.8c1.1,0,2,0.9,2,2v13.7h-50.7V59.9z M160.2,83.1H240
			c13.7,0,24.8,11.1,24.8,24.8v13c-9.7-0.7-34.5-0.2-56.1,18.6c-13.1,11.4-28.3,16.8-42.9,15.1c-12.2-1.4-23-7.8-30.4-18.1v-28.5
			C135.4,94.2,146.5,83.1,160.2,83.1z M135.4,261.5V150.6c8.2,7.4,18.3,12.1,29.3,13.4c2.1,0.2,4.2,0.4,6.4,0.4
			c15.2,0,30.5-6.2,43.8-17.7c19.4-16.9,42.3-16.8,49.9-16.2v131.1H135.4L135.4,261.5z"/>
		<path id="XMLID_9_" class="st2" d="M82.7,90.9c9.1,0,16.4-7.4,16.4-16.4S91.8,58,82.7,58s-16.4,7.4-16.4,16.4S73.6,90.9,82.7,90.9
			z M82.7,67.5c3.8,0,7,3.1,7,7c0,3.8-3.1,7-7,7s-7-3.1-7-7C75.7,70.6,78.9,67.5,82.7,67.5z"/>
		<path id="XMLID_6_" class="st2" d="M86.9,133.5c-15.5,0-28.2,12.6-28.2,28.2s12.6,28.2,28.2,28.2s28.2-12.6,28.2-28.2
			S102.4,133.5,86.9,133.5z M86.9,180.4c-10.3,0-18.7-8.4-18.7-18.7c0-10.3,8.4-18.7,18.7-18.7s18.7,8.4,18.7,18.7
			S97.2,180.4,86.9,180.4z"/>
		<path id="XMLID_3_" class="st2" d="M63.8,216.6c-8.8,0-15.9,7.1-15.9,15.9s7.1,15.9,15.9,15.9s15.9-7.1,15.9-15.9
			S72.5,216.6,63.8,216.6z M63.8,238.9c-3.5,0-6.4-2.9-6.4-6.4s2.9-6.4,6.4-6.4s6.4,2.9,6.4,6.4S67.3,238.9,63.8,238.9z"/>
	</g>
	<text id="XMLID_1_" transform="matrix(1 0 0 1 283.6668 154.8197)" class="st1"><tspan x="0" y="0" class="st3 st4">Estética y</tspan><tspan x="0" y="58.6" class="st3 st4">Peluquería</tspan></text>
</g>
<g id="Layer_1_copy" class="st0">
	<text id="XMLID_517_" transform="matrix(1 0 0 1 283.6668 154.8197)" class="st1"><tspan x="0" y="0" class="st3 st4">Citas por</tspan><tspan x="0" y="58.6" class="st3 st4">teléfono</tspan></text>
	<g id="XMLID_243_" class="st1">
		<g id="XMLID_247_">
			<path id="XMLID_263_" class="st2" d="M263.2,209.3l-44.7-44.7c-5.3-5.3-14-5.3-19.4,0l-11.6,11.6c-3.6,3.6-4.8,8.8-3.5,13.5
				l-4.4,4.4c0,0,0,0,0,0c-3.1,3.1-22.5-1.7-46-25.1c-23.4-23.4-28.2-42.8-25.1-46c0,0,0,0,0,0l4.4-4.4c1.2,0.4,2.5,0.5,3.8,0.5
				c3.5,0,7-1.3,9.7-4l11.6-11.6c5.3-5.3,5.3-14,0-19.4L93.3,39.4c-2.6-2.6-6-4-9.7-4c-3.7,0-7.1,1.4-9.7,4L62.3,51.1
				c-3.6,3.6-4.8,8.8-3.5,13.5c0,0-3.7,3.8-3.9,4c-12.4,13.7-14.7,35.4-6.5,61.3c8,25.3,25.3,52.2,48.7,75.6
				c23.4,23.4,50.2,40.7,75.6,48.7c10.2,3.2,19.7,4.8,28.4,4.8c14.2,0,26-4.3,34.5-12.8l2.4-2.4c1.2,0.4,2.5,0.5,3.8,0.5
				c3.7,0,7.1-1.4,9.7-4l11.6-11.6C268.5,223.3,268.5,214.6,263.2,209.3z M83.7,49.1l44.7,44.7l-11.6,11.6c0,0,0,0,0,0l-0.2-0.2
				L94.4,83.1L72,60.7L83.7,49.1z M226,236.5C226,236.5,226,236.5,226,236.5c-9.8,9.8-27.3,11.5-49,4.6c-23.3-7.4-48.2-23.5-70-45.4
				c-21.9-21.9-38-46.8-45.4-70c-6.9-21.8-5.3-39.2,4.6-49l0,0l1.2-1.2l34.7,34.7l-3.2,3.2c0,0,0,0,0,0
				c-13.2,13.2,2.7,42.9,25.1,65.3c16.8,16.8,37.7,29.9,52.6,29.9c5,0,9.4-1.5,12.7-4.8c0,0,0,0,0,0l3.2-3.2l34.7,34.7L226,236.5z
				 M241.9,230.6l-44.7-44.7l11.6-11.6l44.7,44.7C253.5,219,241.9,230.6,241.9,230.6z"/>
		</g>
	</g>
	<g id="XMLID_232_" class="st1">
		<g id="XMLID_233_">
			<path id="XMLID_520_" class="st2" d="M217,85.7c-13-13-30.3-20.2-48.7-20.2c-3.8,0-6.8,3.1-6.8,6.8s3.1,6.8,6.8,6.8
				c14.8,0,28.6,5.7,39.1,16.2c10.4,10.4,16.2,24.3,16.2,39.1c0,3.8,3.1,6.8,6.8,6.8c3.8,0,6.8-3.1,6.8-6.8
				C237.1,116,230,98.7,217,85.7z"/>
		</g>
	</g>
	<g id="XMLID_229_" class="st1">
		<g id="XMLID_230_">
			<path id="XMLID_519_" class="st2" d="M241.5,61.1c-19.6-19.6-45.6-30.4-73.3-30.4c-3.8,0-6.8,3.1-6.8,6.8c0,3.8,3.1,6.8,6.8,6.8
				c24,0,46.6,9.4,63.6,26.3c17,17,26.3,39.6,26.3,63.6c0,3.8,3.1,6.8,6.8,6.8c3.8,0,6.8-3.1,6.8-6.8
				C271.9,106.7,261.1,80.7,241.5,61.1z"/>
		</g>
	</g>
	<g id="XMLID_226_" class="st1">
		<g id="XMLID_227_">
			<path id="XMLID_518_" class="st2" d="M192.4,110.2c-6.6-6.6-14.9-10-24.2-10c0,0,0,0,0,0c-3.8,0-6.8,3.1-6.8,6.8
				c0,3.8,3.1,6.8,6.8,6.8c0,0,0,0,0,0c5.6,0,10.5,2,14.5,6c3.9,3.9,6,8.9,6,14.5c0,3.8,3.1,6.8,6.8,6.8h0c3.8,0,6.8-3.1,6.8-6.8
				C202.4,125.1,199,116.8,192.4,110.2z"/>
		</g>
	</g>
</g>
<g id="Layer_1_copy_2" class="st0">
	<text id="XMLID_622_" transform="matrix(1 0 0 1 283.6668 154.8197)" class="st1"><tspan x="0" y="0" class="st3 st5">Entrenamiento</tspan><tspan x="0" y="48" class="st3 st5">canino</tspan></text>
	<g id="XMLID_612_" class="st1">
		<g id="XMLID_623_">
			<path id="XMLID_624_" class="st2" d="M210.1,164.3c-4.2,0-7.4-1.6-10-2.9c-0.6-0.3-1.2-0.6-1.8-0.9c-3.4-1.5-7.3-1.7-10.6-0.6
				c-0.7,0.2-1.6,0.7-2.6,1.2c-2.8,1.4-6.4,3.1-10.7,3.1c-1.8,0-3.6-0.3-5.3-0.9c-4.8-1.8-7.2-5.1-9.5-8.3c-0.5-0.7-1.1-1.6-1.8-2.4
				c-1.4-1.8-3.9-4.1-6.6-5c-1-0.3-2.9-0.5-4.7-0.7c-4.3-0.4-9.7-1-13.6-4.4c-4.4-3.9-4.9-9-5.3-13.5c-0.1-1.3-0.2-2.6-0.5-4
				c-0.3-1.8-1.1-3.6-2.3-5.4c-0.9-1.3-2.7-2.6-4.6-3.9c-4-2.8-9.5-6.7-10.2-14c-0.6-5.9,1.5-9.7,3.1-12.5c0.7-1.2,1.2-2.2,1.6-3.3
				c0.7-2.5,0.6-5.4-0.2-7.9c-0.3-1.1-0.9-2.2-1.5-3.4c-1.6-3.2-3.8-7.6-2.6-13.3c1.3-6.7,6.6-10.2,9.4-12c4.6-3,6.6-5.7,7.3-9.7
				c0.2-1.4,0.4-2.8,0.5-4.1c0.4-3.7,0.7-7.6,3-11c4-5.8,9.8-6.3,14.5-6.8c1.2-0.1,2.6-0.2,4-0.5c2.9-0.5,6.2-2.4,8.3-4.7
				c0.7-0.8,1.3-1.8,2-2.8c2.1-3.3,5.2-8.2,12.5-9.3c1-0.2,1.9-0.2,2.9-0.2c4.4,0,7.7,1.6,10.3,3c1.8,0.9,3.3,1.6,5,1.9
				c3,0.4,5.6,0.1,8.3-1.2c0.5-0.2,1-0.5,1.6-0.8c2.5-1.3,5.9-3,10.1-3c1.2,0,2.3,0.1,3.5,0.4c6,1.3,9.4,6.1,12.2,9.9
				c1.4,2,2.9,4,4.2,4.9c1.6,1,4,1.9,6,2.2c1.1,0.1,2.1,0.2,3.1,0.3c5.4,0.5,12.1,1.1,15.9,8.7c1.4,2.9,1.7,6,1.9,9
				c0.1,1.7,0.2,3.2,0.5,4.6c0.7,2.9,2.7,5.8,4.3,7.2c1,0.9,2.2,1.7,3.4,2.5c3.5,2.3,8.3,5.6,9.2,12.8c0.6,5.5-1.5,9.6-3.1,12.6
				c-0.6,1.1-1.1,2.1-1.3,2.8c-0.8,2.5-0.8,5.6,0,8.2c0.3,1,0.8,2.1,1.4,3.3c1.6,3.4,3.8,8.1,2.7,13.6c-1.3,6.5-6.2,9.9-10.1,12.6
				c-2,1.4-3.8,2.7-4.7,4c-0.5,0.7-1.1,2-1.6,3.5c-0.5,1.6-0.7,3.5-0.9,5.6c-0.4,4-0.9,8.6-3.8,12.1c-3.9,4.7-9.4,5.2-13.8,5.6
				c-1.3,0.1-2.8,0.3-4.2,0.5c-1.7,0.3-3.5,1.1-5.2,2.2c-1.4,1-2.7,2.8-4.2,4.8c-2.7,3.9-6.5,9.2-13.5,10
				C211.4,164.3,210.7,164.3,210.1,164.3z M192,146.7c3.8,0,7.8,0.8,11.3,2.4c0.8,0.3,1.6,0.7,2.3,1.1c1.9,0.9,3.4,1.8,4.9,1.6
				c1.4-0.2,2.5-1.7,4.8-4.8c1.9-2.7,4.1-5.8,7.4-8c2.2-1.5,5.6-3.4,10-4.1c1.9-0.3,3.7-0.5,5.2-0.7c2.4-0.2,4.7-0.5,5.3-1.2
				c0.5-0.7,0.8-3.6,1-5.3c0.3-2.5,0.5-5.3,1.4-8c0.7-2.3,1.8-4.7,3-6.6c2.2-3.4,5.3-5.5,8-7.5c2.9-2,4.7-3.4,5-4.9
				c0.3-1.4-0.7-3.5-1.8-5.8c-0.7-1.6-1.5-3.2-2.1-5c-1.6-5.1-1.6-10.8,0-15.7c0.6-1.8,1.4-3.5,2.2-4.9c1.2-2.3,1.9-3.7,1.7-5.3
				c-0.1-1.3-0.4-1.7-3.6-3.8c-1.4-1-3.1-2.1-4.8-3.5c-3.1-2.7-6.9-7.8-8.3-13.8c-0.5-2.3-0.7-4.6-0.8-6.5c-0.1-1.4-0.2-3.6-0.6-4.2
				c-0.5-1.1-0.7-1.4-5.9-1.9c-1.1-0.1-2.3-0.2-3.6-0.4c-3.9-0.5-8.1-2.1-11.2-4.1c-3.3-2.2-5.6-5.3-7.5-8c-1.6-2.2-3.4-4.7-4.7-4.9
				c-1.6-0.4-3.1,0.5-5.2,1.5c-0.7,0.3-1.3,0.7-2,1c-4.8,2.2-9.7,2.9-15.2,2.2c-3.8-0.5-6.7-1.9-9-3.1c-2.6-1.3-3.7-1.8-5.6-1.5
				c-1.5,0.2-2,0.7-3.8,3.7c-0.8,1.3-1.8,2.9-3.1,4.4c-3.9,4.5-9.9,7.8-15.7,8.8c-1.7,0.3-3.3,0.4-4.8,0.6c-4.2,0.4-4.8,0.6-5.3,1.4
				c-0.5,0.7-0.7,3.2-0.9,5c-0.1,1.5-0.3,3.3-0.6,5.1c-1.7,9.8-8.2,15-12.8,18c-2.7,1.8-3.8,2.8-4,3.9c-0.3,1.4,0.2,2.6,1.6,5.3
				c0.8,1.5,1.6,3.2,2.3,5.3c1.6,4.9,1.7,10.3,0.3,15.2c-0.7,2.5-1.8,4.4-2.7,6c-1.3,2.3-1.7,3.2-1.5,5.1c0.1,1.5,2,2.9,5,5
				c2.6,1.8,5.5,3.9,7.6,6.9c2.3,3.3,3.8,6.8,4.4,10.6c0.3,1.7,0.4,3.3,0.6,4.8c0.2,2.5,0.5,4.7,1.2,5.3c0.8,0.7,4.5,1.1,6.4,1.3
				c2.4,0.2,5,0.5,7.3,1.2c6.7,2.2,11.1,7.2,12.7,9.3c0.8,1,1.4,1.9,2,2.8c1.8,2.5,2.5,3.4,3.5,3.8c1.7,0.6,3.9-0.5,6.3-1.7
				c1.3-0.6,2.7-1.3,4.1-1.8C186.3,147.1,189.1,146.7,192,146.7z"/>
		</g>
		<g id="XMLID_613_">
			<path id="XMLID_614_" class="st2" d="M158.2,271v-86.7c0-0.6,0-1.3-0.1-2c-0.1-3.1-0.3-6.9,1.6-10.6l2.1-4.7
				c0,0,8.4,5.7,17.2,1.7c2.8-1.3,7.4-3.3,12.5-3.3c6.9,0,8.6,1.7,12.2,3.4c1.4,0.7,2.6,1.4,3.9,1.6c7.5,1.1,13.1-3.8,13.1-3.8
				l2,5.6c1.3,3.5,1.2,7.1,1.1,9.9c0,0.7-0.1,1.4-0.1,2.1v86.5c0,0-30.7-22.5-32.7-24.1C187.9,249.1,158.2,271,158.2,271z
				 M191.3,231.2l3.6,2.7c2.7,2,6.5,5.1,10.6,8.4c1.7,1.4,3.7,3,5.6,4.5v-62.5c0-0.4,0-0.9,0-1.3c-0.8,0.1-1.7,0.2-2.6,0.2l0,0
				c-1.5,0-2.9-0.2-4.4-0.6c-2.2-0.6-4.1-1.5-5.8-2.3c-2.9-1.4-5.1-2.4-8.5-2.1c-1.6,0.2-3.5,1.1-5.6,2c-3.1,1.5-6.7,3.1-10.9,3.1
				c-0.9,0-1.7-0.1-2.6-0.2c0,0.4,0,0.8,0,1.2v62.3c1.1-0.9,2.2-1.7,3.3-2.6c4.4-3.4,8.9-7,13.5-10.2L191.3,231.2z"/>
		</g>
	</g>
	<path id="XMLID_344_" class="st6" d="M191.3,81.8c-16.4,0-29.7,12.4-29.7,27.6c0,7.2,4.3,11.5,11.4,11.5c3.3,0,6.9-0.8,10.3-1.6
		c2.9-0.7,5.9-1.4,7.9-1.4c1.8,0,4.6,0.7,7.4,1.3c3.6,0.8,7.3,1.7,10.7,1.7c7.3,0,11.6-4.3,11.6-11.5
		C221,94.2,207.7,81.8,191.3,81.8z M211.2,111.1c0,0-0.4,0.3-1.8,0.3c-2.3,0-5.5-0.7-8.5-1.5c-3.4-0.8-6.6-1.5-9.5-1.5
		c-3.1,0-6.7,0.8-10,1.6c-3,0.7-6,1.4-8.2,1.4c-1.2,0-1.6-0.2-1.6-0.2c0,0-0.3-0.5-0.3-1.8c0-10,9.1-18.1,20.2-18.1
		c11.1,0,20.2,8.1,20.2,18.1C211.5,110.5,211.3,111.1,211.2,111.1z"/>
	<path id="XMLID_340_" class="st6" d="M176.6,72.7c0-8.3-5.8-15.1-12.9-15.1c-7.1,0-12.9,6.8-12.9,15.1c0,8.3,5.8,15.1,12.9,15.1
		C170.8,87.8,176.6,81.1,176.6,72.7z M160.2,72.7c0-3.2,1.8-5.7,3.4-5.7c1.6,0,3.4,2.4,3.4,5.7c0,3.2-1.8,5.7-3.4,5.7
		C162,78.4,160.2,76,160.2,72.7z"/>
	<path id="XMLID_336_" class="st6" d="M192.2,78.5c7.1,0,12.9-6.8,12.9-15.1c0-8.3-5.8-15.1-12.9-15.1c-7.1,0-12.9,6.8-12.9,15.1
		S185.1,78.5,192.2,78.5z M192.2,57.7c1.6,0,3.4,2.4,3.4,5.7s-1.8,5.7-3.4,5.7c-1.6,0-3.4-2.4-3.4-5.7S190.6,57.7,192.2,57.7z"/>
	<path id="XMLID_333_" class="st6" d="M220.7,57.6c-7.1,0-12.9,6.8-12.9,15.1c0,8.3,5.8,15.1,12.9,15.1s12.9-6.8,12.9-15.1
		C233.6,64.4,227.8,57.6,220.7,57.6z M220.7,78.4c-1.6,0-3.4-2.4-3.4-5.7c0-3.2,1.8-5.7,3.4-5.7c1.6,0,3.4,2.4,3.4,5.7
		C224.1,76,222.3,78.4,220.7,78.4z"/>
</g>
<g id="Layer_1_copy_3" class="st0">
	<text id="XMLID_680_" transform="matrix(1 0 0 1 283.6668 154.8197)" class="st1"><tspan x="0" y="0" class="st3 st7">Medicina</tspan><tspan x="0" y="57.6" class="st3 st7">alternativa</tspan></text>
	<path id="XMLID_655_" class="st6" d="M251.1,198.4c20.4-23.5,19.4-58.1,19.4-59.8l-0.2-4.5l-4.5-0.2c-1.4,0-28-0.7-50.3,12.6
		c-6.4-25.1-25.6-43.4-26.6-44.3l-3.1-2.8l-3.3,3.1c-0.9,0.9-20.4,19.2-26.6,44.3c-22.3-13.3-48.8-12.6-50.3-12.6l-4.5,0.2l-0.2,4.5
		c0,1.4-0.9,36.3,19.4,59.8c-13.3,5.5-22.5,13.8-23,14.2l-3.8,3.6l3.8,3.6c0.9,0.7,20.6,19,45.8,19c6.2,0,12.1-1.2,17.5-2.8
		c-0.2,0.7-0.2,1.4-0.2,1.7c0,2.4,1.2,14,23.2,23.2l1.9,0.7l1.9-0.7c22.3-9.2,23.2-20.9,23.2-23.2c0-0.5,0-0.9-0.2-1.7
		c5.5,1.7,11.4,2.8,17.5,2.8c25.1,0,44.8-18.3,45.8-19l3.8-3.6l-3.8-3.6C273.6,212.1,264.6,203.8,251.1,198.4z M261.1,143.6
		c-0.5,10.2-3.6,35.1-19.2,51c-15.9,15.9-40.8,18.7-51,19.2c0.5-10.2,3.3-35.1,19.2-51C226,147.2,250.6,144.3,261.1,143.6z
		 M185.9,112.6c5.9,6.4,18,21.8,21.3,40.1c-1.4,1.2-2.6,2.4-4,3.6c-8.8,8.8-14.2,19.9-17.5,30.1c-3.3-10.2-8.5-21.3-17.5-30.1
		c-1.2-1.2-2.6-2.6-4-3.6C167.9,134.4,180,119.2,185.9,112.6z M110.7,143.6c10.2,0.5,35.1,3.3,51,19.2s18.7,40.8,19.2,51
		c-10.2-0.5-35.1-3.6-51-19.2C114.3,178.7,111.5,154.1,110.7,143.6z M143.5,229.2c-14.9,0-28.5-8.1-34.9-13
		c4.3-3.1,11.4-7.6,19.7-10.4c12.8,10.2,28.5,14.7,40.3,16.6C161.7,225.9,152.9,229.2,143.5,229.2z M185.9,251.3
		c-7.1-3.3-15.6-9.2-15.6-13.5c0-4.5,8.8-10.4,15.6-13.5c7.1,3.3,15.6,9.2,15.6,13.5C201.6,242,192.8,247.9,185.9,251.3z
		 M228.3,229.2c-9.5,0-18.3-3.3-25.1-6.9c11.9-1.9,27.5-6.2,40.3-16.6c8.5,2.8,15.6,7.4,19.9,10.4
		C256.8,220.9,243.5,229.2,228.3,229.2z"/>
	<path id="XMLID_664_" class="st6" d="M133.7,64.2c-2.9-3.1-5.8-6.2-8.8-9.2c-1.9-2-5.2-1.9-7.1,0c-2,2-1.9,5.1,0,7.1
		c2.9,3.1,5.8,6.2,8.8,9.2c1.9,2,5.2,1.9,7.1,0C135.6,69.3,135.5,66.2,133.7,64.2z"/>
	<path id="XMLID_665_" class="st6" d="M181,42.6v14c0,6.4,10,6.4,10,0v-14C191,36.1,181,36.1,181,42.6z"/>
	<path id="XMLID_666_" class="st6" d="M251,50.9c-3.4,3.5-6.4,7.4-8.9,11.7c-3.3,5.5,5.3,10.6,8.6,5c2.1-3.5,4.5-6.7,7.3-9.6
		C262.6,53.4,255.5,46.3,251,50.9z"/>
</g>
<g id="Layer_2" class="st0">
	<g id="XMLID_85_" class="st1">
		<path id="XMLID_96_" class="st2" d="M149.5,140c0,8.4,5.8,15.2,12.9,15.2c7.1,0,12.9-6.8,12.9-15.2c0-8.4-5.8-15.2-12.9-15.2
			C155.3,124.8,149.5,131.6,149.5,140z M166.7,140c0,4-2.3,6.7-4.4,6.7c-2.1,0-4.4-2.8-4.4-6.7c0-4,2.3-6.7,4.4-6.7
			C164.4,133.3,166.7,136.1,166.7,140z"/>
		<path id="XMLID_93_" class="st2" d="M179.6,130.2c0,8.4,5.8,15.2,12.9,15.2c7.1,0,12.9-6.8,12.9-15.2s-5.8-15.2-12.9-15.2
			C185.4,114.9,179.6,121.8,179.6,130.2z M196.8,130.2c0,4-2.3,6.7-4.4,6.7c-2.1,0-4.4-2.8-4.4-6.7c0-4,2.3-6.7,4.4-6.7
			C194.5,123.4,196.8,126.2,196.8,130.2z"/>
		<path id="XMLID_86_" class="st2" d="M281.5,68.4l-47.2-47.2c-1.9-1.9-4.5-3-7.3-3c-2.7,0-5.3,1.1-7.3,3l-5.8,5.8
			c-1.9,1.9-3,4.5-3,7.3s1.1,5.3,3,7.3l20.6,20.6l-8.8,8.8l-20.6-20.6c-1.9-1.9-4.5-3-7.3-3c-2.7,0-5.3,1.1-7.3,3L106.9,134
			c-1.9,1.9-3,4.5-3,7.3s1.1,5.3,3,7.3l9.3,9.3l-8.9,8.9c-1.9,1.9-3,4.5-3,7.3c0,2.7,1.1,5.3,3,7.3l4.1,4.1l-66.5,66.5
			c-1.7,1.7-1.7,4.4,0,6c0.8,0.8,1.9,1.2,3,1.2c1.1,0,2.2-0.4,3-1.2l66.5-66.5l4.1,4.1c1.9,1.9,4.5,3,7.3,3c2.7,0,5.3-1.1,7.3-3
			l8.9-8.9l9.3,9.3c1.9,1.9,4.5,3,7.3,3s5.3-1.1,7.3-3l5.7-5.7c2.8-0.2,5.8-0.9,8.7-1.6c3.1-0.7,6.3-1.5,8.5-1.5c2,0,5,0.7,7.9,1.4
			c3.7,0.9,7.6,1.8,11.1,1.8c7.3,0,11.5-4.2,11.5-11.4c0-15.7-13.7-28.4-30.6-28.4c-16.8,0-30.6,12.7-30.6,28.4c0,4,1.3,7.1,3.6,9
			l-2,2c-0.4,0.4-1,0.5-1.2,0.5c-0.3,0-0.8-0.1-1.2-0.5l-47.2-47.2c-0.7-0.7-0.7-1.8,0-2.5l18.8-18.8l5.1,5.1c0.8,0.8,1.9,1.2,3,1.2
			c1.1,0,2.2-0.4,3-1.2c1.7-1.7,1.7-4.4,0-6l-5.1-5.1l9.4-9.4l5.1,5.1c0.8,0.8,1.9,1.2,3,1.2c1.1,0,2.2-0.4,3-1.2
			c1.7-1.7,1.7-4.4,0-6l-5.1-5.1l29.3-29.3l49.7,49.7l-5.2,5.2c0,0-0.1,0.1-0.1,0.1c-1.3-0.5-2.7-0.8-4.2-0.8
			c-7.1,0-12.9,6.8-12.9,15.2c0,8.4,5.8,15.2,12.9,15.2c7.1,0,12.9-6.8,12.9-15.2c0-3.3-0.9-6.3-2.4-8.8l19.2-19.2
			c4-4,4-10.5,0-14.5L231.7,77l8.8-8.8l20.6,20.6c1.9,1.9,4.5,3,7.3,3c2.7,0,5.3-1.1,7.3-3l5.8-5.8
			C285.5,78.9,285.5,72.4,281.5,68.4z M191.6,158.9c12.2,0,22.1,8.9,22.1,19.9c0,2.5-0.4,2.9-3,2.9c-2.5,0-5.9-0.8-9.2-1.6
			c-3.6-0.8-6.9-1.6-9.9-1.6c-3.2,0-6.9,0.8-10.4,1.7c-3.2,0.7-6.4,1.5-8.8,1.5c-1.3,0-2-0.2-2.2-0.4c-0.2-0.2-0.5-1-0.5-2.5
			C169.5,167.8,179.4,158.9,191.6,158.9z M129.9,189.3c-0.4,0.4-1,0.5-1.2,0.5s-0.8-0.1-1.2-0.5l-14.2-14.2c-0.4-0.4-0.5-1-0.5-1.2
			s0.1-0.8,0.5-1.2l8.9-8.9l16.6,16.6L129.9,189.3z M222.6,146.8c-2.1,0-4.4-2.8-4.4-6.7c0-4,2.3-6.7,4.4-6.7c2.1,0,4.4,2.8,4.4,6.7
			C227,144,224.7,146.8,222.6,146.8z M246.3,106.1l-8.2,8.2l-49.7-49.7l8.2-8.2c0.7-0.7,1.8-0.7,2.5,0l47.2,47.2
			C247,104.3,247,105.4,246.3,106.1z M275.5,76.9l-5.8,5.8c-0.4,0.4-1,0.5-1.2,0.5s-0.8-0.1-1.2-0.5l-47.2-47.2
			c-0.4-0.4-0.5-1-0.5-1.2c0-0.3,0.1-0.8,0.5-1.2l5.8-5.8c0.4-0.4,1-0.5,1.2-0.5c0.3,0,0.8,0.1,1.2,0.5l47.2,47.2
			C276.1,75.1,276.1,76.2,275.5,76.9z"/>
	</g>
	<text id="XMLID_84_" transform="matrix(1 0 0 1 283.667 185.2279)" class="st1 st3 st4">Vacunas</text>
</g>
<g id="Layer_2_copy" class="st0">
	<text id="XMLID_196_" transform="matrix(1 0 0 1 283.667 185.2279)" class="st1 st3 st4">Guardería</text>
	<path id="XMLID_584_" class="st6" d="M163.2,165.4c-22.2,0-40.3,16.8-40.3,37.5c0,9.8,5.8,15.7,15.5,15.7c4.5,0,9.3-1.1,14.1-2.2
		c3.9-0.9,8-1.8,10.7-1.8c2.4,0,6.3,0.9,10,1.8c4.9,1.1,9.9,2.3,14.5,2.3c9.9,0,15.8-5.9,15.8-15.7
		C203.5,182.2,185.4,165.4,163.2,165.4z M190.2,205.3c0,0-0.6,0.4-2.5,0.4c-3.2,0-7.5-1-11.6-2c-4.6-1.1-9-2.1-12.9-2.1
		c-4.3,0-9,1.1-13.7,2.2c-4,0.9-8.2,1.9-11.2,1.9c-1.7,0-2.2-0.3-2.2-0.3c0,0-0.4-0.6-0.4-2.5c0-13.6,12.3-24.6,27.4-24.6
		c15.1,0,27.4,11,27.4,24.6C190.6,204.5,190.3,205.2,190.2,205.3z"/>
	<path id="XMLID_581_" class="st6" d="M143.1,153.1c0-11.3-7.9-20.6-17.5-20.6c-9.7,0-17.5,9.2-17.5,20.6c0,11.3,7.9,20.6,17.5,20.6
		C135.3,173.7,143.1,164.5,143.1,153.1z M120.9,153.1c0-4.4,2.5-7.7,4.7-7.7c2.2,0,4.6,3.3,4.6,7.7c0,4.4-2.5,7.7-4.6,7.7
		C123.4,160.8,120.9,157.5,120.9,153.1z"/>
	<path id="XMLID_578_" class="st6" d="M164.3,161c9.7,0,17.5-9.2,17.5-20.6s-7.9-20.6-17.5-20.6c-9.7,0-17.5,9.2-17.5,20.6
		S154.7,161,164.3,161z M164.3,132.7c2.2,0,4.6,3.3,4.6,7.7s-2.5,7.7-4.6,7.7c-2.2,0-4.6-3.3-4.6-7.7S162.1,132.7,164.3,132.7z"/>
	<path id="XMLID_575_" class="st6" d="M203.1,132.6c-9.7,0-17.5,9.2-17.5,20.6c0,11.3,7.9,20.6,17.5,20.6s17.5-9.2,17.5-20.6
		S212.7,132.6,203.1,132.6z M203.1,160.8c-2.2,0-4.7-3.3-4.7-7.7s2.5-7.7,4.7-7.7c2.2,0,4.7,3.3,4.7,7.7S205.3,160.8,203.1,160.8z"
		/>
	<path id="XMLID_533_" class="st6" d="M213.1,76.2c-18.3,0-35.2,7.3-47.7,20.3c-12.4-13-29.4-20.3-47.7-20.3
		c-36.5,0-66.2,29.7-66.2,66.2c0,17,6,34.2,18,51c9.3,13.1,22.2,26,38.3,38.4c27.1,20.9,53.9,33,55,33.5c0.8,0.4,1.7,0.6,2.6,0.6
		c0.8,0,1.6-0.1,2.3-0.4c1.1-0.4,28-11,55.2-31.2c16.2-12,29.1-24.8,38.4-38.2c11.9-17.1,17.9-35.1,17.9-53.6
		C279.3,105.9,249.6,76.2,213.1,76.2z M165.6,252.3c-15.8-7.7-101.1-51.8-101.1-109.9c0-29.4,23.9-53.3,53.3-53.3
		c16.8,0,32.4,7.7,42.5,21.2c1.2,1.6,3.1,2.6,5.1,2.6c2,0,3.9-0.9,5.1-2.6c10.2-13.5,25.7-21.2,42.5-21.2
		c29.4,0,53.3,23.9,53.3,53.3C266.5,205.9,181.5,245.5,165.6,252.3z"/>
	<path id="XMLID_535_" class="st6" d="M82.3,52.1c-2.2-3.1-4.4-6.3-6.5-9.4c-1.5-2.2-4.4-3.2-6.8-1.8c-2.2,1.3-3.3,4.6-1.8,6.8
		c2.2,3.1,4.4,6.3,6.5,9.4c1.5,2.2,4.4,3.2,6.8,1.8C82.7,57.6,83.8,54.3,82.3,52.1z"/>
	<path id="XMLID_576_" class="st6" d="M156.3,33.2v15.3c0,6.4,10,6.4,10,0V33.2C166.3,26.8,156.3,26.8,156.3,33.2z"/>
	<path id="XMLID_577_" class="st6" d="M250.8,34.3c-1.8-1.8-5.3-2.1-7.1,0c-3.1,3.7-5.8,7.6-8,11.8c-2.9,5.7,5.7,10.8,8.6,5
		c1.8-3.5,3.9-6.8,6.5-9.8C252.6,39.3,252.9,36.3,250.8,34.3z"/>
</g>
<g id="Layer_3" class="st0">
	<g id="XMLID_100_" class="st1">
		<g id="XMLID_117_">
			<path id="XMLID_118_" class="st8" d="M127.2,130.2c-17.3,0-31.3-18.4-31.3-41s14.1-41,31.3-41c17.3,0,31.3,18.4,31.3,41
				S144.5,130.2,127.2,130.2z M127.2,54.7c-13.7,0-24.9,15.5-24.9,34.5c0,19,11.2,34.5,24.9,34.5c13.7,0,24.9-15.5,24.9-34.5
				C152.1,70.2,140.9,54.7,127.2,54.7z"/>
		</g>
		<g id="XMLID_113_">
			<path id="XMLID_114_" class="st8" d="M208.7,248.4c-8.5,0-15.8-4.8-23.5-9.9c-4.7-3.1-9.4-6.2-14.7-8.5c-0.8-0.2-3.9-0.5-8.5-0.5
				c-4.2,0-6.4,0.3-6.7,0.4c-5.2,2.2-10.3,5.3-15.2,8.3c-8.4,5.2-15.5,9.6-23.9,9.6c-4.2,0-8.3-1.2-12-3.6
				c-8.8-5.6-13.9-15.4-14.5-27.6c-0.5-11.1,2.9-23,9.7-33.6c0.7-1.1,1.5-2.1,2.3-3c0.3-0.4,0.9-1.1,1-1.3c8-16.5,28-34.1,60-34.1
				l1.2,0c32.5,0.5,52.7,19.1,60,34.9c0.2,0.4,0.7,1.1,1.2,1.8c0.9,1.3,1.7,2.3,2.4,3.5c13.3,23.4,9.7,50.7-8.1,60.8
				C216.1,247.4,212.5,248.4,208.7,248.4z M162,223c4.7,0,9.2,0.4,10.7,0.9c6.1,2.7,11.1,6,16,9.2c7,4.6,13.5,8.9,20,8.9
				c2.7,0,5.3-0.7,7.7-2.1c14.7-8.4,17.3-31.7,5.7-52.1c-0.5-0.9-1.2-1.8-1.9-2.8c-0.8-1.1-1.5-2-1.9-3
				c-6.6-14.1-24.8-30.7-54.3-31.1l-1.2,0c-29,0-47.1,15.8-54.2,30.5c-0.4,0.8-1,1.6-1.9,2.6c-0.6,0.8-1.3,1.5-1.8,2.4
				c-6.1,9.4-9.2,20-8.7,29.8c0.5,10,4.6,18,11.6,22.5c2.7,1.7,5.5,2.6,8.5,2.6c6.5,0,13-4,20.5-8.6c5.2-3.2,10.5-6.4,16.4-8.9
				C154.6,223.3,157.9,223,162,223z"/>
		</g>
		<g id="XMLID_109_">
			<path id="XMLID_110_" class="st8" d="M198.1,130.2c-17.3,0-31.3-18.4-31.3-41s14.1-41,31.3-41c17.3,0,31.3,18.4,31.3,41
				S215.3,130.2,198.1,130.2z M198.1,54.7c-13.7,0-24.9,15.5-24.9,34.5c0,19,11.2,34.5,24.9,34.5c13.7,0,24.9-15.5,24.9-34.5
				C223,70.2,211.8,54.7,198.1,54.7z"/>
		</g>
		<g id="XMLID_105_">
			<path id="XMLID_106_" class="st8" d="M252,182.3c-16.3,0-29-16.4-29-37.4c0-21,12.8-37.4,29-37.4c16.3,0,29,16.4,29,37.4
				C281.1,165.8,268.3,182.3,252,182.3z M252,113.8c-12.7,0-22.6,13.6-22.6,31c0,17.4,9.9,31,22.6,31s22.6-13.6,22.6-31
				C274.6,127.5,264.7,113.8,252,113.8z"/>
		</g>
		<g id="XMLID_101_">
			<path id="XMLID_102_" class="st8" d="M77.3,182.3c-16.3,0-29-16.4-29-37.4c0-21,12.8-37.4,29-37.4c16.3,0,29,16.4,29,37.4
				C106.4,165.8,93.6,182.3,77.3,182.3z M77.3,113.8c-12.7,0-22.6,13.6-22.6,31c0,17.4,9.9,31,22.6,31c12.7,0,22.6-13.6,22.6-31
				C100,127.5,90,113.8,77.3,113.8z"/>
		</g>
	</g>
	<text id="XMLID_99_" transform="matrix(1 0 0 1 287.6668 153.8197)" class="st1"><tspan x="0" y="0" class="st3 st9">No hay límite</tspan><tspan x="0" y="50.4" class="st3 st9">de mascotas</tspan></text>
	<text id="XMLID_103_" transform="matrix(1 0 0 1 147.9998 205.2275)" class="st1 st10 st9">#</text>
</g>
<g id="Layer_4" class="st0">
	<text id="XMLID_31_" transform="matrix(1 0 0 1 283.667 155.2279)" class="st1"><tspan x="0" y="0" class="st3 st4">Correa no</tspan><tspan x="0" y="58.6" class="st3 st4">obligatoria</tspan></text>
	<g id="XMLID_38_" class="st1">
		<circle id="XMLID_45_" class="st2" cx="235.6" cy="125.1" r="5.1"/>
		<path id="XMLID_48_" class="st2" d="M263.9,132.2c-2.4-1.9-5.9-4.7-6.6-5.9c-0.6-1.1-1.4-3.1-2.2-5c-1.2-3.1-2.5-6.4-4-8.6
			c-3.7-5.4-10.1-10.6-17.2-13.9c-7.3-8.9-19.4-11.9-29.9-7c-9.2,4.3-20.8,14.8-18.7,27.8c-0.5,0.5-0.9,0.9-1.4,1.4
			c-1.6,1.6-3.2,3.3-4.9,5c-9.5-0.6-50.6-5.1-84.7-35.2c-0.2-0.3-0.5-0.6-0.8-0.9C46.5,45.5,20.4-14.5-9.3-70.5
			c-3-5.7-11.6-0.6-8.6,5c28.7,54.3,54.3,112,98,156.1c0.2,0.6,0.6,1.1,1,1.6c31.4,31.6,69.7,40.5,88.4,43c-1.7,1.5-3.1,2.7-3.8,3.2
			c-44.5,26-66.5,58.1-69,100.6c-13-1.1-21.3-6.9-30.1-15.7c-5.2-5.2-13.8-5.2-19,0c-5.2,5.2-5.2,13.8,0,19
			c15.8,15.8,34,23.8,54,23.8h73.2c1.3,0,2.6-0.5,3.6-1.5c3.4-3.4,4.4-9.1,2.3-14c-2.2-5.3-7.2-8.5-13.4-8.5h-4.9
			c2.5-3.8,5.1-8.5,6.6-13.6c1.5-3.7,4.5-6.4,7.3-8.3c2.3,18.4,7,40.5,7.3,41.8c0.5,2.3,2.6,4,5,4h16.1c4.6,0,8.3-2.4,9.9-6.5
			c1.8-4.7,0.3-10.8-3.7-14.4c-1.3-1.2-3-2.3-4.5-3.1c-0.8-13.4-0.8-34,2.3-40l1-2c5.2-10.3,10.2-20,16-44.4
			c3.3,0.5,6.5,0.9,9.2,2.4l1.5,0.8c6,3.2,12.1,6.4,18.9,5.3c6.8-1.1,16.7-9.3,18.6-17.2C275.4,141.3,270,137.1,263.9,132.2z
			 M200.7,195.3l-1,2c-5.6,11.1-3.5,44.3-3.2,48.1c0.1,1.8,1.2,3.4,2.9,4.2c1.3,0.6,3.7,2,4.7,2.9c1.2,1.1,1.3,2.9,1.2,3.2
			c0,0-0.2,0.1-0.5,0.1h-12c-2.2-10.9-8-41-7.5-53.5c0.1-3.1,2.1-11.1,3.4-15.4c0.8-2.7-0.8-5.5-3.5-6.3c-2.7-0.8-5.5,0.8-6.3,3.5
			c-0.4,1.3-3.5,12.4-3.8,17.8c-0.1,2.1,0,4.5,0.2,7.2c-1.7,0.9-3.8,2.1-6,3.7c-1.6-5.6-4.9-10.7-9.4-14.2
			c-7.4-5.6-17.1-6.5-27.5-2.4c-2.6,1-3.9,4-2.9,6.6c1,2.6,4,3.9,6.6,2.9c7.1-2.8,13.2-2.4,17.7,1c5.1,3.9,6.9,10.5,6.4,15.1
			c-1.1,10.6-11.5,21.7-11.6,21.8c-1.4,1.5-1.8,3.6-1,5.5c0.8,1.9,2.6,3.1,4.6,3.1h15.3c2,0,3.4,0.8,4,2.3c0.2,0.5,0.3,1,0.3,1.5
			h-70.1c-17.2,0-33-7-46.9-20.9c-1.3-1.3-1.3-3.4,0-4.7c1.3-1.3,3.4-1.3,4.7,0c11.4,11.4,22.9,18.9,42.2,18.9c2.8,0,5-2.2,5.1-5
			c0.9-41.8,20.7-71.8,64.2-97.2c1.8-1,4.3-3.2,7.7-6.4c6.2,14.6,21.7,25.3,33.2,28.6C207.9,181.3,204.5,188,200.7,195.3z
			 M253.8,154.1c-3.4,0.6-7.8-1.8-12.5-4.3l-1.6-0.8c-4.4-2.3-8.8-2.9-12.7-3.5c-6.2-0.9-9.6-1.5-12.5-6.2c-1.5-2.4-4.6-3.1-7-1.6
			c-2.4,1.5-3.1,4.6-1.6,7c2.9,4.6,6.4,7.1,10,8.5c-0.5,2.2-1,4.3-1.5,6.2c-9.1-2.6-24.8-13.4-28-26.7c1.1-1.2,2.3-2.4,3.6-3.6
			c2.2,2.2,5.2,4,8.5,5.1c2.2,0.7,4.3,1,6.4,1c3.5,0,6.9-1,9.7-2.8c5.5-3.7,10.8-12.6,11.3-13.6c1.4-2.4,0.6-5.5-1.8-6.9
			c-2.4-1.4-5.5-0.6-6.9,1.8c-1.5,2.5-5.4,8.4-8.2,10.3c-1.8,1.2-4.6,1.4-7.4,0.6c-2.8-0.9-5-2.6-5.7-4.5c-3.6-9.3,8-17.1,12.4-19.1
			c5.6-2.6,12-1.4,16.4,2.8c0.2,0.2,0.4,0.4,0.6,0.7c2,2.4,3.7,3.2,3.8,3.3c5.6,2.5,10.8,6.5,13.6,10.7c0.9,1.3,2,4.2,3,6.6
			c0.9,2.3,1.8,4.5,2.7,6.2c1.7,3.1,5.3,5.9,9.2,9c2,1.5,5,4,6.3,5.4C262.2,149.3,256.5,153.6,253.8,154.1z"/>
	</g>
</g>
<g id="Layer_4_copy" class="st0">
	<text id="XMLID_586_" transform="matrix(1 0 0 1 283.667 155.2279)" class="st1"><tspan x="0" y="0" class="st3 st4">Consultas</tspan><tspan x="0" y="58.6" class="st3 st4">psicológicas</tspan></text>
	<g id="XMLID_534_" class="st1">
		<circle id="XMLID_585_" class="st2" cx="235.6" cy="125.1" r="5.1"/>
		<path id="XMLID_579_" class="st2" d="M263.9,132.2c-2.4-1.9-5.9-4.7-6.6-5.9c-0.6-1.1-1.4-3.1-2.2-5c-1.2-3.1-2.5-6.4-4-8.6
			c-3.7-5.4-10.1-10.6-17.2-13.9c-7.3-8.9-19.4-11.9-29.9-7c-9.2,4.3-20.8,14.8-18.7,27.8c-0.5,0.5-0.9,0.9-1.4,1.4
			c-1.6,1.6-3.2,3.3-4.9,5c-9.5-0.6-50.6-5.1-84.7-35.2c-0.2-0.3-0.5-0.6-0.8-0.9C46.5,45.5,20.4-14.5-9.3-70.5
			c-3-5.7-11.6-0.6-8.6,5c28.7,54.3,54.3,112,98,156.1c0.2,0.6,0.6,1.1,1,1.6c31.4,31.6,69.7,40.5,88.4,43c-1.7,1.5-3.1,2.7-3.8,3.2
			c-44.5,26-66.5,58.1-69,100.6c-13-1.1-21.3-6.9-30.1-15.7c-5.2-5.2-13.8-5.2-19,0c-5.2,5.2-5.2,13.8,0,19
			c15.8,15.8,34,23.8,54,23.8h73.2c1.3,0,2.6-0.5,3.6-1.5c3.4-3.4,4.4-9.1,2.3-14c-2.2-5.3-7.2-8.5-13.4-8.5h-4.9
			c2.5-3.8,5.1-8.5,6.6-13.6c1.5-3.7,4.5-6.4,7.3-8.3c2.3,18.4,7,40.5,7.3,41.8c0.5,2.3,2.6,4,5,4h16.1c4.6,0,8.3-2.4,9.9-6.5
			c1.8-4.7,0.3-10.8-3.7-14.4c-1.3-1.2-3-2.3-4.5-3.1c-0.8-13.4-0.8-34,2.3-40l1-2c5.2-10.3,10.2-20,16-44.4
			c3.3,0.5,6.5,0.9,9.2,2.4l1.5,0.8c6,3.2,12.1,6.4,18.9,5.3c6.8-1.1,16.7-9.3,18.6-17.2C275.4,141.3,270,137.1,263.9,132.2z
			 M200.7,195.3l-1,2c-5.6,11.1-3.5,44.3-3.2,48.1c0.1,1.8,1.2,3.4,2.9,4.2c1.3,0.6,3.7,2,4.7,2.9c1.2,1.1,1.3,2.9,1.2,3.2
			c0,0-0.2,0.1-0.5,0.1h-12c-2.2-10.9-8-41-7.5-53.5c0.1-3.1,2.1-11.1,3.4-15.4c0.8-2.7-0.8-5.5-3.5-6.3c-2.7-0.8-5.5,0.8-6.3,3.5
			c-0.4,1.3-3.5,12.4-3.8,17.8c-0.1,2.1,0,4.5,0.2,7.2c-1.7,0.9-3.8,2.1-6,3.7c-1.6-5.6-4.9-10.7-9.4-14.2
			c-7.4-5.6-17.1-6.5-27.5-2.4c-2.6,1-3.9,4-2.9,6.6c1,2.6,4,3.9,6.6,2.9c7.1-2.8,13.2-2.4,17.7,1c5.1,3.9,6.9,10.5,6.4,15.1
			c-1.1,10.6-11.5,21.7-11.6,21.8c-1.4,1.5-1.8,3.6-1,5.5c0.8,1.9,2.6,3.1,4.6,3.1h15.3c2,0,3.4,0.8,4,2.3c0.2,0.5,0.3,1,0.3,1.5
			h-70.1c-17.2,0-33-7-46.9-20.9c-1.3-1.3-1.3-3.4,0-4.7c1.3-1.3,3.4-1.3,4.7,0c11.4,11.4,22.9,18.9,42.2,18.9c2.8,0,5-2.2,5.1-5
			c0.9-41.8,20.7-71.8,64.2-97.2c1.8-1,4.3-3.2,7.7-6.4c6.2,14.6,21.7,25.3,33.2,28.6C207.9,181.3,204.5,188,200.7,195.3z
			 M253.8,154.1c-3.4,0.6-7.8-1.8-12.5-4.3l-1.6-0.8c-4.4-2.3-8.8-2.9-12.7-3.5c-6.2-0.9-9.6-1.5-12.5-6.2c-1.5-2.4-4.6-3.1-7-1.6
			c-2.4,1.5-3.1,4.6-1.6,7c2.9,4.6,6.4,7.1,10,8.5c-0.5,2.2-1,4.3-1.5,6.2c-9.1-2.6-24.8-13.4-28-26.7c1.1-1.2,2.3-2.4,3.6-3.6
			c2.2,2.2,5.2,4,8.5,5.1c2.2,0.7,4.3,1,6.4,1c3.5,0,6.9-1,9.7-2.8c5.5-3.7,10.8-12.6,11.3-13.6c1.4-2.4,0.6-5.5-1.8-6.9
			c-2.4-1.4-5.5-0.6-6.9,1.8c-1.5,2.5-5.4,8.4-8.2,10.3c-1.8,1.2-4.6,1.4-7.4,0.6c-2.8-0.9-5-2.6-5.7-4.5c-3.6-9.3,8-17.1,12.4-19.1
			c5.6-2.6,12-1.4,16.4,2.8c0.2,0.2,0.4,0.4,0.6,0.7c2,2.4,3.7,3.2,3.8,3.3c5.6,2.5,10.8,6.5,13.6,10.7c0.9,1.3,2,4.2,3,6.6
			c0.9,2.3,1.8,4.5,2.7,6.2c1.7,3.1,5.3,5.9,9.2,9c2,1.5,5,4,6.3,5.4C262.2,149.3,256.5,153.6,253.8,154.1z"/>
	</g>
</g>
<g id="Layer_4_copy_2" class="st0">
	<text id="XMLID_607_" transform="matrix(1 0 0 1 283.667 155.2279)" class="st1"><tspan x="0" y="0" class="st3 st4">Consultas</tspan><tspan x="0" y="58.6" class="st3 st4">psicológicas</tspan></text>
	<g id="XMLID_331_" class="st1">
		<path id="XMLID_332_" class="st2" d="M274,163.9c0-6.7-2.4-12.9-6.8-17.9c1.8-36.3,2.7-60.5-8.7-82.9
			c-7.8-15.2-20.5-27.9-37.6-37.8c-20-11.5-42.8-17.1-65.9-16.3c-10.4,0.4-20.7,3.1-30,8c-8.5,4.4-16.2,10.7-22.3,18.2
			c-16.8,1-32.2,10.1-40.4,24.2c-0.7,1.2-1.4,2.5-2,3.7c-11.5,22.4-10.5,46.6-8.8,82.9c-4.2,4.8-6.8,11-6.8,17.8
			c0,14.1,10.9,25.7,24.7,26.8c5.8,18.5,21,39.5,45.5,62.7c12.5,11.7,28.4,17.6,44.4,17.6c16,0,32-5.9,44.4-17.6
			c24.5-23.1,39.8-44.1,45.5-62.7C263.1,189.6,274,178,274,163.9z M129.4,25.6c8-4.2,16.9-6.6,25.9-6.9c21.3-0.8,42.3,4.4,60.8,15
			c15.5,8.9,26.9,20.3,33.8,33.8c9.7,18.8,9.5,39.3,7.8,75.7l-10.8,0.6c-7.1,0.2-14.2,0.1-21-0.3c-5.3-4.6-12.2-7.4-19.7-7.4
			c-4.4,0-8.5,0.9-12.3,2.6c-39.6-9.4-62.9-29.3-72-38.4l-11.6-59.1C115.5,34.8,122.1,29.4,129.4,25.6z M159.3,152.1
			c-6.5,0-12.7,2.1-17.8,5.8c-3.7-12.5-15.3-21.7-29-21.7c-13.2,0-24.4,8.5-28.5,20.2l-7.7-7.7v-8.4c19.7-3.2,33.7-12.9,42.4-29.5
			c10.9,10,32.1,25.9,64.8,35.2c-3,3.3-5.3,7.3-6.6,11.8C172,154.2,165.9,152.1,159.3,152.1z M234.6,156.4c-0.3-1-0.7-1.9-1.2-2.8
			c1.3,0,2.6,0.1,3.9,0.1L234.6,156.4z M68.8,67.6c0.6-1.1,1.2-2.2,1.8-3.3c6.3-10.8,17.7-17.9,30.5-19.3l11.3,57.1
			c-7.7,17.7-20.8,26.9-41.3,29.2c-2.5,0.3-4.3,2.3-4.3,4.8v1.3c-2.1,0.4-4.1,1-6,1.8C59.3,105.3,59.5,85.7,68.8,67.6z M54.3,163.9
			c0-7.8,5.3-14.5,12.4-16.6v27.3c0,1.9,0.1,3.9,0.4,5.9C59.8,178.6,54.3,171.8,54.3,163.9z M197.1,246.3c-21.2,20-54.4,20-75.5,0
			c-29.5-27.8-45.1-52.6-45.1-71.7v-12.2l6,6c1.1,15.7,14.2,28.1,30.1,28.1c15.2,0,27.8-11.3,29.9-25.9c3.8-5.6,10.1-8.9,16.9-8.9
			c6.8,0,13,3.3,16.9,8.9c2.1,14.6,14.7,25.9,29.9,25.9c15.9,0,29-12.4,30.1-28.1l6-6v12.2C242.2,193.7,226.6,218.5,197.1,246.3z
			 M251.5,180.5c0.2-2,0.4-4,0.4-5.9v-21.3l8.4-0.5c2.6,3.1,4,7,4,11.1C264.3,171.8,258.9,178.6,251.5,180.5z M133.7,165.9
			c0,11.8-9.5,21.3-21.3,21.3S91,177.7,91,165.9c0-11.8,9.5-21.3,21.3-21.3S133.7,154.1,133.7,165.9z M226.2,166.5
			c0,11.8-9.5,21.3-21.3,21.3c-11.8,0-21.3-9.5-21.3-21.3c0-11.8,9.5-21.3,21.3-21.3C216.6,145.2,226.2,154.7,226.2,166.5z"/>
	</g>
</g>
<g id="Layer_6" class="st0">
	<path id="XMLID_44_" class="st6" d="M275.3,147.7c0-28.8-23.4-52.2-52.2-52.2c-10.2,0-20.2,3-28.6,8.6c-2.2-9.6-5.1-18.9-8.6-27.2
		C176.4,54.6,164,42.4,151,42.4c-13.1,0-25.5,12.2-34.9,34.4c-3.3,7.8-6.1,16.5-8.3,25.6l-13.1-48c-0.5-1.7-2.1-3-3.9-3
		c-1.8,0-3.4,1.2-3.9,3L50.8,186.7c-0.3,1.2-0.1,2.5,0.7,3.5c0.8,1,1.9,1.6,3.2,1.6h32.1v32.1c0,2.2,1.8,4,4,4c2.2,0,4-1.8,4-4
		v-32.1h32.1c1.3,0,2.4-0.6,3.2-1.6c0.6-0.8,0.9-1.8,0.8-2.8c5,2.3,10.4,3.7,16.1,4.2v32.3c0,2.2,1.8,4,4,4s4-1.8,4-4v-32.3
		c10.4-0.9,19.9-5,27.4-11.5c9,11.3,22.4,18.4,36.8,19.5v24.2c0,2.2,1.8,4,4,4c2.2,0,4-1.8,4-4v-24.2
		C254.1,197.6,275.3,175.1,275.3,147.7z M121.6,183.8H94.8v-6.4l7.1-7.1c1.6-1.6,1.6-4.1,0-5.7c-1.6-1.6-4.1-1.6-5.7,0l-1.4,1.4
		v-26.4c0-2.2-1.8-4-4-4c-2.2,0-4,1.8-4,4v18.4l-5.2-5.2c-1.6-1.6-4.1-1.6-5.7,0c-1.6,1.6-1.6,4.1,0,5.7l10.9,10.9v6.4c0,0,0,0,0,0
		v8H59.9L90.8,70.7l13.6,49.8c-1.1,7.8-1.6,15.6-1.6,23.1c0,15.3,7.1,28.9,18.2,37.7L121.6,183.8z M155,177.4l14.9-14.9
		c1.6-1.6,1.6-4.1,0-5.7c-1.6-1.6-4.1-1.6-5.7,0l-9.2,9.2v-16.7l10.9-10.9c1.6-1.6,1.6-4.1,0-5.7c-1.6-1.6-4.1-1.6-5.7,0L155,138
		v-10.4c0-2.2-1.8-4-4-4c-2.2,0-4,1.8-4,4v20.1c0,0,0,0,0,0v10.4l-9.2-9.2c-1.6-1.6-4.1-1.6-5.7,0c-1.6,1.6-1.6,4.1,0,5.7l14.9,14.9
		v6.4c0,0,0,0,0,0v7.8c-20.3-2-36.2-19.2-36.2-40c0-21.3,4.7-45.1,12.6-63.7c8-18.8,18-29.5,27.6-29.5c9.5,0,19.5,10.8,27.6,29.7
		c7.9,18.6,12.6,42.3,12.6,63.5c0,20.8-15.9,38-36.2,40V177.4z M227.2,191.6v-6.2l14.9-14.9c1.6-1.6,1.6-4.1,0-5.7
		c-1.6-1.6-4.1-1.6-5.7,0l-9.2,9.2v-26.4c0-2.2-1.8-4-4-4c-2.2,0-4,1.8-4,4v18.4l-9.2-9.2c-1.6-1.6-4.1-1.6-5.7,0
		c-1.6,1.6-1.6,4.1,0,5.7l14.9,14.9v6.4c0,0,0,0,0,0v7.8c-12.3-1.1-23.6-7.4-31.1-17.3c6.9-8.4,11.1-19.1,11.1-30.8
		c0-10-1-20.6-2.9-30.9c7.7-5.9,17.2-9.1,26.9-9.1c24.3,0,44.1,19.8,44.1,44.1C267.3,170.7,249.7,189.6,227.2,191.6z"/>
	<g id="XMLID_50_" class="st1">
		<g id="XMLID_112_">
			<path id="XMLID_120_" class="st2" d="M274.1,239.1c-15.5-5.7-31.9-9.6-48.1-12.7c-35.7-7-72.7-9.7-108.9-5.3
				c-23.9,2.9-47,8.9-69,18.6c-5.9,2.6-0.8,11.2,5,8.6c63.1-27.9,137.8-23.1,202.8-4.4c5.2,1.5,10.4,3,15.5,4.9
				C277.5,250.9,280.1,241.3,274.1,239.1L274.1,239.1z"/>
		</g>
	</g>
	<text id="XMLID_43_" transform="matrix(1 0 0 1 285.667 112.2279)" class="st1"><tspan x="0" y="0" class="st3 st11">Areas</tspan><tspan x="0" y="54" class="st3 st11">comunes no</tspan><tspan x="0" y="108" class="st3 st11">pet-friendly</tspan></text>
</g>
<g id="Layer_7" class="st0">
	<g id="XMLID_53_" class="st1">
		<path id="XMLID_107_" class="st2" d="M267.8,135.5l-92.1-91.9c-8.5-8.5-22.3-8.5-30.9,0l-92.1,91.9c-4.1,4.1-6.4,9.7-6.4,15.4
			s2.3,11.3,6.4,15.4c1.4,1.4,3.5,1.4,4.8,0l20.7-20.7v93c0,1.8,1.6,3.5,3.5,3.5h156.6c1.8,0,3.5-1.6,3.5-3.5v-93l20.7,20.7
			c0.7,0.7,1.6,0.9,2.5,0.9s1.8-0.2,2.5-0.9c4.1-4.1,6.4-9.7,6.4-15.4C274,145.2,271.7,139.7,267.8,135.5z M193.6,195.7h-6.9
			c-2.8,0-4.8-2.3-4.8-4.8c0-0.2,0-0.5,0-0.7c-0.2-2.5-1.2-4.8-2.5-6.7c0-0.2-0.2-0.5-0.2-0.5l-20.5-28.1c-0.9-1.2-2.5-1.6-3.9-1.2
			c-1.4,0.5-2.3,1.8-2.3,3.2v6.2l-7.1-7.8c-0.9-0.9-2.5-1.4-3.7-0.9c-1.4,0.5-2.1,1.8-2.3,3.2l-0.2,27.4c-4.4,6.4-7.6,15.9-5.8,28.6
			c-1.6,0.7-3.7,1.6-6.2,2.8v-38.2c0-18.4,15-33.4,33.4-33.4s33.4,15,33.4,33.4v17.5H193.6z M151.9,172.9c-1.6,0.9-3.9,2.3-6.2,4.4
			v-11.1L151.9,172.9z M126.8,224c6.4-3.5,11.1-4.8,11.1-4.8c1.6-0.5,2.8-2.3,2.3-3.9c-5.5-27.4,15.7-36.6,16.6-36.9
			c1.4-0.5,2.1-1.8,2.1-3.2v-7.8l8.5,11.7h-3.5c-1.8,0-3.5,1.6-3.5,3.5c0,1.8,1.6,3.5,3.5,3.5h6c2.3,0,4.4,1.6,4.8,3.9h-4.6
			c-1.8,0-3.5,1.6-3.5,3.5c0,1.8,1.6,3.5,3.5,3.5h6.2c2.1,3.5,5.8,6,10.1,6h16.6v6.7c0,3.9-0.9,13.4-9.9,13.4h-19.8
			c-1.8,0-3.5,1.6-3.5,3.5c0,1.8,1.6,3.5,3.5,3.5h9.2c0,1.4-0.2,3.2-0.7,6h-55V224z M193.4,229.3
			C193.6,229.3,193.6,229.3,193.4,229.3l0.2,6h-4.4c0.5-2.5,0.5-4.4,0.5-6H193.4z M265,158.8l-44.5-44.2c-1.4-1.4-3.5-1.4-4.8,0
			s-1.4,3.5,0,4.8l19.3,19.3v96.5h-34.5v-7.4c6.2-2.8,9.7-9.7,9.7-18.7v-10.1c0-1.8-1.6-3.5-3.5-3.5h-6.4v-17.5
			c0-22.1-18.2-40.3-40.3-40.3s-40.1,18-40.1,40.3v57.1H85.4v-96.5L146.2,78c1.4-1.4,1.4-3.5,0-4.8c-1.4-1.4-3.5-1.4-4.8,0
			l-85.9,85.7c-1.4-2.3-2.3-5.1-2.3-7.8c0-3.9,1.6-7.8,4.4-10.6l91.9-91.9c2.8-2.8,6.7-4.4,10.6-4.4c3.9,0,7.8,1.6,10.6,4.4
			l91.9,91.9c2.8,2.8,4.4,6.7,4.4,10.6C267.1,154,266.4,156.5,265,158.8z"/>
		<path id="XMLID_54_" class="st2" d="M178.2,98.7c-4.6,0-8.8,3-10.1,7.4h-7.8h-7.8c-1.4-4.1-5.5-7.4-10.1-7.4
			c-6,0-10.8,4.8-10.8,10.8c0,2.8,1.2,5.3,3,7.4c-1.8,1.8-3,4.4-3,7.4c0,6,4.8,10.8,10.8,10.8c4.6,0,8.8-3,10.1-7.4h7.8h7.8
			c1.4,4.1,5.5,7.4,10.1,7.4c6,0,10.8-4.8,10.8-10.8c0-2.8-1.2-5.3-3-7.4c1.8-1.8,3-4.4,3-7.4C189,103.5,184.2,98.7,178.2,98.7z
			 M178.2,127.7c-2.1,0-3.9-1.8-3.9-3.9c0-1.8-1.6-3.5-3.5-3.5h-10.6h-10.8c-1.8,0-3.5,1.6-3.5,3.5c0,2.1-1.8,3.9-3.9,3.9
			c-2.1,0-3.9-1.8-3.9-3.9s1.8-3.9,3.9-3.9c1.8,0,3.5-1.6,3.5-3.5c0-1.8-1.6-3.5-3.5-3.5c-2.1,0-3.9-1.8-3.9-3.9s1.8-3.9,3.9-3.9
			c2.1,0,3.9,1.8,3.9,3.9c0,1.8,1.6,3.5,3.5,3.5h10.8h10.8c1.8,0,3.5-1.6,3.5-3.5c0-2.1,1.8-3.9,3.9-3.9s3.9,1.8,3.9,3.9
			s-1.8,3.9-3.9,3.9c-1.8,0-3.5,1.6-3.5,3.5c0,1.8,1.6,3.5,3.5,3.5c2.1,0,3.9,1.8,3.9,3.9C182.1,126.1,180.5,127.7,178.2,127.7z"/>
	</g>
	<text id="XMLID_52_" transform="matrix(1 0 0 1 288.667 119.2279)" class="st1"><tspan x="0" y="0" class="st3 st11">Sin</tspan><tspan x="0" y="54" class="st3 st11">espacios</tspan><tspan x="0" y="108" class="st3 st11">designados</tspan></text>
</g>
<g id="Layer_8" class="st0">
	<g id="XMLID_133_" class="st1">
		<path id="XMLID_137_" class="st2" d="M282.4,222.4l-17.2-75.1c0-0.2-0.1-0.3-0.1-0.5c-1.3-4.7-7.6-8.3-19.9-11.4
			c-2.3-12.3-13.1-21.5-26-21.5c-0.8,0-1.7,0-2.5,0.1c-4.5-8.7-13.6-14.3-23.6-14.3c-3,0-6.1,0.5-8.9,1.5
			c-4.3-6.6-11.6-10.7-19.7-10.7c-8.1,0-15.4,4.1-19.7,10.7c-2.8-1-5.9-1.5-8.9-1.5c-10,0-19.1,5.6-23.6,14.3
			c-0.8-0.1-1.7-0.1-2.5-0.1c-12.9,0-23.7,9.3-26,21.5c-12.5,3.1-18.8,6.8-19.9,11.7c0,0.1,0,0.1-0.1,0.2l-17.2,75
			c-0.1,0.3-0.1,0.6-0.1,0.9c0,7.9,12.3,14.9,36.4,20.8c23.4,5.8,52.3,8.9,81.4,8.9c29.2,0,58.1-3.2,81.4-8.9
			c24.2-6,36.4-13,36.4-20.8C282.5,223,282.4,222.7,282.4,222.4z M245.4,144c7.8,2.1,10.5,4,11.4,4.8c-1,0.9-4.5,3.3-15.2,5.7
			C243.6,151.4,244.9,147.8,245.4,144z M110,122.1c1.3,0,2.7,0.2,4.1,0.5c2,0.5,4.1-0.7,4.8-2.6c2.6-7.2,9.5-12.1,17.2-12.1
			c3.1,0,6.1,0.8,8.8,2.2c1,0.6,2.2,0.7,3.3,0.3c1.1-0.4,2-1.2,2.4-2.3c2.4-5.7,7.9-9.4,14-9.4c6.2,0,11.7,3.7,14,9.4
			c0.4,1.1,1.3,1.9,2.4,2.3c1.1,0.4,2.3,0.3,3.3-0.3c2.7-1.5,5.7-2.2,8.8-2.2c7.7,0,14.6,4.9,17.2,12.1c0.7,1.9,2.7,3.1,4.8,2.6
			c1.3-0.3,2.7-0.5,4.1-0.5c10.1,0,18,8.2,18.3,18.3c0.2,7-4.8,13.1-9.7,16.6c-17.5,2.6-39.8,4.1-63.3,4.1
			c-22.8,0-44.7-1.4-61.9-3.9c-6.5-3-11-9.7-11-16.8C91.6,130.4,99.9,122.1,110,122.1z M83.7,144c0.5,3.8,1.8,7.4,3.8,10.5
			c-10.8-2.5-14.2-4.8-15.2-5.7C73.2,148,75.9,146.1,83.7,144z M242.2,236.6c-22.4,5.3-50,8.3-77.7,8.3s-55.2-2.9-77.7-8.3
			c-22.1-5.2-30.9-11-32-13.2l15.1-66.2c1.6,0.9,3,1.5,3.9,1.8c5.1,2.1,12.4,3.9,21.6,5.5c18.5,3.1,43,4.9,69,4.9s50.6-1.7,69-4.9
			c9.2-1.6,16.4-3.4,21.6-5.5c0.9-0.3,2.3-0.9,3.9-1.8l15.1,66.2C273.1,225.6,264.3,231.3,242.2,236.6z"/>
		<path id="XMLID_134_" class="st2" d="M214.4,172.6c-9.5,0-17.4,7-18.9,16.1h-61.8c-1.5-9.1-9.4-16.1-18.9-16.1
			c-10.6,0-19.2,8.6-19.2,19.2c0,4.2,1.4,8.3,3.9,11.6c-2.5,3.3-3.9,7.3-3.9,11.6c0,10.6,8.6,19.2,19.2,19.2c9.5,0,17.4-7,18.9-16.1
			h61.8c1.5,9.1,9.4,16.1,18.9,16.1c10.6,0,19.2-8.6,19.2-19.2c0-4.2-1.4-8.3-3.9-11.6c2.5-3.3,3.9-7.3,3.9-11.6
			C233.6,181.2,225,172.6,214.4,172.6z M221.5,206.5c2.5,2.1,3.9,5.2,3.9,8.4c0,6.1-4.9,11-11,11c-6.1,0-11-4.9-11-11
			c0-0.2,0-0.5,0-0.7c0.1-1.1-0.3-2.2-1.1-3.1c-0.8-0.8-1.9-1.3-3-1.3h-69.5c-1.1,0-2.2,0.5-3,1.3c-0.8,0.8-1.2,1.9-1.1,3.1
			c0,0.2,0,0.5,0,0.7c0,6.1-4.9,11-11,11c-6.1,0-11-4.9-11-11c0-3.3,1.4-6.3,3.9-8.4c0.9-0.8,1.5-1.9,1.5-3.1c0-1.2-0.5-2.4-1.5-3.1
			c-2.5-2.1-3.9-5.2-3.9-8.4c0-6.1,4.9-11,11-11c6.1,0,11,4.9,11,11c0,0.2,0,0.5,0,0.7c-0.1,1.1,0.3,2.2,1.1,3.1
			c0.8,0.8,1.9,1.3,3,1.3h69.5c1.1,0,2.2-0.5,3-1.3c0.8-0.8,1.2-1.9,1.1-3.1c0-0.2,0-0.5,0-0.7c0-6.1,4.9-11,11-11
			c6.1,0,11,4.9,11,11c0,3.3-1.4,6.3-3.9,8.4c-0.9,0.8-1.5,1.9-1.5,3.1C220,204.6,220.6,205.8,221.5,206.5z"/>
	</g>
	<path id="XMLID_136_" class="st6" d="M101.7,72.9c-4.1-3.4-8.2-6.8-12.4-10.2c-2.1-1.7-5-2-7.1,0c-1.8,1.8-2.1,5.3,0,7.1
		c4.1,3.4,8.2,6.8,12.4,10.2c2.1,1.7,5,2,7.1,0C103.4,78.2,103.8,74.6,101.7,72.9z"/>
	<path id="XMLID_138_" class="st6" d="M152.3,48.6v10.7c0,6.4,10,6.4,10,0V48.6C162.3,42.1,152.3,42.1,152.3,48.6z"/>
	<path id="XMLID_139_" class="st6" d="M227.2,58.8c-2,3.8-4,7.6-6,11.3c-3,5.7,5.6,10.7,8.6,5c2-3.8,4-7.6,6-11.3
		C238.8,58.2,230.2,53.1,227.2,58.8z"/>
	<text id="XMLID_132_" transform="matrix(1 0 0 1 286.667 115.2279)" class="st1"><tspan x="0" y="0" class="st3 st11">No ofrece</tspan><tspan x="0" y="54" class="st3 st11">alimentos</tspan><tspan x="0" y="108" class="st3 st11">de mascota</tspan></text>
</g>
<g id="Layer_9" class="st0">
	<g id="XMLID_140_" class="st1">
		<path id="XMLID_142_" class="st2" d="M248.6,68c-10.2,0-19.1,5.4-24,13.5H214c-6.3,0-11.6,3.9-13.8,9.4c-22.4,2.1-40,21-40,44
			v86.3c0,18.1-14.7,32.9-32.9,32.9c-18.1,0-32.9-14.7-32.9-32.9v-19.7c8.8-2,13.9-8.6,16.4-20.9l2.3-11.7c12-8,19.9-21.7,19.9-37.1
			V58.2c0-7.9-2.1-15.7-5.9-22.6c1.7-2.5,2.7-5.5,2.7-8.7c0-8.6-7-15.6-15.6-15.6s-15.6,7-15.6,15.6s7,15.6,15.6,15.6
			c1.2,0,2.4-0.2,3.6-0.4c2.6,5,3.9,10.6,3.9,16.2v42.4c0,18.4-15,33.4-33.4,33.4c-18.3,0-33.2-14.8-33.3-33V58.2
			c0-5.8,1.5-11.4,4.3-16.3c1.3,0.4,2.8,0.6,4.2,0.6c8.6,0,15.6-7,15.6-15.6s-7-15.6-15.6-15.6c-8.6,0-15.6,7-15.6,15.6
			c0,3,0.8,5.7,2.3,8.1c-4.3,7-6.5,15-6.5,23.2v42.2c0,0.1,0,0.1,0,0.2c0,0.1,0,0.2,0,0.3v30.8c0,15.5,7.9,29.1,19.9,37.1l2.3,11.6
			c2.1,12.7,7.7,19.5,17.3,21.2v19.6c0,24.4,19.8,44.2,44.2,44.2c24.4,0,44.2-19.8,44.2-44.2v-86.3c0-16.8,12.6-30.6,28.9-32.6
			c2.3,5.2,7.5,8.9,13.6,8.9h10.6c5,8.1,13.9,13.5,24,13.5c15.6,0,28.3-12.7,28.3-28.3C276.9,80.7,264.2,68,248.6,68z M109.9,26.8
			c0-2.4,1.9-4.3,4.3-4.3c2.4,0,4.3,1.9,4.3,4.3c0,2.4-1.9,4.3-4.3,4.3C111.8,31.1,109.9,29.2,109.9,26.8z M63.5,22.6
			c2.4,0,4.3,1.9,4.3,4.3c0,2.4-1.9,4.3-4.3,4.3c-2.4,0-4.3-1.9-4.3-4.3S61.2,22.6,63.5,22.6z M55,131.7v-1.4
			c8.2,9.2,20.1,15,33.3,15c13.3,0,25.2-5.8,33.4-15.1v1.5c0,18.4-15,33.4-33.3,33.4C70,165,55,150.1,55,131.7z M77,178.3l-0.7-3.7
			c3.9,1.1,7.9,1.7,12.1,1.7c4.2,0,8.3-0.6,12.1-1.7l-0.7,3.7c-2.3,11.5-6,12.4-11.4,12.4C82.9,190.7,78.9,189.8,77,178.3z
			 M214,99.8c-1.9,0-3.5-1.6-3.5-3.5c0-1.9,1.6-3.5,3.5-3.5h6.6c-0.1,1.2-0.2,2.3-0.2,3.5c0,1.2,0.1,2.3,0.2,3.5H214z M248.6,113.3
			c-9.3,0-17-7.6-17-17s7.6-17,17-17c9.4,0,17,7.6,17,17S258,113.3,248.6,113.3z"/>
		<circle id="XMLID_141_" class="st2" cx="248.6" cy="96.3" r="8.4"/>
	</g>
	<text id="XMLID_135_" transform="matrix(1 0 0 1 283.667 153.2279)" class="st1"><tspan x="0" y="0" class="st3 st11">Análisis</tspan><tspan x="0" y="54" class="st3 st11">Clínicos</tspan></text>
</g>
<g id="Layer_10" class="st0">
	<text id="XMLID_150_" transform="matrix(1 0 0 1 283.667 183.2279)" class="st1 st3 st11">Laboratorio</text>
	<g id="XMLID_151_" transform="translate(0,-1020.3622)" class="st1">
		<path id="XMLID_172_" class="st2" d="M193.3,1085.2c-12.7,0-23.2,10.4-23.2,23.2c0,12.7,10.4,23.2,23.2,23.2
			c12.7,0,23.2-10.4,23.2-23.2C216.5,1095.6,206.1,1085.2,193.3,1085.2z M193.3,1094.5c7.7,0,13.9,6.2,13.9,13.9
			s-6.2,13.9-13.9,13.9c-7.7,0-13.9-6.2-13.9-13.9S185.6,1094.5,193.3,1094.5z"/>
		<path id="XMLID_171_" class="st2" d="M198,1108.4c0,2.6-2.1,4.6-4.6,4.6s-4.6-2.1-4.6-4.6c0-2.6,2.1-4.6,4.6-4.6
			S198,1105.8,198,1108.4z"/>
		<path id="XMLID_170_" class="st2" d="M212.7,1104c-2.6,0.1-4.5,2.3-4.4,4.8c0.1,1.4,0.8,2.7,1.9,3.5
			c24.9,18.5,36.6,49.8,29.9,80.1c-6.6,30.3-30.4,53.8-60.7,60.2c-2.5,0.5-4.2,2.9-3.7,5.4c0.5,2.5,2.9,4.2,5.4,3.7
			c0.1,0,0.2,0,0.2,0c33.9-7.1,60.4-33.5,67.8-67.3c7.4-33.8-5.7-68.8-33.4-89.5C214.9,1104.3,213.8,1103.9,212.7,1104z"/>
		<path id="XMLID_169_" class="st2" d="M167.8,1249.7c0,2.6-2.1,4.6-4.6,4.6s-4.6-2.1-4.6-4.6c0-2.6,2.1-4.6,4.6-4.6
			S167.8,1247.1,167.8,1249.7z"/>
		<path id="XMLID_168_" class="st2" d="M203.1,1119.9c-2.6,0-4.6,2.2-4.6,4.7c0,1.4,0.7,2.7,1.8,3.6c17.8,14,26.3,36.9,21.8,59.1
			c-4.4,22.3-21,40.1-42.8,46.2c-2.5,0.7-3.9,3.3-3.2,5.7c0.7,2.5,3.3,3.9,5.7,3.2l0,0c25.2-7,44.3-27.7,49.4-53.3
			c5.1-25.7-4.6-52-25.2-68.2C205.3,1120.2,204.2,1119.9,203.1,1119.9L203.1,1119.9z"/>
		<path id="XMLID_165_" class="st2" d="M163.2,1226.5c-12.7,0-23.2,10.4-23.2,23.2s10.4,23.2,23.2,23.2c12.7,0,23.2-10.4,23.2-23.2
			S175.9,1226.5,163.2,1226.5z M163.2,1235.8c7.7,0,13.9,6.2,13.9,13.9s-6.2,13.9-13.9,13.9c-7.7,0-13.9-6.2-13.9-13.9
			S155.5,1235.8,163.2,1235.8z"/>
		<path id="XMLID_164_" class="st2" d="M92.6,1215.1c-2.6-0.1-4.7,2-4.7,4.5c0,0.9,0.2,1.8,0.7,2.6c12.6,20.1,32.7,34.3,55.9,39.3
			c2.5,0.5,5-1,5.5-3.5c0.5-2.5-1-5-3.5-5.5c-20.7-4.5-38.7-17.2-50-35.2C95.6,1216,94.2,1215.1,92.6,1215.1L92.6,1215.1z"/>
		<path id="XMLID_163_" class="st2" d="M115.9,1215.1c-2.6-0.1-4.7,1.9-4.8,4.5c0,1.3,0.4,2.5,1.3,3.4c9,9.7,20.5,16.5,33.3,19.9
			c2.5,0.7,5-0.8,5.7-3.3c0.7-2.5-0.8-5-3.3-5.7c0,0-0.1,0-0.1,0c-11.1-2.9-21.1-8.9-28.9-17.2
			C118.3,1215.7,117.1,1215.1,115.9,1215.1L115.9,1215.1z"/>
		<path id="XMLID_160_" class="st2" d="M188.6,1034.3c-1.2,0-2.4,0.5-3.2,1.4l-64.8,64.8c-1.8,1.8-1.9,4.7-0.1,6.6
			c1.8,1.8,4.7,1.9,6.6,0.1c0,0,0.1-0.1,0.1-0.1l61.5-61.6l28.2,28.2l-15.3,15.3c-1.8,1.8-1.8,4.8,0,6.6c1.8,1.8,4.8,1.8,6.6,0
			l18.5-18.5c1.8-1.8,1.8-4.7,0-6.6l-34.7-34.7C191.1,1034.7,189.9,1034.2,188.6,1034.3L188.6,1034.3z M177,1115.3
			c-1.2,0-2.3,0.5-3.2,1.4l-18.5,18.5c-1.8,1.8-1.9,4.7-0.1,6.6s4.7,1.9,6.6,0.1c0,0,0.1-0.1,0.1-0.1l18.5-18.5
			c1.8-1.8,1.9-4.7,0.1-6.6C179.6,1115.7,178.3,1115.2,177,1115.3z"/>
		<path id="XMLID_159_" class="st2" d="M130.7,1106.1c-1.2,0-2.3,0.5-3.2,1.4l-30.1,30.1c-1.8,1.8-1.8,4.7,0,6.6l20.8,20.8
			c1.8,1.8,4.7,1.8,6.6,0l30.1-30.1c1.8-1.8,1.9-4.7,0.1-6.6c-1.8-1.8-4.7-1.9-6.6-0.1c0,0-0.1,0.1-0.1,0.1l-26.8,26.8l-14.3-14.3
			L134,1114c1.8-1.8,1.9-4.7,0.1-6.6C133.2,1106.5,131.9,1106,130.7,1106.1z"/>
		<path id="XMLID_158_" class="st2" d="M221.1,1020.4c-1.2,0-2.4,0.5-3.2,1.4l-23.1,23.1c-1.8,1.8-1.9,4.7-0.1,6.6
			c1.8,1.8,4.7,1.9,6.6,0.1c0,0,0.1-0.1,0.1-0.1l19.9-19.9l9.6,9.6l-19.9,19.9c-1.8,1.8-1.9,4.7-0.1,6.6s4.7,1.9,6.6,0.1
			c0,0,0.1-0.1,0.1-0.1l23.1-23.1c1.8-1.8,1.8-4.7,0-6.6l-16.2-16.2C223.5,1020.8,222.3,1020.3,221.1,1020.4L221.1,1020.4z"/>
		<path id="XMLID_157_" class="st2" d="M116.9,1092.2c-2.6,0-4.6,2.1-4.6,4.6c0,1.3,0.5,2.5,1.4,3.3l48.5,48.5
			c1.8,1.8,4.7,1.9,6.6,0.1c1.8-1.8,1.9-4.7,0.1-6.6c0,0-0.1-0.1-0.1-0.1l-48.5-48.5C119.3,1092.7,118.1,1092.2,116.9,1092.2z"/>
		<path id="XMLID_154_" class="st2" d="M56.7,1196.4v27.8H147v-4.6v-23.2H56.7z M65.9,1205.7h71.8v9.3H65.9V1205.7z"/>
		<path id="XMLID_153_" class="st2" d="M77.5,1177.9v9.3h46.3v-9.3H77.5z"/>
		<path id="XMLID_152_" class="st2" d="M116.9,1261.2c-1.5,0-3,0.8-3.9,2.1l-13.9,20.8c-1.4,2.1-0.8,5,1.3,6.4
			c0.8,0.5,1.7,0.8,2.6,0.8h120.4c2.6,0,4.6-2.1,4.6-4.6c0-0.9-0.3-1.8-0.8-2.6l-13.9-20.8c-0.9-1.3-2.3-2.1-3.9-2.1h-37.1v9.3h34.6
			l7.7,11.6H111.6l7.7-11.6h34.6v-9.3C153.9,1261.2,116.9,1261.2,116.9,1261.2z"/>
	</g>
</g>
<g id="Layer_11" class="st0">
	<g id="XMLID_175_" class="st1">
		<g id="XMLID_188_">
			<g id="XMLID_189_">
				<path id="XMLID_190_" class="st2" d="M190.7,177.2c-4.3-1.9-7.1-6.1-7.1-10.8v-48.2c0-4.7,2.8-9,7.1-10.8
					c10.6-4.6,17.2-14.9,17-26.4c-0.3-14.9-12.2-27-27.1-27.5c-5.8-0.2-11.3,1.3-16.2,4.4c-1.3,0.8-2.9,0.8-4.2,0
					c-4.8-3.1-10.4-4.6-16.2-4.4c-14.9,0.6-26.8,12.7-27.1,27.5c-0.2,11.5,6.4,21.9,17,26.4c4.3,1.9,7.1,6.1,7.1,10.8v48.2
					c0,4.7-2.8,9-7.1,10.8c-10.6,4.6-17.2,14.9-17,26.4c0.3,14.9,12.2,27,27.1,27.5c5.7,0.2,11.3-1.3,16.2-4.4
					c1.3-0.8,2.9-0.8,4.2,0c4.5,2.9,9.7,4.4,15.1,4.4c0.4,0,0.7,0,1.1,0c14.9-0.6,26.8-12.7,27.1-27.5
					C207.9,192.1,201.3,181.7,190.7,177.2z M200.6,203.4c-0.2,11.1-9.1,20.2-20.3,20.6c-4.3,0.2-8.5-1-12.1-3.3
					c-1.8-1.1-3.9-1.7-5.9-1.7c-2.1,0-4.1,0.6-5.9,1.7c-3.6,2.3-7.8,3.4-12.1,3.3c-11.1-0.4-20-9.5-20.3-20.6
					c-0.2-8.6,4.8-16.4,12.7-19.8c6.9-3,11.4-9.8,11.4-17.4v-48.2c0-7.6-4.5-14.4-11.4-17.4c-7.9-3.4-12.9-11.2-12.7-19.8
					c0.2-11.1,9.1-20.2,20.3-20.6c4.3-0.2,8.5,1,12.1,3.3c3.6,2.3,8.2,2.3,11.8,0c3.6-2.3,7.8-3.4,12.1-3.3
					c11.1,0.4,20,9.5,20.3,20.6c0.2,8.6-4.8,16.4-12.7,19.8c-6.9,3-11.4,9.8-11.4,17.4v48.2c0,7.6,4.5,14.4,11.4,17.4
					C195.8,187.1,200.8,194.8,200.6,203.4z"/>
			</g>
		</g>
		<g id="XMLID_185_">
			<g id="XMLID_186_">
				<path id="XMLID_177_" class="st2" d="M136.8,70.6c-1.5-1.2-3.8-0.9-5,0.6c-2.3,2.9-3.5,6.4-3.5,10.1c0,2,1.6,3.5,3.5,3.5
					c2,0,3.5-1.6,3.5-3.5c0-2.1,0.7-4.1,2-5.8C138.6,74,138.4,71.8,136.8,70.6z"/>
			</g>
		</g>
		<g id="XMLID_182_">
			<g id="XMLID_183_">
				<path id="XMLID_176_" class="st2" d="M145,64.8c-0.8,0-1.5,0.1-2.3,0.2c-1.9,0.3-3.3,2.1-3,4c0.2,1.8,1.8,3.1,3.5,3.1
					c0.2,0,0.3,0,0.5,0c0.4-0.1,0.9-0.1,1.3-0.1c2,0,3.5-1.6,3.5-3.5C148.5,66.4,146.9,64.8,145,64.8z"/>
			</g>
		</g>
	</g>
	<path id="XMLID_180_" class="st12" d="M240.7,257.9H84c-6.6,0-12-5.4-12-12v-216c0-6.6,5.4-12,12-12h156.7c6.6,0,12,5.4,12,12v216
		C252.7,252.5,247.3,257.9,240.7,257.9z"/>
	<text id="XMLID_181_" transform="matrix(1 0 0 1 284.0004 182.2279)" class="st1 st3 st13">Radiología</text>
</g>
<g id="Layer_11_copy_12" class="st0">
	<text id="XMLID_362_" transform="matrix(1 0 0 1 284.0004 182.2279)" class="st1 st3 st13">Sucursales</text>
	<g id="XMLID_374_" class="st1">
		<g id="XMLID_424_">
			<path id="XMLID_442_" class="st2" d="M196.5,150.1h-37.2c-10.2,0-18.5,8.3-18.5,18.5v28.5c0,10.2,8.3,18.5,18.5,18.5h37.2
				c10.2,0,18.5-8.3,18.5-18.5v-28.5C214.9,158.4,206.6,150.1,196.5,150.1z M201.5,197.1c0,2.8-2.3,5-5,5h-37.2c-2.8,0-5-2.3-5-5
				v-28.5c0-2.8,2.3-5,5-5h37.2c2.8,0,5,2.3,5,5V197.1z"/>
			<path id="XMLID_426_" class="st2" d="M275.7,98.3c0-1.2-0.3-2.3-0.9-3.3l-40.7-71.6c-1.2-2.1-3.4-3.4-5.8-3.4H49.4
				c-2.4,0-4.6,1.3-5.8,3.4L2.9,95C2.3,96,2,97.1,2,98.3c0,16.1,9.7,29.8,23.5,35.9v118.1c0,3.7,3,6.7,6.7,6.7h37.1
				c0.1,0,0.1,0,0.2,0h52c0.1,0,0.1,0,0.2,0h123.8c3.7,0,6.7-3,6.7-6.7V135c0-0.3,0-0.5-0.1-0.7C266,128.2,275.7,114.4,275.7,98.3z
				 M53.3,33.5h171.1l31.8,56H21.5L53.3,33.5z M196.8,102.8c-2.1,12.1-12.7,21.3-25.4,21.3c-12.7,0-23.3-9.2-25.4-21.3H196.8z
				 M131.8,102.8c-2.1,12.1-12.7,21.3-25.4,21.3s-23.3-9.2-25.4-21.3H131.8z M15.9,102.8h50.8c-2.1,12.1-12.8,21.3-25.4,21.3
				C28.6,124.1,18,114.9,15.9,102.8z M114.8,245.6H76.2v-72.4c0-5.3,4.3-9.6,9.6-9.6h19.5c5.3,0,9.6,4.3,9.6,9.6L114.8,245.6
				L114.8,245.6z M238.7,245.6H128.2v-72.4c0-12.6-10.3-23-23-23H85.7c-12.6,0-23,10.3-23,23v72.5H38.9V137.5
				c0.8,0.1,1.6,0.1,2.3,0.1c13.5,0,25.5-6.9,32.6-17.3c7,10.5,19,17.3,32.6,17.3s25.4-6.9,32.6-17.3c7,10.5,19,17.3,32.5,17.3
				c13.5,0,25.4-6.9,32.5-17.3c7,10.5,19,17.3,32.6,17.3c0.8,0,1.5-0.1,2.3-0.1L238.7,245.6L238.7,245.6z M236.5,124.1
				c-12.7,0-23.3-9.2-25.4-21.3h50.8C259.7,114.9,249.2,124.1,236.5,124.1z"/>
		</g>
	</g>
</g>
<g id="Layer_11_copy" class="st0">
	<text id="XMLID_184_" transform="matrix(1 0 0 1 284.0004 161.2279)" class="st1"><tspan x="0" y="0" class="st3 st14">Ecografías y </tspan><tspan x="0" y="51.6" class="st3 st14">Ecocardiografías</tspan></text>
	<g id="XMLID_191_" class="st1">
		<g id="XMLID_219_">
			<path id="XMLID_223_" d="M272,85.4c-7,17.8-14.1,35.6-21.1,53.5c-11.3,28.6-22.6,57.2-33.9,85.8c-2.6,6.6-5.2,13.1-7.8,19.7
				c1.1-0.9,2.2-1.7,3.4-2.6c-29.3-2.2-59.2-2.9-88.4,0c1.1,0.9,2.2,1.7,3.4,2.6c-7.2-17.9-14.4-35.7-21.6-53.6
				c-11.5-28.5-23-57-34.5-85.5c-2.7-6.6-5.3-13.2-8-19.8c-0.3,1.1-0.6,2.3-0.9,3.4c0.5-0.4-1,0.4,0,0c0.6-0.3,1.3-1,1.9-1.4
				c2.2-1.6,4.5-3,6.9-4.4c8.4-5,17.2-9.1,26.4-12.4c31.1-11.3,64.9-13.6,97.4-8.3c27.5,4.5,53.9,14.2,78.6,27c4,2.1,7.5-4,3.5-6
				c-40.6-20.9-86-33.8-131.9-30c-26.1,2.1-52.1,9.3-75,22.3c-4.4,2.5-8.7,5.1-12.7,8.3c-0.9,0.7-1.3,2.4-0.9,3.4
				c7.2,17.9,14.4,35.7,21.6,53.6c11.5,28.5,23,57,34.5,85.5c2.7,6.6,5.3,13.2,8,19.8c0.5,1.3,1.7,2.7,3.4,2.6
				c29.2-2.9,59.2-2.2,88.4,0c1.6,0.1,2.8-1.2,3.4-2.6c7-17.8,14.1-35.6,21.1-53.5c11.3-28.6,22.6-57.2,33.9-85.8
				c2.6-6.6,5.2-13.1,7.8-19.7C280.4,83,273.6,81.2,272,85.4z"/>
		</g>
	</g>
	<path id="XMLID_195_" class="st6" d="M168.7,191.4l-1.5-0.9c-0.9-0.5-21.9-13.1-34-32c-6.4-10.1-8.4-20.7-5.6-30
		c2.3-7.6,7.5-13.6,14.9-16.8c2.6-1.1,5.2-1.7,7.8-1.7c8.5,0,15,5.9,18.3,9.6c3.3-3.7,9.9-9.6,18.3-9.6c2.6,0,5.3,0.6,7.8,1.7
		c7.3,3.3,12.6,9.3,14.9,16.8c2.8,9.2,0.8,19.9-5.6,30c-12,19-33.1,31.5-34,32L168.7,191.4z M150.3,115.7c-1.8,0-3.7,0.4-5.5,1.2
		c-5.8,2.6-9.9,7.3-11.7,13.2c-2.3,7.6-0.5,16.6,4.9,25.2c9.5,15.1,25.7,26.1,30.6,29.3c4.9-3.2,21.1-14.2,30.6-29.3
		c5.5-8.7,7.2-17.6,4.9-25.2c-1.8-5.9-5.9-10.7-11.7-13.2c-1.8-0.8-3.6-1.2-5.5-1.2c-9.1,0-15.9,10-15.9,10.1l-2.4,3.6l-2.4-3.6
		C166.2,125.7,159.4,115.7,150.3,115.7z"/>
</g>
<g id="Layer_11_copy_2" class="st0">
	<text id="XMLID_193_" transform="matrix(1 0 0 1 284.0004 182.2279)" class="st1 st3 st13">Cirugía</text>
	<g id="XMLID_197_" class="st1">
		<path id="XMLID_200_" class="st2" d="M272,22.8c-0.6-5.3-3.2-10-7.3-13.3c-4.1-3.3-9.2-4.8-14.5-4.2s-10,3.1-13.3,7.3l-125,156
			c-1.9,2.4-2.5,5.5-1.8,8.4l-64.5,80.5c-0.9,1.1-1.2,2.6-0.7,4c0.4,1.4,1.5,2.4,3,2.8c0.4,0.1,9.4,2.4,21.1,1.1
			c14.8-1.6,27.5-8.4,36.7-19.5l26.7-33.3c0.9-1.1,1.2-2.6,0.7-3.9l-3.5-11.2l8.7-10.8l1.5,0.2c1,0.1,2.1,0.1,3.1,0
			c3.7-0.4,6.9-2.2,9.2-5.1L253.3,55.4l0,0l14.5-18.1C271.1,33.3,272.6,28.1,272,22.8z M235.8,63.7l-12.3-20.7l8.9-11.1l12.3,20.7
			L235.8,63.7z M221.2,81.8l-12.4-20.7l8.9-11.1l12.3,20.7L221.2,81.8z M128.2,185.5l-6.8,8.4c-0.9,1.1-1.2,2.6-0.7,3.9l3.5,11.2
			L99,240.5c-7.8,9.5-18.3,15-31.1,16.4c-4.3,0.5-8.1,0.4-11.2,0.1l58.9-73.5c0,0,0,0,0.1,0c0.8,0.3,1.6,0.5,2.5,0.7L128.2,185.5z
			 M145.4,176.5c-1.1,1.4-3,2.2-4.7,1.9l-21.4-2.5c-0.2,0-0.4-0.1-0.5-0.2c-0.1-0.1-0.2-0.1-0.3-0.3c-0.1-0.1-0.1-0.2-0.2-0.2
			c-0.1-0.3-0.2-0.7,0.2-1.2l84.8-105.7L215.6,89L145.4,176.5z M261.1,32.1l-10.7,13.4l-12.3-20.7l5.4-6.8c1.9-2.3,4.6-3.8,7.6-4.2
			s5.9,0.5,8.3,2.4c2.3,1.9,3.8,4.6,4.2,7.6S263,29.7,261.1,32.1z"/>
		<path id="XMLID_199_" class="st2" d="M94.6,220l-7.5,9.4c-1.5,1.8-1.2,4.5,0.7,5.9c0.9,0.8,2,1,3.1,0.9c1.1-0.1,2.1-0.7,2.9-1.6
			l7.5-9.4c1.5-1.8,1.2-4.5-0.7-5.9C98.8,217.9,96.1,218.2,94.6,220z"/>
		<path id="XMLID_198_" class="st2" d="M79.5,238.7c-0.7,0.9-1,2-0.9,3.1c0.1,1.1,0.7,2.1,1.6,2.9c0.9,0.7,2,1,3.1,0.9
			c1.1-0.1,2.1-0.7,2.9-1.6c0.7-0.9,1-2,0.9-3.1s-0.7-2.1-1.6-2.9C83.8,236.7,81,237,79.5,238.7z"/>
	</g>
</g>
<g id="Layer_11_copy_3" class="st0">
	<text id="XMLID_235_" transform="matrix(1 0 0 1 284.0004 182.2279)" class="st1 st3 st7">Hospitalización</text>
	<g id="XMLID_244_" class="st1">
		<path id="XMLID_251_" class="st2" d="M259.2,255.9V115l10,6l15.2-27.1L165.2,20L45.9,93.8L61.1,121l10-6v140.9H43.7v7.8h243v-7.8
			H259.2z M56.4,96.5l108.7-67.3l108.7,67.3l-7.6,13.6L165.2,49.7L64,110.1L56.4,96.5z M79,255.9V110.3l86.2-51.5l86.2,51.5v145.5
			H79z"/>
		<path id="XMLID_248_" class="st2" d="M110.3,236.3H220V126.5H110.3V236.3z M118.2,134.4h94v94.1h-94V134.4z"/>
		<path id="XMLID_245_" class="st2" d="M180.9,146.1h-31.4v19.6h-19.6v31.4h19.6v19.6h31.4v-19.6h19.6v-31.4h-19.6V146.1z
			 M192.6,173.6v15.7H173v19.6h-15.7v-19.6h-19.6v-15.7h19.6V154H173v19.6H192.6z"/>
	</g>
</g>
<g id="Layer_11_copy_4" class="st0">
	<text id="XMLID_246_" transform="matrix(1 0 0 1 284.0004 182.2279)" class="st1 st3 st7">Farmacia</text>
	<g id="XMLID_249_" class="st1">
		<path id="XMLID_259_" class="st2" d="M265.2,112h-68.4V96.8c0-5.3-4.3-9.7-9.7-9.7h-55.8c-5.3,0-9.7,4.3-9.7,9.7V112H53.3
			c-5.3,0-9.7,4.3-9.7,9.7v120.5c0,5.3,4.3,9.7,9.7,9.7h211.9c5.3,0,9.7-4.3,9.7-9.7V121.7C274.8,116.4,270.5,112,265.2,112z
			 M129.7,96.8c0-0.9,0.7-1.6,1.6-1.6h55.8c0.9,0,1.6,0.7,1.6,1.6V112h-59.1V96.8z M266.8,242.2c0,0.9-0.7,1.6-1.6,1.6H53.3
			c-0.9,0-1.6-0.7-1.6-1.6V121.7c0-0.9,0.7-1.6,1.6-1.6h211.9c0.9,0,1.6,0.7,1.6,1.6V242.2z"/>
		<path id="XMLID_256_" class="st2" d="M180,167.2h-6v-6c0-6-4.9-10.9-10.9-10.9h-7.7c-6,0-10.9,4.9-10.9,10.9v6h-6
			c-6,0-10.9,4.9-10.9,10.9v7.7c0,6,4.9,10.9,10.9,10.9h6v6c0,6,4.9,10.9,10.9,10.9h7.7c6,0,10.9-4.9,10.9-10.9v-6h6
			c6,0,10.9-4.9,10.9-10.9v-7.7C190.9,172.1,186,167.2,180,167.2z M182.9,185.8c0,1.6-1.3,2.9-2.9,2.9h-10c-2.2,0-4,1.8-4,4v10
			c0,1.6-1.3,2.9-2.9,2.9h-7.7c-1.6,0-2.9-1.3-2.9-2.9v-10c0-2.2-1.8-4-4-4h-10c-1.6,0-2.9-1.3-2.9-2.9v-7.7c0-1.6,1.3-2.9,2.9-2.9
			h10c2.2,0,4-1.8,4-4v-10c0-1.6,1.3-2.9,2.9-2.9h7.7c1.6,0,2.9,1.3,2.9,2.9v10c0,2.2,1.8,4,4,4h10c1.6,0,2.9,1.3,2.9,2.9V185.8z"/>
		<path id="XMLID_250_" class="st2" d="M242.6,152.3c-9.2,0-16.8,6.7-18.3,15.5H213c-6.3-23.8-28-41.3-53.7-41.3
			s-47.4,17.6-53.7,41.3H94.2c-1.5-8.8-9.1-15.5-18.3-15.5c-10.2,0-18.6,8.3-18.6,18.6c0,4.1,1.3,8,3.7,11.1
			c-2.4,3.2-3.7,7.1-3.7,11.1c0,10.2,8.3,18.6,18.6,18.6c9.2,0,16.8-6.7,18.3-15.5h11.3c6.3,23.8,28,41.3,53.7,41.3
			s47.4-17.6,53.7-41.3h11.3c1.5,8.8,9.1,15.5,18.3,15.5c10.2,0,18.6-8.3,18.6-18.6c0-4.1-1.3-8-3.7-11.1c2.4-3.2,3.7-7.1,3.7-11.1
			C261.1,160.6,252.8,152.3,242.6,152.3z M90.4,188.2c-1.1,0-2.2,0.5-2.9,1.3c-0.8,0.8-1.1,1.9-1.1,3c0,0.2,0,0.4,0,0.7
			c0,5.8-4.7,10.6-10.6,10.6c-5.8,0-10.6-4.7-10.6-10.6c0-3.1,1.4-6.1,3.8-8.1c0.9-0.8,1.4-1.9,1.4-3.1s-0.5-2.3-1.4-3.1
			c-2.4-2-3.8-5-3.8-8.1c0-5.8,4.7-10.6,10.6-10.6c5.8,0,10.6,4.7,10.6,10.6c0,0.2,0,0.5,0,0.7c-0.1,1.1,0.3,2.2,1.1,3
			c0.8,0.8,1.8,1.3,2.9,1.3H104c-0.2,2-0.3,4.1-0.3,6.2s0.1,4.2,0.3,6.2H90.4z M159.2,229.5c-26.2,0-47.6-21.3-47.6-47.6
			s21.3-47.6,47.6-47.6s47.6,21.3,47.6,47.6S185.5,229.5,159.2,229.5z M249.4,185c2.4,2,3.8,5,3.8,8.1c0,5.8-4.7,10.6-10.6,10.6
			c-5.8,0-10.6-4.7-10.6-10.6c0-0.2,0-0.5,0-0.7c0.1-1.1-0.3-2.2-1.1-3c-0.8-0.8-1.8-1.3-2.9-1.3h-13.6c0.2-2,0.3-4.1,0.3-6.2
			s-0.1-4.2-0.3-6.2h13.6c1.1,0,2.2-0.5,2.9-1.3c0.8-0.8,1.1-1.9,1.1-3c0-0.2,0-0.5,0-0.7c0-5.8,4.7-10.6,10.6-10.6
			c5.8,0,10.6,4.7,10.6,10.6c0,3.1-1.4,6.1-3.8,8.1c-0.9,0.8-1.4,1.9-1.4,3.1C247.9,183.1,248.5,184.3,249.4,185z"/>
	</g>
	<path id="XMLID_266_" class="st6" d="M86.5,48.6c-2.7-3.6-5.7-7.1-9-10.2c-2-1.8-5.1-2-7.1,0c-1.9,1.9-2,5.2,0,7.1
		c2.7,2.5,5.2,5.2,7.4,8.2c1.6,2.2,4.3,3.3,6.8,1.8C86.8,54.2,88.1,50.8,86.5,48.6z"/>
	<path id="XMLID_267_" class="st6" d="M152.3,34.6v12c0,6.4,10,6.4,10,0v-12C162.3,28.1,152.3,28.1,152.3,34.6z"/>
	<path id="XMLID_268_" class="st6" d="M251.7,34.5c-1.7-1.7-5.4-2.1-7.1,0c-2.6,3.2-5.1,6.5-7.7,9.7c-1.7,2.1-2.1,5,0,7.1
		c1.7,1.7,5.4,2.1,7.1,0c2.6-3.2,5.1-6.5,7.7-9.7C253.3,39.4,253.7,36.5,251.7,34.5z"/>
</g>
<g id="Layer_11_copy_5" class="st0">
	<text id="XMLID_278_" transform="matrix(1 0 0 1 284.0004 161.2279)" class="st1"><tspan x="0" y="0" class="st3 st14">Consultas de</tspan><tspan x="0" y="51.6" class="st3 st14">especialidad</tspan></text>
	<g id="XMLID_315_" class="st1">
		<g id="XMLID_316_">
			<path id="XMLID_286_" class="st2" d="M164,12.5c-3.8,0-6.9,3.1-6.9,6.9c0,3.8,3.1,6.9,6.9,6.9s6.9-3.1,6.9-6.9
				S167.8,12.5,164,12.5z"/>
		</g>
	</g>
	<g id="XMLID_312_" class="st1">
		<g id="XMLID_313_">
			<path id="XMLID_285_" class="st2" d="M149.4,22.6c-2.7-2.7-7-2.7-9.7,0c-2.7,2.7-2.7,7,0,9.7c2.7,2.7,7,2.7,9.7,0
				C152,29.6,152,25.3,149.4,22.6z"/>
		</g>
	</g>
	<g id="XMLID_309_" class="st1">
		<g id="XMLID_310_">
			<path id="XMLID_284_" class="st2" d="M188.3,22.6c-2.7-2.7-7-2.7-9.7,0c-2.7,2.7-2.7,7,0,9.7c2.7,2.7,7,2.7,9.7,0
				C190.9,29.6,190.9,25.3,188.3,22.6z"/>
		</g>
	</g>
	<g id="XMLID_291_" class="st1">
		<g id="XMLID_292_">
			<path id="XMLID_293_" class="st2" d="M260.6,221.4l-1-0.3c-3.1-0.8-5.8-1.7-8.1-2.5c4.5-26.1,16.4-112.7-15.2-163.6l-5-50
				C231,2.2,228.6,0,225.7,0h-124c-2.9,0-5.3,2.2-5.6,5.1l-5,50.5c-31.2,50.9-19.5,137-14.9,163.1c-2.3,0.8-5,1.7-8.1,2.5l-1,0.3
				c-12.8,4.2-21.3,21.7-21.3,35V271h118.1H282v-14.5C282,243.1,273.4,225.6,260.6,221.4z M246.1,157.2c-0.5,24-3.4,45.2-5.3,57
				c-2.2-1-4.1-2-6.1-2.7c-4.7-1.8-8.7-3.5-12-5.1l-15.8-15c-0.5-0.5-1.1-0.8-1.7-1.1l0-3.2c17.3-17.2,31.5-42.5,31.5-69
				c0-1.4,0-2.7-0.1-4.1l8,5.5C245.9,131.1,246.4,143.7,246.1,157.2z M181.1,191.6c-6.5,3.9-12.6,6-17.3,6s-10.8-2.1-17.3-6
				c-7.3-4.3-14.5-10.5-21-17.9c-13.3-15.2-21.5-33.1-23-50.2c17.5-7.5,38.5-20,62.7-37.5c5.1-3.7,10-7.3,14.6-10.8l44.6,30.4
				c0.6,4,0.9,8.1,0.9,12.3c0,18.6-8.5,38.9-23.2,55.7C195.6,181.1,188.4,187.3,181.1,191.6z M195.1,198.9l-8.4,17.7l-11-9.9
				c5.9-2.1,12.2-5.5,18.3-10.1l0.8,1.7C194.9,198.4,195,198.6,195.1,198.9z M151.9,206.7l-11,9.9l-8.4-17.8
				c0.1-0.2,0.2-0.4,0.2-0.5l0.8-1.7C139.7,201.1,146,204.6,151.9,206.7z M230.6,68c4.7,9.3,8.4,20.2,11,32.6
				c0.2,1.2,0.5,2.4,0.7,3.6l-46.9-32C213.2,70.9,226,68.8,230.6,68z M106.8,12c0-0.4,0.4-0.7,0.8-0.7h56.2h56.2
				c0.4,0,0.7,0.3,0.8,0.7l4.5,44.7c0,0.4-0.2,0.8-0.6,0.8c-10.2,1.6-32.8,4.6-60.6,4.6c0,0-0.1,0-0.1,0c11.3,0,20.1-11.2,15.8-23
				c-1.6-4.5-5.2-8.2-9.8-9.8c-11.9-4.2-23,4.6-23,15.9c0,9.3,7.6,16.9,16.9,16.9c-27.8,0-50.6-3-60.7-4.6c-0.4-0.1-0.7-0.4-0.6-0.8
				L106.8,12z M86,100.8c2.6-12.5,6.3-23.5,11-32.8c7.3,1.3,33.1,5.4,66.5,5.4c-1.6,1.2-3.2,2.4-4.9,3.6
				c-31,22.3-56.8,36.5-75.5,41.6C83.9,112.4,84.9,106.4,86,100.8z M82.1,130.5c3-0.7,6.2-1.6,9.5-2.7c2.9,22.9,15.7,44.2,30.9,59.2
				l0,3.3c-0.6,0.2-1.1,0.6-1.6,1.1l-15.8,14.9c-3.4,1.6-7.4,3.3-12.1,5.1c-2.1,0.8-4,1.7-6.1,2.7c-1.9-11.7-4.8-32.7-5.3-56.6
				C81.3,148.1,81.5,139.1,82.1,130.5z M57,259.7v-3.2c0-4.8,1.6-10.5,4.4-15.4c2.6-4.6,5.9-7.8,9-8.9L71,232
				c10.6-2.8,16.4-5.6,21.1-7.9c1.8-0.9,3.4-1.6,4.9-2.2c0.4-0.1,0.7-0.3,1.1-0.4c0.1,0.1,0.1,0.1,0.2,0.2l14.3,11l-2.2,9.1
				c-0.4,1.8,0,3.7,1.3,5.1l11.6,12.7L57,259.7L57,259.7z M138.6,259.7L138.6,259.7l-16.4-18.1l2.4-9.8c0.5-2.2-0.3-4.4-2-5.8
				l-12-9.2l12.5-11.9l11,23.2c0,0,0,0,0,0l14.9,31.5H138.6z M163.8,259.7h-2.5L146,227.2l17.9-16.1l17.8,16.1l-15.4,32.5H163.8z
				 M178.8,259.7l14.9-31.5c0,0,0,0,0-0.1l11-23.2l12.5,11.9l-12,9.2c-1.8,1.4-2.6,3.6-2,5.8l2.4,9.8l-16.4,18.1L178.8,259.7
				L178.8,259.7z M204.4,259.7L216,247c1.3-1.4,1.7-3.3,1.3-5.1l-2.2-9.1l14.3-11c0.1-0.1,0.1-0.1,0.2-0.2c0.4,0.1,0.7,0.3,1.1,0.4
				c1.5,0.6,3.1,1.3,4.9,2.2c4.7,2.2,10.5,5,21.1,7.9l0.6,0.2c3.1,1.1,6.4,4.3,9,8.9c2.8,4.8,4.4,10.6,4.4,15.4v3.2H204.4z"/>
		</g>
	</g>
	<g id="XMLID_288_" class="st1">
		<g id="XMLID_289_">
			<path id="XMLID_264_" class="st2" d="M163.8,231.5c-3.1,0-5.6,2.5-5.6,5.6c0,3.1,2.5,5.6,5.6,5.6c3.1,0,5.6-2.5,5.6-5.6
				C169.5,234,166.9,231.5,163.8,231.5z"/>
		</g>
	</g>
</g>
<g id="Layer_11_copy_6" class="st0">
	<text id="XMLID_339_" transform="matrix(1 0 0 1 287.0004 161.2279)" class="st1"><tspan x="0" y="0" class="st3 st14">Atención a</tspan><tspan x="0" y="51.6" class="st3 st14">domicilio</tspan></text>
	<path id="XMLID_328_" class="st6" d="M190.7,55.6c-2.2-2.2-2.2-5.8,0-7.9l9.9-9.9c2.2-2.2,5.8-2.2,7.9,0c2.2,2.2,2.2,5.8,0,7.9
		l-9.9,9.9c-1.1,1.1-2.5,1.6-4,1.6C193.3,57.3,191.8,56.7,190.7,55.6z M146.6,55.6c1.1,1.1,2.5,1.6,4,1.6c1.4,0,2.9-0.5,4-1.6
		c2.2-2.2,2.2-5.8,0-7.9l-9.9-9.9c-2.2-2.2-5.8-2.2-7.9,0c-2.2,2.2-2.2,5.8,0,7.9L146.6,55.6z M173.3,47.4c3.1,0,5.6-2.5,5.6-5.6
		v-14c0-3.1-2.5-5.6-5.6-5.6s-5.6,2.5-5.6,5.6v14C167.7,44.9,170.2,47.4,173.3,47.4z M226.9,138.7c1.2,1.7,1.4,4,0.4,5.8
		c-1,1.9-2.9,3-5,3h-52.6c-3.1,0-5.6-2.5-5.6-5.6v-30c0-3.1,2.5-5.6,5.6-5.6H201c1.8,0,3.5,0.9,4.6,2.4L226.9,138.7z M211.4,136.3
		l-13.3-18.8h-22.8v18.8H211.4z M124,120.9h-9.7v-9.7c0-3.1-2.5-5.6-5.6-5.6s-5.6,2.5-5.6,5.6v9.7h-9.7c-3.1,0-5.6,2.5-5.6,5.6
		c0,3.1,2.5,5.6,5.6,5.6h9.7v9.7c0,3.1,2.5,5.6,5.6,5.6s5.6-2.5,5.6-5.6v-9.7h9.7c3.1,0,5.6-2.5,5.6-5.6
		C129.7,123.5,127.1,120.9,124,120.9z M248.3,201.9c-1,6-3.7,11.5-7.6,15.9h29.7c3.1,0,5.6,2.5,5.6,5.6s-2.5,5.6-5.6,5.6H53
		c-3.1,0-5.6-2.5-5.6-5.6s2.5-5.6,5.6-5.6h29.7c-3.9-4.4-6.6-9.9-7.6-15.9H52.6c-3.1,0-5.6-2.5-5.6-5.6V87.6c0-3.1,2.5-5.6,5.6-5.6
		h101.9v-7.4c0-10.3,8.4-18.7,18.7-18.7h0.2c10.3,0,18.7,8.4,18.7,18.7v7.4H216c1.8,0,3.5,0.9,4.6,2.4l54.4,76.6c0.7,1,1,2.1,1,3.3
		v32.1c0,3.1-2.5,5.6-5.6,5.6L248.3,201.9L248.3,201.9z M165.8,81.9h15.1v-7.4c0-4.1-3.3-7.4-7.4-7.4h-0.2c-4.1,0-7.4,3.3-7.4,7.4
		V81.9L165.8,81.9z M128.9,196.3c0-11.9-9.7-21.6-21.6-21.6s-21.6,9.7-21.6,21.6c0,11.9,9.7,21.6,21.6,21.6
		C119.2,217.8,128.9,208.2,128.9,196.3z M191.3,217.8c-3.9-4.4-6.6-9.9-7.6-15.9h-44.1c-1,6-3.7,11.5-7.6,15.9H191.3z M237.6,196.3
		c0-11.9-9.7-21.6-21.6-21.6s-21.6,9.7-21.6,21.6c0,11.9,9.7,21.6,21.6,21.6C227.9,217.8,237.6,208.2,237.6,196.3z M248.3,190.6
		h16.4v-24.7l-51.6-72.7H58.2v97.5H75c2.7-15.4,16.1-27.2,32.3-27.2c16.2,0,29.6,11.8,32.3,27.2h44.1c2.7-15.4,16.1-27.2,32.3-27.2
		C232.2,163.5,245.7,175.2,248.3,190.6z M216,190.1c-3.4,0-6.2,2.8-6.2,6.2c0,3.4,2.8,6.2,6.2,6.2c3.4,0,6.2-2.8,6.2-6.2
		C222.2,192.8,219.5,190.1,216,190.1z M107.3,190.1c-3.4,0-6.2,2.8-6.2,6.2c0,3.4,2.8,6.2,6.2,6.2c3.4,0,6.2-2.8,6.2-6.2
		C113.5,192.8,110.7,190.1,107.3,190.1z"/>
</g>
<g id="Layer_11_copy_7" class="st0">
	<text id="XMLID_341_" transform="matrix(1 0 0 1 287.0004 161.2279)" class="st1"><tspan x="0" y="0" class="st3 st14">Urgencias</tspan><tspan x="0" y="51.6" class="st3 st14">24 horas</tspan></text>
	<g id="XMLID_329_" transform="translate(-330 -260)" class="st1">
		<g id="XMLID_330_">
			<polygon id="XMLID_306_" class="st2" points="429.8,361.4 429.8,379.1 465.2,379.1 465.2,396.8 429.8,396.8 429.8,449.9 
				482.9,449.9 482.9,432.2 447.5,432.2 447.5,414.5 482.9,414.5 482.9,361.4 			"/>
			<polygon id="XMLID_305_" class="st2" points="544.8,396.8 544.8,361.4 527.1,361.4 527.1,396.8 518.3,396.8 518.3,361.4 
				500.6,361.4 500.6,414.5 518.3,414.5 527.1,414.5 527.1,449.9 544.8,449.9 544.8,414.5 562.5,414.5 562.5,396.8 			"/>
			<path id="XMLID_304_" class="st2" d="M597.2,359.6l-16.2,7.1c5.4,12.3,8.1,25.4,8.1,38.9c0,53.7-43.7,97.3-97.3,97.3
				s-97.3-43.7-97.3-97.3s43.7-97.3,97.3-97.3V326l44.2-26.5l-44.2-26.5v17.7c-63.4,0-115,51.6-115,115s51.6,115,115,115
				c63.4,0,115-51.6,115-115C606.7,389.6,603.5,374.1,597.2,359.6z"/>
		</g>
	</g>
</g>
<g id="Layer_11_copy_11" class="st0">
	<text id="XMLID_503_" transform="matrix(1 0 0 1 287.0004 161.2279)" class="st1"><tspan x="0" y="0" class="st3 st14">Citas por</tspan><tspan x="0" y="51.6" class="st3 st14">teléfono</tspan></text>
</g>
<g id="Layer_11_copy_8" class="st0">
	<text id="XMLID_361_" transform="matrix(1 0 0 1 284.0004 182.2279)" class="st1 st3 st7">Incineración</text>
	<g id="XMLID_351_" class="st1">
		<path id="XMLID_352_" class="st2" d="M245.1,30.3H82.3c-2.2,0-4.1,1.8-4.1,4.1s1.8,4.1,4.1,4.1h4.2c12.4,21.6,12.1,35,11.6,58.8
			c-0.1,5.1-0.2,10.9-0.2,17.3c0,18.1,7.2,34.7,20.2,46.6c8.9,8.1,19.9,13.6,31.7,16.1c-0.1,4.9-0.2,9.2-0.3,12.4
			c-6.2,4.5-10,11.8-10,19.6c0,5.9,2.2,11.6,6,16c-4.6,20-11.6,22-19.8,24.2c-6,1.6-12.7,3.5-17.8,12c-0.7,1.3-0.8,2.8,0,4.1
			c0.7,1.3,2.1,2.1,3.5,2.1h104.5c1.5,0,2.8-0.8,3.5-2.1c0.7-1.3,0.7-2.8,0-4.1c-5.1-8.5-11.8-10.4-17.8-12
			c-8.1-2.2-15.2-4.2-19.8-24.2c3.8-4.4,6-10.1,6-16c0-7.8-3.8-15.1-10-19.6c-0.1-3.2-0.2-7.5-0.3-12.4c11.9-2.4,22.8-7.9,31.7-16.1
			c13-11.9,20.2-28.4,20.2-46.6c0-6.4-0.1-12.2-0.2-17.3c-0.5-23.8-0.8-37.2,11.6-58.8h4.2c2.2,0,4.1-1.8,4.1-4.1
			S247.3,30.3,245.1,30.3z M169.8,192c0.1,1.4,0.8,2.6,2,3.3c4.9,2.9,7.9,8.2,7.9,13.9c0,4.5-1.8,8.7-5.1,11.7c0,0,0,0,0,0
			c-3,2.8-6.9,4.3-11,4.3c-2.2,0-4.1,1.8-4.1,4.1s1.8,4.1,4.1,4.1c4,0,7.8-1,11.2-2.8c5.9,21.4,16.2,24.2,24.6,26.5
			c2.4,0.6,4.5,1.2,6.4,2.2h-84.5c1.9-0.9,4.1-1.5,6.4-2.2c9.1-2.5,20.4-5.6,26-32.5c0.3-1.4-0.2-2.8-1.2-3.8
			c-3.3-3.1-5.1-7.2-5.1-11.7c0-5.7,3-11,7.9-13.9c1.2-0.7,1.9-1.9,2-3.3c0.2-3.8,0.3-9.4,0.4-13.7c1.9,0.2,3.9,0.2,5.8,0.2
			c1.9,0,3.9-0.1,5.8-0.2C169.5,182.6,169.6,188.1,169.8,192z M221.1,97.4c0.1,5.1,0.2,10.9,0.2,17.1c0,35-29.3,55.9-57.7,55.9
			S106,149.5,106,114.5c0-6.3,0.1-12,0.2-17.1c0.5-23,0.8-37.6-10.5-59h135.8C220.3,59.8,220.6,74.4,221.1,97.4z"/>
	</g>
	<g id="XMLID_353_" class="st1">
		<g id="XMLID_68_">
			<path id="XMLID_355_" class="st2" d="M83.7,33.5c-2.5-3.7-5.1-9.6-2.3-13.8c3.1-4.6,10.5-4.8,15.4-5.2c14.7-1.2,29.6-1,44.3-1
				c31.7,0.1,63.4,0.9,95,2c1.7,0.1,3.4,0.2,5.1,0.2c0.4,0,0.8,0,1.2,0c0.8,0.1-1.2-0.3-0.4,0c1.3,0.5,5.1,2.6,6.6,4.6
				c3.6,4.9-2.4,9.6-6,12.4c-3.5,2.8,1.4,7.7,4.9,4.9c7.8-6,13.3-15.7,4.7-23.6c-2.8-2.6-6.6-5-10.5-5.4c-11.6-1-23.5-0.8-35.1-1.1
				c-20.2-0.5-40.3-1-60.5-1.1c-16.9-0.1-33.9-0.4-50.7,1.1c-7.4,0.6-16.4,1.8-20.5,8.9c-3.7,6.3-1.4,14.8,2.5,20.5
				C80.2,40.7,86.2,37.2,83.7,33.5L83.7,33.5z"/>
		</g>
	</g>
	<g id="XMLID_57_" class="st1">
		<g id="XMLID_377_">
			<path id="XMLID_378_" class="st15" d="M150.8,96.5c-6.6,0-12-7-12-15.6s5.4-15.6,12-15.6c6.6,0,12,7,12,15.6
				S157.4,96.5,150.8,96.5z M150.8,67.7c-5.2,0-9.5,5.9-9.5,13.2c0,7.3,4.3,13.2,9.5,13.2c5.2,0,9.5-5.9,9.5-13.2
				C160.3,73.6,156,67.7,150.8,67.7z"/>
		</g>
		<g id="XMLID_359_">
			<path id="XMLID_360_" class="st15" d="M181.9,143.7c-3.2,0-6-1.8-9-3.8c-1.8-1.2-3.6-2.4-5.6-3.3c-0.3-0.1-1.5-0.2-3.3-0.2
				c-1.6,0-2.4,0.1-2.6,0.2c-2,0.8-3.9,2-5.8,3.2c-3.2,2-5.9,3.7-9.1,3.7c-1.6,0-3.2-0.5-4.6-1.4c-3.4-2.2-5.3-5.9-5.5-10.5
				c-0.2-4.2,1.1-8.8,3.7-12.8c0.3-0.4,0.6-0.8,0.9-1.2c0.1-0.1,0.3-0.4,0.4-0.5c3.1-6.3,10.7-13,22.9-13l0.5,0
				c12.4,0.2,20.1,7.3,22.9,13.3c0.1,0.2,0.3,0.4,0.5,0.7c0.4,0.5,0.7,0.9,0.9,1.4c5.1,9,3.7,19.4-3.1,23.2
				C184.7,143.3,183.3,143.7,181.9,143.7z M164,134c1.8,0,3.5,0.1,4.1,0.3c2.3,1,4.2,2.3,6.1,3.5c2.7,1.8,5.2,3.4,7.6,3.4
				c1,0,2-0.3,2.9-0.8c5.6-3.2,6.6-12.1,2.2-19.9c-0.2-0.3-0.4-0.7-0.7-1.1c-0.3-0.4-0.6-0.8-0.7-1.1c-2.5-5.4-9.5-11.7-20.7-11.9
				l-0.4,0c-11.1,0-18,6-20.7,11.7c-0.2,0.3-0.4,0.6-0.7,1c-0.2,0.3-0.5,0.6-0.7,0.9c-2.3,3.6-3.5,7.6-3.3,11.4
				c0.2,3.8,1.7,6.9,4.4,8.6c1,0.7,2.1,1,3.2,1c2.5,0,5-1.5,7.8-3.3c2-1.2,4-2.5,6.3-3.4C161.2,134.1,162.5,134,164,134z"/>
		</g>
		<g id="XMLID_67_">
			<path id="XMLID_356_" class="st15" d="M177.8,96.5c-6.6,0-12-7-12-15.6s5.4-15.6,12-15.6c6.6,0,12,7,12,15.6
				S184.4,96.5,177.8,96.5z M177.8,67.7c-5.2,0-9.5,5.9-9.5,13.2c0,7.3,4.3,13.2,9.5,13.2c5.2,0,9.5-5.9,9.5-13.2
				C187.3,73.6,183.1,67.7,177.8,67.7z"/>
		</g>
		<g id="XMLID_62_">
			<path id="XMLID_64_" class="st15" d="M198.4,116.4c-6.2,0-11.1-6.3-11.1-14.3c0-8,4.9-14.3,11.1-14.3c6.2,0,11.1,6.3,11.1,14.3
				C209.5,110.1,204.6,116.4,198.4,116.4z M198.4,90.3c-4.8,0-8.6,5.2-8.6,11.8c0,6.6,3.8,11.8,8.6,11.8s8.6-5.2,8.6-11.8
				C207.1,95.5,203.3,90.3,198.4,90.3z"/>
		</g>
		<g id="XMLID_58_">
			<path id="XMLID_59_" class="st15" d="M131.7,116.4c-6.2,0-11.1-6.3-11.1-14.3c0-8,4.9-14.3,11.1-14.3c6.2,0,11.1,6.3,11.1,14.3
				C142.8,110.1,137.9,116.4,131.7,116.4z M131.7,90.3c-4.8,0-8.6,5.2-8.6,11.8c0,6.6,3.8,11.8,8.6,11.8c4.8,0,8.6-5.2,8.6-11.8
				C140.3,95.5,136.6,90.3,131.7,90.3z"/>
		</g>
	</g>
</g>
<g id="Layer_11_copy_9" class="st0">
	<text id="XMLID_412_" transform="matrix(1 0 0 1 287.0004 182.2279)" class="st1 st3 st7">Tienda</text>
	<g id="XMLID_348_" class="st1">
		<g id="XMLID_396_">
			<path id="XMLID_397_" class="st15" d="M154.7,61c-2.3,0-4.2-2.4-4.2-5.4s1.9-5.4,4.2-5.4c2.3,0,4.2,2.4,4.2,5.4S157,61,154.7,61z
				 M154.7,51c-1.8,0-3.3,2.1-3.3,4.6c0,2.5,1.5,4.6,3.3,4.6c1.8,0,3.3-2.1,3.3-4.6C158,53,156.5,51,154.7,51z"/>
		</g>
		<g id="XMLID_392_">
			<path id="XMLID_393_" class="st15" d="M166.5,79.4c-1.1,0-2.1-0.6-3.1-1.3c-0.6-0.4-1.2-0.8-1.9-1.1c-0.1,0-0.5-0.1-1.1-0.1
				c-0.6,0-0.8,0-0.9,0.1c-0.7,0.3-1.4,0.7-2,1.1c-1.1,0.7-2.1,1.3-3.2,1.3c-0.6,0-1.1-0.2-1.6-0.5c-1.2-0.7-1.9-2.1-1.9-3.7
				c-0.1-1.5,0.4-3.1,1.3-4.5c0.1-0.1,0.2-0.3,0.3-0.4c0-0.1,0.1-0.1,0.1-0.2c1.1-2.2,3.7-4.5,8-4.5l0.2,0c4.3,0.1,7,2.5,8,4.6
				c0,0.1,0.1,0.1,0.2,0.2c0.1,0.2,0.2,0.3,0.3,0.5c1.8,3.1,1.3,6.7-1.1,8.1C167.5,79.2,167,79.4,166.5,79.4z M160.3,76
				c0.6,0,1.2,0.1,1.4,0.1c0.8,0.4,1.5,0.8,2.1,1.2c0.9,0.6,1.8,1.2,2.7,1.2c0.4,0,0.7-0.1,1-0.3c2-1.1,2.3-4.2,0.8-6.9
				c-0.1-0.1-0.2-0.2-0.3-0.4c-0.1-0.1-0.2-0.3-0.3-0.4c-0.9-1.9-3.3-4.1-7.2-4.1l-0.2,0c-3.9,0-6.2,2.1-7.2,4.1
				c-0.1,0.1-0.1,0.2-0.2,0.3c-0.1,0.1-0.2,0.2-0.2,0.3c-0.8,1.3-1.2,2.7-1.2,4c0.1,1.3,0.6,2.4,1.5,3c0.4,0.2,0.7,0.3,1.1,0.3
				c0.9,0,1.7-0.5,2.7-1.1c0.7-0.4,1.4-0.9,2.2-1.2C159.3,76,159.8,76,160.3,76z"/>
		</g>
		<g id="XMLID_388_">
			<path id="XMLID_389_" class="st15" d="M166.1,61c-2.3,0-4.2-2.4-4.2-5.4s1.9-5.4,4.2-5.4c2.3,0,4.2,2.4,4.2,5.4
				S168.4,61,166.1,61z M166.1,51c-1.8,0-3.3,2.1-3.3,4.6c0,2.5,1.5,4.6,3.3,4.6c1.8,0,3.3-2.1,3.3-4.6C169.4,53,167.9,51,166.1,51z
				"/>
		</g>
		<g id="XMLID_384_">
			<path id="XMLID_385_" class="st15" d="M173.3,68.9c-2.2,0-3.9-2.2-3.9-5c0-2.8,1.7-5,3.9-5c2.2,0,3.9,2.2,3.9,5
				C177.1,66.7,175.4,68.9,173.3,68.9z M173.3,59.8c-1.7,0-3,1.8-3,4.1c0,2.3,1.3,4.1,3,4.1s3-1.8,3-4.1
				C176.3,61.6,174.9,59.8,173.3,59.8z"/>
		</g>
		<g id="XMLID_349_">
			<path id="XMLID_381_" class="st15" d="M147.1,68.9c-2.2,0-3.9-2.2-3.9-5c0-2.8,1.7-5,3.9-5c2.2,0,3.9,2.2,3.9,5
				C150.9,66.7,149.2,68.9,147.1,68.9z M147.1,59.8c-1.7,0-3,1.8-3,4.1c0,2.3,1.3,4.1,3,4.1c1.7,0,3-1.8,3-4.1
				C150.1,61.6,148.7,59.8,147.1,59.8z"/>
		</g>
	</g>
	<g id="XMLID_422_" class="st1">
		<defs>
			<polygon id="XMLID_419_" points="279.8,273.2 32.7,273.2 34.1,91.9 281.2,91.9 			"/>
		</defs>
		<clipPath id="XMLID_550_">
			<use xlink:href="#XMLID_419_"  style="overflow:visible;"/>
		</clipPath>
		<g id="XMLID_420_" class="st16">
			<path id="XMLID_418_" class="st2" d="M162.2,57.3c2.7,0,4.9-2.2,4.9-4.9c0-2.7-2.2-4.9-4.9-4.9s-4.9,2.2-4.9,4.9
				S159.5,57.3,162.2,57.3z"/>
			<path id="XMLID_417_" class="st2" d="M151.8,61.6c1.9-1.9,1.9-5,0-6.9c-1.9-1.9-5-1.9-6.9,0c-1.9,1.9-1.9,5,0,6.9
				C146.8,63.5,149.9,63.5,151.8,61.6z"/>
			<path id="XMLID_416_" class="st2" d="M179.5,61.6c1.9-1.9,1.9-5,0-6.9c-1.9-1.9-5-1.9-6.9,0c-1.9,1.9-1.9,5,0,6.9
				C174.5,63.5,177.6,63.5,179.5,61.6z"/>
			<path id="XMLID_415_" class="st2" d="M152.4,228.7c2.7,0,4.9-2.2,4.9-4.9c0-2.7-2.2-4.9-4.9-4.9s-4.9,2.2-4.9,4.9
				C147.5,226.5,149.7,228.7,152.4,228.7z"/>
			<path id="XMLID_429_" class="st2" d="M277.3,168c1.5-0.9,2.4-2.5,2.4-4.2v-18.2c0,0,0-0.1,0-0.1c0-0.9-0.2-1.7-0.6-2.4
				l-14.1-28.1V96.5c0-2.7-2.2-4.9-4.9-4.9h-74c6.4-6.2,10.3-14.9,10.3-24.5c0-18.9-15.4-34.3-34.3-34.3s-34.3,15.4-34.3,34.3
				c0,9.6,4,18.3,10.3,24.5h-74c-2.7,0-4.9,2.2-4.9,4.9v18.4l-14.2,28.4c0,0.1-0.1,0.1-0.1,0.2c0,0,0,0.1-0.1,0.1
				c0,0.1-0.1,0.2-0.1,0.3c0,0,0,0.1,0,0.1c0,0.1-0.1,0.3-0.1,0.4c0,0,0,0.1,0,0.1c0,0.1,0,0.2-0.1,0.4c0,0,0,0.1,0,0.1
				c0,0.1,0,0.3,0,0.4c0,0,0,0,0,0v18.3c0,1.7,0.9,3.4,2.4,4.2c0.8,0.5,1.6,0.8,2.5,1.1v89c-2.7,0-4.9,2.2-4.9,4.9
				c0,2.7,2.2,4.9,4.9,4.9h4.9h88.2h39.2H270h4.9c2.7,0,4.9-2.2,4.9-4.9c0-2.7-2.2-4.9-4.9-4.9v-89
				C275.7,168.8,276.5,168.5,277.3,168z M260.2,150.4c-2.7,0-4.9,2.2-4.9,4.9c0,2.7-2.2,4.9-4.9,4.9c-2.7,0-4.9-2.2-4.9-4.9
				c0-2.7-2.2-4.9-4.9-4.9s-4.9,2.2-4.9,4.9c0,2.7-2.2,4.9-4.9,4.9c-2.7,0-4.9-2.2-4.9-4.9c0-2.7-2.2-4.9-4.9-4.9
				c-2.7,0-4.9,2.2-4.9,4.9c0,2.7-2.2,4.9-4.9,4.9c-2.7,0-4.9-2.2-4.9-4.9c0-2.7-2.2-4.9-4.9-4.9s-4.9,2.2-4.9,4.9
				c0,2.7-2.2,4.9-4.9,4.9c-2.7,0-4.9-2.2-4.9-4.9c0-2.7-2.2-4.9-4.9-4.9c-2.7,0-4.9,2.2-4.9,4.9c0,2.7-2.2,4.9-4.9,4.9
				c-2.7,0-4.9-2.2-4.9-4.9c0-2.7-2.2-4.9-4.9-4.9c-2.7,0-4.9,2.2-4.9,4.9c0,2.7-2.2,4.9-4.9,4.9c-2.7,0-4.9-2.2-4.9-4.9
				c0-2.7-2.2-4.9-4.9-4.9s-4.9,2.2-4.9,4.9c0,2.7-2.2,4.9-4.9,4.9c-2.7,0-4.9-2.2-4.9-4.9c0-2.7-2.2-4.9-4.9-4.9s-4.9,2.2-4.9,4.9
				c0,2.7-2.2,4.9-4.9,4.9c-2.7,0-4.9-2.2-4.9-4.9c0-2.7-2.2-4.9-4.9-4.9s-4.9,2.2-4.9,4.9c0,2.7-2.2,4.9-4.9,4.9
				c-2.7,0-4.9-2.2-4.9-4.9c0-2.7-2.2-4.9-4.9-4.9c-2.7,0-4.9,2.2-4.9,4.9c0,2.7-2.2,4.9-4.9,4.9c-2.7,0-4.9-2.2-4.9-4.9
				c0-2.7-2.2-4.9-4.9-4.9c-2.7,0-4.9,2.2-4.9,4.9c0,2.7-2.2,4.9-4.9,4.9v-9.8h9.8h19.6h19.6H123h19.6h19.6h19.6h19.6H221h19.6
				H260.2h9.8v9.8c-2.7,0-4.9-2.2-4.9-4.9C265.1,152.6,262.9,150.4,260.2,150.4z M137.7,67.1c0-13.5,11-24.5,24.5-24.5
				c13.5,0,24.5,11,24.5,24.5c0,13.3-10.6,24.1-23.7,24.5c7.7-0.4,13.9-6.8,13.9-14.7c0-8.1-6.6-14.7-14.7-14.7
				c-8.1,0-14.7,6.6-14.7,14.7c0,7.8,6.2,14.3,13.9,14.7C148.3,91.2,137.7,80.4,137.7,67.1z M162.2,81.8c-2.7,0-4.9-2.2-4.9-4.9
				c0-2.7,2.2-4.9,4.9-4.9c2.7,0,4.9,2.2,4.9,4.9C167.1,79.6,164.9,81.8,162.2,81.8z M69.2,101.4h186.1v9.8H69.2V101.4z M67.3,121
				h189.8l9.8,19.6H57.5L67.3,121z M147.5,258.1v-34.3v-34.3h29.4v68.6L147.5,258.1L147.5,258.1z M186.7,258.1v-73.5
				c0-2.7-2.2-4.9-4.9-4.9h-39.2c-2.7,0-4.9,2.2-4.9,4.9v73.5H59.4v-89c1.8-0.6,3.5-1.6,4.9-2.9c2.6,2.3,6,3.7,9.8,3.7
				c3.8,0,7.2-1.4,9.8-3.7c2.6,2.3,6,3.7,9.8,3.7s7.2-1.4,9.8-3.7c2.6,2.3,6,3.7,9.8,3.7c3.8,0,7.2-1.4,9.8-3.7
				c2.6,2.3,6,3.7,9.8,3.7c3.8,0,7.2-1.4,9.8-3.7c2.6,2.3,6,3.7,9.8,3.7s7.2-1.4,9.8-3.7c2.6,2.3,6,3.7,9.8,3.7
				c3.8,0,7.2-1.4,9.8-3.7c2.6,2.3,6,3.7,9.8,3.7c3.8,0,7.2-1.4,9.8-3.7c2.6,2.3,6,3.7,9.8,3.7c3.8,0,7.2-1.4,9.8-3.7
				c2.6,2.3,6,3.7,9.8,3.7c3.8,0,7.2-1.4,9.8-3.7c2.6,2.3,6,3.7,9.8,3.7c3.8,0,7.2-1.4,9.8-3.7c1.4,1.3,3.1,2.3,4.9,2.9v89H186.7z"
				/>
			<path id="XMLID_425_" class="st2" d="M98.6,179.8c-13.5,0-24.5,11-24.5,24.5v39.2c0,2.7,2.2,4.9,4.9,4.9h39.2
				c2.7,0,4.9-2.2,4.9-4.9v-39.2C123,190.7,112.1,179.8,98.6,179.8z M98.6,189.6c6.4,0,11.8,4.1,13.8,9.8H84.7
				C86.7,193.7,92.2,189.6,98.6,189.6z M83.9,238.5v-29.4h29.4v29.4H83.9z"/>
			<path id="XMLID_421_" class="st2" d="M225.9,179.8c-13.5,0-24.5,11-24.5,24.5v39.2c0,2.7,2.2,4.9,4.9,4.9h39.2
				c2.7,0,4.9-2.2,4.9-4.9v-39.2C250.4,190.7,239.4,179.8,225.9,179.8z M225.9,189.6c6.4,0,11.8,4.1,13.9,9.8H212
				C214.1,193.7,219.5,189.6,225.9,189.6z M211.2,238.5v-29.4h29.4v29.4H211.2z"/>
		</g>
	</g>
	<g id="XMLID_423_" class="st1">
		<g id="XMLID_437_">
			<path id="XMLID_441_" class="st2" d="M185.5,63.1c-0.3,13.5-11,24.8-24.8,24.8c-13.5,0-24.8-11.3-24.8-24.8
				c0-13.5,11.3-24.9,24.8-24.8C174.5,38.3,185.2,49.5,185.5,63.1c0.1,5.1,8.1,5.2,8,0c-0.3-13.6-8.4-25.8-21.2-30.7
				c-13-5-28.2-0.9-37.1,9.9c-8.6,10.5-9.8,25.8-2.9,37.5c7,11.7,20.7,17.9,34.1,15.5c15.7-2.7,26.6-16.7,27-32.3
				C193.6,57.9,185.6,57.9,185.5,63.1z"/>
		</g>
	</g>
</g>
<g id="Layer_11_copy_10">
	<text id="XMLID_497_" transform="matrix(1 0 0 1 287.0004 182.2279)" class="st3 st7">Tienda</text>
	<g id="XMLID_476_">
		<g id="XMLID_493_">
			<path id="XMLID_494_" class="st15" d="M136.1,34.3c-2.6,0-4.6-2.7-4.6-6.1s2.1-6.1,4.6-6.1c2.6,0,4.6,2.7,4.6,6.1
				S138.6,34.3,136.1,34.3z M136.1,23.1c-2,0-3.7,2.3-3.7,5.1c0,2.8,1.7,5.1,3.7,5.1c2,0,3.7-2.3,3.7-5.1
				C139.8,25.4,138.1,23.1,136.1,23.1z"/>
		</g>
		<g id="XMLID_489_">
			<path id="XMLID_490_" class="st15" d="M149.3,54.8c-1.3,0-2.3-0.7-3.5-1.5c-0.7-0.5-1.4-0.9-2.2-1.3c-0.1,0-0.6-0.1-1.3-0.1
				c-0.6,0-0.9,0-1,0.1c-0.8,0.3-1.5,0.8-2.2,1.2c-1.2,0.8-2.3,1.4-3.5,1.4c-0.6,0-1.2-0.2-1.8-0.5c-1.3-0.8-2.1-2.3-2.1-4.1
				c-0.1-1.6,0.4-3.4,1.4-5c0.1-0.2,0.2-0.3,0.3-0.4c0-0.1,0.1-0.2,0.2-0.2c1.2-2.4,4.1-5.1,8.9-5.1l0.2,0c4.8,0.1,7.8,2.8,8.9,5.2
				c0,0.1,0.1,0.2,0.2,0.3c0.1,0.2,0.3,0.3,0.4,0.5c2,3.5,1.4,7.5-1.2,9C150.4,54.6,149.8,54.8,149.3,54.8z M142.3,51
				c0.7,0,1.4,0.1,1.6,0.1c0.9,0.4,1.6,0.9,2.4,1.4c1,0.7,2,1.3,3,1.3c0.4,0,0.8-0.1,1.1-0.3c2.2-1.2,2.6-4.7,0.8-7.7
				c-0.1-0.1-0.2-0.3-0.3-0.4c-0.1-0.2-0.2-0.3-0.3-0.4c-1-2.1-3.7-4.5-8-4.6l-0.2,0c-4.3,0-7,2.3-8,4.5c-0.1,0.1-0.2,0.2-0.3,0.4
				c-0.1,0.1-0.2,0.2-0.3,0.4c-0.9,1.4-1.4,3-1.3,4.4c0.1,1.5,0.7,2.7,1.7,3.3c0.4,0.3,0.8,0.4,1.3,0.4c1,0,1.9-0.6,3-1.3
				c0.8-0.5,1.5-1,2.4-1.3C141.3,51.1,141.8,51,142.3,51z"/>
		</g>
		<g id="XMLID_485_">
			<path id="XMLID_486_" class="st15" d="M148.8,34.3c-2.6,0-4.6-2.7-4.6-6.1s2.1-6.1,4.6-6.1c2.6,0,4.6,2.7,4.6,6.1
				S151.4,34.3,148.8,34.3z M148.8,23.1c-2,0-3.7,2.3-3.7,5.1c0,2.8,1.7,5.1,3.7,5.1c2,0,3.7-2.3,3.7-5.1
				C152.5,25.4,150.8,23.1,148.8,23.1z"/>
		</g>
		<g id="XMLID_481_">
			<path id="XMLID_482_" class="st15" d="M156.8,43.1c-2.4,0-4.3-2.4-4.3-5.5c0-3.1,1.9-5.5,4.3-5.5c2.4,0,4.3,2.4,4.3,5.5
				C161.1,40.7,159.2,43.1,156.8,43.1z M156.8,33c-1.9,0-3.3,2-3.3,4.6c0,2.6,1.5,4.6,3.3,4.6c1.9,0,3.3-2,3.3-4.6
				C160.1,35,158.7,33,156.8,33z"/>
		</g>
		<g id="XMLID_477_">
			<path id="XMLID_478_" class="st15" d="M127.6,43.1c-2.4,0-4.3-2.4-4.3-5.5c0-3.1,1.9-5.5,4.3-5.5c2.4,0,4.3,2.4,4.3,5.5
				C131.9,40.7,130,43.1,127.6,43.1z M127.6,33c-1.9,0-3.3,2-3.3,4.6c0,2.6,1.5,4.6,3.3,4.6c1.9,0,3.3-2,3.3-4.6
				C130.9,35,129.5,33,127.6,33z"/>
		</g>
	</g>
	<g id="XMLID_452_">
		<defs>
			<polygon id="XMLID_453_" points="275.6,271 0,271 1.6,68.7 277.2,68.7 			"/>
		</defs>
		<clipPath id="XMLID_551_">
			<use xlink:href="#XMLID_453_"  style="overflow:visible;"/>
		</clipPath>
		<g id="XMLID_454_" class="st17">
			<path id="XMLID_475_" class="st2" d="M144.5,30.2c3,0,5.5-2.4,5.5-5.5s-2.4-5.5-5.5-5.5c-3,0-5.5,2.4-5.5,5.5
				S141.5,30.2,144.5,30.2z"/>
			<path id="XMLID_474_" class="st2" d="M132.9,35c2.1-2.1,2.1-5.6,0-7.7c-2.1-2.1-5.6-2.1-7.7,0c-2.1,2.1-2.1,5.6,0,7.7
				C127.3,37.1,130.8,37.1,132.9,35z"/>
			<path id="XMLID_473_" class="st2" d="M163.8,35c2.1-2.1,2.1-5.6,0-7.7c-2.1-2.1-5.6-2.1-7.7,0c-2.1,2.1-2.1,5.6,0,7.7
				C158.2,37.1,161.7,37.1,163.8,35z"/>
			<path id="XMLID_472_" class="st2" d="M133.6,221.4c3,0,5.5-2.4,5.5-5.5c0-3-2.4-5.5-5.5-5.5s-5.5,2.4-5.5,5.5
				C128.1,218.9,130.6,221.4,133.6,221.4z"/>
			<path id="XMLID_463_" class="st2" d="M272.9,153.6c1.7-1,2.7-2.8,2.7-4.7v-20.2c0,0,0-0.1,0-0.1c0-1-0.3-1.9-0.7-2.7l-15.7-31.4
				V73.9c0-3-2.4-5.5-5.5-5.5h-82.5c7.1-6.9,11.5-16.6,11.5-27.3c0-21.1-17.1-38.2-38.2-38.2S106.3,20,106.3,41.1
				c0,10.7,4.4,20.4,11.5,27.3H35.2c-3,0-5.5,2.4-5.5,5.5v20.6L14,126.1c0,0.1-0.1,0.2-0.1,0.2c0,0,0,0.1-0.1,0.1
				c0,0.1-0.1,0.2-0.1,0.4c0,0.1,0,0.1,0,0.2c0,0.1-0.1,0.3-0.1,0.4c0,0,0,0.1,0,0.1c0,0.1,0,0.3-0.1,0.4c0,0,0,0.1,0,0.1
				c0,0.2,0,0.3,0,0.5c0,0,0,0,0,0v20.4c0,1.9,1,3.8,2.7,4.7c0.9,0.5,1.8,0.9,2.7,1.2v99.3c-3,0-5.5,2.4-5.5,5.5
				c0,3,2.4,5.5,5.5,5.5h5.5h98.3h43.7h98.3h5.5c3,0,5.5-2.4,5.5-5.5c0-3-2.4-5.5-5.5-5.5v-99.3C271.1,154.5,272,154.1,272.9,153.6z
				 M253.7,134c-3,0-5.5,2.4-5.5,5.5c0,3-2.4,5.5-5.5,5.5c-3,0-5.5-2.5-5.5-5.5c0-3-2.4-5.5-5.5-5.5c-3,0-5.5,2.4-5.5,5.5
				c0,3-2.5,5.5-5.5,5.5c-3,0-5.5-2.5-5.5-5.5c0-3-2.4-5.5-5.5-5.5s-5.5,2.4-5.5,5.5c0,3-2.4,5.5-5.5,5.5c-3,0-5.5-2.5-5.5-5.5
				c0-3-2.4-5.5-5.5-5.5c-3,0-5.5,2.4-5.5,5.5c0,3-2.4,5.5-5.5,5.5c-3,0-5.5-2.5-5.5-5.5c0-3-2.4-5.5-5.5-5.5c-3,0-5.5,2.4-5.5,5.5
				c0,3-2.5,5.5-5.5,5.5c-3,0-5.5-2.5-5.5-5.5c0-3-2.4-5.5-5.5-5.5c-3,0-5.5,2.4-5.5,5.5c0,3-2.4,5.5-5.5,5.5c-3,0-5.5-2.5-5.5-5.5
				c0-3-2.4-5.5-5.5-5.5s-5.5,2.4-5.5,5.5c0,3-2.4,5.5-5.5,5.5c-3,0-5.5-2.5-5.5-5.5c0-3-2.4-5.5-5.5-5.5c-3,0-5.5,2.4-5.5,5.5
				c0,3-2.5,5.5-5.5,5.5c-3,0-5.5-2.5-5.5-5.5c0-3-2.4-5.5-5.5-5.5c-3,0-5.5,2.4-5.5,5.5c0,3-2.4,5.5-5.5,5.5c-3,0-5.5-2.5-5.5-5.5
				c0-3-2.4-5.5-5.5-5.5s-5.5,2.4-5.5,5.5c0,3-2.4,5.5-5.5,5.5c-3,0-5.5-2.5-5.5-5.5c0-3-2.4-5.5-5.5-5.5c-3,0-5.5,2.4-5.5,5.5
				c0,3-2.5,5.5-5.5,5.5V134h10.9h21.9H79h21.8h21.9h21.8h21.8h21.9h21.9h21.8H253.7h10.9v10.9c-3,0-5.5-2.5-5.5-5.5
				C259.2,136.4,256.8,134,253.7,134z M117.2,41.1c0-15.1,12.3-27.3,27.3-27.3c15.1,0,27.3,12.3,27.3,27.3
				c0,14.8-11.8,26.8-26.5,27.3c8.6-0.4,15.5-7.6,15.5-16.4c0-9-7.4-16.4-16.4-16.4c-9,0-16.4,7.3-16.4,16.4
				c0,8.8,6.9,15.9,15.5,16.4C129,68,117.2,55.9,117.2,41.1z M144.5,57.5c-3,0-5.5-2.4-5.5-5.5s2.4-5.5,5.5-5.5c3,0,5.5,2.4,5.5,5.5
				C150,55.1,147.5,57.5,144.5,57.5z M40.7,79.4h207.6v10.9H40.7V79.4z M38.6,101.2h211.7l10.9,21.8H27.7L38.6,101.2z M128.1,254.1
				v-38.2v-38.2h32.8v76.5L128.1,254.1L128.1,254.1z M171.8,254.1v-81.9c0-3-2.4-5.5-5.5-5.5h-43.7c-3,0-5.5,2.4-5.5,5.5v81.9H29.8
				v-99.3c2-0.7,3.9-1.8,5.5-3.2c2.9,2.6,6.7,4.2,10.9,4.2s8-1.6,10.9-4.2c2.9,2.6,6.7,4.2,10.9,4.2c4.2,0,8-1.6,10.9-4.2
				c2.9,2.6,6.7,4.2,10.9,4.2s8-1.6,10.9-4.2c2.9,2.6,6.7,4.2,10.9,4.2c4.2,0,8-1.6,10.9-4.2c2.9,2.6,6.7,4.2,10.9,4.2
				c4.2,0,8-1.6,10.9-4.2c2.9,2.6,6.7,4.2,10.9,4.2s8-1.6,10.9-4.2c2.9,2.6,6.7,4.2,10.9,4.2c4.2,0,8-1.6,10.9-4.2
				c2.9,2.6,6.7,4.2,10.9,4.2s8-1.6,10.9-4.2c2.9,2.6,6.7,4.2,10.9,4.2s8-1.6,10.9-4.2c2.9,2.6,6.7,4.2,10.9,4.2
				c4.2,0,8-1.6,10.9-4.2c1.6,1.4,3.4,2.5,5.5,3.2v99.3H171.8z"/>
			<path id="XMLID_459_" class="st2" d="M73.5,166.7c-15.1,0-27.3,12.3-27.3,27.3v43.7c0,3,2.4,5.5,5.5,5.5h43.7
				c3,0,5.5-2.4,5.5-5.5v-43.7C100.8,179,88.5,166.7,73.5,166.7z M73.5,177.7c7.1,0,13.2,4.6,15.4,10.9H58
				C60.3,182.2,66.4,177.7,73.5,177.7z M57.1,232.3v-32.8h32.8v32.8H57.1z"/>
			<path id="XMLID_455_" class="st2" d="M215.5,166.7c-15.1,0-27.3,12.3-27.3,27.3v43.7c0,3,2.4,5.5,5.5,5.5h43.7
				c3,0,5.5-2.4,5.5-5.5v-43.7C242.8,179,230.6,166.7,215.5,166.7z M215.5,177.7c7.1,0,13.2,4.6,15.5,10.9h-30.9
				C202.3,182.2,208.4,177.7,215.5,177.7z M199.1,232.3v-32.8h32.8v32.8H199.1z"/>
		</g>
	</g>
	<g id="XMLID_445_">
		<g id="XMLID_214_">
			<path id="XMLID_448_" class="st2" d="M170.9,36.6c-0.3,15.4-12.6,28.2-28.2,28.2c-15.4,0-28.2-12.8-28.2-28.2
				s12.8-28.2,28.2-28.2C158.4,8.4,170.6,21.2,170.9,36.6c0.1,5.1,8.1,5.2,8,0c-0.3-15.2-9.5-28.7-23.8-34
				c-14.3-5.3-31-0.6-40.5,11.3c-9.4,11.7-10.6,28.4-2.8,41.3c7.7,12.8,22.8,19.5,37.5,16.9c17.2-3.1,29.2-18.4,29.6-35.6
				C179,31.4,171,31.4,170.9,36.6z"/>
		</g>
	</g>
</g>
<g id="Layer_5">
</g>
</svg>
